<svg width="51" height="47" viewBox="0 0 51 47" fill="none" xmlns="http://www.w3.org/2000/svg">
<path d="M51 45.202V47H0V45.202C0 44.2402 0.790383 43.4458 1.74715 43.4458H3.24471C3.24471 43.404 3.24471 43.3203 3.24471 43.2785V41.6477C3.24471 40.6859 4.03508 39.8915 4.99185 39.8915H6.4894V26.5107H5.36623C4.24307 26.5107 3.32791 25.5907 3.32791 24.4617C3.32791 23.3327 4.24307 22.4128 5.36623 22.4128H45.717C46.8401 22.4128 47.7553 23.3327 47.7553 24.4617C47.7553 25.5907 46.8401 26.5107 45.717 26.5107H44.6354V39.8915H45.9666C46.9233 39.8915 47.7137 40.6859 47.7137 41.6477V43.2785C47.7137 43.3203 47.7137 43.404 47.7137 43.4458H49.2113C50.2096 43.4458 51 44.2402 51 45.202ZM44.677 19.1513C44.677 8.57208 36.1493 0 25.6248 0C15.1003 0 6.5726 8.57208 6.5726 19.1513H44.677ZM10.8573 39.8915H14.9339V28.5596C14.9339 27.4306 14.0188 26.5107 12.8956 26.5107C11.7724 26.5107 10.8573 27.4306 10.8573 28.5596V39.8915ZM19.3018 28.6014V39.8915H23.3785V28.6014C23.3785 27.4724 22.4633 26.5525 21.3401 26.5525C20.217 26.5525 19.3018 27.4306 19.3018 28.6014ZM27.7463 28.6014V39.8497H31.823V28.6014C31.823 27.4724 30.9078 26.5525 29.7847 26.5525C28.6615 26.5525 27.7463 27.4724 27.7463 28.6014ZM36.1909 28.6432V39.8915H40.2675V28.6432C40.2675 27.5142 39.3524 26.5943 38.2292 26.5943C37.106 26.5943 36.1909 27.5142 36.1909 28.6432Z" fill="#257675"/>
</svg>
