<svg id="Layer_1" data-name="Layer 1" xmlns="http://www.w3.org/2000/svg" viewBox="0 0 72 72"><defs><style>.cls-1{fill:#277776;}</style></defs><path class="cls-1" d="M72,65.89v2.54H0V65.89a2.49,2.49,0,0,1,2.47-2.48H4.58V60.87a2.49,2.49,0,0,1,2.47-2.48H9.16V39.5H7.58a2.9,2.9,0,0,1,0-5.79h57a2.9,2.9,0,0,1,0,5.79H63V58.39h1.88a2.49,2.49,0,0,1,2.47,2.48v2.54h2.11A2.5,2.5,0,0,1,72,65.89ZM63.07,29.11a26.9,26.9,0,1,0-53.79,0ZM15.33,58.39h5.75v-16a2.88,2.88,0,1,0-5.75,0ZM27.25,42.45V58.39H33V42.45a2.89,2.89,0,0,0-2.87-2.89A2.85,2.85,0,0,0,27.25,42.45Zm11.92,0V58.33h5.76V42.45a2.88,2.88,0,1,0-5.76,0Zm11.92.06V58.39h5.76V42.51a2.88,2.88,0,1,0-5.76,0Z"/></svg>