<svg width="42" height="35" viewBox="0 0 42 35" fill="none" xmlns="http://www.w3.org/2000/svg">
<path d="M41.1458 1.42568V27.1219C41.1458 27.9027 40.5007 28.5477 39.7199 28.5477H22.2364V31.5348H29.2298C30.1464 31.5348 30.8933 32.2816 30.8933 33.1981C30.8933 34.1146 30.1464 34.8614 29.2298 34.8614H11.916C10.9994 34.8614 10.2525 34.1146 10.2525 33.1981C10.2525 32.2816 10.9994 31.5348 11.916 31.5348H18.9094V28.5477H1.42584C0.645018 28.5477 0 27.9027 0 27.1219V1.42568C0 0.644947 0.645018 0 1.42584 0H39.7199C40.5007 0 41.1458 0.644947 41.1458 1.42568ZM37.7849 3.32658H3.29302V25.221H37.7849V3.32658Z" fill="#B4267A"/>
</svg>
