<?xml version="1.0" encoding="utf-8"?>
<!-- Generator: Adobe Illustrator 24.0.2, SVG Export Plug-In . SVG Version: 6.00 Build 0)  -->
<svg version="1.1" id="Layer_1" xmlns="http://www.w3.org/2000/svg" xmlns:xlink="http://www.w3.org/1999/xlink" x="0px" y="0px"
	 viewBox="0 0 60.8 55" style="enable-background:new 0 0 60.8 55;" xml:space="preserve">
<g>
	<path d="M51,12.4v25.7c0,0.8-0.6,1.4-1.4,1.4H32.1v3h7c0.9,0,1.7,0.7,1.7,1.7c0,0.9-0.7,1.7-1.7,1.7H21.7c-0.9,0-1.7-0.7-1.7-1.7
		c0-0.9,0.7-1.7,1.7-1.7h7v-3H11.3c-0.8,0-1.4-0.6-1.4-1.4V12.4c0-0.8,0.6-1.4,1.4-1.4h38.3C50.3,11,51,11.6,51,12.4z M47.6,14.3
		H13.1v21.9h34.5V14.3z"/>
</g>
</svg>
