<?xml version="1.0" encoding="utf-8"?>
<!-- Generator: Adobe Illustrator 24.0.2, SVG Export Plug-In . SVG Version: 6.00 Build 0)  -->
<svg version="1.1" id="Layer_1" xmlns="http://www.w3.org/2000/svg" xmlns:xlink="http://www.w3.org/1999/xlink" x="0px" y="0px"
	 viewBox="0 0 60.83 55" style="enable-background:new 0 0 60.83 55;" xml:space="preserve">
<style type="text/css">
	.st0{fill:none;stroke:#000000;stroke-miterlimit:10;}
</style>
<path class="st0" d="M51.53,10.43v25.7c0,0.78-0.64,1.43-1.43,1.43H32.62v2.99h6.99c0.92,0,1.66,0.75,1.66,1.66
	c0,0.92-0.75,1.66-1.66,1.66H22.3c-0.92,0-1.66-0.75-1.66-1.66c0-0.92,0.75-1.66,1.66-1.66h6.99v-2.99H11.81
	c-0.78,0-1.43-0.64-1.43-1.43v-25.7c0-0.78,0.64-1.43,1.43-1.43H50.1C50.88,9,51.53,9.64,51.53,10.43z M48.17,12.33H13.67v21.89
	h34.49V12.33z"/>
</svg>
