<?xml version="1.0" encoding="utf-8"?>
<!-- Generator: Adobe Illustrator 24.0.2, SVG Export Plug-In . SVG Version: 6.00 Build 0)  -->
<svg version="1.1" id="Layer_1" xmlns="http://www.w3.org/2000/svg" xmlns:xlink="http://www.w3.org/1999/xlink" x="0px" y="0px"
	 viewBox="0 0 60.83 55" style="enable-background:new 0 0 60.83 55;" xml:space="preserve">
<style type="text/css">
	.st0{fill:none;stroke:#000000;stroke-miterlimit:10;}
</style>
<g>
	<polygon class="st0" points="39.54,17 37.54,19 43.21,24.66 54.54,13.33 52.54,11.32 43.21,20.66 	"/>
	<path class="st0" d="M46.04,2L33.29,7.66v8.5c0,0.81,0.07,1.62,0.18,2.42h-20.6c-1.46,0-2.95,1.02-3.5,2.38l-3.29,8.49
		c-2.34,0.85-4.04,3.05-4.04,5.67h0.07v8.55c0,0.78,0.65,1.43,1.43,1.43h2v4.45c0,0.78,0.65,1.42,1.43,1.42h2.92
		c0.78,0,1.43-0.64,1.43-1.42v-4.45h23.9v4.45c0,0.78,0.64,1.42,1.43,1.42h2.92c0.78,0,1.43-0.64,1.43-1.42v-4.45h2
		c0.78,0,1.43-0.64,1.43-1.43v-8.55c0-0.98-0.25-1.91-0.68-2.73c0.75,0.32,1.52,0.59,2.31,0.79c7.31-1.78,12.75-9.14,12.75-17v-8.5
		L46.04,2z M12.46,22.18c0.07-0.1,0.31-0.27,0.41-0.27h20.71c0.14,0,0.37,0.17,0.41,0.27l2.68,6.89H9.82L12.46,22.18z M8.39,38.24
		c-1.7,0-3.09-1.39-3.09-3.09s1.39-3.09,3.09-3.09c1.7,0,3.09,1.39,3.09,3.09S10.09,38.24,8.39,38.24z M38.1,38.24
		c-1.7,0-3.09-1.39-3.09-3.09s1.39-3.09,3.09-3.09c1.7,0,3.09,1.39,3.09,3.09S39.79,38.24,38.1,38.24z M55.96,16.16
		c0,6.4-4.22,12.31-9.92,14.07c-3.35-1.03-6.19-3.51-7.96-6.68l-1.01-2.59c-0.09-0.22-0.21-0.43-0.34-0.63
		c-0.39-1.34-0.61-2.74-0.61-4.17V9.51l9.92-4.41l9.92,4.41V16.16z"/>
</g>
</svg>
