<svg width="61" height="51" viewBox="0 0 61 51" fill="none" xmlns="http://www.w3.org/2000/svg">
<path d="M0 34.5311C0 31.9174 1.69744 29.711 4.0399 28.8623L7.33293 20.3761C7.8761 19.0183 9.36984 18 10.8296 18H31.5383C32.9981 18 34.4919 19.0183 35.0351 20.3761L38.3281 28.8623C40.6705 29.711 42.368 31.9513 42.368 34.5311V43.0852C42.368 43.866 41.723 44.5109 40.9421 44.5109H38.9391V48.9577C38.9391 49.7384 38.2941 50.3834 37.5133 50.3834H34.5937C33.8129 50.3834 33.1679 49.7384 33.1679 48.9577V44.5109H9.26802V48.9577C9.26802 49.7384 8.62301 50.3834 7.84219 50.3834H4.9226C4.14178 50.3834 3.49676 49.7384 3.49676 48.9577V44.5109H1.49375C0.71293 44.5109 0.0679118 43.866 0.0679118 43.0852V34.5311H0ZM9.43778 34.5651C9.43778 32.8678 8.04587 31.4761 6.34844 31.4761C4.651 31.4761 3.2591 32.8678 3.2591 34.5651C3.2591 36.2623 4.651 37.6541 6.34844 37.6541C8.04587 37.6541 9.43778 36.2623 9.43778 34.5651ZM7.77427 28.4889H34.6277L31.9457 21.5981C31.9118 21.4963 31.6741 21.3266 31.5383 21.3266H10.8296C10.7278 21.3266 10.4902 21.4963 10.4223 21.5981L7.77427 28.4889ZM39.1429 34.5651C39.1429 32.8678 37.751 31.4761 36.0535 31.4761C34.3561 31.4761 32.9642 32.8678 32.9642 34.5651C32.9642 36.2623 34.3561 37.6541 36.0535 37.6541C37.751 37.6541 39.1429 36.2623 39.1429 34.5651Z" fill="#B4267A"/>
<path fill-rule="evenodd" clip-rule="evenodd" d="M44 1.41699L31.25 7.08366V15.5837C31.25 23.4462 36.69 30.7987 44 32.5837C51.31 30.7987 56.75 23.4462 56.75 15.5837V7.08366L44 1.41699ZM53.9167 15.5837C53.9167 21.987 49.695 27.8945 44 29.6512C38.305 27.8945 34.0833 21.987 34.0833 15.5837V8.92533L44 4.51949L53.9167 8.92533V15.5837ZM35.5 18.417L37.4975 16.4195L41.1667 20.0745L50.5025 10.7387L52.5 12.7503L41.1667 24.0837L35.5 18.417Z" fill="#B4267A"/>
</svg>
