<svg id="Layer_1" data-name="Layer 1" xmlns="http://www.w3.org/2000/svg" viewBox="0 0 72 72"><defs><style>.cls-1,.cls-2{fill:#b3287a;}.cls-2{fill-rule:evenodd;}</style></defs><path class="cls-1" d="M.15,47.33a7.68,7.68,0,0,1,5.11-7.17L9.43,29.43a5,5,0,0,1,4.42-3h26.2a5,5,0,0,1,4.42,3l4.17,10.73a7.72,7.72,0,0,1,5.11,7.17V58.16A1.82,1.82,0,0,1,51.94,60H49.41v5.62a1.82,1.82,0,0,1-1.81,1.81H43.91a1.81,1.81,0,0,1-1.8-1.81V60H11.87v5.62a1.81,1.81,0,0,1-1.8,1.81H6.38a1.82,1.82,0,0,1-1.81-1.81V60H2a1.81,1.81,0,0,1-1.8-1.8V47.33Zm11.94.05a3.91,3.91,0,1,0-3.91,3.9A3.92,3.92,0,0,0,12.09,47.38ZM10,39.69H44L40.56,31a.73.73,0,0,0-.51-.34H13.85a1,1,0,0,0-.52.34Zm39.69,7.69a3.91,3.91,0,1,0-3.91,3.9A3.92,3.92,0,0,0,49.67,47.38Z"/><path class="cls-2" d="M55.81,5.44,39.68,12.61V23.37c0,9.94,6.88,19.24,16.13,21.5,9.25-2.26,16.13-11.56,16.13-21.5V12.61ZM68.36,23.37c0,8.1-5.35,15.57-12.55,17.79-7.2-2.22-12.54-9.69-12.54-17.79V14.94L55.81,9.37l12.55,5.57ZM45.06,27l2.52-2.53,4.65,4.63L64,17.24l2.52,2.54L52.23,34.12Z"/></svg>