<?xml version="1.0" encoding="utf-8"?>
<!-- Generator: Adobe Illustrator 24.0.2, SVG Export Plug-In . SVG Version: 6.00 Build 0)  -->
<svg version="1.1" id="Layer_1" xmlns="http://www.w3.org/2000/svg" xmlns:xlink="http://www.w3.org/1999/xlink" x="0px" y="0px"
	 viewBox="0 0 65.6 57.1" style="enable-background:new 0 0 65.6 57.1;" xml:space="preserve">
<style type="text/css">
	.st0{fill:#FFFFFF;}
</style>
<g>
	<path d="M48.4,4.1l12.8,5.7v8.5c0,7.9-5.4,15.2-12.8,17c-0.8-0.2-1.6-0.5-2.3-0.8c0.4,0.8,0.7,1.8,0.7,2.7v8.6
		c0,0.8-0.6,1.4-1.4,1.4h-2v4.4c0,0.8-0.6,1.4-1.4,1.4H39c-0.8,0-1.4-0.6-1.4-1.4v-4.4H13.7v4.4c0,0.8-0.6,1.4-1.4,1.4H9.3
		c-0.8,0-1.4-0.6-1.4-1.4v-4.4h-2c-0.8,0-1.4-0.6-1.4-1.4v-8.6H4.4c0-2.6,1.7-4.8,4-5.7l3.3-8.5c0.5-1.4,2-2.4,3.5-2.4h20.6
		c-0.1-0.8-0.2-1.6-0.2-2.4V9.8L48.4,4.1 M48.4,32.3c5.7-1.8,9.9-7.7,9.9-14.1v-6.7l-9.9-4.4l-9.9,4.4v6.7c0,1.4,0.2,2.8,0.6,4.2
		c0.1,0.2,0.3,0.4,0.3,0.6l1,2.6C42.2,28.8,45.1,31.3,48.4,32.3 M12.2,31.2H39l-2.7-6.9c0-0.1-0.3-0.3-0.4-0.3H15.2
		c-0.1,0-0.3,0.2-0.4,0.3L12.2,31.2 M40.5,40.3c1.7,0,3.1-1.4,3.1-3.1c0-1.7-1.4-3.1-3.1-3.1c-1.7,0-3.1,1.4-3.1,3.1
		C37.4,38.9,38.8,40.3,40.5,40.3 M10.8,40.3c1.7,0,3.1-1.4,3.1-3.1c0-1.7-1.4-3.1-3.1-3.1c-1.7,0-3.1,1.4-3.1,3.1
		C7.7,38.9,9.1,40.3,10.8,40.3 M48.4,0.8l-1.2,0.5L34.4,7l-1.8,0.8v1.9v7.9H15.2c-2.7,0-5.3,1.8-6.3,4.3l-2.9,7.4
		c-2.8,1.6-4.7,4.6-4.7,7.9v3h0.1v5.6c0,2.1,1.5,3.9,3.4,4.3v1.6c0,2.4,2,4.4,4.4,4.4h2.9c2.4,0,4.4-2,4.4-4.4v-1.4h17.9v1.4
		c0,2.4,2,4.4,4.4,4.4h2.9c2.4,0,4.4-2,4.4-4.4v-1.6c2-0.5,3.4-2.2,3.4-4.3V38c8.2-2.4,14.4-10.7,14.4-19.7V9.8V7.8L62.4,7L49.6,1.3
		L48.4,0.8L48.4,0.8z M41.5,13.5l6.9-3.1l6.9,3.1v4.7c0,4.7-2.9,9.2-6.9,10.9c-2.1-0.9-4-2.6-5.2-4.8L42.2,22
		c-0.1-0.3-0.2-0.5-0.4-0.7c-0.3-1-0.4-2-0.4-3V13.5L41.5,13.5z M17,27h17.2l0.5,1.2H16.6L17,27L17,27z M40.5,37.3
		C40.4,37.3,40.4,37.3,40.5,37.3c-0.1-0.1,0-0.2,0-0.2C40.5,37.2,40.6,37.2,40.5,37.3C40.6,37.3,40.5,37.3,40.5,37.3L40.5,37.3z
		 M10.8,37.3C10.7,37.3,10.7,37.3,10.8,37.3c-0.1-0.1,0-0.2,0-0.2C10.8,37.2,10.9,37.2,10.8,37.3C10.9,37.3,10.8,37.3,10.8,37.3
		L10.8,37.3z"/>
</g>
<g>
	<polygon class="st0" points="37.8,21.1 41.9,17 45.6,20.6 54.9,11.3 59,15.4 45.6,28.9 	"/>
	<path d="M54.9,13.4l2,2L45.6,26.8l-5.7-5.7l2-2l3.7,3.7L54.9,13.4 M54.9,9.2l-2.1,2.1l-7.2,7.2L44,17l-2.1-2.1L39.8,17l-2,2
		l-2.1,2.1l2.1,2.1l5.7,5.7l2.1,2.1l2.1-2.1L59,17.5l2.1-2.1L59,13.3l-2-2L54.9,9.2L54.9,9.2z"/>
</g>
</svg>
