<?xml version="1.0" encoding="utf-8"?>
<!-- Generator: Adobe Illustrator 24.0.2, SVG Export Plug-In . SVG Version: 6.00 Build 0)  -->
<svg version="1.1" id="Layer_1" xmlns="http://www.w3.org/2000/svg" xmlns:xlink="http://www.w3.org/1999/xlink" x="0px" y="0px"
	 viewBox="0 0 60.8 55" style="enable-background:new 0 0 60.8 55;" xml:space="preserve">
<g>
	<path d="M49.5,10.9c2.5,1.3,4.3,3.9,4.3,7c0,2.9-1.6,5.4-3.9,6.7v15.8c0,2.1-1.7,3.8-3.8,3.8c-2.1,0-3.8-1.7-3.8-3.8V24.5
		c-0.1,0-0.1-0.1-0.2-0.1c-2.2-1.4-3.7-3.8-3.7-6.6v0c0-3.1,1.8-5.7,4.4-7v5.8c0,0.7,0.6,1.3,1.3,1.3h4.2c0.7,0,1.3-0.6,1.3-1.3
		V10.9 M35.1,17.8c0,1.6,0.4,3.2,1.1,4.7H7v-1.4c0-1.8,1.5-3.3,3.3-3.3H35.1 M38.5,25.9c0.1,0.1,0.3,0.3,0.4,0.4v13.9
		c-0.1,0-0.1,0-0.2,0H10.3c-1.8,0-3.3-1.5-3.3-3.3V25.9h0H38.5 M12.3,35.4h11.5v-3.3H12.3V35.4 M46.5,6v4.9v4h-0.7v-4V6.1l-4.3,2.1
		c-2.8,1.3-4.8,3.8-5.6,6.7h-0.8H10.3c-3.5,0-6.3,2.8-6.3,6.3v1.4v0.3l0,3v10.9c0,3.5,2.8,6.3,6.3,6.3h28.5H39h0.9
		c1.1,2.4,3.4,4,6.2,4c3.8,0,6.8-3.1,6.8-6.8V26.1c2.4-2,3.9-5,3.9-8.3c0-4-2.3-7.8-6-9.6L46.5,6L46.5,6z"/>
</g>
</svg>
