<?xml version="1.0" encoding="utf-8"?>
<!-- Generator: Adobe Illustrator 24.0.2, SVG Export Plug-In . SVG Version: 6.00 Build 0)  -->
<svg version="1.1" id="Layer_1" xmlns="http://www.w3.org/2000/svg" xmlns:xlink="http://www.w3.org/1999/xlink" x="0px" y="0px"
	 viewBox="0 0 60.83 55" style="enable-background:new 0 0 60.83 55;" xml:space="preserve">
<style type="text/css">
	.st0{fill:none;stroke:#000000;stroke-miterlimit:10;}
</style>
<path class="st0" d="M36.56,21.38H7.4v-1.36c0-1.83,1.49-3.33,3.33-3.33h24.78C35.51,18.33,35.88,19.92,36.56,21.38z M7.4,24.71
	h31.57c0.14,0.14,0.27,0.27,0.44,0.37v13.88c-0.07,0-0.14,0-0.24,0H10.69c-1.83,0-3.33-1.49-3.33-3.33V24.71H7.4z M12.7,34.28h11.47
	v-3.33H12.7V34.28z M54.28,16.66c0,2.88-1.56,5.4-3.9,6.72V39.2c0,2.1-1.7,3.8-3.8,3.8s-3.8-1.7-3.8-3.8V23.39
	c-0.07-0.03-0.14-0.1-0.24-0.14c-2.21-1.36-3.67-3.77-3.67-6.55v-0.03c0-3.05,1.8-5.7,4.38-6.96v5.77c0,0.68,0.58,1.26,1.26,1.26
	h4.21c0.68,0,1.26-0.58,1.26-1.26V9.71C52.49,10.96,54.28,13.61,54.28,16.66z"/>
</svg>
