<svg id="Layer_1" data-name="Layer 1" xmlns="http://www.w3.org/2000/svg" viewBox="0 0 72 72"><defs><style>.cls-1{fill:#b3287a;}</style></defs><path class="cls-1" d="M44.76,28.9H.25V26.82a5.09,5.09,0,0,1,5.08-5.07H43.15A16.94,16.94,0,0,0,44.76,28.9ZM.25,34H48.44a3.32,3.32,0,0,0,.67.57V55.73H5.28A5.09,5.09,0,0,1,.2,50.66V34ZM8.34,48.58H25.85V43.51H8.34ZM71.81,21.7a11.74,11.74,0,0,1-6,10.25V56.09a5.81,5.81,0,1,1-11.61,0V32a2.32,2.32,0,0,0-.36-.2,11.69,11.69,0,0,1-5.6-10V21.7A11.83,11.83,0,0,1,55,11.08v8.8a1.94,1.94,0,0,0,1.91,1.92h6.43a2,2,0,0,0,1.92-1.92v-8.8A11.93,11.93,0,0,1,71.81,21.7Z"/></svg>