<svg width="47" height="34" viewBox="0 0 47 34" fill="none" xmlns="http://www.w3.org/2000/svg">
<path d="M29.1959 11.677H0.0339818V10.3192C0.0339818 8.48621 1.52771 6.99264 3.36093 6.99264H28.1435C28.1435 8.62199 28.5169 10.2174 29.1959 11.677ZM0.0339818 15.0036H31.6062C31.742 15.1394 31.8778 15.2752 32.0475 15.377V29.2605C31.9796 29.2605 31.9118 29.2605 31.8099 29.2605H3.327C1.49378 29.2605 0 27.7669 0 25.9339V15.0036H0.0339818ZM5.32996 24.5761H16.8046V21.2495H5.32996V24.5761ZM46.9171 6.9587C46.9171 9.84401 45.3554 12.3559 43.0129 13.6798V29.4981C43.0129 31.6027 41.3155 33.2999 39.2107 33.2999C37.1059 33.2999 35.4085 31.6027 35.4085 29.4981V13.6798C35.3406 13.6458 35.2726 13.5779 35.1708 13.544C32.9641 12.1862 31.5043 9.77611 31.5043 6.99264V6.9587C31.5043 3.90366 33.3036 1.25596 35.8837 0V5.77063C35.8837 6.44953 36.4609 7.02659 37.1398 7.02659H41.3495C42.0285 7.02659 42.6056 6.44953 42.6056 5.77063V0C45.1178 1.25596 46.9171 3.90366 46.9171 6.9587Z" fill="#B4267A"/>
</svg>
