<svg width="43" height="33" viewBox="0 0 43 33" fill="none" xmlns="http://www.w3.org/2000/svg">
<path d="M0 16.5311C0 13.9174 1.69744 11.711 4.0399 10.8623L7.33293 2.37613C7.8761 1.01834 9.36984 0 10.8296 0H31.5383C32.9981 0 34.4919 1.01834 35.0351 2.37613L38.3281 10.8623C40.6705 11.711 42.368 13.9513 42.368 16.5311V25.0852C42.368 25.866 41.723 26.5109 40.9421 26.5109H38.9391V30.9577C38.9391 31.7384 38.2941 32.3834 37.5133 32.3834H34.5937C33.8129 32.3834 33.1679 31.7384 33.1679 30.9577V26.5109H9.26802V30.9577C9.26802 31.7384 8.62301 32.3834 7.84219 32.3834H4.9226C4.14178 32.3834 3.49676 31.7384 3.49676 30.9577V26.5109H1.49375C0.71293 26.5109 0.0679118 25.866 0.0679118 25.0852V16.5311H0ZM9.43778 16.5651C9.43778 14.8678 8.04587 13.4761 6.34844 13.4761C4.651 13.4761 3.2591 14.8678 3.2591 16.5651C3.2591 18.2623 4.651 19.6541 6.34844 19.6541C8.04587 19.6541 9.43778 18.2623 9.43778 16.5651ZM7.77427 10.4889H34.6277L31.9457 3.59815C31.9118 3.49631 31.6741 3.32658 31.5383 3.32658H10.8296C10.7278 3.32658 10.4902 3.49631 10.4223 3.59815L7.77427 10.4889ZM39.1429 16.5651C39.1429 14.8678 37.751 13.4761 36.0535 13.4761C34.3561 13.4761 32.9642 14.8678 32.9642 16.5651C32.9642 18.2623 34.3561 19.6541 36.0535 19.6541C37.751 19.6541 39.1429 18.2623 39.1429 16.5651Z" fill="#B4267A"/>
</svg>
