<?xml version="1.0" encoding="utf-8"?>
<!-- Generator: Adobe Illustrator 24.0.2, SVG Export Plug-In . SVG Version: 6.00 Build 0)  -->
<svg version="1.1" id="Layer_1" xmlns="http://www.w3.org/2000/svg" xmlns:xlink="http://www.w3.org/1999/xlink" x="0px" y="0px"
	 viewBox="0 0 60.83 55" style="enable-background:new 0 0 60.83 55;" xml:space="preserve">
<style type="text/css">
	.st0{fill:none;stroke:#000000;stroke-miterlimit:10;}
</style>
<path class="st0" d="M9.23,27.05c0-2.61,1.7-4.82,4.04-5.67l3.29-8.49c0.54-1.36,2.04-2.38,3.5-2.38h20.71
	c1.46,0,2.95,1.02,3.5,2.38l3.29,8.49c2.34,0.85,4.04,3.09,4.04,5.67v8.55c0,0.78-0.64,1.43-1.43,1.43h-2v4.45
	c0,0.78-0.65,1.43-1.43,1.43h-2.92c-0.78,0-1.43-0.65-1.43-1.43v-4.45H18.5v4.45c0,0.78-0.65,1.43-1.43,1.43h-2.92
	c-0.78,0-1.43-0.65-1.43-1.43v-4.45h-2c-0.78,0-1.43-0.64-1.43-1.43v-8.55H9.23z M18.67,27.08c0-1.7-1.39-3.09-3.09-3.09
	c-1.7,0-3.09,1.39-3.09,3.09c0,1.7,1.39,3.09,3.09,3.09C17.28,30.17,18.67,28.78,18.67,27.08z M17.01,21.01h26.85l-2.68-6.89
	c-0.03-0.1-0.27-0.27-0.41-0.27H20.06c-0.1,0-0.34,0.17-0.41,0.27L17.01,21.01z M48.38,27.08c0-1.7-1.39-3.09-3.09-3.09
	c-1.7,0-3.09,1.39-3.09,3.09c0,1.7,1.39,3.09,3.09,3.09C46.98,30.17,48.38,28.78,48.38,27.08z"/>
</svg>
