<?xml version="1.0" encoding="utf-8"?>
<!-- Generator: Adobe Illustrator 24.0.2, SVG Export Plug-In . SVG Version: 6.00 Build 0)  -->
<svg version="1.1" id="Layer_1" xmlns="http://www.w3.org/2000/svg" xmlns:xlink="http://www.w3.org/1999/xlink" x="0px" y="0px"
	 viewBox="0 0 60.8 55" style="enable-background:new 0 0 60.8 55;" xml:space="preserve">
<g>
	<path d="M40.8,11.3c1.5,0,3,1,3.5,2.4l3.3,8.5c2.3,0.8,4,3.1,4,5.7v8.6c0,0.8-0.6,1.4-1.4,1.4h-2v4.4c0,0.8-0.6,1.4-1.4,1.4h-2.9
		c-0.8,0-1.4-0.6-1.4-1.4v-4.4H18.5v4.4c0,0.8-0.6,1.4-1.4,1.4h-2.9c-0.8,0-1.4-0.6-1.4-1.4v-4.4h-2c-0.8,0-1.4-0.6-1.4-1.4v-8.6
		H9.2c0-2.6,1.7-4.8,4-5.7l3.3-8.5c0.5-1.4,2-2.4,3.5-2.4H40.8 M17,21.8h26.9l-2.7-6.9c0-0.1-0.3-0.3-0.4-0.3H20
		c-0.1,0-0.3,0.2-0.4,0.3L17,21.8 M45.3,31c1.7,0,3.1-1.4,3.1-3.1c0-1.7-1.4-3.1-3.1-3.1c-1.7,0-3.1,1.4-3.1,3.1
		C42.2,29.6,43.6,31,45.3,31 M15.6,31c1.7,0,3.1-1.4,3.1-3.1c0-1.7-1.4-3.1-3.1-3.1c-1.7,0-3.1,1.4-3.1,3.1
		C12.5,29.6,13.9,31,15.6,31 M40.8,8.3H20c-2.7,0-5.3,1.8-6.3,4.3L10.9,20c-2.8,1.6-4.7,4.6-4.7,7.9v3h0.1v5.6
		c0,2.1,1.5,3.9,3.4,4.3v1.6c0,2.4,2,4.4,4.4,4.4h2.9c2.4,0,4.4-2,4.4-4.4v-1.4h17.9v1.4c0,2.4,2,4.4,4.4,4.4h2.9
		c2.4,0,4.4-2,4.4-4.4v-1.6c2-0.5,3.4-2.2,3.4-4.3v-8.6c0-3.3-1.8-6.3-4.7-7.9L47,12.6C46,10.1,43.4,8.3,40.8,8.3L40.8,8.3z
		 M21.8,17.6H39l0.5,1.2H21.4L21.8,17.6L21.8,17.6z M45.3,28C45.2,28,45.2,27.9,45.3,28c-0.1-0.1,0-0.2,0-0.2
		C45.3,27.8,45.4,27.8,45.3,28C45.4,27.9,45.3,28,45.3,28L45.3,28z M15.6,28C15.5,28,15.5,27.9,15.6,28c-0.1-0.1,0-0.2,0-0.2
		C15.6,27.8,15.7,27.8,15.6,28C15.7,27.9,15.6,28,15.6,28L15.6,28z"/>
</g>
</svg>
