<svg id="Layer_1" data-name="Layer 1" xmlns="http://www.w3.org/2000/svg" viewBox="0 0 72 72"><defs><style>.cls-1{fill:#b3287a;}</style></defs><path class="cls-1" d="M0,37A10.29,10.29,0,0,1,6.85,27.4L12.44,13a6.7,6.7,0,0,1,5.93-4H53.51a6.69,6.69,0,0,1,5.93,4L65,27.4A10.34,10.34,0,0,1,71.88,37V51.53A2.43,2.43,0,0,1,69.46,54H66.07V61.5a2.44,2.44,0,0,1-2.42,2.42h-5a2.44,2.44,0,0,1-2.42-2.42V54H15.72V61.5a2.43,2.43,0,0,1-2.41,2.42h-5A2.44,2.44,0,0,1,5.93,61.5V54H2.53A2.43,2.43,0,0,1,.12,51.53V37Zm16,.06a5.24,5.24,0,1,0-5.24,5.24A5.26,5.26,0,0,0,16,37.08ZM13.19,26.77H58.75L54.2,15.08a1,1,0,0,0-.69-.46H18.37a1.32,1.32,0,0,0-.69.46ZM66.41,37.08a5.24,5.24,0,1,0-5.24,5.24A5.26,5.26,0,0,0,66.41,37.08Z"/></svg>