<?xml version="1.0" encoding="utf-8"?>
<!-- Generator: Adobe Illustrator 24.0.2, SVG Export Plug-In . SVG Version: 6.00 Build 0)  -->
<svg version="1.1" id="Layer_1" xmlns="http://www.w3.org/2000/svg" xmlns:xlink="http://www.w3.org/1999/xlink" x="0px" y="0px"
	 viewBox="0 0 60.8 55" style="enable-background:new 0 0 60.8 55;" xml:space="preserve">
<style type="text/css">
	.st0{fill:none;stroke:#000000;stroke-miterlimit:10;}
</style>
<path class="st0" d="M41.1,18.4v31c0,0.8-0.6,1.4-1.4,1.4H22.5c-0.8,0-1.4-0.6-1.4-1.4v-5.6h5.8c0.9,0,1.7-0.7,1.7-1.7
	c0-0.9-0.7-1.7-1.7-1.7h-5.8v-5.1h5.8c0.9,0,1.7-0.7,1.7-1.7c0-0.9-0.7-1.7-1.7-1.7h-5.8v-5.1h5.8c0.9,0,1.7-0.7,1.7-1.7
	c0-0.9-0.7-1.7-1.7-1.7h-5.8v-5.2c0-0.8,0.6-1.4,1.4-1.4h17.1C40.5,16.9,41.1,17.6,41.1,18.4z M38.8,14.1H23.4
	c0-3.7,2.6-6.8,6.1-7.5V4.7c0-0.9,0.7-1.7,1.7-1.7c0.9,0,1.7,0.7,1.7,1.7v1.9C36.3,7.3,38.8,10.4,38.8,14.1z"/>
</svg>
