<?xml version="1.0" encoding="utf-8"?>
<!-- Generator: Adobe Illustrator 24.0.2, SVG Export Plug-In . SVG Version: 6.00 Build 0)  -->
<svg version="1.1" id="Layer_1" xmlns="http://www.w3.org/2000/svg" xmlns:xlink="http://www.w3.org/1999/xlink" x="0px" y="0px"
	 viewBox="0 0 65.6 57.1" style="enable-background:new 0 0 65.6 57.1;" xml:space="preserve">
<g>
	<path d="M32.2,4.7c0.9,0,1.7,0.7,1.7,1.7v1.9c3.5,0.7,6,3.8,6,7.5H24.5c0-3.7,2.6-6.8,6.1-7.5V6.4C30.6,5.5,31.3,4.7,32.2,4.7
		 M40.8,18.6c0.8,0,1.4,0.6,1.4,1.4v31c0,0.8-0.6,1.4-1.4,1.4H23.6c-0.8,0-1.4-0.6-1.4-1.4v-5.6H28c0.9,0,1.7-0.7,1.7-1.7
		c0-0.9-0.7-1.7-1.7-1.7h-5.8V37H28c0.9,0,1.7-0.7,1.7-1.7c0-0.9-0.7-1.7-1.7-1.7h-5.8v-5.1H28c0.9,0,1.7-0.7,1.7-1.7
		c0-0.9-0.7-1.7-1.7-1.7h-5.8V20c0-0.8,0.6-1.4,1.4-1.4H40.8 M32.2,1.7c-2.5,0-4.5,2-4.7,4.4c-3.6,1.8-6.1,5.5-6.1,9.7v0.4
		c-1.4,0.8-2.3,2.2-2.3,3.9v5.2v3v0.3v5.1v3V37v5.1v3v0.3V51c0,2.4,2,4.4,4.4,4.4h17.1c2.4,0,4.4-2,4.4-4.4V20
		c0-1.7-0.9-3.1-2.3-3.9v-0.4c0-4.2-2.4-7.9-6-9.7C36.7,3.7,34.7,1.7,32.2,1.7L32.2,1.7z"/>
</g>
</svg>
