<svg width="20" height="48" viewBox="0 0 20 48" fill="none" xmlns="http://www.w3.org/2000/svg">
<path d="M19.9958 15.3092V46.3008C19.9958 47.0816 19.3507 47.7265 18.5699 47.7265H1.42584C0.645018 47.7265 0 47.0816 0 46.3008V40.6999H5.77129C6.6879 40.6999 7.43476 39.9531 7.43476 39.0366C7.43476 38.1201 6.6879 37.3734 5.77129 37.3734H0V32.2816H5.77129C6.6879 32.2816 7.43476 31.5348 7.43476 30.6183C7.43476 29.7018 6.6879 28.955 5.77129 28.955H0V23.8633H5.77129C6.6879 23.8633 7.43476 23.1165 7.43476 22.2C7.43476 21.2835 6.6879 20.5367 5.77129 20.5367H0V15.3092C0 14.5284 0.645018 13.8834 1.42584 13.8834H18.5699C19.3507 13.8834 19.9958 14.5284 19.9958 15.3092ZM17.7212 11.0661H2.27455C2.27455 7.36607 4.8886 4.27708 8.35137 3.5303V1.66332C8.35137 0.746806 9.09826 0 10.0149 0C10.9315 0 11.6783 0.746806 11.6783 1.66332V3.5303C15.1411 4.27708 17.7212 7.36607 17.7212 11.0661Z" fill="#B4267A"/>
</svg>
