<?xml version="1.0" encoding="utf-8"?>
<!-- Generator: Adobe Illustrator 24.0.2, SVG Export Plug-In . SVG Version: 6.00 Build 0)  -->
<svg version="1.1" id="Layer_1" xmlns="http://www.w3.org/2000/svg" xmlns:xlink="http://www.w3.org/1999/xlink" x="0px" y="0px"
	 viewBox="0 0 65.6 57.1" style="enable-background:new 0 0 65.6 57.1;" xml:space="preserve">
<g>
	<path d="M41.3,11.9c2.4,0,4.7,1,6.3,2.8l6.7,7.5c0.5,0.6,0.4,1.4-0.3,1.9L49.4,27c-0.3,0.2-0.6,0.2-0.9,0.2c-0.5,0-0.9-0.2-1.3-0.6
		l-2.3-2.9v21.8c0,0.8-0.6,1.4-1.4,1.4H20.2c-0.8,0-1.4-0.6-1.4-1.4V23.7l-2.3,2.9c-0.3,0.4-0.8,0.6-1.3,0.6c-0.3,0-0.6-0.1-0.9-0.2
		L9.8,24c-0.7-0.4-0.8-1.2-0.2-1.8l6.8-7.5c1.6-1.8,3.9-2.8,6.3-2.8h2.8c1.1,2.5,3.6,4.3,6.6,4.3c3,0,5.5-1.8,6.6-4.3H41.3
		 M41.3,8.9h-2.8h-2l-0.8,1.8c-0.6,1.5-2.1,2.5-3.8,2.5c-1.7,0-3.1-1-3.8-2.5l-0.8-1.8h-2h-2.8c-3.2,0-6.3,1.4-8.5,3.8l-6.8,7.5
		c-0.9,1-1.3,2.2-1.1,3.5c0.2,1.2,0.9,2.3,2,2.9l4.6,2.9c0.7,0.5,1.6,0.7,2.5,0.7c0.2,0,0.4,0,0.6,0v15.4c0,2.4,2,4.4,4.4,4.4h23.4
		c2.4,0,4.4-2,4.4-4.4V30.2c0.2,0,0.4,0,0.5,0c0.8,0,1.7-0.2,2.4-0.7l0,0l0,0l4.6-2.9l0,0l0,0c1-0.7,1.7-1.8,1.8-2.9
		c0.2-1.2-0.2-2.4-1-3.3l0,0l0,0l-6.7-7.5C47.7,10.3,44.6,8.9,41.3,8.9L41.3,8.9z"/>
</g>
</svg>
