<svg width="46" height="36" viewBox="0 0 46 36" fill="none" xmlns="http://www.w3.org/2000/svg">
<path d="M44.855 12.1523L40.238 15.0715C39.559 15.4789 38.6424 15.3431 38.1332 14.7321L35.8586 11.8468V33.6394C35.8586 34.4201 35.2136 35.065 34.4328 35.065H11.0421C10.2613 35.065 9.61629 34.4201 9.61629 33.6394V11.8128L7.30781 14.6981C6.83252 15.3091 5.88193 15.4788 5.20295 15.0375L0.58593 12.1183C-0.0930441 11.7109 -0.194863 10.8963 0.348316 10.2853L7.10407 2.78345C8.69966 1.01832 10.9742 0 13.3846 0H16.2023C17.2887 2.54586 19.8009 4.31101 22.7544 4.31101C25.708 4.31101 28.2202 2.54586 29.3065 0H32.1243C34.5346 0 36.8092 1.01835 38.4048 2.81743L45.1266 10.2853C45.6359 10.8963 45.5001 11.711 44.855 12.1523Z" fill="#B4267A"/>
</svg>
