<?xml version="1.0" encoding="utf-8"?>
<!-- Generator: Adobe Illustrator 24.0.2, SVG Export Plug-In . SVG Version: 6.00 Build 0)  -->
<svg version="1.1" id="Layer_1" xmlns="http://www.w3.org/2000/svg" xmlns:xlink="http://www.w3.org/1999/xlink" x="0px" y="0px"
	 viewBox="0 0 60.8 55" style="enable-background:new 0 0 60.8 55;" xml:space="preserve">
<style type="text/css">
	.st0{fill:none;stroke:#000000;stroke-miterlimit:10;}
</style>
<path class="st0" d="M52.6,22.6l-4.6,2.9c-0.7,0.4-1.6,0.3-2.1-0.3l-2.3-2.9v21.8c0,0.8-0.6,1.4-1.4,1.4H18.7
	c-0.8,0-1.4-0.6-1.4-1.4V22.3L15,25.1c-0.5,0.6-1.4,0.8-2.1,0.3l-4.6-2.9c-0.7-0.4-0.8-1.2-0.2-1.8l6.8-7.5c1.6-1.8,3.9-2.8,6.3-2.8
	h2.8c1.1,2.5,3.6,4.3,6.6,4.3c3,0,5.5-1.8,6.6-4.3h2.8c2.4,0,4.7,1,6.3,2.8l6.7,7.5C53.3,21.3,53.2,22.2,52.6,22.6z"/>
</svg>
