<svg id="Layer_1" data-name="Layer 1" xmlns="http://www.w3.org/2000/svg" viewBox="0 0 72 72"><defs><style>.cls-1{fill:#b3287a;}</style></defs><path class="cls-1" d="M70.93,27.25l-7.3,4.62a2.63,2.63,0,0,1-3.33-.54l-3.6-4.56V61.23a2.27,2.27,0,0,1-2.25,2.25h-37a2.27,2.27,0,0,1-2.25-2.25V26.71l-3.65,4.57a2.56,2.56,0,0,1-3.33.53L.93,27.2a1.82,1.82,0,0,1-.38-2.9L11.23,12.43A13.39,13.39,0,0,1,21.17,8h4.45A11.28,11.28,0,0,0,46.34,8H50.8a13.21,13.21,0,0,1,9.93,4.46L71.36,24.3A2,2,0,0,1,70.93,27.25Z"/></svg>