<?xml version="1.0" encoding="utf-8"?>
<!-- Generator: Adobe Illustrator 24.0.2, SVG Export Plug-In . SVG Version: 6.00 Build 0)  -->
<svg version="1.1" id="Layer_1" xmlns="http://www.w3.org/2000/svg" xmlns:xlink="http://www.w3.org/1999/xlink" x="0px" y="0px"
	 viewBox="0 0 65.6 57.1" style="enable-background:new 0 0 65.6 57.1;" xml:space="preserve">
<g>
	<path d="M31.7,5.1c1.3,0,2.4,1.1,2.4,2.4c0,1.1-0.7,2-1.7,2.3v4c2.9,0.2,5.6,1.2,7.8,2.9l2.7-2.7c-0.5-0.9-0.4-2.1,0.4-2.9
		c0.5-0.5,1.1-0.7,1.7-0.7c0.6,0,1.3,0.2,1.7,0.7c1,1,1,2.5,0,3.5c-0.5,0.5-1.1,0.7-1.7,0.7c-0.4,0-0.8-0.1-1.1-0.3l-2.7,2.7
		c2.3,2.2,3.8,5.2,4,8.6h4.1c0.3-1,1.2-1.7,2.3-1.7c1.3,0,2.4,1.1,2.4,2.4c0,1.3-1.1,2.4-2.4,2.4c-1.1,0-2-0.7-2.3-1.7h-4
		c-0.1,3.1-1.2,6-3.1,8.3l2.8,2.8c0.4-0.2,0.8-0.3,1.1-0.3c0.6,0,1.2,0.2,1.7,0.7c1,1,1,2.5,0,3.5c-0.5,0.5-1.1,0.7-1.7,0.7
		s-1.3-0.2-1.7-0.7c-0.8-0.8-0.9-2-0.4-2.9l-2.8-2.8c-2.3,2.3-5.4,3.7-8.8,3.9v4c1,0.3,1.7,1.2,1.7,2.3c0,1.3-1.1,2.4-2.4,2.4
		c-1.3,0-2.4-1.1-2.4-2.4c0-1.1,0.7-2,1.7-2.3v-4c-3.5-0.2-6.7-1.7-9.1-4l-2.8,2.8c0.5,0.9,0.4,2.1-0.4,2.9
		c-0.5,0.5-1.1,0.7-1.7,0.7c-0.6,0-1.3-0.2-1.7-0.7c-1-1-1-2.5,0-3.5c0.5-0.5,1.1-0.7,1.7-0.7c0.4,0,0.8,0.1,1.1,0.3L21,36
		c-1.8-2.2-2.9-5-3-8h-4c-0.3,1-1.2,1.7-2.3,1.7c-1.3,0-2.4-1.1-2.4-2.4c0-1.3,1.1-2.4,2.4-2.4c1.1,0,2,0.7,2.3,1.7h4
		c0.2-3.2,1.5-6,3.5-8.2l-2.7-2.7c-0.4,0.2-0.8,0.3-1.1,0.3c-0.6,0-1.2-0.2-1.7-0.7c-1-1-1-2.5,0-3.5c0.5-0.5,1.1-0.7,1.7-0.7
		c0.6,0,1.3,0.2,1.7,0.7c0.8,0.8,0.9,2,0.4,2.9l2.7,2.7c2.2-2,5.1-3.3,8.3-3.4v-4c-1-0.3-1.7-1.2-1.7-2.3
		C29.2,6.2,30.3,5.1,31.7,5.1 M35.6,25.6c1.3,0,2.4-1.1,2.4-2.4c0-1.3-1.1-2.4-2.4-2.4c-1.3,0-2.4,1.1-2.4,2.4
		C33.1,24.5,34.2,25.6,35.6,25.6 M27.5,25.6c1.3,0,2.4-1.1,2.4-2.4c0-1.3-1.1-2.4-2.4-2.4c-1.3,0-2.4,1.1-2.4,2.4
		C25.1,24.5,26.2,25.6,27.5,25.6 M35.6,33.4c1.3,0,2.4-1.1,2.4-2.4c0-1.3-1.1-2.4-2.4-2.4c-1.3,0-2.4,1.1-2.4,2.4
		C33.1,32.3,34.2,33.4,35.6,33.4 M27.5,33.4c1.3,0,2.4-1.1,2.4-2.4c0-1.3-1.1-2.4-2.4-2.4c-1.3,0-2.4,1.1-2.4,2.4
		C25.1,32.3,26.2,33.4,27.5,33.4 M31.7,2.1c-3,0-5.4,2.4-5.4,5.4c0,1.5,0.6,2.8,1.5,3.8c-1.6,0.4-3.2,1-4.6,1.9
		c-0.1-1.3-0.6-2.6-1.6-3.6c-1-1-2.4-1.6-3.8-1.6c-1.5,0-2.8,0.6-3.8,1.6c-1,1-1.6,2.4-1.6,3.8c0,1.5,0.6,2.8,1.6,3.8
		c1,1,2.2,1.5,3.6,1.6c-0.9,1.4-1.5,2.9-1.9,4.5c-1-1-2.4-1.6-3.9-1.6c-3,0-5.4,2.4-5.4,5.4s2.4,5.4,5.4,5.4c1.4,0,2.8-0.6,3.8-1.5
		c0.3,1.5,0.9,3,1.6,4.3c0,0,0,0-0.1,0c-1.5,0-2.8,0.6-3.8,1.6c-1,1-1.6,2.4-1.6,3.8c0,1.5,0.6,2.8,1.6,3.8c1,1,2.4,1.6,3.8,1.6
		c1.5,0,2.8-0.6,3.8-1.6c1-1,1.5-2.2,1.6-3.5c1.6,1.1,3.4,1.9,5.3,2.3c-1,1-1.5,2.3-1.5,3.8c0,3,2.4,5.4,5.4,5.4s5.4-2.4,5.4-5.4
		c0-1.5-0.6-2.8-1.6-3.8c1.8-0.4,3.6-1.2,5.1-2.2c0.1,1.3,0.6,2.5,1.6,3.5c1,1,2.4,1.6,3.8,1.6s2.8-0.6,3.8-1.6
		c2.1-2.1,2.1-5.6,0-7.7c-1-1-2.4-1.6-3.8-1.6c0,0,0,0,0,0c0.8-1.4,1.4-3,1.7-4.6c1,0.9,2.3,1.5,3.7,1.5c3,0,5.4-2.4,5.4-5.4
		s-2.4-5.4-5.4-5.4c-1.5,0-2.9,0.6-3.9,1.6c-0.5-1.7-1.2-3.4-2.2-4.9c1.2-0.1,2.4-0.7,3.3-1.6c1-1,1.6-2.4,1.6-3.8
		c0-1.5-0.6-2.8-1.6-3.8c-1-1-2.4-1.6-3.8-1.6c-1.5,0-2.8,0.6-3.8,1.6c-1,1-1.6,2.4-1.6,3.8c-1.3-0.7-2.6-1.2-4-1.5
		c1-1,1.5-2.3,1.5-3.8C37.1,4.5,34.7,2.1,31.7,2.1L31.7,2.1z"/>
</g>
</svg>
