<svg id="Layer_1" data-name="Layer 1" xmlns="http://www.w3.org/2000/svg" viewBox="0 0 72 72"><defs><style>.cls-1{fill:#b3287a;}</style></defs><path class="cls-1" d="M45.78,67.61a2.62,2.62,0,0,1-2.61,2.6H2.6A2.62,2.62,0,0,1,0,67.61V62.9a2.62,2.62,0,0,1,2.6-2.6H43.17a2.62,2.62,0,0,1,2.61,2.6ZM30.66,53.42a3.37,3.37,0,0,1-2.17-.86L11,35a3,3,0,0,1,4.28-4.27L32.77,48.28a3,3,0,0,1,0,4.28A3.11,3.11,0,0,1,30.66,53.42ZM70.8,58.87,46.46,34.53l5.94-5.94L35,11.18,18.71,27.47l17.4,17.41,6-6L66.46,63.21a3,3,0,0,0,2.17.87,3.31,3.31,0,0,0,2.17-.87A3.1,3.1,0,0,0,70.8,58.87ZM58,26a3.33,3.33,0,0,1-2.17-.87L38.34,7.59a3,3,0,0,1,4.28-4.27L60.15,20.85a3,3,0,0,1,0,4.27A2.72,2.72,0,0,1,58,26Z"/></svg>