<svg width="40" height="38" viewBox="0 0 40 38" fill="none" xmlns="http://www.w3.org/2000/svg">
<path d="M25.0881 35.7185C25.0881 36.4993 24.443 37.1442 23.6622 37.1442H1.42584C0.645025 37.1442 0 36.4993 0 35.7185V33.1388C0 32.358 0.645025 31.7131 1.42584 31.7131H23.6622C24.443 31.7131 25.0881 32.358 25.0881 33.1388V35.7185ZM16.8046 27.9452C16.3972 27.9452 15.9559 27.7755 15.6164 27.47L6.00892 17.8635C5.36389 17.2186 5.36389 16.1663 6.00892 15.5213C6.65394 14.8764 7.70635 14.8764 8.35138 15.5213L17.9589 25.1278C18.6039 25.7727 18.6039 26.825 17.9589 27.47C17.6533 27.7755 17.212 27.9452 16.8046 27.9452ZM38.8033 30.9323L25.4615 17.592L28.7206 14.3332L19.181 4.79473L10.2525 13.7223L19.7921 23.2608L23.0851 19.9681L36.4269 33.3085C36.7664 33.6479 37.1738 33.7837 37.6151 33.7837C38.0225 33.7837 38.4639 33.614 38.8033 33.3085C39.4484 32.6296 39.4484 31.5773 38.8033 30.9323ZM31.8099 12.9076C31.4025 12.9076 30.9612 12.7378 30.6217 12.4323L21.0142 2.82592C20.3692 2.18097 20.3692 1.12867 21.0142 0.483715C21.6593 -0.161238 22.7117 -0.161238 23.3567 0.483715L32.9642 10.0901C33.6092 10.7351 33.6092 11.7874 32.9642 12.4323C32.6586 12.7718 32.2512 12.9076 31.8099 12.9076Z" fill="#B4267A"/>
</svg>
