<?xml version="1.0" encoding="utf-8"?>
<!-- Generator: Adobe Illustrator 24.0.2, SVG Export Plug-In . SVG Version: 6.00 Build 0)  -->
<svg version="1.1" id="Layer_1" xmlns="http://www.w3.org/2000/svg" xmlns:xlink="http://www.w3.org/1999/xlink" x="0px" y="0px"
	 viewBox="0 0 65.6 57.1" style="enable-background:new 0 0 65.6 57.1;" xml:space="preserve">
<g>
	<path d="M52.3,14.1c1.8,0,3.3,1.5,3.3,3.3v3.1H10.9v-3.1c0-1.8,1.5-3.3,3.3-3.3H52.3 M55.6,23.9v15.3c0,1.8-1.5,3.3-3.3,3.3H14.2
		c-1.8,0-3.3-1.5-3.3-3.3V23.9H55.6 M17.6,36h14.6v-3.3H17.6V36 M52.3,11.1H14.2c-3.5,0-6.3,2.8-6.3,6.3v3.1v3v0.3v15.3
		c0,3.5,2.8,6.3,6.3,6.3h38.1c3.5,0,6.3-2.8,6.3-6.3V23.9v-3v-0.3v-3.1C58.6,14,55.8,11.1,52.3,11.1L52.3,11.1z"/>
</g>
</svg>
