<svg id="Layer_1" data-name="Layer 1" xmlns="http://www.w3.org/2000/svg" viewBox="0 0 72 72"><defs><style>.cls-1{fill:#b3287a;}</style></defs><path class="cls-1" d="M71.83,62.24V64.6H0V62.24a2.31,2.31,0,0,1,2.29-2.31H4.56V57.56a2.31,2.31,0,0,1,2.29-2.31h3.44V25.31H4.56a2.7,2.7,0,0,1-2.62-2.15,2.65,2.65,0,0,1,1.59-3L34.84,6.43a2.9,2.9,0,0,1,2.13,0L68.28,20.14a2.76,2.76,0,0,1,1.58,3,2.68,2.68,0,0,1-2.61,2.15H61.52V55.25H65a2.32,2.32,0,0,1,2.3,2.31v2.37h2.29A2.28,2.28,0,0,1,71.83,62.24ZM15.64,55.19h9.93V30.65H15.64Zm1.85-35.33H54.37l-18.44-8ZM30.91,30.65V55.19h9.93V30.65ZM56.17,55.19V30.65H46.24V55.19Z"/></svg>