<svg width="48" height="39" viewBox="0 0 48 39" fill="none" xmlns="http://www.w3.org/2000/svg">
<path d="M48 37.419V39H0V37.419C0 36.5734 0.692476 35.8749 1.53075 35.8749H3.0615C3.0615 35.8381 3.0615 35.7646 3.0615 35.7278V34.2939C3.0615 33.4483 3.75398 32.7497 4.59225 32.7497H6.88838V12.7488H3.0615C2.22324 12.7488 1.49431 12.1605 1.31208 11.3149C1.12984 10.4692 1.56719 9.62361 2.36901 9.29271L23.2893 0.137874C23.7267 -0.0459581 24.2733 -0.0459581 24.7107 0.137874L45.631 9.29271C46.3964 9.62361 46.8337 10.4692 46.6879 11.3149C46.5057 12.1605 45.7768 12.7488 44.9385 12.7488H41.1116V32.7497H43.4077C44.246 32.7497 44.9385 33.4483 44.9385 34.2939V35.7278C44.9385 35.7646 44.9385 35.8381 44.9385 35.8749H46.4693C47.3075 35.8749 48 36.5366 48 37.419ZM10.4601 32.7129H17.0934V16.3151H10.4601V32.7129ZM11.6993 9.10888H36.3371L24.0182 3.74098L11.6993 9.10888ZM20.6651 16.3151V32.7129H27.2984V16.3151H20.6651ZM37.5399 32.7129V16.3151H30.9066V32.7129H37.5399Z" fill="#B4267A"/>
</svg>
