<?xml version="1.0" encoding="utf-8"?>
<!-- Generator: Adobe Illustrator 24.0.2, SVG Export Plug-In . SVG Version: 6.00 Build 0)  -->
<svg version="1.1" id="Layer_1" xmlns="http://www.w3.org/2000/svg" xmlns:xlink="http://www.w3.org/1999/xlink" x="0px" y="0px"
	 viewBox="0 0 60.8 55" style="enable-background:new 0 0 60.8 55;" xml:space="preserve">
<g>
	<path d="M19.1,9.9c0.9,0,1.7,0.7,1.7,1.7v5.4h12.4c0.9,0,1.7,0.7,1.7,1.7c0,0.9-0.7,1.7-1.7,1.7H20.7v2.7c0.1,0,0.3,0,0.4,0
		c2.6,0,5,0.8,7,2.1h11c1.8,0,3.3,1.5,3.3,3.3v6.2c0,0.2,0,0.4-0.1,0.6c2.5,0.4,4.5,2.2,5.2,4.6h2.8c0,0,0,0,0.1,0
		c0.8,0,1.5,0.7,1.5,1.6c0,0.9-0.7,1.7-1.7,1.7h-2.8c-0.7,2.7-3.2,4.7-6.1,4.7c-3.5,0-6.3-2.8-6.3-6.3c0-1.3,0.4-2.5,1.1-3.5h-2.9
		c-1.2,5.6-6.2,9.9-12.2,9.9c-6.9,0-12.4-5.6-12.4-12.4c0-5.6,3.6-10.3,8.7-11.8V13.2h-3c-0.9,0-1.7-0.7-1.7-1.7
		c0-0.9,0.7-1.7,1.7-1.7H19.1 M21.1,44.5c2.4,0,4.7-1,6.5-2.7c1.7-1.7,2.7-4,2.7-6.4c0-2.4-1-4.7-2.7-6.5c-1.7-1.7-4-2.7-6.5-2.7
		c-2.4,0-4.7,1-6.4,2.7c-1.7,1.7-2.7,4-2.7,6.5s1,4.7,2.7,6.4C16.4,43.5,18.7,44.5,21.1,44.5 M41.5,44.4c1.6,0,3-1.4,3-3
		c0-1.7-1.4-3-3-3c-1.7,0-3,1.4-3,3C38.5,43.1,39.9,44.4,41.5,44.4 M19.1,6.9h-4.7c-2.6,0-4.7,2.1-4.7,4.7c0,2.6,2.1,4.7,4.7,4.7
		v5.3C9.2,24,5.8,29.4,5.8,35.4c0,8.5,6.9,15.4,15.4,15.4c4.7,0,8.9-2.1,11.8-5.5c1.5,3.2,4.7,5.5,8.5,5.5c3.4,0,6.4-1.8,8.1-4.7
		h0.8c2.6,0,4.7-2.1,4.7-4.7c0-2.6-2-4.6-4.5-4.6c0,0-0.1,0-0.1,0h-0.8c-1-1.6-2.4-3-4.1-3.8v-4.7c0-3.5-2.8-6.3-6.3-6.3h-2.9
		c1-0.9,1.6-2.1,1.6-3.5c0-2.6-2.1-4.7-4.7-4.7h-9.4v-2.4C23.7,9,21.6,6.9,19.1,6.9L19.1,6.9z M21.1,41.5c-1.7,0-3.1-0.6-4.3-1.8
		C15.6,38.5,15,37,15,35.3c0-1.7,0.6-3.1,1.8-4.3c1.2-1.2,2.7-1.8,4.3-1.8c1.7,0,3.1,0.6,4.3,1.8c1.2,1.2,1.8,2.7,1.8,4.3
		c0,1.6-0.6,3.2-1.8,4.3C24.3,40.8,22.8,41.5,21.1,41.5L21.1,41.5z"/>
</g>
</svg>
