<svg id="Layer_1" data-name="Layer 1" xmlns="http://www.w3.org/2000/svg" viewBox="0 0 72 72"><defs><style>.cls-1{fill:#277776;}</style></defs><path class="cls-1" d="M72,56.66a2.77,2.77,0,0,1-2.76,2.76H64.58a10.52,10.52,0,0,1-20.66-2.76,10.41,10.41,0,0,1,1.8-5.88H40.87A20.66,20.66,0,1,1,14.39,26.85V9.69h-5a2.77,2.77,0,1,1,0-5.53h7.73a2.78,2.78,0,0,1,2.77,2.77v8.92H40.59a2.77,2.77,0,0,1,0,5.53H19.93v4.46h.73a20.71,20.71,0,0,1,11.63,3.55H50.64a5.55,5.55,0,0,1,5.53,5.53V45.25a5.91,5.91,0,0,1-.12,1A10.62,10.62,0,0,1,64.69,54h4.63A2.66,2.66,0,0,1,72,56.66ZM35.73,46.5A15.17,15.17,0,0,0,9.82,35.77,15.17,15.17,0,1,0,31.27,57.22,15.12,15.12,0,0,0,35.73,46.5ZM59.44,56.66a5,5,0,1,0-5,5A5,5,0,0,0,59.44,56.66Z"/></svg>