<svg width="44" height="38" viewBox="0 0 44 38" fill="none" xmlns="http://www.w3.org/2000/svg">
<path d="M43.2845 31.5687C43.2845 32.4852 42.5377 33.232 41.621 33.232H38.8372C38.0904 35.9136 35.6461 37.8824 32.7265 37.8824C29.2298 37.8824 26.4121 35.065 26.4121 31.5687C26.4121 30.2449 26.8194 29.0228 27.4984 28.0384H24.5788C23.3906 33.6733 18.4001 37.9164 12.4252 37.9164C5.56754 37.9164 0 32.3494 0 25.4926C0 19.9256 3.63247 15.2412 8.65687 13.6458V3.32658H5.66942C4.75281 3.32658 4.00592 2.57977 4.00592 1.66326C4.00592 0.746753 4.75281 0 5.66942 0H10.3204C11.237 0 11.9839 0.746753 11.9839 1.66326V7.02656H24.409C25.3257 7.02656 26.0725 7.77336 26.0725 8.68987C26.0725 9.60638 25.3257 10.3532 24.409 10.3532H11.9839V13.0348C12.1197 13.0348 12.2554 13.0348 12.4252 13.0348C15.0053 13.0348 17.4156 13.8156 19.4186 15.1733H30.4519C32.2851 15.1733 33.7789 16.6669 33.7789 18.4999V24.7118C33.7789 24.9155 33.7449 25.1192 33.711 25.3228C36.2232 25.6962 38.2262 27.5292 38.9051 29.9393H41.689C42.5377 29.9054 43.2845 30.6522 43.2845 31.5687ZM21.4895 25.4586C21.4895 23.0146 20.5389 20.7403 18.8075 19.0091C17.0762 17.2779 14.8016 16.3275 12.3573 16.3275C9.91301 16.3275 7.63842 17.2779 5.90703 19.0091C4.17565 20.7403 3.22511 23.0146 3.22511 25.4586C3.22511 27.9027 4.17565 30.1769 5.90703 31.9081C7.63842 33.6393 9.91301 34.5898 12.3573 34.5898C14.8016 34.5898 17.0762 33.6393 18.8075 31.9081C20.5389 30.1769 21.4895 27.8687 21.4895 25.4586ZM35.7479 31.5687C35.7479 29.9054 34.39 28.5815 32.7604 28.5815C31.097 28.5815 29.7729 29.9394 29.7729 31.5687C29.7729 33.232 31.1309 34.5558 32.7604 34.5558C34.39 34.5558 35.7479 33.1981 35.7479 31.5687Z" fill="#257675"/>
</svg>
