<?xml version="1.0" encoding="utf-8"?>
<!-- Generator: Adobe Illustrator 24.0.2, SVG Export Plug-In . SVG Version: 6.00 Build 0)  -->
<svg version="1.1" id="Layer_1" xmlns="http://www.w3.org/2000/svg" xmlns:xlink="http://www.w3.org/1999/xlink" x="0px" y="0px"
	 viewBox="0 0 60.83 55" style="enable-background:new 0 0 60.83 55;" xml:space="preserve">
<style type="text/css">
	.st0{fill:none;stroke:#000000;stroke-miterlimit:10;}
</style>
<path class="st0" d="M52.85,38.81c0,0.92-0.75,1.66-1.66,1.66H48.4c-0.75,2.68-3.19,4.65-6.11,4.65c-3.5,0-6.32-2.82-6.32-6.31
	c0-1.32,0.41-2.55,1.09-3.53h-2.92c-1.19,5.64-6.18,9.88-12.15,9.88c-6.86,0-12.43-5.57-12.43-12.42c0-5.57,3.63-10.25,8.66-11.85
	V10.57h-2.99c-0.92,0-1.66-0.75-1.66-1.66c0-0.92,0.75-1.66,1.66-1.66h4.65c0.92,0,1.66,0.75,1.66,1.66v5.36h12.43
	c0.92,0,1.66,0.75,1.66,1.66c0,0.92-0.75,1.66-1.66,1.66H21.55v2.68c0.14,0,0.27,0,0.44,0c2.58,0,4.99,0.78,6.99,2.14h11.03
	c1.83,0,3.33,1.49,3.33,3.33v6.21c0,0.2-0.03,0.41-0.07,0.61c2.51,0.37,4.51,2.21,5.19,4.62h2.78
	C52.1,37.14,52.85,37.89,52.85,38.81z M31.06,32.7c0-2.44-0.95-4.72-2.68-6.45c-1.73-1.73-4.01-2.68-6.45-2.68
	c-2.44,0-4.72,0.95-6.45,2.68s-2.68,4.01-2.68,6.45s0.95,4.72,2.68,6.45s4.01,2.68,6.45,2.68c2.45,0,4.72-0.95,6.45-2.68
	C30.11,37.42,31.06,35.11,31.06,32.7z M45.31,38.81c0-1.66-1.36-2.99-2.99-2.99c-1.66,0-2.99,1.36-2.99,2.99
	c0,1.66,1.36,2.99,2.99,2.99C43.96,41.79,45.31,40.44,45.31,38.81z"/>
</svg>
