<?xml version="1.0" encoding="utf-8"?>
<!-- Generator: Adobe Illustrator 24.0.2, SVG Export Plug-In . SVG Version: 6.00 Build 0)  -->
<svg version="1.1" id="Layer_1" xmlns="http://www.w3.org/2000/svg" xmlns:xlink="http://www.w3.org/1999/xlink" x="0px" y="0px"
	 viewBox="0 0 60.8 55" style="enable-background:new 0 0 60.8 55;" xml:space="preserve">
<style type="text/css">
	.st0{fill:none;stroke:#000000;stroke-miterlimit:10;}
</style>
<path class="st0" d="M44.9,10.1c-0.2,0-0.4,0-0.6-0.1c-4.9-1.8-9.9-2.7-15.1-2.8c-5.3,0-10.6,0.9-15.7,2.7c-0.8,0.3-1.8-0.1-2.1-1
	c-0.3-0.8,0.1-1.8,1-2.1c5.4-2,11.1-3,16.8-3c5.6,0,11,1.1,16.3,3c0.8,0.3,1.3,1.3,1,2.1C46.3,9.7,45.6,10.1,44.9,10.1z M43.6,12.9
	c0,0-1-0.4-2.1-0.7c-4-1.3-8.2-1.9-12.6-1.9c-4,0-8.1,0.6-12.1,1.8c-1.3,0.4-2.5,0.9-2.5,0.9c-0.7,0.3-1.1,1.1-0.8,1.8l14.8,35.9
	c0.3,0.7,0.8,0.7,1.1,0l14.9-35.9C44.7,14,44.3,13.2,43.6,12.9z M18,18c0-2.4,1.9-4.3,4.3-4.3c2.4,0,4.3,1.9,4.3,4.3
	c0,2.4-1.9,4.3-4.3,4.3C19.9,22.3,18,20.4,18,18z M29,38.9c-2.4,0-4.3-1.9-4.3-4.3s1.9-4.3,4.3-4.3c2.4,0,4.3,1.9,4.3,4.3
	C33.3,37,31.4,38.9,29,38.9z M34,27.1c-2.4,0-4.3-1.9-4.3-4.3c0-2.4,1.9-4.3,4.3-4.3c2.4,0,4.3,1.9,4.3,4.3
	C38.3,25.2,36.3,27.1,34,27.1z"/>
</svg>
