<svg width="36" height="48" viewBox="0 0 36 48" fill="none" xmlns="http://www.w3.org/2000/svg">
<path d="M33.608 6.24666C33.4043 6.24666 33.2346 6.21272 33.0309 6.14483C28.1762 4.34576 23.0839 3.39527 17.8898 3.36133C12.5598 3.32738 7.29782 4.24389 2.23947 6.11085C1.39075 6.41636 0.406223 6.00904 0.100685 5.12648C-0.204853 4.27786 0.202508 3.29344 1.08517 2.98793C6.51696 0.985188 12.1525 -0.0331233 17.9237 0.000821559C23.4913 0.0347664 28.957 1.05308 34.1851 2.98793C35.0338 3.29344 35.4752 4.27786 35.1697 5.12648C34.932 5.80537 34.287 6.24666 33.608 6.24666ZM32.284 8.99619C32.284 8.99619 31.3335 8.62279 30.1792 8.2494C26.1393 6.95949 21.9297 6.31457 17.6182 6.31457C13.6123 6.31457 9.53839 6.89163 5.53244 8.11364C4.24239 8.52098 3.02027 8.99619 3.02027 8.99619C2.2734 9.26775 1.93393 10.1163 2.23947 10.8292L17.075 46.7089C17.3806 47.4218 17.8558 47.4218 18.1614 46.7089L33.0309 10.8292C33.3704 10.1163 32.9969 9.30169 32.284 8.99619ZM6.68674 14.1218C6.68674 11.7457 8.58784 9.84481 10.9643 9.84481C13.3407 9.84481 15.2418 11.7457 15.2418 14.1218C15.2418 16.498 13.3407 18.3989 10.9643 18.3989C8.58784 18.3989 6.68674 16.498 6.68674 14.1218ZM17.6861 35.0658C15.3097 35.0658 13.4086 33.1649 13.4086 30.7888C13.4086 28.4126 15.3097 26.5117 17.6861 26.5117C20.0625 26.5117 21.9636 28.4126 21.9636 30.7888C21.9636 33.131 20.0625 35.0658 17.6861 35.0658ZM22.6765 23.1851C20.3001 23.1851 18.399 21.2842 18.399 18.9081C18.399 16.5319 20.3001 14.631 22.6765 14.631C25.0529 14.631 26.9541 16.5319 26.9541 18.9081C26.9541 21.2842 25.019 23.1851 22.6765 23.1851Z" fill="#B4267A"/>
</svg>
