<?xml version="1.0" encoding="utf-8"?>
<!-- Generator: Adobe Illustrator 24.0.2, SVG Export Plug-In . SVG Version: 6.00 Build 0)  -->
<svg version="1.1" id="Layer_1" xmlns="http://www.w3.org/2000/svg" xmlns:xlink="http://www.w3.org/1999/xlink" x="0px" y="0px"
	 viewBox="0 0 65.6 57.1" style="enable-background:new 0 0 65.6 57.1;" xml:space="preserve">
<g>
	<path d="M31.4,4.1c0.1,0,0.2,0,0.3,0c5.6,0,11,1.1,16.3,3c0.8,0.3,1.3,1.3,1,2.1c-0.2,0.7-0.9,1.1-1.6,1.1c-0.2,0-0.4,0-0.6-0.1
		c-4.9-1.8-9.9-2.7-15.1-2.8c-0.1,0-0.2,0-0.3,0c-5.2,0-10.4,0.9-15.4,2.8c-0.2,0.1-0.4,0.1-0.6,0.1c-0.7,0-1.3-0.4-1.6-1.1
		c-0.3-0.8,0.1-1.8,1-2.1C20.2,5.1,25.7,4.1,31.4,4.1 M31.4,10.4c4.3,0,8.5,0.6,12.6,1.9c1.2,0.4,2.1,0.7,2.1,0.7
		c0.7,0.3,1.1,1.1,0.7,1.8L31.9,50.8c-0.2,0.4-0.3,0.5-0.5,0.5c-0.2,0-0.4-0.2-0.5-0.5L16,14.9c-0.3-0.7,0-1.6,0.8-1.8
		c0,0,1.2-0.5,2.5-0.9C23.3,11,27.4,10.4,31.4,10.4 M24.7,22.5c2.4,0,4.3-1.9,4.3-4.3c0-2.4-1.9-4.3-4.3-4.3c-2.4,0-4.3,1.9-4.3,4.3
		C20.4,20.6,22.3,22.5,24.7,22.5 M36.4,27.3c2.3,0,4.3-1.9,4.3-4.3c0-2.4-1.9-4.3-4.3-4.3c-2.4,0-4.3,1.9-4.3,4.3
		C32.1,25.4,34,27.3,36.4,27.3 M31.4,39.2c2.4,0,4.3-1.9,4.3-4.3c0-2.4-1.9-4.3-4.3-4.3c-2.4,0-4.3,1.9-4.3,4.3S29.1,39.2,31.4,39.2
		 M31.4,1.1L31.4,1.1c-6,0-11.9,1.1-17.6,3.2c-1.2,0.4-2.1,1.2-2.6,2.4c-0.5,1.1-0.6,2.4-0.2,3.6c0.4,1.1,1.2,2,2.2,2.5
		c-0.4,1.1-0.4,2.3,0,3.4L28,52c0.6,1.5,1.9,2.4,3.3,2.4c1.4,0,2.7-0.9,3.3-2.4l14.9-35.9c0.5-1,0.5-2.2,0.1-3.3c0,0,0-0.1,0-0.1
		c1-0.5,1.8-1.4,2.2-2.5c0.9-2.4-0.4-5.1-2.8-6c-5.6-2.1-11.4-3.1-17.3-3.2L31.4,1.1L31.4,1.1z M24.7,19.5c-0.7,0-1.3-0.6-1.3-1.3
		c0-0.7,0.6-1.3,1.3-1.3c0.7,0,1.3,0.6,1.3,1.3C26,18.9,25.4,19.5,24.7,19.5L24.7,19.5z M36.4,24.3c-0.7,0-1.3-0.6-1.3-1.3
		c0-0.7,0.6-1.3,1.3-1.3c0.7,0,1.3,0.6,1.3,1.3C37.7,23.7,37.1,24.3,36.4,24.3L36.4,24.3z M31.4,36.2c-0.7,0-1.3-0.6-1.3-1.3
		c0-0.7,0.6-1.3,1.3-1.3c0.7,0,1.3,0.6,1.3,1.3C32.7,35.6,32.1,36.2,31.4,36.2L31.4,36.2z"/>
</g>
</svg>
