<svg id="Layer_1" data-name="Layer 1" xmlns="http://www.w3.org/2000/svg" viewBox="0 0 72 72"><defs><style>.cls-1{fill:#b3287a;}</style></defs><path class="cls-1" d="M60.36,9.52a2.44,2.44,0,0,1-.88-.16,67.37,67.37,0,0,0-46.92,0A2.54,2.54,0,0,1,10.8,4.55a72.12,72.12,0,0,1,50.43,0,2.57,2.57,0,0,1,1.5,3.26A2.54,2.54,0,0,1,60.36,9.52Zm-2,4.19s-1.45-.57-3.21-1.14a63.4,63.4,0,0,0-37.55-.21c-2,.62-3.83,1.35-3.83,1.35a2.08,2.08,0,0,0-1.19,2.79l22.6,54.67c.47,1.09,1.19,1.09,1.66,0L59.48,16.5A2.09,2.09,0,0,0,58.34,13.71Zm-39,7.81A6.52,6.52,0,1,1,25.85,28,6.5,6.5,0,0,1,19.33,21.52ZM36.09,53.43a6.52,6.52,0,1,1,6.52-6.52A6.49,6.49,0,0,1,36.09,53.43Zm7.61-18.1a6.52,6.52,0,1,1,6.52-6.52A6.5,6.5,0,0,1,43.7,35.33Z"/></svg>