<?xml version="1.0" encoding="utf-8"?>
<!-- Generator: Adobe Illustrator 24.0.2, SVG Export Plug-In . SVG Version: 6.00 Build 0)  -->
<svg version="1.1" id="Layer_1" xmlns="http://www.w3.org/2000/svg" xmlns:xlink="http://www.w3.org/1999/xlink" x="0px" y="0px"
	 viewBox="0 0 60.8 55" style="enable-background:new 0 0 60.8 55;" xml:space="preserve">
<g>
	<path d="M44.1,19.2c0,5.1-2.5,8.5-4.3,10.9c-0.8,1.1-1.8,2.4-1.8,3v3.1c0,1.6-1.3,2.9-2.9,2.9H24.1c-1.6,0-2.9-1.3-2.9-2.9v-3.1
		c0-0.6-0.9-1.9-1.8-3c-1.8-2.5-4.3-5.9-4.3-10.9c0-2,0.4-3.9,1.2-5.6c0.7-1.7,1.8-3.3,3.1-4.6c1.3-1.3,2.9-2.4,4.6-3.1
		c1.8-0.7,3.7-1.2,5.6-1.2s3.9,0.4,5.6,1.2c1.7,0.7,3.3,1.8,4.6,3.1c1.3,1.3,2.4,2.9,3.1,4.6C43.8,15.3,44.1,17.2,44.1,19.2z
		 M41.3,19.2c0-6.4-5.2-11.6-11.6-11.6C23.2,7.6,18,12.8,18,19.2c0,7.1,6.1,10.3,6.1,13.9v3.1h11.1v-3.1
		C35.2,29.4,41.3,26.3,41.3,19.2z M36.6,42.4c0,0.8-0.6,1.4-1.4,1.4H24.1c-0.8,0-1.4-0.6-1.4-1.4c0-0.8,0.6-1.4,1.4-1.4h11.1
		C36,41,36.6,41.6,36.6,42.4z M34.7,46.2c0.1,0.3,0,0.6-0.2,0.8c-1.4,1.1-3.1,1.7-4.9,1.7c-1.8,0-3.5-0.6-4.9-1.7
		c-0.2-0.2-0.3-0.5-0.2-0.8c0.1-0.3,0.4-0.5,0.7-0.5h9C34.3,45.8,34.6,46,34.7,46.2z"/>
</g>
</svg>
