<svg width="29" height="45" viewBox="0 0 29 45" fill="none" xmlns="http://www.w3.org/2000/svg">
<path d="M28.9924 14.5284C28.9924 19.5862 26.4801 22.9807 24.6808 25.4586C23.8661 26.5788 22.9155 27.8348 22.9155 28.4458V31.5687C22.9155 33.1301 21.6255 34.4201 20.0638 34.4201H8.92859C7.36694 34.4201 6.07689 33.1301 6.07689 31.5687V28.4458C6.07689 27.8348 5.1602 26.5788 4.31148 25.4586C2.47824 22.9807 0 19.5862 0 14.5284C0 12.5596 0.373426 10.6587 1.15425 8.89353C1.86718 7.16234 2.91954 5.60091 4.2775 4.27706C5.60151 2.95321 7.16321 1.9009 8.89461 1.15411C10.6939 0.407326 12.5951 0 14.5301 0C16.4652 0 18.4003 0.373381 20.1657 1.15411C21.8971 1.9009 23.4247 2.91926 24.7827 4.27706C26.1067 5.60091 27.1592 7.16234 27.906 8.89353C28.619 10.6587 28.9924 12.5596 28.9924 14.5284ZM26.1406 14.5284C26.1406 8.07887 20.9125 2.88531 14.4962 2.88531C8.07981 2.88531 2.8517 8.11281 2.8517 14.5284C2.8517 21.6229 8.92859 24.7797 8.92859 28.4458V31.5687H20.0638V28.4458C20.0638 24.7458 26.1406 21.6229 26.1406 14.5284ZM21.4896 37.7466C21.4896 38.5274 20.8447 39.1723 20.0638 39.1723H8.92859C8.14776 39.1723 7.50269 38.5274 7.50269 37.7466C7.50269 36.9659 8.14776 36.321 8.92859 36.321H20.0638C20.8447 36.321 21.4896 36.9659 21.4896 37.7466ZM19.5545 41.5485C19.6564 41.82 19.5546 42.1595 19.317 42.3292C17.8911 43.4155 16.1936 44.0265 14.3943 44.0265C12.595 44.0265 10.8976 43.4494 9.47179 42.3292C9.23414 42.1255 9.13227 41.82 9.23412 41.5485C9.33597 41.2769 9.60749 41.0732 9.91303 41.0732H18.8756C19.1811 41.0732 19.4527 41.2769 19.5545 41.5485Z" fill="#B4267A"/>
</svg>
