<svg id="Layer_1" data-name="Layer 1" xmlns="http://www.w3.org/2000/svg" viewBox="0 0 72 72"><defs><style>.cls-1{fill:#b3287a;}</style></defs><path class="cls-1" d="M59.64,23.7c0,8.25-4.09,13.79-7,17.83-1.33,1.83-2.88,3.88-2.88,4.88V51.5a4.67,4.67,0,0,1-4.65,4.65H26.91a4.67,4.67,0,0,1-4.65-4.65V46.41c0-1-1.5-3-2.88-4.88-3-4-7-9.58-7-17.83a22.63,22.63,0,0,1,1.88-9.19A22.35,22.35,0,0,1,19.32,7a24.15,24.15,0,0,1,7.54-5.1A23.86,23.86,0,0,1,36.05,0a22.8,22.8,0,0,1,9.19,1.88A23.82,23.82,0,0,1,52.78,7a24.08,24.08,0,0,1,5.09,7.53A24.33,24.33,0,0,1,59.64,23.7ZM55,23.7a19,19,0,0,0-38,0c0,11.58,9.91,16.73,9.91,22.71V51.5H45.08V46.41C45.08,40.37,55,35.28,55,23.7ZM47.4,61.58a2.34,2.34,0,0,1-2.32,2.33H26.91a2.33,2.33,0,0,1,0-4.66H45.08A2.34,2.34,0,0,1,47.4,61.58Zm-3.15,6.2a1.14,1.14,0,0,1-.39,1.28,13.22,13.22,0,0,1-8,2.77,12.87,12.87,0,0,1-8-2.77,1.16,1.16,0,0,1-.39-1.28A1.21,1.21,0,0,1,28.52,67H43.14A1.21,1.21,0,0,1,44.25,67.78Z"/></svg>