<svg id="Layer_1" data-name="Layer 1" xmlns="http://www.w3.org/2000/svg" viewBox="0 0 72 72"><defs><style>.cls-1{fill:#b3287a;}</style></defs><path class="cls-1" d="M66,29a5.92,5.92,0,0,1,5.91,5.91v3.62A5.91,5.91,0,0,1,66,44.46H63.23a24.89,24.89,0,0,1-6,9.83,12.64,12.64,0,0,1-1.33,1.2V66a2.54,2.54,0,0,1-2.53,2.53H45.56A2.55,2.55,0,0,1,43,66V61.34a22,22,0,0,1-3.43.24H29.17a22.11,22.11,0,0,1-3.44-.24V66a2.55,2.55,0,0,1-2.53,2.53H15.42A2.54,2.54,0,0,1,12.89,66V55.49a13.07,13.07,0,0,1-1.27-1.2A25.17,25.17,0,0,1,4.81,41.57a4.83,4.83,0,0,1,0-9.64,24.92,24.92,0,0,1,24.36-20H39.6a26.9,26.9,0,0,1,5,.49L58.16,4.5A2,2,0,0,1,59,4.32a1.44,1.44,0,0,1,1.2,1.51,1.41,1.41,0,0,1-.12.48,22.89,22.89,0,0,0-2.47,13.26A25.09,25.09,0,0,1,63.29,29ZM44.24,18.78a2.55,2.55,0,0,0-2.53-2.53H28a2.54,2.54,0,0,0,0,5.07H41.71A2.52,2.52,0,0,0,44.24,18.78ZM42.91,46.21a6,6,0,0,0-1.51-4,8.29,8.29,0,0,0-2.29-1.81,9.77,9.77,0,0,0-2.35-.84,11.9,11.9,0,0,0-2.17-.24,9,9,0,0,1-1.32-.12,5.23,5.23,0,0,1-1.39-.42,2.88,2.88,0,0,1-1-.85,2,2,0,0,1-.48-1.2A2,2,0,0,1,31.52,35a6.14,6.14,0,0,1,3.07-.84,5.08,5.08,0,0,1,1.09.18h.12a6,6,0,0,1,1.32.48,3.08,3.08,0,0,1,1,.72,2.13,2.13,0,0,0,3-3A7.14,7.14,0,0,0,38.87,31a8.65,8.65,0,0,0-2.11-.72H36.7V28.61a2.11,2.11,0,0,0-4.22,0v1.57a9,9,0,0,0-3.13,1.26,6.32,6.32,0,0,0-3.14,5.31,6.07,6.07,0,0,0,1.45,3.92,7.42,7.42,0,0,0,2.41,1.92,9.32,9.32,0,0,0,2.53.85,10.75,10.75,0,0,0,2,.18,9.09,9.09,0,0,1,1.27.12,3.94,3.94,0,0,1,1.26.48,4.4,4.4,0,0,1,1.09.85,1.91,1.91,0,0,1,.48,1.2c0,.3,0,.91-1.08,1.63a6.13,6.13,0,0,1-3.14.84,8.88,8.88,0,0,1-1.39-.18,5.18,5.18,0,0,1-1.26-.42,2,2,0,0,1-1-.78,2.09,2.09,0,1,0-3.19,2.71A7.15,7.15,0,0,0,30.25,52a12.6,12.6,0,0,0,2.11.66h.06v1.57a2.11,2.11,0,0,0,4.22,0V52.66a9.31,9.31,0,0,0,3.2-1.33A5.82,5.82,0,0,0,42.91,46.21Z"/></svg>