<svg width="41" height="37" viewBox="0 0 41 37" fill="none" xmlns="http://www.w3.org/2000/svg">
<path d="M37.0381 13.9174C38.8713 13.9174 40.3651 15.411 40.3651 17.244V19.2807C40.3651 21.1137 38.8713 22.6073 37.0381 22.6073H35.4764C34.7975 24.6779 33.6432 26.5788 32.0816 28.1403C31.8439 28.3779 31.6063 28.6155 31.3347 28.8192V34.7256C31.3347 35.5063 30.6897 36.1513 29.9088 36.1513H25.5295C24.7486 36.1513 24.1036 35.5063 24.1036 34.7256V32.1119C23.4585 32.2137 22.8135 32.2476 22.1685 32.2476H16.2954C15.6504 32.2476 15.0053 32.2137 14.3603 32.1119V34.7256C14.3603 35.5063 13.7153 36.1513 12.9345 36.1513H8.5551C7.77428 36.1513 7.1292 35.5063 7.1292 34.7256V28.8192C6.89156 28.6155 6.62 28.3779 6.41631 28.1403C4.44728 26.1715 3.12327 23.6596 2.58009 20.9779C1.15424 20.91 0 19.722 0 18.2623C0 16.8027 1.15424 15.6147 2.58009 15.5468C3.12327 12.8312 4.44728 10.3532 6.41631 8.38439C9.03036 5.77063 12.595 4.27704 16.2954 4.27704H22.1685C23.1191 4.27704 24.0697 4.37888 24.9863 4.5486L32.6247 0.101831C32.7605 0.0339407 32.9303 0 33.1 0C33.5074 0.0678898 33.8129 0.441283 33.779 0.848622C33.779 0.950457 33.745 1.01835 33.7111 1.12019C33.2697 1.96881 32.8963 2.88531 32.6587 3.83576C32.2513 5.43117 32.1155 7.02659 32.3192 8.58805C33.779 10.1156 34.8653 11.9486 35.5104 13.9174H37.0381ZM24.7826 8.14678C24.7826 7.36604 24.1375 6.72107 23.3567 6.72107H15.6164C14.8356 6.72107 14.1905 7.36604 14.1905 8.14678C14.1905 8.92751 14.8356 9.57246 15.6164 9.57246H23.3567C24.1715 9.57246 24.7826 8.92751 24.7826 8.14678ZM24.0357 23.5917C24.0357 22.777 23.7302 21.9623 23.187 21.3513C22.8136 20.944 22.3722 20.5706 21.8969 20.333C21.4895 20.1293 21.0482 19.9596 20.5729 19.8578C20.1995 19.7899 19.7921 19.722 19.3508 19.722C19.0792 19.722 18.8415 19.688 18.6039 19.6541C18.3323 19.6201 18.0607 19.5183 17.8231 19.4165C17.6194 19.3146 17.3818 19.1449 17.246 18.9413C17.0762 18.7376 16.9744 18.466 16.9744 18.2623C16.9744 17.9908 17.0762 17.6174 17.6194 17.2779C18.0607 17.0064 18.7057 16.8027 19.3508 16.8027C19.4866 16.8027 19.6902 16.8366 19.9618 16.9045H20.0297C20.2334 16.9385 20.4711 17.0403 20.7766 17.1761C20.9803 17.2779 21.2179 17.4137 21.3537 17.5835C21.829 18.0587 22.5759 18.0587 23.0512 17.5835C23.5265 17.1082 23.5265 16.3614 23.0512 15.8862C22.6777 15.5128 22.2364 15.2073 21.7612 15.0036C21.3198 14.8 20.9464 14.6642 20.5729 14.5963H20.539V13.6798C20.539 13.0348 19.9958 12.4917 19.3508 12.4917C18.7057 12.4917 18.1625 13.0348 18.1625 13.6798V14.5624C17.5175 14.6981 16.9065 14.9357 16.3972 15.2752C15.2769 15.988 14.6319 17.0743 14.6319 18.2623C14.6319 19.0431 14.9035 19.8238 15.4467 20.4688C15.8201 20.91 16.2954 21.3174 16.8046 21.555C17.246 21.7926 17.7552 21.9284 18.2305 22.0302C18.6039 22.0981 18.9434 22.1321 19.3508 22.1321C19.5884 22.1321 19.8261 22.166 20.0637 22.2C20.3353 22.2678 20.5729 22.3357 20.7766 22.4715C20.9803 22.5733 21.218 22.777 21.3877 22.9467C21.5575 23.1504 21.6593 23.388 21.6593 23.6256C21.6593 23.7954 21.6593 24.1348 21.0482 24.5421C20.6748 24.7798 20.0297 25.0174 19.2829 25.0174C19.0452 25.0174 18.6718 24.9495 18.5021 24.9155C18.2644 24.8816 18.0267 24.7798 17.7891 24.6779C17.5854 24.61 17.4157 24.4743 17.246 24.2366C16.8046 23.7275 16.0577 23.6935 15.5825 24.1009C15.0732 24.5421 15.0393 25.2889 15.4467 25.7642C15.888 26.2733 16.3633 26.6128 16.9065 26.8504C17.2459 26.9862 17.6194 27.122 18.0947 27.2238H18.1286V28.1064C18.1286 28.7513 18.6718 29.2944 19.3168 29.2944C19.9619 29.2944 20.505 28.7513 20.505 28.1064V27.2238C21.15 27.088 21.7951 26.8164 22.3043 26.477C23.4586 25.7642 24.0357 24.7798 24.0357 23.5917Z" fill="#B4267A"/>
</svg>
