<?xml version="1.0" encoding="utf-8"?>
<!-- Generator: Adobe Illustrator 24.0.2, SVG Export Plug-In . SVG Version: 6.00 Build 0)  -->
<svg version="1.1" id="Layer_1" xmlns="http://www.w3.org/2000/svg" xmlns:xlink="http://www.w3.org/1999/xlink" x="0px" y="0px"
	 viewBox="0 0 65.6 57.1" style="enable-background:new 0 0 65.6 57.1;" xml:space="preserve">
<g>
	<path d="M55.1,15.5c0.8,0,1.4,0.6,1.4,1.4v21.1c0,0.8-0.6,1.4-1.4,1.4H10.5c-0.8,0-1.4-0.6-1.4-1.4V17c0-0.8,0.6-1.4,1.4-1.4H55.1
		 M33,37.1c1.3,0,2.5-0.2,3.7-0.7c1.2-0.5,2.2-1.2,3.1-2c0.9-0.9,1.6-1.9,2.1-3.1c0.5-1.2,0.7-2.4,0.7-3.7c0-1.3-0.3-2.5-0.7-3.7
		c-0.5-1.2-1.2-2.2-2.1-3.1c-0.9-0.9-1.9-1.6-3.1-2.1c-1.2-0.5-2.4-0.7-3.7-0.7c-1.3,0-2.5,0.2-3.7,0.7c-1.2,0.5-2.2,1.2-3.1,2.1
		c-0.9,0.9-1.6,1.9-2.1,3.1c-0.5,1.2-0.7,2.4-0.7,3.7c0,1.3,0.2,2.5,0.7,3.7c0.5,1.2,1.2,2.2,2.1,3.1c0.9,0.9,1.9,1.6,3.1,2
		C30.5,36.9,31.8,37.1,33,37.1 M33.1,19.2c0.6,0,1.2,0.5,1.2,1.2v1.1c0.3,0.1,0.7,0.2,1.1,0.4c0.4,0.2,0.9,0.5,1.2,0.8
		c0.5,0.5,0.5,1.2,0,1.7c-0.2,0.2-0.5,0.4-0.8,0.4s-0.6-0.1-0.8-0.4c-0.1-0.1-0.3-0.3-0.5-0.4c-0.2-0.1-0.5-0.2-0.7-0.2h-0.1
		c-0.2,0-0.4-0.1-0.5-0.1c-0.5,0-1.2,0.2-1.6,0.4C31.2,24.4,31,24.7,31,25c0,0.2,0.1,0.4,0.2,0.6c0.1,0.2,0.3,0.3,0.5,0.4
		c0.2,0.1,0.4,0.2,0.7,0.2c0.2,0,0.4,0.1,0.7,0.1c0.4,0,0.8,0,1.2,0.1c0.4,0.1,0.9,0.2,1.3,0.4c0.4,0.2,0.9,0.6,1.2,1
		c0.5,0.6,0.7,1.4,0.7,2.2c0,0.8-0.3,1.9-1.6,2.8c-0.5,0.3-1.1,0.5-1.7,0.7v1.1c0,0.6-0.5,1.2-1.2,1.2c-0.6,0-1.2-0.5-1.2-1.2v-1.1
		c-0.4-0.1-0.8-0.2-1.1-0.3c-0.5-0.2-1-0.5-1.4-1c-0.4-0.5-0.4-1.3,0.1-1.7c0.2-0.2,0.5-0.3,0.8-0.3c0.3,0,0.7,0.1,0.9,0.4
		c0.2,0.2,0.3,0.3,0.5,0.4c0.2,0.1,0.4,0.2,0.6,0.2c0.1,0,0.5,0.1,0.7,0.1c0.7,0,1.3-0.2,1.6-0.4c0.5-0.3,0.5-0.6,0.5-0.8
		c0-0.2-0.1-0.4-0.2-0.6c-0.1-0.2-0.3-0.3-0.5-0.4c-0.2-0.1-0.4-0.2-0.6-0.2c-0.2,0-0.4-0.1-0.6-0.1c-0.4,0-0.7,0-1.1-0.1
		c-0.5-0.1-0.9-0.2-1.4-0.4c-0.5-0.2-1-0.6-1.3-1.1c-0.5-0.6-0.8-1.4-0.8-2.1c0-1.2,0.6-2.2,1.7-2.9c0.5-0.3,1-0.5,1.6-0.6v-1.1
		C32,19.8,32.5,19.2,33.1,19.2 M55.1,12.5H10.5c-2.4,0-4.4,2-4.4,4.4v21.1c0,2.4,2,4.4,4.4,4.4h44.6c2.4,0,4.4-2,4.4-4.4V17
		C59.5,14.5,57.5,12.5,55.1,12.5L55.1,12.5z M39.2,26.1c0.1-0.1,0.1-0.2,0.2-0.3c0.1,0.3,0.1,0.6,0.2,0.9
		C39.5,26.5,39.3,26.3,39.2,26.1L39.2,26.1z M26.7,29.3c-0.1-0.4-0.2-0.8-0.2-1.2c0.1,0.3,0.3,0.5,0.5,0.8
		C26.9,29,26.8,29.2,26.7,29.3L26.7,29.3z"/>
</g>
</svg>
