<svg width="48" height="24" viewBox="0 0 48 24" fill="none" xmlns="http://www.w3.org/2000/svg">
<path d="M47.4263 1.42568V22.5733C47.4263 23.354 46.7812 23.999 46.0004 23.999H1.42584C0.645018 23.999 0 23.354 0 22.5733V1.42568C0 0.644946 0.645018 0 1.42584 0H46.0004C46.7812 0 47.4263 0.611001 47.4263 1.42568ZM33.5752 11.9825C33.5752 10.6926 33.3036 9.43667 32.8283 8.2486C32.3531 7.09447 31.6402 6.07612 30.7575 5.19356C29.8748 4.31099 28.8564 3.63209 27.7021 3.12292C26.5139 2.61375 25.2578 2.37614 23.9678 2.37614C22.6777 2.37614 21.4216 2.61375 20.2334 3.12292C19.0791 3.59815 18.0607 4.31099 17.178 5.19356C16.2954 6.07612 15.6164 7.09447 15.1072 8.2486C14.5979 9.43667 14.3603 10.6926 14.3603 11.9825C14.3603 13.2724 14.5979 14.5284 15.1072 15.7165C15.5824 16.8706 16.2954 17.8889 17.178 18.7715C18.0607 19.6541 19.0791 20.333 20.2334 20.8082C21.4216 21.3174 22.6777 21.555 23.9678 21.555C25.2578 21.555 26.5139 21.3174 27.7021 20.8082C28.8564 20.333 29.8748 19.6201 30.7575 18.7715C31.6402 17.8889 32.3191 16.8706 32.8283 15.7165C33.3376 14.5284 33.5752 13.2724 33.5752 11.9825ZM28.449 14.4945C28.449 15.2752 28.1774 16.3954 26.8534 17.2779C26.3781 17.5834 25.801 17.821 25.1899 17.9568V19.0431C25.1899 19.688 24.6467 20.2311 24.0017 20.2311C23.3567 20.2311 22.8135 19.688 22.8135 19.0431V17.9568C22.4061 17.8889 22.0327 17.7532 21.7271 17.6174C21.2179 17.4137 20.7426 17.0743 20.3353 16.599C19.8939 16.0899 19.9618 15.3431 20.471 14.9357C20.9803 14.4944 21.7271 14.5623 22.1345 15.0715C22.3043 15.2412 22.474 15.377 22.6098 15.4449C22.8135 15.5467 23.0511 15.6146 23.2548 15.6486C23.3906 15.6825 23.7301 15.7504 23.9678 15.7504C24.6467 15.7504 25.2238 15.5128 25.5633 15.3091C26.1065 14.9697 26.1065 14.6642 26.1065 14.5284C26.1065 14.3247 26.0386 14.0871 25.8689 13.9174C25.7331 13.7477 25.5294 13.5779 25.3257 13.4761C25.122 13.3743 24.8844 13.3064 24.6807 13.2385C24.477 13.2045 24.2733 13.1706 24.0357 13.1706C23.6622 13.1706 23.3227 13.1367 22.9833 13.0688C22.508 13.0009 22.0327 12.8312 21.6253 12.6275C21.1161 12.3899 20.6747 12.0165 20.3353 11.5752C19.826 10.9642 19.5544 10.2174 19.5544 9.47062C19.5544 8.31649 20.1655 7.26419 21.2519 6.5853C21.7271 6.27979 22.2703 6.07613 22.8814 5.94035V4.88805C22.8814 4.2431 23.4246 3.69999 24.0696 3.69999C24.7146 3.69999 25.2578 4.2431 25.2578 4.88805V5.97429C25.5973 6.04218 25.9707 6.17796 26.3781 6.34768C26.8194 6.55135 27.2608 6.85686 27.6003 7.1963C28.0756 7.67153 28.0756 8.41832 27.6003 8.89355C27.125 9.36878 26.3781 9.36878 25.9028 8.89355C25.767 8.75777 25.5633 8.62199 25.3596 8.52015C25.122 8.41832 24.8844 8.31648 24.6807 8.28254H24.6128C24.3751 8.24859 24.1715 8.18071 24.0696 8.18071C23.5264 8.18071 22.9154 8.35043 22.508 8.58804C22.1345 8.82566 21.9308 9.13116 21.9308 9.43666C21.9308 9.64033 22.0327 9.844 22.1685 10.0477C22.3043 10.2174 22.508 10.3532 22.6777 10.455C22.8814 10.5568 23.119 10.6247 23.3906 10.6926C23.5943 10.7266 23.832 10.7605 24.0696 10.7605C24.477 10.7605 24.8504 10.7945 25.2238 10.8963C25.6652 10.9981 26.1065 11.1339 26.48 11.3376C26.9213 11.5752 27.3626 11.9146 27.7021 12.322C28.1774 12.933 28.449 13.7137 28.449 14.4945Z" fill="#B4267A"/>
</svg>
