<svg id="Layer_1" data-name="Layer 1" xmlns="http://www.w3.org/2000/svg" viewBox="0 0 72 72"><defs><style>.cls-1{fill:#b3287a;}</style></defs><path class="cls-1" d="M72,19.7V51.82A2.18,2.18,0,0,1,69.86,54H2.17A2.18,2.18,0,0,1,0,51.82V19.7a2.18,2.18,0,0,1,2.17-2.16H69.86A2.14,2.14,0,0,1,72,19.7Zm-21,16a15.34,15.34,0,0,0-1.13-5.68,14.35,14.35,0,0,0-3.15-4.64,14.92,14.92,0,0,0-4.64-3.14,14.53,14.53,0,0,0-16,3.14,15.37,15.37,0,0,0-3.15,4.64,14.51,14.51,0,0,0,3.15,16,14.08,14.08,0,0,0,4.64,3.09,14.79,14.79,0,0,0,11.34,0,14.78,14.78,0,0,0,4.64-3.09,15.07,15.07,0,0,0,3.15-4.64A14.39,14.39,0,0,0,51,35.74Zm-7.78,3.81a4.94,4.94,0,0,1-2.43,4.23,8,8,0,0,1-2.52,1v1.65a1.81,1.81,0,0,1-3.61,0V44.81A6.53,6.53,0,0,1,33,44.29a5.52,5.52,0,0,1-2.12-1.54,1.8,1.8,0,0,1,2.74-2.32,3.14,3.14,0,0,0,.72.56,3.38,3.38,0,0,0,1,.31,5.41,5.41,0,0,0,1.08.16,4.81,4.81,0,0,0,2.42-.67c.83-.52.83-1,.83-1.19a1.32,1.32,0,0,0-.36-.93,2.88,2.88,0,0,0-.83-.67,9.68,9.68,0,0,0-1-.36,5.79,5.79,0,0,0-1-.1,8.17,8.17,0,0,1-1.59-.15,7.39,7.39,0,0,1-2.07-.67,5.54,5.54,0,0,1-2-1.6,5,5,0,0,1-1.18-3.2,5.15,5.15,0,0,1,2.58-4.38,7.43,7.43,0,0,1,2.47-1V25a1.81,1.81,0,0,1,3.61,0v1.65a8.93,8.93,0,0,1,1.7.57,6.67,6.67,0,0,1,1.86,1.29A1.82,1.82,0,0,1,39.34,31a3.58,3.58,0,0,0-.82-.56,4.78,4.78,0,0,0-1-.36h-.1c-.36-.06-.67-.16-.82-.16a5.09,5.09,0,0,0-2.38.62,1.62,1.62,0,0,0-.87,1.29,1.72,1.72,0,0,0,.36.93,3.23,3.23,0,0,0,.77.62,6.2,6.2,0,0,0,1.08.36,6.67,6.67,0,0,0,1,.1,6.36,6.36,0,0,1,1.75.21,7.45,7.45,0,0,1,1.91.67,6.27,6.27,0,0,1,1.85,1.49A5.45,5.45,0,0,1,43.21,39.55Z"/></svg>