<svg width="55" height="55" viewBox="0 0 55 55" fill="none" xmlns="http://www.w3.org/2000/svg">
<g id="ev_station_24px">
<path id="icon/maps/ev_station_24px" fill-rule="evenodd" clip-rule="evenodd" d="M44.7333 16.5688L44.7563 16.5458L36.2313 8.02083L33.8021 10.45L38.6375 15.2854C36.4833 16.1104 34.9479 18.1729 34.9479 20.625C34.9479 23.7875 37.5146 26.3542 40.6771 26.3542C41.5021 26.3542 42.2583 26.1708 42.9688 25.8729V42.3958C42.9688 43.6562 41.9375 44.6875 40.6771 44.6875C39.4167 44.6875 38.3854 43.6562 38.3854 42.3958V32.0833C38.3854 29.5625 36.3229 27.5 33.8021 27.5H31.5104V11.4583C31.5104 8.9375 29.4479 6.875 26.9271 6.875H13.1771C10.6562 6.875 8.59375 8.9375 8.59375 11.4583V48.125H31.5104V30.9375H34.9479V42.3958C34.9479 45.5583 37.5146 48.125 40.6771 48.125C43.8396 48.125 46.4062 45.5583 46.4062 42.3958V20.625C46.4062 19.0438 45.7646 17.6 44.7333 16.5688ZM26.9271 25.2083V43.5417H13.1771V11.4583H26.9271V25.2083ZM38.3854 20.625C38.3854 21.8854 39.4167 22.9167 40.6771 22.9167C41.9375 22.9167 42.9688 21.8854 42.9688 20.625C42.9688 19.3646 41.9375 18.3333 40.6771 18.3333C39.4167 18.3333 38.3854 19.3646 38.3854 20.625Z" fill="#B4267A"/>
</g>
</svg>
