<svg id="Layer_1" data-name="Layer 1" xmlns="http://www.w3.org/2000/svg" viewBox="0 0 72 72"><defs><style>.cls-1{fill:#b3287a;fill-rule:evenodd;}</style></defs><g id="ev_station_24px" data-name="ev station 24px"><path id="icon_maps_ev_station_24px" data-name="icon/maps/ev_station_24px" class="cls-1" d="M65.74,16.88l0,0L50.93,2,46.7,6.23l8.42,8.42a10,10,0,0,0,3.56,19.28,10.21,10.21,0,0,0,4-.84V61.86a4,4,0,1,1-8,0v-18a8,8,0,0,0-8-8h-4V8a8,8,0,0,0-8-8H10.78a8,8,0,0,0-8,8V71.84H42.71V41.91h6v20a10,10,0,1,0,20,0V24A10,10,0,0,0,65.74,16.88Zm-31,15.05V63.86H10.78V8H34.73Zm20-8a4,4,0,1,0,4-4A4,4,0,0,0,54.69,24Z"/></g></svg>