<?xml version="1.0" encoding="utf-8"?>
<!-- Generator: Adobe Illustrator 24.0.2, SVG Export Plug-In . SVG Version: 6.00 Build 0)  -->
<svg version="1.1" id="Layer_1" xmlns="http://www.w3.org/2000/svg" xmlns:xlink="http://www.w3.org/1999/xlink" x="0px" y="0px"
	 viewBox="0 0 60.83 55" style="enable-background:new 0 0 60.83 55;" xml:space="preserve">
<style type="text/css">
	.st0{fill-rule:evenodd;clip-rule:evenodd;fill:none;stroke:#000000;stroke-miterlimit:10;}
</style>
<path class="st0" d="M49.34,15.91l0.02-0.02l-8.52-8.52L38.4,9.79l4.84,4.83c-2.16,0.82-3.69,2.89-3.69,5.34
	c0,3.16,2.57,5.73,5.73,5.73c0.83,0,1.58-0.18,2.29-0.48v16.52c0,1.26-1.03,2.29-2.29,2.29c-1.26,0-2.29-1.03-2.29-2.29V31.42
	c0-2.52-2.06-4.58-4.58-4.58h-2.29V10.79c0-2.52-2.06-4.58-4.58-4.58H17.78c-2.52,0-4.58,2.06-4.58,4.58v36.67h22.92V30.27h3.44
	v11.46c0,3.16,2.57,5.73,5.73,5.73c3.16,0,5.73-2.57,5.73-5.73V19.96C51.01,18.38,50.37,16.94,49.34,15.91z M31.53,24.54v18.33
	H17.78V10.79h13.75V24.54z M42.99,19.96c0,1.26,1.03,2.29,2.29,2.29c1.26,0,2.29-1.03,2.29-2.29s-1.03-2.29-2.29-2.29
	C44.02,17.67,42.99,18.7,42.99,19.96z"/>
</svg>
