<?xml version="1.0" encoding="utf-8"?>
<!-- Generator: Adobe Illustrator 24.0.2, SVG Export Plug-In . SVG Version: 6.00 Build 0)  -->
<svg version="1.1" id="Layer_1" xmlns="http://www.w3.org/2000/svg" xmlns:xlink="http://www.w3.org/1999/xlink" x="0px" y="0px"
	 viewBox="0 0 65.6 57.1" style="enable-background:new 0 0 65.6 57.1;" xml:space="preserve">
<g>
	<path d="M48.4,10.5c0.5,0,0.9,0.4,0.9,1v34.2c0,0.5-0.4,1-0.9,1H32.9V33.1l2.8,4.3c0.3,0.5,0.8,0.8,1.4,0.8c0.3,0,0.6-0.1,0.9-0.3
		c0.8-0.5,1-1.5,0.5-2.3l-4-6.3l5.1,2.1c0.4,0.2,0.8,0.2,1.1,0.2c1.2,0,2-0.9,2-2.3v-6c0-1.4-0.8-2.3-2-2.3c-0.3,0-0.7,0.1-1.1,0.2
		l-6.7,2.8V10.5H48.4 M29.6,10.5v13.6l-6.7-2.8c-0.4-0.2-0.8-0.2-1.1-0.2c-1.2,0-2,0.9-2,2.3v6c0,1.4,0.8,2.3,2,2.3
		c0.3,0,0.7-0.1,1.1-0.2l5.1-2.1l-4,6.3c-0.5,0.8-0.3,1.8,0.5,2.3c0.3,0.2,0.6,0.3,0.9,0.3c0.5,0,1.1-0.3,1.4-0.8l2.8-4.3v13.5H14.1
		c-0.5,0-1-0.4-1-1V11.5c0-0.5,0.4-1,1-1H29.6 M48.4,7.5H32.9h-0.3h-3H14.1c-2.2,0-4,1.8-4,4v34.2c0,2.2,1.8,4,4,4h15.4h0.3h3h15.4
		c2.2,0,3.9-1.8,3.9-4V11.5C52.3,9.3,50.6,7.5,48.4,7.5L48.4,7.5z M35.3,26.4l4.4-1.8l0,3.7l-4.1-1.7L35.3,26.4L35.3,26.4z
		 M22.8,28.2l0-3.7l4.4,1.8l-0.3,0.1L22.8,28.2L22.8,28.2z"/>
</g>
</svg>
