<svg width="37" height="37" viewBox="0 0 37 37" fill="none" xmlns="http://www.w3.org/2000/svg">
<path d="M16.3972 22.6073V36.1173H0.950559C0.441329 36.1173 0 35.6761 0 35.1669V0.950504C0 0.441331 0.441329 0 0.950559 0H16.3972V13.6459L9.70933 10.8624C8.01189 10.1496 6.62 11.1 6.62 12.8991V18.9073C6.62 20.7403 8.01189 21.6569 9.70933 20.944L14.8356 18.8055L10.8296 25.1532C10.3543 25.9339 10.558 26.9523 11.3389 27.4614C11.6105 27.6312 11.916 27.733 12.2215 27.733C12.7647 27.733 13.3079 27.4614 13.6134 26.9522L16.3972 22.6073ZM36.1214 0.950504V35.1669C36.1214 35.6761 35.6801 36.1173 35.1708 36.1173H19.7242V22.6073L22.474 26.9522C22.7796 27.4614 23.3228 27.733 23.8999 27.733C24.2054 27.733 24.5109 27.6651 24.7825 27.4614C25.5634 26.9862 25.801 25.9339 25.2918 25.1532L21.2858 18.8055L26.4121 20.944C28.1095 21.6569 29.5014 20.7064 29.5014 18.9073V12.8991C29.5014 11.066 28.1095 10.1496 26.4121 10.8624L19.7242 13.6459V0H35.1708C35.714 0 36.1214 0.407386 36.1214 0.950504Z" fill="#B4267A"/>
</svg>
