<?xml version="1.0" encoding="utf-8"?>
<!-- Generator: Adobe Illustrator 24.0.2, SVG Export Plug-In . SVG Version: 6.00 Build 0)  -->
<svg version="1.1" id="Layer_1" xmlns="http://www.w3.org/2000/svg" xmlns:xlink="http://www.w3.org/1999/xlink" x="0px" y="0px"
	 viewBox="0 0 60.8 55" style="enable-background:new 0 0 60.8 55;" xml:space="preserve">
<style type="text/css">
	.st0{fill:none;stroke:#000000;stroke-miterlimit:10;}
</style>
<path class="st0" d="M27.8,31.3v13.5H12.3c-0.5,0-1-0.4-1-1V9.6c0-0.5,0.4-1,1-1h15.4v13.6l-6.7-2.8c-1.7-0.7-3.1,0.2-3.1,2v6
	c0,1.8,1.4,2.8,3.1,2l5.1-2.1l-4,6.3c-0.5,0.8-0.3,1.8,0.5,2.3c0.3,0.2,0.6,0.3,0.9,0.3c0.5,0,1.1-0.3,1.4-0.8L27.8,31.3z M47.5,9.6
	v34.2c0,0.5-0.4,1-0.9,1H31.1V31.3l2.7,4.3c0.3,0.5,0.8,0.8,1.4,0.8c0.3,0,0.6-0.1,0.9-0.3c0.8-0.5,1-1.5,0.5-2.3l-4-6.3l5.1,2.1
	c1.7,0.7,3.1-0.2,3.1-2v-6c0-1.8-1.4-2.7-3.1-2l-6.7,2.8V8.7h15.4C47.1,8.7,47.5,9.1,47.5,9.6z"/>
</svg>
