<svg id="Layer_1" data-name="Layer 1" xmlns="http://www.w3.org/2000/svg" viewBox="0 0 72 72"><defs><style>.cls-1{fill:#b3287a;}</style></defs><path class="cls-1" d="M32.68,45.07V72H1.89A1.94,1.94,0,0,1,0,70.1V1.9A1.94,1.94,0,0,1,1.89,0H32.68V27.2L19.35,21.66c-3.38-1.42-6.15.47-6.15,4.06v12c0,3.66,2.77,5.48,6.15,4.06l10.22-4.26-8,12.65a3.37,3.37,0,0,0,1,4.6,3.33,3.33,0,0,0,1.76.54,3.25,3.25,0,0,0,2.78-1.55ZM72,1.9V70.1A1.94,1.94,0,0,1,70.11,72H39.32V45.07l5.48,8.66a3.26,3.26,0,0,0,2.84,1.55,2.81,2.81,0,0,0,1.76-.54,3.29,3.29,0,0,0,1-4.6l-8-12.65,10.22,4.26c3.38,1.42,6.15-.47,6.15-4.06v-12c0-3.66-2.77-5.48-6.15-4.06L39.32,27.2V0H70.11A1.85,1.85,0,0,1,72,1.9Z"/></svg>