<svg id="Layer_1" data-name="Layer 1" xmlns="http://www.w3.org/2000/svg" viewBox="0 0 72 72"><defs><style>.cls-1{fill:#b3287a;}</style></defs><path class="cls-1" d="M71.94,18.88V36.94A5.24,5.24,0,0,1,67.35,42L24.7,46.46a2.81,2.81,0,0,1-.74.11,2.89,2.89,0,0,0,0,5.78H66.5a2.83,2.83,0,0,1,0,5.66H62a5.16,5.16,0,1,1-5.55,0H30.25a5.24,5.24,0,0,1,2.38,4.36A5.16,5.16,0,1,1,24.7,58H24a8.55,8.55,0,0,1,0-17.1,2.36,2.36,0,0,1,.62.05L11.44,10.83H2.83a2.83,2.83,0,0,1,0-5.66H13.31a2.88,2.88,0,0,1,2.61,1.7l3.23,7.36h48.2A4.66,4.66,0,0,1,71.94,18.88Z"/></svg>