<svg width="44" height="38" viewBox="0 0 44 38" fill="none" xmlns="http://www.w3.org/2000/svg">
<path d="M43.1148 8.2147V19.0431C43.1148 20.5706 41.8927 21.9284 40.365 22.0981L14.8016 24.7458C14.6658 24.7798 14.53 24.8137 14.3603 24.8137C13.4097 24.8137 12.6289 25.5944 12.6289 26.5449C12.6289 27.4954 13.4097 28.2761 14.3603 28.2761H39.8557C40.8063 28.2761 41.5532 29.0229 41.5532 29.9733C41.5532 30.9238 40.8063 31.6706 39.8557 31.6706H37.1399C37.9886 32.2137 38.5657 33.1981 38.5657 34.2843C38.5657 35.9816 37.1738 37.3733 35.4764 37.3733C33.7789 37.3733 32.387 35.9816 32.387 34.2843C32.387 33.1981 32.9642 32.2137 33.8129 31.6706H18.1286C18.9773 32.2137 19.5544 33.1981 19.5544 34.2843C19.5544 35.9816 18.1625 37.3733 16.4651 37.3733C14.7677 37.3733 13.3758 35.9816 13.3758 34.2843C13.3758 33.1981 13.9529 32.2137 14.8016 31.6706H14.3603C11.5425 31.6706 9.23404 29.3623 9.23404 26.5449C9.23404 23.7275 11.5425 21.4192 14.3603 21.4192C14.4961 21.4192 14.6319 21.4192 14.7337 21.4532L6.85762 3.39449H1.69743C0.746871 3.39449 0 2.6477 0 1.69724C0 0.746787 0.746871 0 1.69743 0H7.97793C8.65691 0 9.26798 0.407349 9.53957 1.01836L11.4746 5.4312H40.365C41.8927 5.46514 43.1148 6.68718 43.1148 8.2147Z" fill="#B4267A"/>
</svg>
