<svg width="37" height="40" viewBox="0 0 37 40" fill="none" xmlns="http://www.w3.org/2000/svg">
<path d="M32.1155 22.2678V28.4119C32.1155 31.4669 30.9272 34.3522 28.7545 36.5247C26.5818 38.6972 23.6962 39.8852 20.6408 39.8852C17.5854 39.8852 14.6998 38.6972 12.5271 36.5247C10.3543 34.3522 9.16614 31.4669 9.16614 28.4119V27.054C6.89158 26.7146 4.82072 25.6623 3.15723 23.999C1.12031 21.9623 0 19.2467 0 16.3275V7.63759C0 5.87246 0.916609 4.311 2.27456 3.39448C2.3764 1.49357 3.97199 0 5.90707 0C7.91004 0 9.53958 1.62938 9.53958 3.63212C9.53958 5.63487 7.91004 7.26419 5.90707 7.26419C5.0923 7.26419 4.34543 6.99266 3.73435 6.55138C3.49671 6.85689 3.32696 7.23029 3.32696 7.67157V16.3614C3.32696 20.5027 6.68788 23.8632 10.8296 23.8632C14.9714 23.8632 18.3323 20.5027 18.3323 16.3614V7.67157C18.3323 7.29817 18.1965 6.95872 17.9928 6.65321C17.4157 7.02661 16.7028 7.26419 15.9559 7.26419C13.9529 7.26419 12.3234 5.63487 12.3234 3.63212C12.3234 1.62938 13.9529 0 15.9559 0C17.9589 0 19.5544 1.59542 19.5884 3.56422C20.8445 4.48073 21.6253 5.97429 21.6253 7.63759V16.3275C21.6253 19.2128 20.505 21.9284 18.4341 23.999C16.7707 25.6623 14.6998 26.7146 12.4252 27.054V28.4119C12.4252 32.9265 16.0917 36.5925 20.6069 36.5925C25.122 36.5925 28.7885 32.9265 28.7885 28.4119V22.2678C26.0386 21.521 24.0017 19.0092 24.0017 16.0559C24.0017 12.4917 26.8874 9.6064 30.452 9.6064C34.0166 9.6064 36.9022 12.4917 36.9022 16.0559C36.8683 19.0092 34.8653 21.521 32.1155 22.2678ZM33.5413 16.0559C33.5413 14.3248 32.1494 12.933 30.418 12.933C28.7206 12.933 27.2948 14.3248 27.2948 16.0559C27.2948 17.7532 28.6866 19.1789 30.418 19.1789C32.1494 19.1449 33.5413 17.7532 33.5413 16.0559Z" fill="#B4267A"/>
</svg>
