<svg id="Layer_1" data-name="Layer 1" xmlns="http://www.w3.org/2000/svg" viewBox="0 0 72 72"><defs><style>.cls-1{fill:#b3287a;}</style></defs><path class="cls-1" d="M60.44,40.25V51.36a20.74,20.74,0,0,1-41.48,0V48.9A19.54,19.54,0,0,1,2.39,29.51V13.81A9.26,9.26,0,0,1,6.5,6.14a6.57,6.57,0,1,1,6.56,7,6.65,6.65,0,0,1-3.92-1.29,3.27,3.27,0,0,0-.74,2v15.7a13.56,13.56,0,1,0,27.12,0V13.87A3.27,3.27,0,0,0,34.91,12a6.86,6.86,0,0,1-3.68,1.1,6.57,6.57,0,1,1,6.56-6.69,9.06,9.06,0,0,1,3.69,7.37v15.7a19.46,19.46,0,0,1-5.77,13.87A19.25,19.25,0,0,1,24.85,48.9v2.46a14.79,14.79,0,0,0,29.57,0V40.25a11.66,11.66,0,1,1,6,0ZM63,29a5.65,5.65,0,1,0-5.65,5.65A5.72,5.72,0,0,0,63,29Z"/></svg>