<?xml version="1.0" encoding="utf-8"?>
<!-- Generator: Adobe Illustrator 24.0.2, SVG Export Plug-In . SVG Version: 6.00 Build 0)  -->
<svg version="1.1" id="Layer_1" xmlns="http://www.w3.org/2000/svg" xmlns:xlink="http://www.w3.org/1999/xlink" x="0px" y="0px"
	 viewBox="0 0 65.6 57.1" style="enable-background:new 0 0 65.6 57.1;" xml:space="preserve">
<g>
	<path d="M44.9,29.2v6.1c0,3.1-1.2,5.9-3.4,8.1c-2.2,2.2-5.1,3.4-8.1,3.4c-3.1,0-5.9-1.2-8.1-3.4c-2.2-2.2-3.4-5.1-3.4-8.1V34
		c-2.3-0.3-4.3-1.4-6-3.1c-2-2-3.2-4.8-3.2-7.7v-8.7c0-1.8,0.9-3.3,2.3-4.2c0.1-1.9,1.7-3.4,3.6-3.4c2,0,3.6,1.6,3.6,3.6
		c0,2-1.6,3.6-3.6,3.6c-0.8,0-1.6-0.3-2.2-0.7c-0.2,0.3-0.4,0.7-0.4,1.1v8.7c0,4.1,3.4,7.5,7.5,7.5c4.1,0,7.5-3.4,7.5-7.5v-8.7
		c0-0.4-0.1-0.7-0.3-1c-0.6,0.4-1.3,0.6-2,0.6c-2,0-3.6-1.6-3.6-3.6c0-2,1.6-3.6,3.6-3.6s3.6,1.6,3.6,3.6c1.3,0.9,2,2.4,2,4.1v8.7
		c0,2.9-1.1,5.6-3.2,7.7c-1.7,1.7-3.7,2.7-6,3.1v1.4c0,4.5,3.7,8.2,8.2,8.2s8.2-3.7,8.2-8.2v-6.1c-2.7-0.7-4.8-3.3-4.8-6.2
		c0-3.6,2.9-6.4,6.5-6.4s6.4,2.9,6.4,6.4C49.6,25.9,47.6,28.4,44.9,29.2z M46.3,23c0-1.7-1.4-3.1-3.1-3.1c-1.7,0-3.1,1.4-3.1,3.1
		c0,1.7,1.4,3.1,3.1,3.1C44.9,26,46.3,24.7,46.3,23z"/>
</g>
</svg>
