<svg width="59" height="55" viewBox="0 0 59 55" fill="none" xmlns="http://www.w3.org/2000/svg">
<path d="M42.2399 31.6034C41.9343 32.1465 41.3572 32.452 40.7801 32.452C40.5085 32.452 40.2029 32.3842 39.9653 32.2484L21.1577 21.5557L2.48594 32.2484C1.67117 32.6897 0.652718 32.4181 0.211385 31.6374C-0.229948 30.8566 0.0416424 29.8383 0.822462 29.363L4.38706 27.3264V19.8924C4.38706 19.1117 5.03208 18.4667 5.8129 18.4667H9.47936C10.2602 18.4667 10.9052 19.1117 10.9052 19.8924V23.5924L20.275 18.2291C20.7843 17.9236 21.4293 17.9236 21.9385 18.2291L41.5609 29.397C42.4096 29.7704 42.6812 30.7887 42.2399 31.6034ZM38.0302 34.4209V53.0226C38.0302 53.8034 37.3852 54.4483 36.6044 54.4483H5.84685C5.06603 54.4483 4.42101 53.8034 4.42101 53.0226V34.4209L21.1577 24.8144L38.0302 34.4209ZM17.661 37.442H10.9392V44.2309H17.661V37.442ZM31.5121 37.442H24.7902V44.2309H31.5121V37.442Z" fill="#B4267A"/>
<path fill-rule="evenodd" clip-rule="evenodd" d="M42 1.41699L29.25 7.08366V15.5837C29.25 23.4462 34.69 30.7987 42 32.5837C49.31 30.7987 54.75 23.4462 54.75 15.5837V7.08366L42 1.41699ZM51.9167 15.5837C51.9167 21.987 47.695 27.8945 42 29.6512C36.305 27.8945 32.0833 21.987 32.0833 15.5837V8.92533L42 4.51949L51.9167 8.92533V15.5837ZM33.5 18.417L35.4975 16.4195L39.1667 20.0745L48.5025 10.7387L50.5 12.7503L39.1667 24.0837L33.5 18.417Z" fill="#B4267A"/>
</svg>
