<svg id="Layer_1" data-name="Layer 1" xmlns="http://www.w3.org/2000/svg" viewBox="0 0 72 72"><defs><style>.cls-1,.cls-2{fill:#b3287a;}.cls-2{fill-rule:evenodd;}</style></defs><path class="cls-1" d="M55.4,40.67a2.2,2.2,0,0,1-1.91,1.11,2.31,2.31,0,0,1-1.06-.26l-24.59-14-24.41,14a2.22,2.22,0,0,1-3-.8,2.24,2.24,0,0,1,.8-3l4.66-2.66V25.36A1.88,1.88,0,0,1,7.78,23.5h4.79a1.88,1.88,0,0,1,1.87,1.86V30.2l12.25-7a2.11,2.11,0,0,1,2.17,0l25.65,14.6A2,2,0,0,1,55.4,40.67Zm-5.5,3.69V68.68A1.88,1.88,0,0,1,48,70.54H7.82A1.87,1.87,0,0,1,6,68.68V44.36L27.84,31.8Zm-26.63,4H14.48v8.87h8.79Zm18.11,0H32.59v8.87h8.79Z"/><path class="cls-2" d="M55.09,1.21,38.18,8.72V20c0,10.43,7.21,20.18,16.91,22.55C64.78,40.18,72,30.43,72,20V8.72ZM68.24,19.4A18.94,18.94,0,0,1,55.09,37.3,18.94,18.94,0,0,1,41.93,19.4V10.93L55.09,5.32l13.15,5.61ZM43.81,23.76l2.65-2.65L51.33,26,63.71,13.57l2.65,2.67-15,15Z"/></svg>