<svg width="46" height="39" viewBox="0 0 46 39" fill="none" xmlns="http://www.w3.org/2000/svg">
<path d="M45.7734 14.5558C45.4423 15.1369 44.8169 15.4638 44.1915 15.4638C43.8972 15.4638 43.5661 15.3912 43.3085 15.2459L22.9276 3.80467L2.6939 15.2459C1.81097 15.7181 0.70732 15.4275 0.229068 14.5921C-0.249184 13.7567 0.0451259 12.667 0.891264 12.1585L4.75405 9.97927V2.02493C4.75405 1.18954 5.45303 0.499417 6.29917 0.499417H10.2723C11.1185 0.499417 11.8175 1.18954 11.8175 2.02493V5.98394L21.9711 0.245169C22.523 -0.0817229 23.2219 -0.0817229 23.7738 0.245169L45.0376 12.1949C45.9573 12.5944 46.2516 13.6841 45.7734 14.5558ZM41.2116 17.5704V37.4745C41.2116 38.3099 40.5126 39 39.6665 39H6.33597C5.48983 39 4.79085 38.3099 4.79085 37.4745V17.5704L22.9276 7.29151L41.2116 17.5704ZM19.1384 20.803H11.8543V28.0673H19.1384V20.803ZM34.1482 20.803H26.864V28.0673H34.1482V20.803Z" fill="#B4267A"/>
</svg>
