<svg id="Layer_1" data-name="Layer 1" xmlns="http://www.w3.org/2000/svg" viewBox="0 0 72 72"><defs><style>.cls-1{fill:#b3287a;}</style></defs><path class="cls-1" d="M71.71,27.8a2.87,2.87,0,0,1-3.86,1.08L35.92,11,4.22,28.88a2.88,2.88,0,0,1-3.86-1,2.83,2.83,0,0,1,1-3.81l6.05-3.42V8.17A2.42,2.42,0,0,1,9.87,5.78h6.22a2.42,2.42,0,0,1,2.42,2.39v6.2l15.91-9a2.81,2.81,0,0,1,2.83,0L70.56,24.11A2.59,2.59,0,0,1,71.71,27.8Zm-7.15,4.73V63.71a2.42,2.42,0,0,1-2.42,2.39H9.93a2.42,2.42,0,0,1-2.42-2.39V32.53L35.92,16.42ZM30,37.59H18.57V49H30Zm23.52,0H42.09V49H53.5Z"/></svg>