<svg width="72" height="72" viewBox="0 0 72 72" fill="none" xmlns="http://www.w3.org/2000/svg">
<path d="M72 72C48.0056 72 24.0094 72 0 72C0 48.0112 0 24.0169 0 0C23.9906 0 47.9944 0 72 0C72 23.9869 72 47.9906 72 72ZM21.5062 68.0156C30.6487 68.0156 39.7031 68.0156 48.7913 68.0156C48.7913 67.6875 48.7913 67.4081 48.7913 67.1287C48.7913 58.1756 48.7744 49.2225 48.7988 40.2694C48.81 36.5138 48.6488 32.775 48.0844 29.0587C47.6194 25.9987 46.9463 22.9875 45.9563 20.0513C45.8213 19.65 45.6281 19.5169 45.2081 19.5225C43.6144 19.5469 42.0206 19.5319 40.4287 19.5356C40.2731 19.5356 40.1194 19.5694 39.9319 19.5919C39.9319 20.5894 39.9319 21.5475 39.9319 22.5056C39.93 26.5312 37.8356 29.4094 33.9975 30.6656C26.235 33.2044 21.5062 39.7162 21.5062 47.8669C21.5062 54.2887 21.5062 60.7106 21.5062 67.1325C21.5062 67.4119 21.5062 67.6894 21.5062 68.0156ZM50.4469 3.96562C43.0275 3.96562 35.6625 3.96562 28.3144 3.96562C28.3144 5.70937 28.3144 7.40437 28.3144 9.08625C35.7187 9.08625 43.0669 9.08625 50.4469 9.08625C50.4469 7.37062 50.4469 5.69437 50.4469 3.96562ZM38.4169 17.7938C41.2912 17.7938 44.1075 17.7938 46.9069 17.7938C46.9069 16.9856 46.9069 16.23 46.9069 15.4894C44.0494 15.4894 41.25 15.4894 38.4169 15.4894C38.4169 16.2656 38.4169 17.0044 38.4169 17.7938ZM32.2781 10.0388C32.2331 10.1681 32.22 10.1887 32.2181 10.2112C32.205 10.3969 32.2031 10.5844 32.1825 10.77C31.8544 13.8 30.78 16.3838 27.9187 17.9006C27.4031 18.1744 27.2081 18.6075 27.5025 19.1231C27.7837 19.6181 28.2394 19.6312 28.7212 19.3837C30.8156 18.3075 32.2294 16.6312 33.0675 14.4506C33.615 13.0275 33.9187 11.5612 33.8719 10.0369C33.2944 10.0387 32.7881 10.0388 32.2781 10.0388ZM41.5181 13.7231C42.3806 13.7231 43.1662 13.7231 43.965 13.7231C43.965 12.7406 43.965 11.7975 43.965 10.86C43.1156 10.86 42.3131 10.86 41.4806 10.86C41.4806 11.7506 41.4788 12.5888 41.4825 13.4288C41.4825 13.5188 41.5031 13.6069 41.5181 13.7231ZM26.5387 5.32687C25.9912 5.32687 25.5244 5.325 25.0556 5.32875C24.9619 5.32875 24.8681 5.33438 24.7762 5.35125C24.0919 5.47313 23.6494 5.91938 23.6362 6.49688C23.6231 7.07813 24.0431 7.5825 24.7331 7.665C25.3238 7.73438 25.9275 7.68 26.5387 7.68C26.5387 6.87937 26.5387 6.13875 26.5387 5.32687Z" fill="white"/>
<path d="M21.5078 68.0158C21.5078 67.6915 21.5078 67.4121 21.5078 67.1346C21.5078 60.7127 21.5078 54.2908 21.5078 47.869C21.5078 39.7165 26.2366 33.2065 33.9991 30.6677C37.8372 29.4115 39.9297 26.5333 39.9334 22.5077C39.9334 21.5496 39.9334 20.5915 39.9334 19.594C40.1209 19.5715 40.2766 19.5377 40.4303 19.5377C42.0241 19.534 43.6178 19.5508 45.2097 19.5246C45.6297 19.519 45.8228 19.6521 45.9578 20.0533C46.9478 22.9915 47.6209 26.0008 48.0859 29.0608C48.6503 32.7771 48.8116 36.5158 48.8003 40.2715C48.7741 49.2246 48.7928 58.1777 48.7928 67.1308C48.7928 67.4102 48.7928 67.6896 48.7928 68.0177C39.7047 68.0158 30.6503 68.0158 21.5078 68.0158ZM44.9959 53.0102C44.9959 49.8471 44.9978 46.684 44.9959 43.5208C44.9959 42.5496 44.7728 42.3246 43.7978 42.3246C40.0253 42.3227 36.2547 42.3152 32.4822 42.3265C29.2628 42.3358 26.9978 44.6046 26.9941 47.8202C26.9866 52.7177 26.9922 57.6152 26.9922 62.5108C26.9922 63.4727 27.2247 63.7052 28.1978 63.7071C33.3991 63.709 38.5984 63.709 43.7997 63.7071C44.7634 63.7071 44.9959 63.4708 44.9959 62.5015C44.9978 59.3365 44.9959 56.1733 44.9959 53.0102Z" fill="#B4267A"/>
<path d="M50.445 3.96582C50.445 5.69457 50.445 7.3727 50.445 9.08645C43.065 9.08645 35.7169 9.08645 28.3125 9.08645C28.3125 7.40457 28.3125 5.70957 28.3125 3.96582C35.6606 3.96582 43.0256 3.96582 50.445 3.96582Z" fill="#B4267A"/>
<path d="M38.418 17.7936C38.418 17.0043 38.418 16.2636 38.418 15.4893C41.2492 15.4893 44.0505 15.4893 46.908 15.4893C46.908 16.2299 46.908 16.9874 46.908 17.7936C44.1086 17.7936 41.2923 17.7936 38.418 17.7936Z" fill="#B4267A"/>
<path d="M32.2767 10.0391C32.7886 10.0391 33.293 10.0391 33.8705 10.0391C33.9192 11.5634 33.6136 13.0297 33.0661 14.4528C32.228 16.6334 30.8123 18.3097 28.7198 19.3859C28.238 19.6334 27.7823 19.6203 27.5011 19.1253C27.2067 18.6078 27.4017 18.1747 27.9173 17.9028C30.7786 16.3859 31.8548 13.8041 32.1811 10.7722C32.2017 10.5866 32.2036 10.3991 32.2167 10.2134C32.2186 10.1891 32.2317 10.1666 32.2767 10.0391Z" fill="#B4267A"/>
<path d="M41.518 13.7235C41.503 13.6072 41.4823 13.5191 41.4823 13.4291C41.4805 12.5891 41.4805 11.751 41.4805 10.8604C42.313 10.8604 43.1155 10.8604 43.9648 10.8604C43.9648 11.7979 43.9648 12.741 43.9648 13.7235C43.1661 13.7235 42.3805 13.7235 41.518 13.7235Z" fill="#B4267A"/>
<path d="M26.5395 5.32707C26.5395 6.13895 26.5395 6.87957 26.5395 7.67644C25.9301 7.67644 25.3245 7.73269 24.7339 7.66144C24.042 7.57894 23.6239 7.07457 23.637 6.49332C23.6501 5.9177 24.0926 5.47145 24.777 5.3477C24.8689 5.33082 24.9626 5.32707 25.0564 5.3252C25.5233 5.32707 25.992 5.32707 26.5395 5.32707Z" fill="#B4267A"/>
<path d="M44.9946 53.0101C44.9946 56.1732 44.9965 59.3363 44.9946 62.4994C44.9946 63.4688 44.764 63.7051 43.7984 63.7051C38.5971 63.7069 33.3978 63.7069 28.1965 63.7051C27.2253 63.7051 26.9909 63.4707 26.9909 62.5088C26.989 57.6113 26.9853 52.7138 26.9928 47.8182C26.9965 44.6044 29.2615 42.3357 32.4809 42.3244C36.2534 42.3132 40.024 42.3207 43.7965 42.3225C44.7715 42.3225 44.9946 42.5475 44.9946 43.5188C44.9965 46.6819 44.9946 49.8469 44.9946 53.0101ZM43.279 44.01C39.6509 44.01 36.0903 44.0044 32.5315 44.0119C30.1746 44.0157 28.684 45.525 28.6821 47.8932C28.6784 52.3482 28.6821 56.8013 28.6821 61.2563C28.6821 61.5019 28.6821 61.7476 28.6821 61.9763C33.6134 61.9763 38.4321 61.9763 43.2809 61.9763C43.279 55.9913 43.279 50.0457 43.279 44.01Z" fill="white"/>
<path d="M43.2793 44.01C43.2793 50.0456 43.2793 55.9913 43.2793 61.9763C38.4324 61.9763 33.6136 61.9763 28.6805 61.9763C28.6805 61.7475 28.6805 61.5019 28.6805 61.2563C28.6805 56.8013 28.6786 52.3481 28.6805 47.8931C28.6824 45.5231 30.173 44.0156 32.5299 44.0119C36.0905 44.0063 39.6493 44.01 43.2793 44.01ZM36.0343 52.5919C34.7011 52.5919 33.368 52.5863 32.0368 52.5938C31.3674 52.5975 30.9699 52.9294 30.9774 53.4469C30.9849 53.9625 31.3786 54.2775 32.0593 54.2775C34.6786 54.2831 37.2961 54.2738 39.9155 54.2831C40.508 54.285 40.9411 54.0975 41.0011 53.4563C41.0518 52.92 40.6168 52.5938 39.8911 52.59C38.6049 52.5863 37.3205 52.5919 36.0343 52.5919ZM36.7768 57.9375C37.8305 57.9375 38.8824 57.9431 39.9361 57.9356C40.613 57.93 41.0086 57.6113 41.0105 57.0956C41.0124 56.5781 40.6149 56.2538 39.9418 56.2519C37.8586 56.2463 35.7774 56.2463 33.6943 56.2519C33.0061 56.2538 32.6274 56.565 32.6255 57.0919C32.6236 57.6188 33.0043 57.9319 33.6905 57.9375C34.718 57.9431 35.7474 57.9375 36.7768 57.9375Z" fill="#B4267A"/>
<path d="M36.0356 52.5922C37.3218 52.5922 38.6081 52.5885 39.8943 52.5941C40.6199 52.5979 41.0549 52.9241 41.0043 53.4604C40.9443 54.1016 40.5112 54.2891 39.9187 54.2872C37.2993 54.2779 34.6818 54.2854 32.0624 54.2816C31.3818 54.2797 30.9881 53.9647 30.9806 53.451C30.9731 52.9335 31.3687 52.6016 32.0399 52.5979C33.3693 52.5866 34.7024 52.5922 36.0356 52.5922Z" fill="white"/>
<path d="M36.7781 57.9378C35.7488 57.9378 34.7194 57.9434 33.69 57.9359C33.0038 57.9303 32.6231 57.6191 32.625 57.0903C32.6269 56.5634 33.0056 56.2522 33.6938 56.2503C35.7769 56.2447 37.8581 56.2447 39.9413 56.2503C40.6163 56.2522 41.0119 56.5784 41.01 57.0941C41.0081 57.6097 40.6125 57.9303 39.9356 57.9341C38.8838 57.9434 37.8319 57.9378 36.7781 57.9378Z" fill="white"/>
</svg>
