<svg id="Layer_1" data-name="Layer 1" xmlns="http://www.w3.org/2000/svg" viewBox="0 0 72 72"><defs><style>.cls-1{fill:#b3287a;}.cls-2{fill:#fff;}</style></defs><path class="cls-1" d="M20.24,72V49.35A19.68,19.68,0,0,1,34.28,30,9.08,9.08,0,0,0,41,20.84V17.57a4.07,4.07,0,0,1,.56-.07c1.79,0,3.58,0,5.37,0a.73.73,0,0,1,.84.59,59.89,59.89,0,0,1,2.39,10.13,80.48,80.48,0,0,1,.8,12.6c0,10.06,0,20.13,0,30.19v1Zm26.4-16.87V44.46c0-1.09-.25-1.34-1.35-1.34H32.57A5.94,5.94,0,0,0,26.4,49.3c0,5.5,0,11,0,16.51,0,1.08.26,1.34,1.36,1.34H45.29c1.09,0,1.35-.26,1.35-1.35Z"/><path class="cls-1" d="M52.76,0V5.76H27.88V0Z"/><path class="cls-1" d="M39.24,15.54V13h9.55v2.59Z"/><path class="cls-1" d="M32.34,6.83h1.79a12.6,12.6,0,0,1-.9,5,10,10,0,0,1-4.89,5.54c-.54.28-1.05.27-1.37-.29a.91.91,0,0,1,.47-1.37c3.22-1.71,4.43-4.61,4.79-8,0-.21,0-.42,0-.63Z"/><path class="cls-1" d="M42.73,11a2.26,2.26,0,0,1,0-.33V7.75h2.79V11Z"/><path class="cls-1" d="M25.89,1.53V4.17a17.17,17.17,0,0,1-2,0,1.29,1.29,0,0,1-1.23-1.31,1.39,1.39,0,0,1,1.28-1.29,1.62,1.62,0,0,1,.31,0Z"/><path class="cls-2" d="M46.64,55.13V65.8c0,1.09-.26,1.35-1.35,1.35H27.75c-1.09,0-1.35-.26-1.35-1.34,0-5.51,0-11,0-16.52a5.93,5.93,0,0,1,6.17-6.17H45.29c1.1,0,1.35.25,1.35,1.34ZM44.71,45H32.63a4.06,4.06,0,0,0-4.33,4.36V65.21H44.71Z"/><path class="cls-1" d="M44.71,45v20.2H28.3V49.38A4.05,4.05,0,0,1,32.63,45Zm-8.15,9.65H32.07c-.75,0-1.2.38-1.19,1s.45.93,1.22.93h8.83c.66,0,1.15-.21,1.22-.93s-.43-1-1.25-1Zm.84,6H41c.76,0,1.21-.37,1.21-1s-.45-.94-1.2-.95h-7c-.77,0-1.2.36-1.2.95s.43.94,1.2,1Z"/><path class="cls-2" d="M36.57,54.66H40.9c.82,0,1.31.37,1.25,1s-.55.93-1.22.93H32.1c-.77,0-1.21-.36-1.22-.93s.44-1,1.19-1C33.57,54.65,35.07,54.66,36.57,54.66Z"/><path class="cls-2" d="M37.4,60.67H33.93c-.77,0-1.2-.36-1.2-1s.43-.95,1.2-.95h7c.76,0,1.2.37,1.2.95s-.45.94-1.21,1Z"/></svg>