<?xml version="1.0" encoding="utf-8"?>
<!-- Generator: Adobe Illustrator 24.0.2, SVG Export Plug-In . SVG Version: 6.00 Build 0)  -->
<svg version="1.1" id="Layer_1" xmlns="http://www.w3.org/2000/svg" xmlns:xlink="http://www.w3.org/1999/xlink" x="0px" y="0px"
	 viewBox="0 0 60.83 55" style="enable-background:new 0 0 60.83 55;" xml:space="preserve">
<style type="text/css">
	.st0{fill:none;stroke:#000000;stroke-miterlimit:10;}
</style>
<path class="st0" d="M51.09,21.59c-0.41,0-0.85-0.17-1.19-0.48c-2.65-2.65-5.7-4.68-9.13-6.08C37.44,13.68,33.95,13,30.38,13
	c-3.6,0-7.1,0.68-10.39,2.04c-3.43,1.39-6.52,3.43-9.13,6.08c-0.64,0.64-1.7,0.64-2.34,0c-0.65-0.64-0.65-1.7,0-2.34
	c2.95-2.95,6.42-5.23,10.25-6.79c3.7-1.49,7.64-2.27,11.65-2.27c4.01,0,7.94,0.75,11.64,2.27c3.84,1.56,7.3,3.84,10.25,6.79
	c0.64,0.65,0.64,1.7,0,2.34C51.94,21.42,51.5,21.59,51.09,21.59z M44.57,28.11c-0.41,0-0.85-0.17-1.19-0.48
	c-3.46-3.46-8.08-5.4-13-5.4c-4.92,0-9.54,1.9-13,5.4c-0.64,0.64-1.7,0.64-2.34,0c-0.65-0.64-0.65-1.7,0-2.34
	c2.07-2.07,4.48-3.67,7.2-4.79c2.61-1.05,5.36-1.6,8.18-1.6c2.82,0,5.57,0.54,8.18,1.6c2.68,1.09,5.13,2.72,7.2,4.79
	c0.64,0.65,0.64,1.7,0,2.34C45.42,27.94,44.98,28.11,44.57,28.11z M38.02,34.63c-0.41,0-0.85-0.17-1.19-0.48
	c-1.73-1.73-4.04-2.68-6.48-2.68c-2.44,0-4.75,0.95-6.48,2.68c-0.65,0.64-1.7,0.64-2.34,0c-0.64-0.64-0.64-1.7,0-2.34
	c2.38-2.38,5.5-3.67,8.83-3.67c3.33,0,6.48,1.29,8.83,3.67c0.64,0.65,0.64,1.7,0,2.34C38.9,34.49,38.46,34.63,38.02,34.63z
	 M34.59,40.8c0,2.34-1.9,4.21-4.21,4.21c-2.31,0-4.21-1.9-4.21-4.21c0-2.34,1.9-4.21,4.21-4.21C32.69,36.59,34.59,38.46,34.59,40.8z
	"/>
</svg>
