<svg id="Layer_1" data-name="Layer 1" xmlns="http://www.w3.org/2000/svg" viewBox="0 0 72 72"><defs><style>.cls-1{fill:#b3287a;}</style></defs><path class="cls-1" d="M69.26,25.91a3,3,0,0,1-1.92-.77A44.34,44.34,0,0,0,36,12.09,44.39,44.39,0,0,0,4.55,25.14,2.67,2.67,0,1,1,.78,21.37,49.9,49.9,0,0,1,36,6.79a49.06,49.06,0,0,1,18.73,3.66A49.67,49.67,0,0,1,71.22,21.37a2.67,2.67,0,0,1,0,3.77A3.2,3.2,0,0,1,69.26,25.91ZM58.77,36.39a2.91,2.91,0,0,1-1.91-.77,29.54,29.54,0,0,0-41.83,0,2.66,2.66,0,0,1-3.77-3.76,34.92,34.92,0,0,1,49.48,0,2.67,2.67,0,0,1,0,3.76A3.14,3.14,0,0,1,58.77,36.39ZM48.23,46.87a3,3,0,0,1-1.91-.76,14.75,14.75,0,0,0-20.86,0,2.67,2.67,0,0,1-3.77-3.77,20,20,0,0,1,28.4,0,2.67,2.67,0,0,1,0,3.77A2.35,2.35,0,0,1,48.23,46.87Zm-5.51,9.94A6.78,6.78,0,1,1,36,50,6.77,6.77,0,0,1,42.72,56.81Z"/></svg>