<?xml version="1.0" encoding="utf-8"?>
<!-- Generator: Adobe Illustrator 24.0.2, SVG Export Plug-In . SVG Version: 6.00 Build 0)  -->
<svg version="1.1" id="Layer_1" xmlns="http://www.w3.org/2000/svg" xmlns:xlink="http://www.w3.org/1999/xlink" x="0px" y="0px"
	 viewBox="0 0 60.8 55" style="enable-background:new 0 0 60.8 55;" xml:space="preserve">
<g>
	<path d="M51.1,22.5c-0.4,0-0.8-0.2-1.2-0.5c-2.6-2.6-5.7-4.7-9.1-6.1c-3.3-1.4-6.8-2-10.4-2c-3.6,0-7.1,0.7-10.4,2
		c-3.4,1.4-6.5,3.4-9.1,6.1c-0.6,0.6-1.7,0.6-2.3,0c-0.6-0.6-0.6-1.7,0-2.3c3-3,6.4-5.2,10.3-6.8c3.7-1.5,7.6-2.3,11.6-2.3
		c4,0,7.9,0.7,11.6,2.3c3.8,1.6,7.3,3.8,10.3,6.8c0.6,0.6,0.6,1.7,0,2.3C51.9,22.3,51.5,22.5,51.1,22.5z M44.6,29
		c-0.4,0-0.8-0.2-1.2-0.5c-3.5-3.5-8.1-5.4-13-5.4c-4.9,0-9.5,1.9-13,5.4c-0.6,0.6-1.7,0.6-2.3,0c-0.6-0.6-0.6-1.7,0-2.3
		c2.1-2.1,4.5-3.7,7.2-4.8c2.6-1.1,5.4-1.6,8.2-1.6c2.8,0,5.6,0.5,8.2,1.6c2.7,1.1,5.1,2.7,7.2,4.8c0.6,0.6,0.6,1.7,0,2.3
		C45.4,28.9,45,29,44.6,29z M38,35.5c-0.4,0-0.8-0.2-1.2-0.5c-1.7-1.7-4-2.7-6.5-2.7c-2.4,0-4.8,1-6.5,2.7c-0.6,0.6-1.7,0.6-2.3,0
		c-0.6-0.6-0.6-1.7,0-2.3c2.4-2.4,5.5-3.7,8.8-3.7c3.3,0,6.5,1.3,8.8,3.7c0.6,0.6,0.6,1.7,0,2.3C38.9,35.4,38.4,35.5,38,35.5z
		 M34.6,41.7c0,2.3-1.9,4.2-4.2,4.2c-2.3,0-4.2-1.9-4.2-4.2c0-2.3,1.9-4.2,4.2-4.2C32.7,37.5,34.6,39.4,34.6,41.7z"/>
</g>
</svg>
