<svg width="45" height="36" viewBox="0 0 45 36" fill="none" xmlns="http://www.w3.org/2000/svg">
<path d="M43.0554 11.8807C42.648 11.8807 42.2067 11.711 41.8673 11.4055C39.2193 8.75778 36.1639 6.72109 32.735 5.32935C29.4081 3.97155 25.9114 3.29266 22.3467 3.29266C18.7482 3.29266 15.2514 3.97155 11.9583 5.32935C8.52953 6.72109 5.44029 8.75778 2.82624 11.4055C2.18121 12.0504 1.12879 12.0504 0.483769 11.4055C-0.161256 10.7605 -0.161256 9.70823 0.483769 9.06328C3.43731 6.11007 6.90004 3.83577 10.7362 2.2743C14.4367 0.780726 18.3747 0 22.3806 0C26.3866 0 30.3246 0.746781 34.025 2.2743C37.8612 3.83577 41.324 6.11007 44.2776 9.06328C44.9226 9.70823 44.9226 10.7605 44.2776 11.4055C43.9041 11.711 43.4628 11.8807 43.0554 11.8807ZM36.5373 18.3981C36.1299 18.3981 35.6885 18.2284 35.3491 17.9229C31.8863 14.4605 27.2693 12.5257 22.3467 12.5257C17.4242 12.5257 12.8071 14.4266 9.34433 17.9229C8.69931 18.5679 7.64689 18.5679 7.00186 17.9229C6.35684 17.2779 6.35684 16.2257 7.00186 15.5807C9.07273 13.5101 11.4831 11.9147 14.199 10.7945C16.813 9.74218 19.5629 9.19906 22.3806 9.19906C25.1984 9.19906 27.9482 9.74218 30.5623 10.7945C33.2442 11.8807 35.6885 13.5101 37.7594 15.5807C38.4044 16.2257 38.4044 17.2779 37.7594 17.9229C37.386 18.2284 36.9447 18.3981 36.5373 18.3981ZM29.9852 24.9156C29.5778 24.9156 29.1365 24.7458 28.797 24.4403C27.0656 22.7091 24.7571 21.7587 22.3128 21.7587C19.8685 21.7587 17.5599 22.7091 15.8285 24.4403C15.1835 25.0853 14.1311 25.0853 13.4861 24.4403C12.8411 23.7954 12.8411 22.7431 13.4861 22.0981C15.8625 19.722 18.9858 18.4321 22.3128 18.4321C25.6397 18.4321 28.797 19.722 31.1395 22.0981C31.7845 22.7431 31.7845 23.7954 31.1395 24.4403C30.8679 24.7798 30.4265 24.9156 29.9852 24.9156ZM26.5564 31.0935C26.5564 33.4357 24.6553 35.3027 22.3467 35.3027C20.0382 35.3027 18.137 33.4018 18.137 31.0935C18.137 28.7513 20.0382 26.8843 22.3467 26.8843C24.6553 26.8843 26.5564 28.7513 26.5564 31.0935Z" fill="#B4267A"/>
</svg>
