<svg width="36" height="40" viewBox="0 0 36 40" fill="none" xmlns="http://www.w3.org/2000/svg">
<path d="M35.2386 23.0146C35.2386 23.1165 35.2386 23.2183 35.2046 23.3201C35.2386 23.6935 35.2386 24.033 35.2386 24.4403C35.2386 34.1825 17.6193 39.6476 17.6193 39.6476C17.6193 39.6476 0 34.1825 0 24.4403C0 24.0669 3.31536e-05 23.6935 0.0339817 23.3201C3.31536e-05 23.2183 0 23.1165 0 23.0146V1.4257C0 0.644972 0.645068 0 1.42588 0H33.8127C34.5935 0 35.2386 0.644972 35.2386 1.4257V23.0146ZM28.347 15.3431C28.347 14.5624 27.702 13.9174 26.9212 13.9174H21.2518V8.2486C21.2518 7.46787 20.6067 6.82292 19.8259 6.82292H15.4127C14.6318 6.82292 13.9868 7.46787 13.9868 8.2486V13.9174H8.31743C7.53661 13.9174 6.89155 14.5624 6.89155 15.3431V19.7559C6.89155 20.5367 7.53661 21.1816 8.31743 21.1816H13.9868V26.8504C13.9868 27.6311 14.6318 28.2761 15.4127 28.2761H19.8259C20.6067 28.2761 21.2518 27.6311 21.2518 26.8504V21.1816H26.9212C27.702 21.1816 28.347 20.5367 28.347 19.7559V15.3431Z" fill="#B4267A"/>
</svg>
