<?xml version="1.0" encoding="utf-8"?>
<!-- Generator: Adobe Illustrator 24.0.2, SVG Export Plug-In . SVG Version: 6.00 Build 0)  -->
<svg version="1.1" id="Layer_1" xmlns="http://www.w3.org/2000/svg" xmlns:xlink="http://www.w3.org/1999/xlink" x="0px" y="0px"
	 viewBox="0 0 65.6 57.1" style="enable-background:new 0 0 65.6 57.1;" xml:space="preserve">
<g>
	<path d="M47.3,8c0.8,0,1.4,0.6,1.4,1.4V31c0,0.1,0,0.2,0,0.3c0,0.4,0,0.7,0,1.1c0,9.7-17.6,15.2-17.6,15.2s-17.6-5.5-17.6-15.2
		c0-0.4,0-0.7,0-1.1c0-0.1,0-0.2,0-0.3V9.4C13.5,8.7,14.2,8,15,8H47.3 M21.9,29.2h5.7v5.7c0,0.8,0.6,1.4,1.4,1.4h4.4
		c0.8,0,1.4-0.6,1.4-1.4v-5.7h5.7c0.8,0,1.4-0.6,1.4-1.4v-4.4c0-0.8-0.7-1.4-1.4-1.4h-5.7v-5.7c0-0.8-0.6-1.4-1.4-1.4h-4.4
		c-0.8,0-1.4,0.6-1.4,1.4v5.7h-5.7c-0.8,0-1.4,0.6-1.4,1.4v4.4C20.4,28.6,21.1,29.2,21.9,29.2 M47.3,5H15c-2.4,0-4.4,2-4.4,4.4V31
		c0,0.1,0,0.2,0,0.4c0,0.4,0,0.7,0,1c0,11.6,17.7,17.4,19.7,18.1l0.9,0.3l0.9-0.3c2-0.6,19.7-6.5,19.7-18.1c0-0.3,0-0.6,0-1
		c0-0.2,0-0.4,0-0.4V9.4C51.8,7,49.8,5,47.3,5L47.3,5z M30.5,17.8h1.3v4.1v3h3h4.1v1.3h-4.1h-3v3v4.1h-1.3v-4.1v-3h-3h-4.1v-1.3h4.1
		h3v-3V17.8L30.5,17.8z"/>
</g>
</svg>
