<?xml version="1.0" encoding="utf-8"?>
<!-- Generator: Adobe Illustrator 24.0.2, SVG Export Plug-In . SVG Version: 6.00 Build 0)  -->
<svg version="1.1" id="Layer_1" xmlns="http://www.w3.org/2000/svg" xmlns:xlink="http://www.w3.org/1999/xlink" x="0px" y="0px"
	 viewBox="0 0 60.8 55" style="enable-background:new 0 0 60.8 55;" xml:space="preserve">
<style type="text/css">
	.st0{fill:none;stroke:#000000;stroke-miterlimit:10;}
</style>
<path class="st0" d="M48,33.2c0,0.1,0,0.2,0,0.3c0,0.4,0,0.7,0,1.1c0,9.7-17.6,15.2-17.6,15.2s-17.6-5.5-17.6-15.2
	c0-0.4,0-0.7,0-1.1c0-0.1,0-0.2,0-0.3V11.6c0-0.8,0.7-1.4,1.4-1.4h32.4c0.8,0,1.4,0.6,1.4,1.4V33.2L48,33.2z M41.1,25.5
	c0-0.8-0.7-1.4-1.4-1.4H34v-5.7c0-0.8-0.6-1.4-1.4-1.4h-4.4c-0.8,0-1.4,0.6-1.4,1.4v5.7h-5.7c-0.8,0-1.4,0.6-1.4,1.4V30
	c0,0.8,0.7,1.4,1.4,1.4h5.7v5.7c0,0.8,0.6,1.4,1.4,1.4h4.4c0.8,0,1.4-0.6,1.4-1.4v-5.7h5.7c0.8,0,1.4-0.6,1.4-1.4V25.5z"/>
</svg>
