<svg id="Layer_1" data-name="Layer 1" xmlns="http://www.w3.org/2000/svg" viewBox="0 0 72 72"><defs><style>.cls-1{fill:#b3287a;}</style></defs><path class="cls-1" d="M67.82,41.79a1.78,1.78,0,0,1-.06.56c.06.68.06,1.29.06,2,0,17.7-32,27.62-32,27.62s-32-9.92-32-27.62c0-.67,0-1.35.06-2a1.78,1.78,0,0,1-.06-.56V2.59A2.6,2.6,0,0,1,6.42,0H65.23a2.6,2.6,0,0,1,2.59,2.59ZM55.31,27.86a2.61,2.61,0,0,0-2.59-2.59H42.42V15a2.6,2.6,0,0,0-2.59-2.59h-8A2.6,2.6,0,0,0,29.23,15V25.27H18.94a2.61,2.61,0,0,0-2.59,2.59v8a2.61,2.61,0,0,0,2.59,2.59H29.23V48.76a2.6,2.6,0,0,0,2.59,2.59h8a2.6,2.6,0,0,0,2.59-2.59V38.47h10.3a2.61,2.61,0,0,0,2.59-2.59Z"/></svg>