<svg width="48" height="48" viewBox="0 0 48 48" fill="none" xmlns="http://www.w3.org/2000/svg">
<path d="M47.5281 23.7614C47.5281 36.8981 36.8683 47.5228 23.7641 47.5228C10.6599 47.5228 0 36.8641 0 23.7614C0 10.6587 10.6599 0 23.7641 0C36.8683 0 47.5281 10.6247 47.5281 23.7614ZM8.18163 24.7458H16.533C16.6009 24.1008 16.7706 23.4559 17.0083 22.8449C17.1441 22.5054 17.3138 22.1999 17.5175 21.8944C17.5175 21.8944 17.5175 21.8944 17.4836 21.8944H8.18163C7.6724 21.8944 7.23106 22.3357 7.23106 22.8449V23.7953C7.23106 24.3384 7.6724 24.7458 8.18163 24.7458ZM40.5347 20.6385C40.5347 20.1293 40.0934 19.688 39.5841 19.688H36.1214C34.7295 15.988 30.7575 13.1027 26.8534 13.1027H26.4121C26.4121 13.1027 26.3781 13.1027 26.3442 13.1027H20.9463C20.4371 13.1027 19.9958 13.544 19.9958 14.0532V15.2752C19.9958 15.7844 20.4371 16.2256 20.9463 16.2256H23.5604H25.9028C26.3102 16.2256 26.6497 16.5651 26.6497 16.9724C26.6497 17.3798 26.3102 17.7192 25.9028 17.7192H22.1685H9.47168C8.96245 17.7192 8.52112 18.1605 8.52112 18.6697V19.6201C8.52112 20.1293 8.96245 20.5706 9.47168 20.5706H18.6378C19.2149 20.0275 19.8939 19.5862 20.6408 19.2467C21.4556 18.9073 22.3382 18.7036 23.2548 18.7036C24.1715 18.7036 25.0541 18.8733 25.8689 19.2467C26.6837 19.5862 27.3966 20.0614 28.0077 20.7064C28.6187 21.3174 29.128 22.0641 29.4674 22.8449C29.8069 23.6595 30.0106 24.5421 30.0106 25.4586C30.0106 26.3752 29.8409 27.2577 29.4674 28.0724C29.128 28.8871 28.6527 29.5999 28.0077 30.2109C27.3966 30.8219 26.6837 31.3311 25.8689 31.6705C25.0202 32.01 24.1715 32.2137 23.2548 32.2137C22.3382 32.2137 21.4556 32.0439 20.6408 31.6705C19.826 31.3311 19.1131 30.8559 18.502 30.2109H12.7308C12.2215 30.2109 11.7802 30.6522 11.7802 31.1614V32.1118C11.7802 32.621 12.2215 33.0623 12.7308 33.0623H31.9457C34.4579 33.0623 36.393 31.8742 37.3435 30.0751H39.652C40.1613 30.0751 40.6026 29.6338 40.6026 29.1247V20.6385H40.5347ZM9.43773 28.921H17.4157C17.2459 28.6494 17.1101 28.3779 17.0083 28.1063C16.7367 27.4614 16.5669 26.7825 16.4991 26.0696H9.43773C8.9285 26.0696 8.48717 26.5109 8.48717 27.0201V27.9706C8.48717 28.5137 8.9285 28.921 9.43773 28.921ZM23.9338 21.3852V20.5366C23.9338 20.1293 23.6283 19.8238 23.2209 19.8238C22.8135 19.8238 22.508 20.1293 22.508 20.5366V21.3852C22.0666 21.4871 21.6593 21.6229 21.3198 21.8605C20.6068 22.3018 20.1995 23.0146 20.1995 23.7614C20.1995 24.2706 20.3692 24.7458 20.7087 25.1531C20.9463 25.4586 21.2519 25.6962 21.5914 25.866C21.8629 26.0017 22.2024 26.1036 22.508 26.1715C22.7456 26.2054 22.9832 26.2394 23.2209 26.2394C23.3906 26.2394 23.5604 26.2394 23.6962 26.2733C23.8659 26.3073 24.0357 26.3752 24.2054 26.443C24.3412 26.5109 24.5109 26.6467 24.6128 26.7825C24.7486 26.9183 24.8165 27.088 24.8165 27.2917C24.8165 27.4614 24.7825 27.699 24.3751 27.9366C24.0696 28.1403 23.5943 28.276 23.1869 28.276C23.0172 28.276 22.7796 28.2421 22.6777 28.2082C22.508 28.1742 22.3382 28.1063 22.2024 28.0724C22.0666 28.0045 21.9308 27.9027 21.795 27.7669C21.5235 27.4614 21.0821 27.4274 20.7766 27.699C20.4711 27.9705 20.4371 28.4118 20.7087 28.7173C20.9803 29.0228 21.2858 29.2605 21.6593 29.3962C21.8629 29.4981 22.1345 29.566 22.4401 29.6338H22.508V30.4825C22.508 30.8898 22.8135 31.1953 23.2209 31.1953C23.6283 31.1953 23.9338 30.8898 23.9338 30.4825V29.5999C24.3752 29.4981 24.8165 29.3283 25.156 29.1247C25.8689 28.6834 26.2423 28.0385 26.2423 27.2917C26.2423 26.7825 26.0386 26.2394 25.6991 25.866C25.4615 25.5944 25.1899 25.3568 24.8844 25.221C24.6128 25.0852 24.3412 24.9834 24.0357 24.9155C23.798 24.8476 23.5264 24.8476 23.2548 24.8476C23.0851 24.8476 22.9154 24.8476 22.7456 24.8137C22.5759 24.7797 22.3722 24.7118 22.2024 24.6439C22.0666 24.5761 21.8969 24.4403 21.795 24.3045C21.6593 24.1687 21.5914 23.965 21.5914 23.7953C21.5914 23.5917 21.6592 23.3201 22.0666 23.0825C22.3722 22.8788 22.8135 22.777 23.2209 22.777C23.3227 22.777 23.4585 22.8109 23.6283 22.8449H23.6622C23.798 22.8788 23.9678 22.9467 24.1715 23.0146C24.3073 23.0825 24.477 23.1843 24.5788 23.2862C24.8504 23.5577 25.2918 23.5577 25.5973 23.2862C25.8689 23.0146 25.8689 22.5733 25.5973 22.2678C25.3597 22.0302 25.0881 21.8265 24.7486 21.6908C24.477 21.555 24.2054 21.4871 23.9678 21.4192L23.9338 21.3852Z" fill="#0072CE"/>
</svg>
