<svg id="Layer_1" data-name="Layer 1" xmlns="http://www.w3.org/2000/svg" viewBox="0 0 72 72"><defs><style>.cls-1{fill:#2c71b9;}</style></defs><path class="cls-1" d="M71.72,36.14A35.86,35.86,0,1,1,35.86.29,35.86,35.86,0,0,1,71.72,36.14ZM12.35,37.63H25a11,11,0,0,1,.72-2.87,7.84,7.84,0,0,1,.76-1.43H12.35a1.46,1.46,0,0,0-1.44,1.43v1.43A1.44,1.44,0,0,0,12.35,37.63Zm48.82-6.2A1.46,1.46,0,0,0,59.73,30H54.51c-2.1-5.59-8.1-9.94-14-9.94H31.61a1.46,1.46,0,0,0-1.44,1.43v1.85a1.46,1.46,0,0,0,1.44,1.43h7.48a1.13,1.13,0,1,1,0,2.25H14.29a1.46,1.46,0,0,0-1.43,1.44v1.43a1.46,1.46,0,0,0,1.43,1.44H28.13a11,11,0,0,1,3-2,10.29,10.29,0,0,1,3.94-.82,10.16,10.16,0,0,1,7.18,3,10.58,10.58,0,0,1,2.2,3.23,10.29,10.29,0,0,1,.82,3.94,10.16,10.16,0,0,1-3,7.18A10.12,10.12,0,0,1,39,48.08a10.5,10.5,0,0,1-3.95.82,9.44,9.44,0,0,1-3.94-.82,9.28,9.28,0,0,1-3.23-2.2H19.21a1.46,1.46,0,0,0-1.43,1.43v1.43a1.46,1.46,0,0,0,1.43,1.44h29a8.83,8.83,0,0,0,8.14-4.51h3.49a1.46,1.46,0,0,0,1.43-1.43V31.43ZM14.24,43.93h12a6.39,6.39,0,0,1-.61-1.23,10.33,10.33,0,0,1-.77-3.07H14.24a1.46,1.46,0,0,0-1.43,1.43v1.43A1.43,1.43,0,0,0,14.24,43.93ZM36.12,32.56V31.28a1.08,1.08,0,1,0-2.15,0v1.28a5.14,5.14,0,0,0-1.8.71,3.43,3.43,0,0,0-1.69,2.87,3.22,3.22,0,0,0,.77,2.1,4,4,0,0,0,1.33,1.08,6.3,6.3,0,0,0,1.39.46,7.6,7.6,0,0,0,1.07.1,3.26,3.26,0,0,1,.72,0,5,5,0,0,1,.77.26,2,2,0,0,1,.61.51,1,1,0,0,1,.31.77c0,.26-.05.61-.67,1A3.45,3.45,0,0,1,35,43a3.16,3.16,0,0,1-.77-.11c-.25-.05-.51-.15-.72-.2a2.44,2.44,0,0,1-.61-.46,1.09,1.09,0,1,0-1.64,1.43,3.62,3.62,0,0,0,1.43,1,5.56,5.56,0,0,0,1.18.35H34v1.29a1.08,1.08,0,0,0,2.15,0V45A6.71,6.71,0,0,0,38,44.24a3.18,3.18,0,0,0,1.64-2.77,3.3,3.3,0,0,0-.82-2.15,3.65,3.65,0,0,0-1.23-1,5.6,5.6,0,0,0-1.28-.47,4.52,4.52,0,0,0-1.18-.1,4,4,0,0,1-.77-.05,4.56,4.56,0,0,1-.82-.26,1.83,1.83,0,0,1-.61-.51,1.1,1.1,0,0,1-.31-.77,1.19,1.19,0,0,1,.72-1.07A3.26,3.26,0,0,1,35,34.66a3.87,3.87,0,0,1,.62.1h.05c.2.05.46.15.77.26a2.33,2.33,0,0,1,.61.41,1.09,1.09,0,0,0,1.54-1.54A3.73,3.73,0,0,0,37.35,33a6,6,0,0,0-1.18-.41Z"/></svg>