<svg width="43" height="37" viewBox="0 0 43 37" fill="none" xmlns="http://www.w3.org/2000/svg">
<path d="M42.2398 13.6034C41.9343 14.1465 41.3572 14.452 40.7801 14.452C40.5085 14.452 40.2029 14.3842 39.9653 14.2484L21.1577 3.55574L2.48594 14.2484C1.67117 14.6897 0.652718 14.4181 0.211385 13.6374C-0.229948 12.8566 0.0416424 11.8383 0.822462 11.363L4.38706 9.32636V1.89245C4.38706 1.11171 5.03208 0.466741 5.8129 0.466741H9.47936C10.2602 0.466741 10.9052 1.11171 10.9052 1.89245V5.59243L20.275 0.229128C20.7843 -0.076376 21.4293 -0.076376 21.9385 0.229128L41.5609 11.397C42.4096 11.7704 42.6812 12.7887 42.2398 13.6034ZM38.0302 16.4209V35.0226C38.0302 35.8034 37.3852 36.4483 36.6044 36.4483H5.84685C5.06603 36.4483 4.42101 35.8034 4.42101 35.0226V16.4209L21.1577 6.81445L38.0302 16.4209ZM17.661 19.4419H10.9392V26.2309H17.661V19.4419ZM31.5121 19.4419H24.7902V26.2309H31.5121V19.4419Z" fill="#B4267A"/>
</svg>
