<?xml version="1.0" encoding="utf-8"?>
<!-- Generator: Adobe Illustrator 24.0.2, SVG Export Plug-In . SVG Version: 6.00 Build 0)  -->
<svg version="1.1" id="Layer_1" xmlns="http://www.w3.org/2000/svg" xmlns:xlink="http://www.w3.org/1999/xlink" x="0px" y="0px"
	 viewBox="0 0 60.83 55" style="enable-background:new 0 0 60.83 55;" xml:space="preserve">
<style type="text/css">
	.st0{fill:none;stroke:#000000;stroke-miterlimit:10;}
</style>
<path class="st0" d="M51.87,21.55c-0.31,0.54-0.88,0.85-1.46,0.85c-0.27,0-0.58-0.07-0.82-0.2L30.79,11.5L12.12,22.19
	c-0.82,0.44-1.83,0.17-2.27-0.61c-0.44-0.78-0.17-1.8,0.61-2.27l3.57-2.04V9.84c0-0.78,0.65-1.43,1.43-1.43h3.67
	c0.78,0,1.43,0.65,1.43,1.43v3.7l9.37-5.36c0.51-0.31,1.15-0.31,1.66,0L51.2,19.34C52.04,19.72,52.32,20.73,51.87,21.55z
	 M47.66,24.37v18.6c0,0.78-0.64,1.42-1.43,1.42H15.48c-0.78,0-1.43-0.64-1.43-1.42v-18.6l16.74-9.61L47.66,24.37z M27.3,27.39h-6.72
	v6.79h6.72V27.39z M41.15,27.39h-6.72v6.79h6.72V27.39z"/>
</svg>
