<?xml version="1.0" encoding="utf-8"?>
<!-- Generator: Adobe Illustrator 24.0.2, SVG Export Plug-In . SVG Version: 6.00 Build 0)  -->
<svg version="1.1" id="Layer_1" xmlns="http://www.w3.org/2000/svg" xmlns:xlink="http://www.w3.org/1999/xlink" x="0px" y="0px"
	 viewBox="0 0 60.8 55" style="enable-background:new 0 0 60.8 55;" xml:space="preserve">
<g>
	<path d="M30.3,10.2c0.3,0,0.6,0.1,0.8,0.2l19.6,11.2c0.8,0.4,1.1,1.4,0.7,2.2c-0.3,0.5-0.9,0.8-1.5,0.8c-0.3,0-0.6-0.1-0.8-0.2
		L30.3,13.8L11.7,24.5c-0.3,0.1-0.6,0.2-0.8,0.2c-0.6,0-1.1-0.3-1.4-0.8C8.9,23.1,9.2,22,10,21.6l3.6-2v-7.4c0-0.8,0.6-1.4,1.4-1.4
		h3.7c0.8,0,1.4,0.6,1.4,1.4v3.7l9.4-5.4C29.7,10.3,30,10.2,30.3,10.2 M30.3,17l16.9,9.6v18.6c0,0.8-0.6,1.4-1.4,1.4H15
		c-0.8,0-1.4-0.6-1.4-1.4V26.6L30.3,17 M34,36.4h6.7v-6.8H34V36.4 M20.1,36.4h6.7v-6.8h-6.7V36.4 M30.3,7.2c-0.8,0-1.6,0.2-2.3,0.6
		l-5.1,2.9c-0.6-1.8-2.2-3.1-4.2-3.1H15c-2.4,0-4.4,2-4.4,4.4v5.7L8.5,19l0,0l0,0c-2.1,1.3-2.9,4.1-1.7,6.3c0.8,1.4,2.2,2.3,3.8,2.3
		v17.6c0,2.4,2,4.4,4.4,4.4h30.8c2.4,0,4.4-2,4.4-4.4V27.6c1.6-0.1,3-1,3.8-2.4l0,0l0,0c0.6-1.2,0.7-2.5,0.3-3.7
		c-0.4-1.1-1.2-2-2.3-2.6L32.6,7.8C31.9,7.4,31.1,7.2,30.3,7.2L30.3,7.2z M37,32.6h0.7v0.8H37V32.6L37,32.6z M23.1,32.6h0.7v0.8
		h-0.7V32.6L23.1,32.6z"/>
</g>
</svg>
