<?xml version="1.0" encoding="utf-8"?>
<!-- Generator: Adobe Illustrator 24.0.2, SVG Export Plug-In . SVG Version: 6.00 Build 0)  -->
<svg version="1.1" id="Layer_1" xmlns="http://www.w3.org/2000/svg" xmlns:xlink="http://www.w3.org/1999/xlink" x="0px" y="0px"
	 viewBox="0 0 60.8 55" style="enable-background:new 0 0 60.8 55;" xml:space="preserve">
<style type="text/css">
	.st0{fill-rule:evenodd;clip-rule:evenodd;}
</style>
<g>
	<path class="st0" d="M28.8,28.7c1.1-1.5,1-3.1,0.2-6.1c-1.5-5.7-0.9-8.9,4.3-12.6l2.5-1.8l0.6,3c0.6,3.2,1.7,5.2,4.4,9.1
		c0.1,0.2,0.1,0.2,0.2,0.3c3.9,5.6,5.4,8.9,5.4,15c0,7.4-7.5,14-16,14s-16-6.6-16-14c0-0.1,0-0.1,0-0.7c-0.2-4.7,0.7-8.4,4.2-12.4
		c0.7-0.8,1.6-1.7,2.5-2.4l2.1-1.7l1,2.5c0.7,1.9,1.6,3.3,2.6,4.4C27.7,26.2,28.4,27.3,28.8,28.7z M21.6,25.1
		c-2.7,3.1-3.4,5.8-3.2,9.6c0,0.7,0,0.7,0,0.9c0,5.1,5.6,10,12,10c6.4,0,12-4.9,12-10c0-5.1-1.1-7.7-4.6-12.7
		c-0.1-0.2-0.1-0.2-0.2-0.3c-2.1-3-3.4-5.1-4.2-7.4c-1.4,1.6-1.3,3.3-0.5,6.4c1.5,5.7,0.9,8.9-4.3,12.6l-2.9,2.1l-0.2-3.6
		c-0.1-2.3-0.7-3.9-1.5-4.8c-0.8-0.9-1.5-1.9-2.2-3C21.7,25,21.7,25.1,21.6,25.1z"/>
</g>
</svg>
