<svg width="48" height="48" viewBox="0 0 48 48" fill="none" xmlns="http://www.w3.org/2000/svg">
<g id="24 / basic / flame">
<path id="icon" fill-rule="evenodd" clip-rule="evenodd" d="M22.3503 23.0604C23.4432 21.5265 23.3212 19.9111 22.5634 17.0052C21.0647 11.2581 21.6615 8.10815 26.8282 4.37881L29.3499 2.55859L29.9599 5.60826C30.6081 8.84932 31.6726 10.8539 34.4059 14.7098C34.5144 14.8629 34.5144 14.8629 34.6235 15.0168C38.5606 20.5713 39.9987 23.9197 39.9987 30.0005C39.9987 37.3772 32.5414 44.0005 23.9987 44.0005C15.4555 44.0005 7.9987 37.3781 7.9987 30.0005C7.9987 29.8626 7.99884 29.8668 7.97547 29.2574C7.79476 24.5441 8.66632 20.8552 12.1928 16.8722C12.9379 16.0307 13.7849 15.2218 14.738 14.4479L16.8419 12.7394L17.854 15.2536C18.6019 17.1114 19.4781 18.5718 20.4679 19.6435C21.3063 20.5512 21.9282 21.6926 22.3503 23.0604ZM15.1875 19.5238C12.4728 22.59 11.8273 25.3217 11.9724 29.1042C11.9994 29.8083 11.9985 29.7835 11.9985 30.0005C11.9985 35.0563 17.5657 40.0005 23.9985 40.0005C30.4308 40.0005 35.9985 35.0555 35.9985 30.0005C35.9985 24.9169 34.862 22.2706 31.36 17.3299C31.2515 17.1769 31.2515 17.1769 31.1424 17.023C29.0156 14.0227 27.7479 11.9357 26.9092 9.60155C25.5395 11.2429 25.62 12.8753 26.4338 15.9958C27.9325 21.7429 27.3357 24.8928 22.1691 28.6222L19.2231 30.7486L19.0022 27.1221C18.8611 24.805 18.3367 23.2316 17.5293 22.3575C16.7317 21.4939 16.0115 20.4828 15.3656 19.3261C15.3054 19.3918 15.246 19.4577 15.1875 19.5238Z" fill="#B4267A"/>
</g>
</svg>
