<svg id="Layer_1" data-name="Layer 1" xmlns="http://www.w3.org/2000/svg" viewBox="0 0 72 72"><defs><style>.cls-1{fill:#b3287a;fill-rule:evenodd;}</style></defs><g id="_24_basic_flame" data-name="24 / basic / flame"><path id="icon" class="cls-1" d="M33.2,35.62c1.89-2.67,1.68-5.47.37-10.52C31,15.11,32,9.64,41,3.16L45.36,0l1.06,5.3c1.12,5.63,3,9.11,7.72,15.81l.38.53c6.84,9.65,9.34,15.47,9.34,26,0,12.81-13,24.32-27.8,24.32S8.26,60.49,8.26,47.68c0-.24,0-.24,0-1.29-.31-8.19,1.2-14.6,7.33-21.52A36.35,36.35,0,0,1,20,20.66l3.66-3,1.75,4.37a25.05,25.05,0,0,0,4.54,7.62A15.26,15.26,0,0,1,33.2,35.62ZM20.75,29.47C16,34.8,14.91,39.55,15.17,46.12c0,1.22,0,1.18,0,1.56,0,8.78,9.67,17.37,20.85,17.37s20.85-8.59,20.85-17.37-2-13.43-8.06-22l-.38-.53c-3.69-5.21-5.9-8.84-7.35-12.89-2.38,2.85-2.24,5.68-.83,11.11,2.6,10,1.57,15.45-7.41,21.93L27.76,49l-.38-6.3c-.25-4-1.16-6.76-2.56-8.28a27.15,27.15,0,0,1-3.76-5.27C21,29.25,20.85,29.36,20.75,29.47Z"/></g></svg>