<?xml version="1.0" encoding="utf-8"?>
<!-- Generator: Adobe Illustrator 24.0.2, SVG Export Plug-In . SVG Version: 6.00 Build 0)  -->
<svg version="1.1" id="Layer_1" xmlns="http://www.w3.org/2000/svg" xmlns:xlink="http://www.w3.org/1999/xlink" x="0px" y="0px"
	 viewBox="0 0 60.83 55" style="enable-background:new 0 0 60.83 55;" xml:space="preserve">
<style type="text/css">
	.st0{fill-rule:evenodd;clip-rule:evenodd;fill:none;stroke:#000000;stroke-miterlimit:10;}
</style>
<path class="st0" d="M27.26,24.87c1.09-1.53,0.97-3.15,0.21-6.06c-1.5-5.75-0.9-8.9,4.27-12.63l2.52-1.82l0.61,3.05
	c0.65,3.24,1.71,5.25,4.45,9.1c0.11,0.15,0.11,0.15,0.22,0.31c3.94,5.55,5.38,8.9,5.38,14.98c0,7.38-7.46,14-16,14s-16-6.62-16-14
	c0-0.14,0-0.13-0.02-0.74c-0.18-4.71,0.69-8.4,4.22-12.39c0.75-0.84,1.59-1.65,2.55-2.42l2.1-1.71l1.01,2.51
	c0.75,1.86,1.62,3.32,2.61,4.39C26.22,22.36,26.84,23.5,27.26,24.87z M20.1,21.33c-2.71,3.07-3.36,5.8-3.21,9.58
	c0.03,0.7,0.03,0.68,0.03,0.9c0,5.06,5.57,10,12,10c6.43,0,12-4.94,12-10c0-5.08-1.14-7.73-4.64-12.67
	c-0.11-0.15-0.11-0.15-0.22-0.31c-2.13-3-3.4-5.09-4.23-7.42c-1.37,1.64-1.29,3.27-0.48,6.39c1.5,5.75,0.9,8.9-4.26,12.63
	l-2.95,2.13l-0.22-3.63c-0.14-2.32-0.67-3.89-1.47-4.76c-0.8-0.86-1.52-1.87-2.16-3.03C20.21,21.2,20.16,21.27,20.1,21.33z"/>
</svg>
