<svg width="44" height="44" viewBox="0 0 44 44" fill="none" xmlns="http://www.w3.org/2000/svg">
<path d="M20.1011 2.01937L19.9158 0.0926316C20.5827 0.0370526 21.2682 0 21.9537 0V1.92674C21.3423 1.94526 20.7124 1.96379 20.1011 2.01937ZM25.6404 2.26021C25.0476 2.14905 24.4177 2.07495 23.8063 2.01937L23.9731 0.0926316C24.64 0.148211 25.3255 0.240842 25.9924 0.370526L25.6404 2.26021ZM16.4699 2.70484L15.9326 0.852211C16.5811 0.666947 17.248 0.518737 17.9149 0.389053L18.2669 2.29726C17.6556 2.38989 17.0627 2.53811 16.4699 2.70484ZM29.1975 3.26063C28.6232 3.03832 28.0303 2.85305 27.4375 2.68632L27.9562 0.833684C28.6046 1.01895 29.2531 1.24126 29.8829 1.48211L29.1975 3.26063ZM13.024 4.05726L12.1533 2.31579C12.7646 2.01937 13.376 1.74147 14.0059 1.48211L14.7099 3.27916C14.1356 3.52 13.5613 3.77937 13.024 4.05726ZM32.5137 4.90947C31.9949 4.59453 31.4392 4.27958 30.9019 4.00168L31.7541 2.27874C32.3655 2.57516 32.9583 2.90863 33.5326 3.26063L32.5137 4.90947ZM9.87453 6.00253L8.70737 4.46484C9.24463 4.05726 9.80042 3.66821 10.3747 3.31621L11.3937 4.94653C10.8749 5.28 10.3747 5.632 9.87453 6.00253ZM35.4779 7.13263C35.0147 6.72505 34.5331 6.31747 34.0514 5.94695L35.2185 4.40926C35.7558 4.81684 36.2745 5.24295 36.7933 5.70611L35.4779 7.13263ZM7.15116 8.50358L5.72463 7.20674C6.16926 6.70653 6.65095 6.22484 7.15116 5.76168L8.448 7.18821C8.00337 7.61432 7.55874 8.05895 7.15116 8.50358ZM37.9789 9.87453C37.6084 9.37432 37.2008 8.91116 36.7933 8.448L38.2198 7.13263C38.6644 7.63284 39.1091 8.15158 39.5166 8.68884L37.9789 9.87453ZM4.90947 11.4678L3.27916 10.4488C3.63116 9.87453 4.02021 9.31874 4.42779 8.78147L5.96547 9.94863C5.59495 10.4303 5.24295 10.9491 4.90947 11.4678ZM39.9427 13.0055C39.6648 12.4497 39.3684 11.9124 39.0349 11.3937L40.6653 10.3747C41.0173 10.9491 41.3693 11.5419 41.6657 12.1533L39.9427 13.0055ZM3.27916 14.784L1.46358 14.08C1.70442 13.4501 1.98232 12.8202 2.27874 12.2274L4.00168 13.0796C3.74232 13.6354 3.50147 14.2097 3.27916 14.784ZM41.2952 16.4514C41.1284 15.8585 40.9246 15.2657 40.7023 14.6914L42.4994 13.9874C42.7402 14.6173 42.9625 15.2657 43.1478 15.9141L41.2952 16.4514ZM2.26021 18.3411L0.370526 17.9891C0.481684 17.3406 0.648421 16.6737 0.833684 16.0253L2.68632 16.544C2.51958 17.1368 2.37137 17.7482 2.26021 18.3411ZM41.9806 20.0825C41.9251 19.4712 41.8324 18.8413 41.7213 18.2484L43.6295 17.8964C43.7592 18.5634 43.8518 19.2303 43.9074 19.9158L41.9806 20.0825ZM0 22.0278V21.9907C0 21.3238 0.0370526 20.6568 0.0926316 19.9899L2.01937 20.1566C1.96379 20.7495 1.94526 21.3794 1.94526 21.9722L0 22.0278ZM43.9074 24.0286L41.9806 23.8434C42.0362 23.232 42.0733 22.6021 42.0733 21.9907V21.9352H44V21.9907C44 22.6762 43.9629 23.3617 43.9074 24.0286ZM0.370526 26.0665C0.240842 25.3996 0.148211 24.7326 0.0926316 24.0472L2.01937 23.8619C2.07495 24.4733 2.16758 25.0846 2.27874 25.696L0.370526 26.0665ZM43.1663 28.0118L41.3137 27.4931C41.4804 26.9002 41.6286 26.2888 41.7398 25.696L43.648 26.048C43.4998 26.6964 43.3516 27.3634 43.1663 28.0118ZM1.50063 29.9756C1.25979 29.3457 1.03747 28.6973 0.852211 28.0488L2.70484 27.5116C2.87158 28.1044 3.07537 28.6973 3.29768 29.2716L1.50063 29.9756ZM41.7027 31.8097L39.9798 30.9389C40.2577 30.3832 40.4985 29.8274 40.7208 29.2531L42.5179 29.9571C42.2771 30.5684 41.9992 31.1983 41.7027 31.8097ZM3.29768 33.6067C2.94568 33.0324 2.61221 32.4396 2.31579 31.8282L4.03874 30.9575C4.31663 31.5133 4.61305 32.0505 4.94653 32.5693L3.29768 33.6067ZM39.5537 35.2556L38.016 34.0884C38.3865 33.6067 38.7385 33.088 39.072 32.5693L40.7208 33.5882C40.3503 34.144 39.9613 34.7183 39.5537 35.2556ZM5.76168 36.8488C5.31705 36.3486 4.87242 35.8299 4.46484 35.2926L6.00253 34.1255C6.37305 34.6072 6.78063 35.0888 7.18821 35.552L5.76168 36.8488ZM36.8303 38.2568L35.5335 36.8303C35.9966 36.4227 36.4227 35.9781 36.8488 35.5149L38.2754 36.8118C37.8122 37.312 37.3305 37.7937 36.8303 38.2568ZM8.76295 39.5722C8.22568 39.1646 7.68842 38.72 7.20674 38.2754L8.50358 36.8488C8.94821 37.2564 9.42989 37.664 9.93011 38.0345L8.76295 39.5722ZM33.5882 40.7023L32.5693 39.0535C33.088 38.72 33.6067 38.368 34.0884 37.9975L35.2556 39.5352C34.7368 39.9613 34.1625 40.3503 33.5882 40.7023ZM12.2088 41.7027C11.616 41.4063 11.0046 41.0728 10.4303 40.7208L11.4493 39.072C11.968 39.3869 12.5238 39.7019 13.0611 39.9798L12.2088 41.7027ZM29.9571 42.5179L29.2531 40.7208C29.8274 40.4985 30.4017 40.2392 30.9389 39.9798L31.8097 41.7027C31.2168 41.9992 30.5869 42.2771 29.9571 42.5179ZM16.0067 43.1663C15.3583 42.9811 14.7099 42.7587 14.08 42.5179L14.784 40.7208C15.3583 40.9432 15.9512 41.1469 16.544 41.3137L16.0067 43.1663ZM26.048 43.6295L25.696 41.7213C26.3074 41.6101 26.9002 41.4619 27.4931 41.2952L28.0303 43.1478C27.3819 43.3516 26.7149 43.4998 26.048 43.6295ZM19.9899 43.9074C19.3229 43.8518 18.6375 43.7592 17.9705 43.6295L18.3225 41.7213C18.9339 41.8324 19.5453 41.9251 20.1566 41.9806L19.9899 43.9074ZM22.0093 44V42.0733C22.6392 42.0733 23.2505 42.0362 23.8619 41.9806L24.0472 43.9074C23.3802 43.9629 22.6947 44 22.0093 44Z" fill="#257675"/>
</svg>
