<svg id="Layer_1" data-name="Layer 1" xmlns="http://www.w3.org/2000/svg" viewBox="0 0 72 72"><defs><style>.cls-1{fill:#277776;}</style></defs><path class="cls-1" d="M32.76,3.57,32.46.43C33.55.34,34.67.28,35.78.28V3.42C34.79,3.45,33.76,3.48,32.76,3.57Zm9,.4a29.07,29.07,0,0,0-3-.4L39.08.43a28.91,28.91,0,0,1,3.29.46Zm-14.94.72-.88-3c1.06-.3,2.14-.54,3.23-.75L29.77,4A24.18,24.18,0,0,0,26.85,4.69Zm20.74.91a29.15,29.15,0,0,0-2.87-.94l.85-3c1,.3,2.11.66,3.14,1.06ZM21.23,6.89,19.81,4.06c1-.49,2-.94,3-1.36L24,5.63C23,6,22.1,6.44,21.23,6.89ZM53,8.28c-.85-.51-1.76-1-2.63-1.48L51.76,4a32.75,32.75,0,0,1,2.9,1.6ZM16.1,10.07,14.19,7.56a31.22,31.22,0,0,1,2.72-1.87l1.66,2.65C17.73,8.89,16.91,9.46,16.1,10.07Zm41.73,1.84c-.76-.67-1.54-1.33-2.33-1.94l1.9-2.5c.88.66,1.73,1.36,2.57,2.11ZM11.66,14.14,9.33,12c.73-.82,1.51-1.6,2.33-2.36L13.77,12C13.05,12.69,12.32,13.42,11.66,14.14ZM61.9,16.38c-.6-.82-1.26-1.57-1.93-2.33l2.33-2.14c.72.81,1.45,1.66,2.11,2.53ZM8,19,5.34,17.31c.58-.93,1.21-1.84,1.88-2.71l2.5,1.9C9.12,17.28,8.55,18.13,8,19Zm57.11,2.51c-.46-.91-.94-1.78-1.48-2.63l2.65-1.66a31.67,31.67,0,0,1,1.63,2.9ZM5.34,24.38,2.39,23.23c.39-1,.84-2.05,1.32-3L6.52,21.6C6.1,22.51,5.71,23.44,5.34,24.38Zm62,2.72a28.47,28.47,0,0,0-1-2.87l2.93-1.15c.4,1,.76,2.08,1.06,3.14ZM3.68,30.18.6,29.6c.19-1.05.46-2.14.76-3.2l3,.85C4.11,28.21,3.87,29.21,3.68,30.18ZM68.43,33A29.08,29.08,0,0,0,68,30l3.11-.58a28,28,0,0,1,.46,3.29ZM0,36.19v-.06C0,35,.06,34,.15,32.86l3.14.28c-.09,1-.12,2-.12,3Zm71.57,3.26-3.14-.3c.09-1,.15-2,.15-3V36h3.14v.09C71.72,37.24,71.66,38.36,71.57,39.45ZM.6,42.77a30.25,30.25,0,0,1-.45-3.29l3.14-.3c.09,1,.24,2,.42,3Zm69.76,3.17-3-.85c.27-1,.51-2,.69-2.92l3.11.57C70.9,43.8,70.66,44.88,70.36,45.94ZM2.45,49.14c-.4-1-.76-2.08-1.06-3.14l3-.88a28.47,28.47,0,0,0,1,2.87Zm65.52,3-2.8-1.42c.45-.9.84-1.81,1.2-2.75l2.93,1.15C68.91,50.11,68.46,51.13,68,52.13ZM5.38,55.06c-.58-.94-1.12-1.9-1.61-2.9l2.81-1.42c.46.91.94,1.78,1.48,2.63Zm59.09,2.69L62,55.84c.61-.78,1.18-1.63,1.73-2.47L66.37,55C65.77,55.94,65.14,56.87,64.47,57.75ZM9.39,60.34c-.72-.81-1.45-1.66-2.11-2.53l2.5-1.91c.61.79,1.27,1.58,1.94,2.33ZM60,62.64l-2.11-2.33a28.8,28.8,0,0,0,2.14-2.14l2.33,2.11C61.63,61.1,60.85,61.88,60,62.64ZM14.28,64.78c-.87-.66-1.75-1.39-2.53-2.11l2.11-2.33a29.57,29.57,0,0,0,2.33,1.94Zm40.47,1.84-1.66-2.68c.84-.55,1.69-1.12,2.47-1.72l1.91,2.5A24.11,24.11,0,0,1,54.75,66.62ZM19.9,68.26c-1-.49-2-1-2.9-1.6L18.66,64c.85.51,1.75,1,2.63,1.48Zm28.93,1.32-1.15-2.92c.94-.37,1.87-.79,2.75-1.21l1.42,2.81C50.88,68.74,49.86,69.19,48.83,69.58ZM26.09,70.64C25,70.34,24,70,23,69.58l1.15-2.92c.93.36,1.9.69,2.87,1Zm16.37.76-.58-3.11c1-.19,2-.43,2.93-.7l.88,3A33,33,0,0,1,42.46,71.4Zm-9.88.45a31.29,31.29,0,0,1-3.29-.45l.58-3.11c1,.18,2,.33,3,.42Zm3.29.15V68.86c1,0,2-.06,3-.15l.31,3.14C38.11,71.94,37,72,35.87,72Z"/></svg>