<?xml version="1.0" encoding="utf-8"?>
<!-- Generator: Adobe Illustrator 24.0.2, SVG Export Plug-In . SVG Version: 6.00 Build 0)  -->
<svg version="1.1" id="Layer_1" xmlns="http://www.w3.org/2000/svg" xmlns:xlink="http://www.w3.org/1999/xlink" x="0px" y="0px"
	 viewBox="0 0 60.83 55" style="enable-background:new 0 0 60.83 55;" xml:space="preserve">
<style type="text/css">
	.st0{fill:none;stroke:#000000;stroke-miterlimit:10;}
</style>
<path class="st0" d="M30.01,22.78H9.1v-2.61c0-1.83,1.49-3.33,3.33-3.33h19.89c-0.54,0.78-0.98,1.6-1.36,2.48
	C30.52,20.44,30.18,21.59,30.01,22.78z M51.3,37.37v2.92c0,1.83-1.49,3.33-3.33,3.33H12.43c-1.83,0-3.33-1.49-3.33-3.33V26.1h20.81
	c0.14,1.49,0.48,2.99,1.09,4.38c0.71,1.7,1.77,3.26,3.09,4.55c1.32,1.32,2.85,2.34,4.55,3.09c1.77,0.75,3.67,1.12,5.6,1.12
	c1.94,0,3.8-0.37,5.6-1.12C50.32,37.88,50.82,37.65,51.3,37.37z M30.42,34.28H16.64v3.33h13.78V34.28z M55.24,24.88
	c0,6.08-4.92,11.03-11.03,11.03c-6.11,0-11.03-4.92-11.03-11.03c0-6.11,4.92-11.03,11.03-11.03C50.32,13.85,55.24,18.81,55.24,24.88
	z M48.58,27.33c0-0.78-0.27-1.53-0.78-2.1c-0.34-0.37-0.75-0.71-1.19-0.95c-0.37-0.2-0.81-0.34-1.22-0.44
	c-0.37-0.07-0.75-0.1-1.12-0.1c-0.24,0-0.44,0-0.65-0.07c-0.24-0.03-0.48-0.1-0.68-0.2c-0.17-0.1-0.37-0.24-0.48-0.41
	c-0.14-0.17-0.24-0.37-0.24-0.58c0-0.31,0.17-0.58,0.54-0.81c0.37-0.24,0.95-0.41,1.49-0.41c0.1,0,0.31,0.03,0.54,0.1h0.07
	c0.17,0.03,0.41,0.1,0.65,0.24c0.17,0.07,0.37,0.2,0.51,0.34c0.48,0.48,1.22,0.48,1.7,0c0.48-0.48,0.48-1.22,0-1.7
	c-0.34-0.34-0.75-0.64-1.22-0.85c-0.37-0.17-0.71-0.27-1.05-0.37v-0.68c0-0.64-0.54-1.19-1.19-1.19s-1.19,0.54-1.19,1.19v0.71
	c-0.58,0.14-1.09,0.34-1.56,0.64c-1.05,0.68-1.66,1.7-1.66,2.82c0,0.75,0.27,1.46,0.75,2.07c0.34,0.41,0.78,0.78,1.29,1.02
	c0.41,0.2,0.88,0.34,1.32,0.44c0.34,0.07,0.68,0.07,1.05,0.07c0.2,0,0.44,0.03,0.61,0.07c0.2,0.03,0.44,0.14,0.61,0.24
	c0.17,0.1,0.37,0.24,0.51,0.41c0.14,0.14,0.2,0.34,0.2,0.54c0,0.14,0,0.41-0.51,0.71c-0.31,0.2-0.88,0.41-1.53,0.41
	c-0.2,0-0.54-0.07-0.68-0.07c-0.2-0.03-0.41-0.1-0.61-0.2c-0.17-0.07-0.31-0.17-0.48-0.34c-0.44-0.51-1.19-0.54-1.66-0.14
	c-0.51,0.44-0.54,1.19-0.14,1.66c0.41,0.48,0.88,0.81,1.39,1.02c0.31,0.1,0.65,0.24,1.02,0.34v0.71c0,0.64,0.54,1.19,1.19,1.19
	c0.64,0,1.19-0.54,1.19-1.19v-0.71c0.58-0.14,1.12-0.37,1.6-0.64C48.31,29.19,48.58,28.11,48.58,27.33z"/>
</svg>
