<?xml version="1.0" encoding="utf-8"?>
<!-- Generator: Adobe Illustrator 24.0.2, SVG Export Plug-In . SVG Version: 6.00 Build 0)  -->
<svg version="1.1" id="Layer_1" xmlns="http://www.w3.org/2000/svg" xmlns:xlink="http://www.w3.org/1999/xlink" x="0px" y="0px"
	 viewBox="0 0 60.8 55" style="enable-background:new 0 0 60.8 55;" xml:space="preserve">
<g>
	<path d="M44.5,13.6c6.1,0,11,5,11,11c0,6.1-4.9,11-11,11c-6.1,0-11-4.9-11-11C33.5,18.5,38.4,13.6,44.5,13.6 M44.5,28.2
		c-0.2,0-0.5-0.1-0.7-0.1c-0.2,0-0.4-0.1-0.6-0.2c-0.2-0.1-0.3-0.2-0.5-0.3c-0.2-0.3-0.6-0.4-0.9-0.4c-0.3,0-0.5,0.1-0.8,0.3
		c-0.5,0.4-0.5,1.2-0.1,1.7c0.4,0.5,0.9,0.8,1.4,1c0.3,0.1,0.6,0.2,1,0.3v0.7c0,0.6,0.5,1.2,1.2,1.2c0.6,0,1.2-0.5,1.2-1.2v-0.7
		c0.6-0.1,1.1-0.4,1.6-0.6c1.3-0.9,1.6-2,1.6-2.8c0-0.8-0.3-1.5-0.8-2.1c-0.3-0.4-0.7-0.7-1.2-1c-0.4-0.2-0.8-0.3-1.2-0.4
		c-0.4-0.1-0.7-0.1-1.1-0.1c-0.2,0-0.4,0-0.6-0.1c-0.2,0-0.5-0.1-0.7-0.2c-0.2-0.1-0.4-0.2-0.5-0.4c-0.1-0.2-0.2-0.4-0.2-0.6
		c0-0.3,0.2-0.6,0.5-0.8c0.4-0.2,1-0.4,1.5-0.4c0.1,0,0.3,0,0.5,0.1h0.1c0.2,0,0.4,0.1,0.6,0.2c0.2,0.1,0.4,0.2,0.5,0.3
		c0.2,0.2,0.5,0.4,0.8,0.4c0.3,0,0.6-0.1,0.8-0.4c0.5-0.5,0.5-1.2,0-1.7c-0.3-0.3-0.7-0.6-1.2-0.8c-0.4-0.2-0.7-0.3-1.1-0.4V18
		c0-0.6-0.5-1.2-1.2-1.2c-0.6,0-1.2,0.5-1.2,1.2v0.7c-0.6,0.1-1.1,0.3-1.6,0.6c-1.1,0.7-1.7,1.7-1.7,2.8c0,0.7,0.3,1.5,0.7,2.1
		c0.3,0.4,0.8,0.8,1.3,1c0.4,0.2,0.9,0.3,1.3,0.4c0.3,0.1,0.7,0.1,1.1,0.1c0.2,0,0.4,0,0.6,0.1c0.2,0,0.4,0.1,0.6,0.2
		c0.2,0.1,0.4,0.2,0.5,0.4c0.1,0.1,0.2,0.3,0.2,0.5c0,0.1,0,0.4-0.5,0.7C45.7,28,45.1,28.2,44.5,28.2 M32.6,16.5
		c-0.5,0.8-1,1.6-1.4,2.5c-0.4,1.1-0.8,2.3-1,3.5H9.4v-2.6c0-1.8,1.5-3.3,3.3-3.3H32.6 M30.2,25.8c0.1,1.5,0.5,3,1.1,4.4
		c0.7,1.7,1.8,3.3,3.1,4.5c1.3,1.3,2.9,2.3,4.5,3.1c1.8,0.7,3.7,1.1,5.6,1.1c1.9,0,3.8-0.4,5.6-1.1c0.5-0.2,1-0.5,1.5-0.7V40
		c0,1.8-1.5,3.3-3.3,3.3H12.7c-1.8,0-3.3-1.5-3.3-3.3V25.8H30.2 M16.9,37.3h13.8V34H16.9V37.3 M44.5,10.6c-3.3,0-6.3,1.1-8.6,3h-3.2
		H12.7c-3.5,0-6.3,2.8-6.3,6.3v2.6v3v0.3V40c0,3.5,2.8,6.3,6.3,6.3h35.5c3.5,0,6.3-2.8,6.3-6.3v-2.9v-2.8c2.4-2.5,3.9-6,3.9-9.7
		C58.5,16.8,52.2,10.6,44.5,10.6L44.5,10.6z"/>
</g>
</svg>
