<svg id="Layer_1" data-name="Layer 1" xmlns="http://www.w3.org/2000/svg" viewBox="0 0 72 72"><defs><style>.cls-1{fill:#277776;}</style></defs><path class="cls-1" d="M32.8,27.36H.26V23.29a5.19,5.19,0,0,1,5.18-5.17h31A20.54,20.54,0,0,0,34.28,22,23.55,23.55,0,0,0,32.8,27.36ZM65.92,50.07v4.54a5.19,5.19,0,0,1-5.18,5.18H5.44A5.19,5.19,0,0,1,.26,54.61V32.53H32.64a21.89,21.89,0,0,0,1.69,6.82,21.49,21.49,0,0,0,4.81,7.07,23,23,0,0,0,7.07,4.81,22.7,22.7,0,0,0,17.43,0C64.38,50.86,65.18,50.49,65.92,50.07ZM33.43,45.26H12v5.18H33.43ZM72,30.63A17.17,17.17,0,1,1,54.88,13.47,17.16,17.16,0,0,1,72,30.63ZM61.69,34.44a4.9,4.9,0,0,0-1.22-3.28,7.09,7.09,0,0,0-1.84-1.48A8.05,8.05,0,0,0,56.72,29,9.31,9.31,0,0,0,55,28.84a3,3,0,0,1-1-.11,3.43,3.43,0,0,1-1.06-.32,2,2,0,0,1-.74-.63,1.49,1.49,0,0,1-.37-.9,1.52,1.52,0,0,1,.85-1.26A4.6,4.6,0,0,1,55,25a3.48,3.48,0,0,1,.85.16h.1a3.32,3.32,0,0,1,1,.37,2.74,2.74,0,0,1,.79.53,1.87,1.87,0,0,0,2.64-2.64,6,6,0,0,0-1.9-1.32,10.46,10.46,0,0,0-1.64-.58V20.44a1.85,1.85,0,1,0-3.7,0v1.11a7.79,7.79,0,0,0-2.43,1,5,5,0,0,0-1.42,7.61,6,6,0,0,0,2,1.58,9.6,9.6,0,0,0,2.06.69,8.76,8.76,0,0,0,1.64.1,5.39,5.39,0,0,1,1,.11,2.81,2.81,0,0,1,1,.37,3.18,3.18,0,0,1,.8.63,1.2,1.2,0,0,1,.31.85c0,.21,0,.63-.79,1.11a4.65,4.65,0,0,1-2.38.63c-.31,0-.84-.1-1-.1a3.44,3.44,0,0,1-1-.32,2.18,2.18,0,0,1-.74-.53,1.84,1.84,0,1,0-2.8,2.38,5.58,5.58,0,0,0,2.16,1.58c.48.16,1,.37,1.59.53v1.11a1.85,1.85,0,1,0,3.69,0V39.77a9.47,9.47,0,0,0,2.49-1A5.12,5.12,0,0,0,61.69,34.44Z"/></svg>