<svg width="47" height="30" viewBox="0 0 47 30" fill="none" xmlns="http://www.w3.org/2000/svg">
<path d="M20.9124 8.9275H0V6.31374C0 4.48072 1.49373 2.98715 3.32696 2.98715H23.2209C22.6777 3.76788 22.2364 4.58255 21.863 5.46512C21.4216 6.5853 21.0821 7.73943 20.9124 8.9275ZM42.1982 23.5238V26.443C42.1982 28.2761 40.7044 29.7696 38.8712 29.7696H3.32696C1.49373 29.7696 0 28.2761 0 26.443V12.2541H20.8106C20.9463 13.7477 21.2858 15.2412 21.8969 16.633C22.6098 18.3302 23.6622 19.8917 24.9862 21.1816C26.3102 22.5054 27.8379 23.5238 29.5353 24.2706C31.3007 25.0173 33.2018 25.3907 35.1368 25.3907C37.0719 25.3907 38.9391 25.0173 40.7384 24.2706C41.2137 24.0329 41.7229 23.7953 42.1982 23.5238ZM21.3198 20.4348H7.53661V23.7614H21.3198V20.4348ZM46.1362 11.0321C46.1362 17.1082 41.2137 22.0641 35.1029 22.0641C28.9922 22.0641 24.0696 17.1421 24.0696 11.0321C24.0696 4.922 28.9922 0 35.1029 0C41.2137 0 46.1362 4.95595 46.1362 11.0321ZM39.4823 13.4761C39.4823 12.6954 39.2107 11.9486 38.7015 11.3715C38.362 10.9981 37.9546 10.6587 37.5133 10.4211C37.1399 10.2174 36.6985 10.0816 36.2911 9.97978C35.9177 9.91189 35.5443 9.87795 35.1708 9.87795C34.9332 9.87795 34.7295 9.87794 34.5258 9.81006C34.2882 9.77611 34.0505 9.70822 33.8468 9.60638C33.6771 9.50455 33.4734 9.36877 33.3715 9.19905C33.2358 9.02932 33.1339 8.82566 33.1339 8.62199C33.1339 8.31649 33.3036 8.04492 33.6771 7.80731C34.0505 7.5697 34.6276 7.39998 35.1708 7.39998C35.2727 7.39998 35.4764 7.43392 35.714 7.50181H35.7819C35.9516 7.53575 36.1893 7.60364 36.4269 7.73942C36.5967 7.80731 36.8004 7.9431 36.9362 8.07887C37.4114 8.5541 38.1583 8.5541 38.6336 8.07887C39.1089 7.60365 39.1089 6.85686 38.6336 6.38163C38.2941 6.04218 37.8867 5.73668 37.4114 5.53301C37.038 5.36329 36.6985 5.26145 36.359 5.15962V4.48072C36.359 3.83577 35.8158 3.29265 35.1708 3.29265C34.5258 3.29265 33.9826 3.83577 33.9826 4.48072V5.19356C33.4055 5.32934 32.8963 5.53301 32.421 5.83852C31.3686 6.51741 30.7575 7.53575 30.7575 8.65593C30.7575 9.40272 31.0291 10.1156 31.5044 10.7266C31.8438 11.1339 32.2852 11.5073 32.7944 11.7449C33.2018 11.9486 33.6771 12.0844 34.1184 12.1862C34.4579 12.2541 34.7974 12.2541 35.1708 12.2541C35.3745 12.2541 35.6121 12.288 35.7819 12.322C35.9856 12.3559 36.2232 12.4578 36.393 12.5596C36.5627 12.6614 36.7664 12.7972 36.9022 12.9669C37.038 13.1027 37.1059 13.3064 37.1059 13.51C37.1059 13.6458 37.1059 13.9174 36.5967 14.2229C36.2911 14.4266 35.714 14.6302 35.069 14.6302C34.8653 14.6302 34.5258 14.5623 34.39 14.5623C34.1863 14.5284 33.9826 14.4605 33.7789 14.3587C33.6092 14.2908 33.4734 14.1889 33.3036 14.0192C32.8623 13.51 32.1154 13.4761 31.6401 13.8834C31.1309 14.3247 31.097 15.0715 31.5044 15.5467C31.9117 16.022 32.387 16.3614 32.8963 16.5651C33.2018 16.6669 33.5413 16.8027 33.9147 16.9045V17.6174C33.9147 18.2623 34.4579 18.8054 35.1029 18.8054C35.7479 18.8054 36.2911 18.2623 36.2911 17.6174V16.9045C36.8683 16.7687 37.4114 16.5311 37.8867 16.2596C39.2107 15.3431 39.4823 14.2568 39.4823 13.4761Z" fill="#257675"/>
</svg>
