<svg id="Layer_1" data-name="Layer 1" xmlns="http://www.w3.org/2000/svg" viewBox="0 0 72 72"><defs><style>.cls-1{fill:#b3287a;}</style></defs><path class="cls-1" d="M47.78,0,62.57,14.79V69.46a2.44,2.44,0,0,1-2.42,2.43H12.24a2.45,2.45,0,0,1-2.43-2.43v-67A2.45,2.45,0,0,1,12.24,0ZM15.47,5.66V66.22H56.91V18.72H46.74a3,3,0,0,1-3-2.94V5.66ZM35.06,26.87a5.16,5.16,0,0,1-2.6,4.45,9.37,9.37,0,0,1-2.48,1v1a2,2,0,0,1-4.05,0v-1a6.35,6.35,0,0,1-1.56-.52,5.6,5.6,0,0,1-2.25-1.68,2,2,0,1,1,3.06-2.6,1.31,1.31,0,0,0,.69.52,7,7,0,0,0,1,.29,5,5,0,0,0,1,.12,4.49,4.49,0,0,0,2.37-.64c.75-.46.75-.86.75-1a1.43,1.43,0,0,0-.29-.81,4.18,4.18,0,0,0-.81-.63,2.8,2.8,0,0,0-1-.35,5,5,0,0,0-1-.11,14.75,14.75,0,0,1-1.68-.12,7.92,7.92,0,0,1-2.2-.69A6.64,6.64,0,0,1,22,22.42a5.29,5.29,0,0,1-1.21-3.35,5.43,5.43,0,0,1,2.72-4.62,6.91,6.91,0,0,1,2.42-1v-1a2,2,0,0,1,4.05,0v1.1a7.07,7.07,0,0,1,1.62.58,7,7,0,0,1,2,1.33,2,2,0,0,1-2.89,2.89,2.11,2.11,0,0,0-.75-.52,4.71,4.71,0,0,0-1-.35h-.12a5.74,5.74,0,0,0-.81-.11A4.36,4.36,0,0,0,25.7,18a1.51,1.51,0,0,0-.81,1.22,1.24,1.24,0,0,0,.35.8,2.17,2.17,0,0,0,.75.58,3,3,0,0,0,1,.35,5.77,5.77,0,0,0,1,.06,9.65,9.65,0,0,1,1.85.17,11.45,11.45,0,0,1,2,.69,7.21,7.21,0,0,1,2,1.56A6.29,6.29,0,0,1,35.06,26.87Zm16,14.1H21.31v5.66H51.07Zm0,12.83H21.31v5.66H51.07Zm0-25.6H38.76v5.66H51.07Z"/></svg>