<svg width="31" height="43" viewBox="0 0 31 43" fill="none" xmlns="http://www.w3.org/2000/svg">
<path d="M22.3043 0L30.9951 8.68987V40.8017C30.9951 41.5824 30.3501 42.2274 29.5693 42.2274H1.42584C0.645018 42.2274 0 41.5824 0 40.8017V1.42568C0 0.644946 0.645018 0 1.42584 0H22.3043ZM3.32695 3.32659V38.9008H27.6681V10.9981H21.6932C20.7426 10.9981 19.9618 10.2174 19.9618 9.26694V3.32659H3.32695ZM14.8356 15.7843C14.8356 16.5311 14.564 17.5834 13.3079 18.3981C12.8665 18.6697 12.3573 18.8733 11.8481 19.0091V19.6201C11.8481 20.2651 11.3049 20.8082 10.6599 20.8082C10.0148 20.8082 9.47167 20.2651 9.47167 19.6201V19.0091C9.13219 18.9412 8.82664 18.8394 8.55505 18.7036C8.07977 18.4999 7.60449 18.1944 7.23105 17.7192C6.78972 17.21 6.85762 16.4632 7.36685 16.0559C7.87608 15.6146 8.62294 15.6825 9.03033 16.1917C9.16612 16.3614 9.30192 16.4632 9.43772 16.4972C9.64141 16.5651 9.8451 16.633 10.0148 16.6669C10.1167 16.7009 10.4562 16.7348 10.6259 16.7348C11.1012 16.7348 11.6783 16.599 12.0178 16.3614C12.4592 16.0899 12.4591 15.8522 12.4591 15.7504C12.4591 15.5807 12.3913 15.411 12.2894 15.2752C12.1536 15.1394 11.9839 15.0036 11.8141 14.9018C11.6444 14.8 11.4407 14.7321 11.237 14.6981C11.0672 14.6642 10.8636 14.6302 10.6599 14.6302C10.3204 14.6302 9.9809 14.5963 9.67536 14.5623C9.23403 14.4944 8.7927 14.3587 8.38532 14.155C7.91004 13.9174 7.50265 13.5779 7.16317 13.1706C6.68788 12.5935 6.45025 11.8807 6.45025 11.2018C6.45025 10.1156 7.02738 9.13116 8.04584 8.48621C8.45322 8.21465 8.96245 8.01098 9.47167 7.90914V7.29813C9.47167 6.65318 10.0148 6.11007 10.6599 6.11007C11.3049 6.11007 11.8481 6.65318 11.8481 7.29813V7.94309C12.1536 8.01098 12.4591 8.11281 12.7986 8.28254C13.24 8.48621 13.6474 8.75776 13.9529 9.06327C14.4282 9.5385 14.4282 10.2853 13.9529 10.7605C13.4776 11.2357 12.7307 11.2357 12.2555 10.7605C12.1197 10.6247 11.9839 10.5229 11.8141 10.455C11.5765 10.3532 11.4067 10.2853 11.237 10.2513H11.1691C10.9654 10.2174 10.7957 10.1835 10.6938 10.1835C10.2185 10.1835 9.67536 10.3192 9.33588 10.5568C9.03034 10.7605 8.8606 10.9981 8.8606 11.2697C8.8606 11.4055 8.92849 11.6091 9.06428 11.7449C9.20008 11.8807 9.33586 12.0165 9.5056 12.0844C9.67535 12.1862 9.91299 12.2541 10.1167 12.288C10.3204 12.322 10.4901 12.322 10.7278 12.322C11.1012 12.322 11.4407 12.3559 11.8141 12.4238C12.2215 12.5256 12.6289 12.6614 13.0023 12.8311C13.4097 13.0348 13.8171 13.3743 14.1566 13.7477C14.564 14.3247 14.8356 15.0715 14.8356 15.7843ZM24.2393 24.0669H6.75577V27.3935H24.2393V24.0669ZM24.2393 31.6026H6.75577V34.9292H24.2393V31.6026ZM24.2393 16.5651H17.0083V19.8917H24.2393V16.5651Z" fill="#B4267A"/>
</svg>
