<svg id="Layer_1" data-name="Layer 1" xmlns="http://www.w3.org/2000/svg" viewBox="0 0 72 72"><defs><style>.cls-1{fill:#b3287a;}</style></defs><path class="cls-1" d="M70,46.58,46.29,70.26a6,6,0,0,1-8.48,0L3.87,36.32A16.18,16.18,0,0,1-.28,26.13L0,6.23A6.2,6.2,0,0,1,6,.18L25.85,0A16.18,16.18,0,0,1,36,4.15L70,38.09A6,6,0,0,1,70,46.58ZM15.9,12.09a4.28,4.28,0,1,0-4.28,4.27A4.21,4.21,0,0,0,15.9,12.09ZM51.48,51.83a3,3,0,0,0,0-4.22l-2.19-2.13A13.16,13.16,0,0,0,51.18,41,8.51,8.51,0,0,0,49,32.9a8.82,8.82,0,0,0-5.49-2.5,11,11,0,0,0-4,.49,14.77,14.77,0,0,0-3.18,1.46,12.1,12.1,0,0,0-2.38,2,11.85,11.85,0,0,1-1.4,1.22,7.08,7.08,0,0,1-1.77.91,4.47,4.47,0,0,1-1.83.19,3.11,3.11,0,0,1-1.71-.74A2.9,2.9,0,0,1,26.7,33a8.56,8.56,0,0,1,2.2-3.84c.24-.24.73-.55,1.22-.92l.18-.12a9.81,9.81,0,0,1,1.77-.85A5.49,5.49,0,0,1,33.84,27a3,3,0,0,0,0-6,10.43,10.43,0,0,0-3.84.73,15.65,15.65,0,0,0-2.87,1.41l-.06.06-2.14-2.14a3,3,0,0,0-4.21,4.21l2.07,2.08a13.8,13.8,0,0,0-1.89,4.33,8.85,8.85,0,0,0,2.2,8.43,8.49,8.49,0,0,0,5.31,2.44,10.33,10.33,0,0,0,4.33-.49,12.69,12.69,0,0,0,3.36-1.71,20.32,20.32,0,0,0,2.14-1.83,7.7,7.7,0,0,1,1.4-1.1,6.88,6.88,0,0,1,1.71-.79,4.77,4.77,0,0,1,1.89-.19,2.73,2.73,0,0,1,1.65.74,2.51,2.51,0,0,1,.55,2.62,8.62,8.62,0,0,1-2.26,4,10.81,10.81,0,0,1-1.52,1.16,8.58,8.58,0,0,1-1.65.85A3.68,3.68,0,0,1,38.3,46,3,3,0,1,0,37.87,52h.79a9.58,9.58,0,0,0,3.73-.73,15.51,15.51,0,0,0,2.74-1.47l.07-.06,2.13,2.14a2.91,2.91,0,0,0,2.14.85A3,3,0,0,0,51.48,51.83Z"/></svg>