<?xml version="1.0" encoding="utf-8"?>
<!-- Generator: Adobe Illustrator 24.0.2, SVG Export Plug-In . SVG Version: 6.00 Build 0)  -->
<svg version="1.1" id="Layer_1" xmlns="http://www.w3.org/2000/svg" xmlns:xlink="http://www.w3.org/1999/xlink" x="0px" y="0px"
	 viewBox="0 0 65.6 57.1" style="enable-background:new 0 0 65.6 57.1;" xml:space="preserve">
<g>
	<path d="M31.2,6.2c5.4,0,9.7,4.3,9.7,9.7c0,5.4-4.3,9.7-9.7,9.7c-5.4,0-9.7-4.3-9.7-9.7C21.5,10.5,25.9,6.2,31.2,6.2 M39.8,28.5
		c5.2,0,9.5,4.3,9.5,9.5v5.7c0,2.1-1.7,3.8-3.8,3.8H16.9c-2.1,0-3.8-1.7-3.8-3.8V38c0-5.2,4.3-9.5,9.5-9.5L39.8,28.5
		C39.8,28.5,39.8,28.5,39.8,28.5 M31.2,3.2c-7,0-12.7,5.7-12.7,12.7c0,3.8,1.7,7.3,4.4,9.6h-0.3c-6.9,0-12.5,5.6-12.5,12.5v5.7
		c0,3.8,3.1,6.8,6.8,6.8h28.6c3.8,0,6.8-3.1,6.8-6.8V38c0-6.9-5.6-12.5-12.5-12.5l-0.1,0l-0.2,0c2.7-2.3,4.4-5.8,4.4-9.6
		C43.9,8.9,38.2,3.2,31.2,3.2L31.2,3.2z"/>
</g>
</svg>
