<?xml version="1.0" encoding="utf-8"?>
<!-- Generator: Adobe Illustrator 24.0.2, SVG Export Plug-In . SVG Version: 6.00 Build 0)  -->
<svg version="1.1" id="Layer_1" xmlns="http://www.w3.org/2000/svg" xmlns:xlink="http://www.w3.org/1999/xlink" x="0px" y="0px"
	 viewBox="0 0 65.6 57.1" style="enable-background:new 0 0 65.6 57.1;" xml:space="preserve">
<g>
	<path d="M37.7,7.1l8.7,8.7v32.1c0,0.8-0.7,1.4-1.4,1.4H16.8c-0.8,0-1.4-0.6-1.4-1.4V8.5c0-0.8,0.7-1.4,1.4-1.4H37.7z M18.7,10.4V46
		h24.3V18.1h-6c-0.9,0-1.7-0.8-1.7-1.7v-5.9H18.7L18.7,10.4z M30.2,22.9c0,0.7-0.3,1.8-1.5,2.6c-0.4,0.3-1,0.5-1.5,0.6v0.6
		c0,0.6-0.5,1.2-1.2,1.2c-0.7,0-1.2-0.5-1.2-1.2v-0.6c-0.3-0.1-0.6-0.2-0.9-0.3c-0.5-0.2-1-0.5-1.3-1c-0.4-0.5-0.4-1.3,0.1-1.7
		c0.5-0.4,1.3-0.4,1.7,0.1c0.1,0.2,0.3,0.3,0.4,0.3c0.2,0.1,0.4,0.1,0.6,0.2c0.1,0,0.4,0.1,0.6,0.1c0.5,0,1.1-0.1,1.4-0.4
		c0.4-0.3,0.4-0.5,0.4-0.6c0-0.2-0.1-0.3-0.2-0.5c-0.1-0.1-0.3-0.3-0.5-0.4c-0.2-0.1-0.4-0.2-0.6-0.2c-0.2,0-0.4-0.1-0.6-0.1
		c-0.3,0-0.7,0-1-0.1c-0.5-0.1-0.9-0.2-1.3-0.4c-0.5-0.2-0.9-0.6-1.2-1c-0.5-0.6-0.7-1.3-0.7-2c0-1.1,0.6-2.1,1.6-2.7
		c0.4-0.3,0.9-0.5,1.4-0.6v-0.6c0-0.6,0.5-1.2,1.2-1.2c0.6,0,1.2,0.5,1.2,1.2V15c0.3,0.1,0.6,0.2,1,0.3c0.4,0.2,0.8,0.5,1.1,0.8
		c0.5,0.5,0.5,1.2,0,1.7c-0.5,0.5-1.2,0.5-1.7,0c-0.1-0.1-0.3-0.2-0.4-0.3c-0.2-0.1-0.4-0.2-0.6-0.2h-0.1c-0.2,0-0.4-0.1-0.5-0.1
		c-0.5,0-1,0.1-1.3,0.4c-0.3,0.2-0.5,0.4-0.5,0.7c0,0.1,0.1,0.3,0.2,0.5c0.1,0.1,0.3,0.3,0.4,0.3c0.2,0.1,0.4,0.2,0.6,0.2
		c0.2,0,0.4,0,0.6,0c0.4,0,0.7,0,1.1,0.1c0.4,0.1,0.8,0.2,1.2,0.4c0.4,0.2,0.8,0.5,1.2,0.9C29.9,21.4,30.2,22.1,30.2,22.9z
		 M39.6,31.1H22.1v3.3h17.5V31.1z M39.6,38.7H22.1V42h17.5V38.7z M39.6,23.6h-7.2V27h7.2V23.6L39.6,23.6z"/>
</g>
</svg>
