<svg width="43" height="43" viewBox="0 0 43 43" fill="none" xmlns="http://www.w3.org/2000/svg">
<path d="M41.961 27.8163L27.8163 41.961C26.431 43.3463 24.1343 43.3463 22.749 41.961L2.47983 21.6918C1.09452 20.3065 -0.0355975 17.5724 0.000857931 15.6038L0.146679 3.71932C0.183135 1.75073 1.78717 0.146731 3.75576 0.110275L15.6038 0.00085791C17.5724 -0.0355975 20.3065 1.09455 21.6918 2.47985L41.961 22.749C43.3463 24.1708 43.3463 26.431 41.961 27.8163ZM9.66154 7.21906C9.66154 5.7973 8.53142 4.6672 7.10966 4.6672C5.6879 4.6672 4.55778 5.7973 4.55778 7.21906C4.55778 8.64082 5.6879 9.77092 7.10966 9.77092C8.53142 9.80738 9.66154 8.64082 9.66154 7.21906ZM30.915 30.9515C31.6077 30.2588 31.6077 29.1287 30.915 28.4361L29.6026 27.1602C30.1495 26.3217 30.5505 25.4103 30.7328 24.4989C31.1338 22.5667 30.6963 20.8898 29.4568 19.6503C28.5819 18.7754 27.4153 18.265 26.1758 18.1557C25.3738 18.1192 24.4989 18.1921 23.7698 18.4473C23.1136 18.6661 22.4574 18.9577 21.8741 19.3222C21.3637 19.6503 20.8898 20.0149 20.4523 20.4888C20.1607 20.7805 19.9055 20.9992 19.6139 21.2179C19.2858 21.4366 18.9212 21.6554 18.5567 21.7647C18.2286 21.8741 17.8276 21.9105 17.463 21.8741C17.062 21.8376 16.6974 21.6554 16.4422 21.4366C16.1871 21.1814 15.8954 20.6346 16.1141 19.7232C16.2964 18.9577 16.7703 18.0828 17.4265 17.4266C17.5724 17.2808 17.864 17.0984 18.1556 16.8797L18.265 16.8068C18.5202 16.6245 18.8848 16.4787 19.3222 16.2964C19.6503 16.187 20.0149 16.1142 20.3794 16.1142C21.3637 16.1142 22.1657 15.3121 22.1657 14.3278C22.1657 13.3436 21.3637 12.5415 20.3794 12.5415C19.6139 12.5415 18.8118 12.6874 18.0827 12.979C17.4265 13.2342 16.8797 13.4894 16.3693 13.8175L16.3329 13.8539L15.0569 12.578C14.3643 11.8854 13.2342 11.8854 12.5415 12.578C11.8489 13.2707 11.8489 14.4007 12.5415 15.0934L13.781 16.3329C13.2342 17.1349 12.8696 18.0463 12.6509 18.9212C12.2134 20.8533 12.6873 22.6761 13.9633 23.9521C14.8017 24.7905 15.8954 25.3009 17.1349 25.4103C18.0098 25.4832 18.9212 25.4102 19.7232 25.1186C20.4159 24.8999 21.1085 24.5353 21.7283 24.0979C22.1657 23.7698 22.6032 23.4053 23.0042 23.0042C23.2594 22.7491 23.551 22.5303 23.8427 22.348C24.1708 22.1293 24.5353 21.9834 24.8634 21.8741C25.1915 21.7647 25.629 21.7283 25.9936 21.7647C26.3581 21.8012 26.7227 21.947 26.9779 22.2022C27.1237 22.348 27.5247 22.749 27.306 23.7698C27.1601 24.3895 26.7591 25.3374 25.9571 26.1394C25.7019 26.3946 25.228 26.7226 25.0457 26.832C24.7541 27.0507 24.3895 27.1966 24.0614 27.3424C23.7698 27.4517 23.4417 27.5247 23.0407 27.4882C22.0564 27.4153 21.2179 28.1444 21.145 29.1287C21.0721 30.113 21.8012 30.9515 22.7855 31.0244C22.9313 31.0244 23.1136 31.0244 23.2594 31.0244C24.0614 31.0244 24.7905 30.8786 25.4832 30.5869C25.9936 30.3682 26.5404 30.113 27.1237 29.712L27.1601 29.6755L28.4361 30.9515C28.8006 31.316 29.2381 31.4619 29.712 31.4619C30.113 31.4619 30.5869 31.2796 30.915 30.9515Z" fill="#B4267A"/>
</svg>
