<svg id="Layer_1" data-name="Layer 1" xmlns="http://www.w3.org/2000/svg" viewBox="0 0 72 72"><defs><style>.cls-1{fill:#b3287a;}</style></defs><path class="cls-1" d="M15.78,26.8c2,5.74.23,11.61-3.87,13.07s-9.13-2-11.1-7.74S.58,20.52,4.68,19.05,13.82,21.05,15.78,26.8ZM49.14,67.67a13.42,13.42,0,0,1-9.71-4.11A5.14,5.14,0,0,0,35.84,62a4.85,4.85,0,0,0-3.58,1.52,13.63,13.63,0,0,1-19.48,0,14.11,14.11,0,0,1,0-19.76,32.11,32.11,0,0,1,10.81-7.27,32.49,32.49,0,0,1,24.51,0A32.11,32.11,0,0,1,58.91,43.8a14.11,14.11,0,0,1,0,19.76A13.63,13.63,0,0,1,49.14,67.67ZM34.4,17.24c.64,6.92-2.89,13-7.86,13.43S16.94,25.92,16.3,19,19.19,6,24.17,5.57,33.76,10.32,34.4,17.24Zm2.77,0c-.63,6.92,2.9,13,7.87,13.43S54.63,25.92,55.27,19,52.38,6,47.41,5.57,37.81,10.32,37.17,17.24ZM55.85,26.8c-2,5.74-.23,11.61,3.93,13.07s9.13-2,11.1-7.74S71.11,20.52,67,19.05,57.81,21.05,55.85,26.8Z"/></svg>