<svg width="45" height="39" viewBox="0 0 45 39" fill="none" xmlns="http://www.w3.org/2000/svg">
<path d="M9.90758 13.3435C11.1414 16.9509 10.0527 20.6319 7.47613 21.5521C4.89957 22.4724 1.74233 20.3006 0.508484 16.6932C-0.725361 13.0859 0.363375 9.40486 2.93993 8.48461C5.55278 7.56437 8.67373 9.73617 9.90758 13.3435ZM30.8466 39C28.6329 39 26.4193 38.1534 24.75 36.4233C23.9516 35.6135 22.9718 35.4662 22.5001 35.4662C21.992 35.4662 21.0484 35.5767 20.25 36.4233C16.8751 39.8466 11.3954 39.8466 8.02045 36.4233C4.64552 33 4.64552 27.4417 8.02045 24.0184C9.98008 22.0306 12.2663 20.4847 14.8066 19.454C17.2743 18.4601 19.8509 17.9448 22.5001 17.9448C25.1492 17.9448 27.762 18.4601 30.1934 19.454C32.7337 20.4847 35.0199 22.0306 36.9796 24.0184C40.3545 27.4417 40.3545 33 36.9796 36.4233C35.2739 38.1534 33.0603 39 30.8466 39ZM21.5928 7.34352C21.992 11.6871 19.7783 15.4785 16.6574 15.773C13.5365 16.0675 10.6334 12.7914 10.2342 8.44782C9.83498 4.10426 12.0486 0.312874 15.1695 0.0183948C18.3267 -0.276084 21.1936 2.99996 21.5928 7.34352ZM23.3346 7.34352C22.9355 11.6871 25.1492 15.4785 28.2701 15.773C31.4273 16.0675 34.2941 12.7914 34.6933 8.44782C35.0925 4.10426 32.8789 0.312874 29.758 0.0183948C26.6371 -0.276084 23.7338 2.99996 23.3346 7.34352ZM35.0562 13.3435C33.8224 16.9509 34.911 20.6319 37.5239 21.5521C40.1367 22.4724 43.2577 20.3006 44.4915 16.6932C45.7254 13.0859 44.6366 9.40486 42.0601 8.48461C39.4835 7.56437 36.2901 9.73617 35.0562 13.3435Z" fill="#B4267A"/>
</svg>
