<?xml version="1.0" encoding="utf-8"?>
<!-- Generator: Adobe Illustrator 24.0.2, SVG Export Plug-In . SVG Version: 6.00 Build 0)  -->
<svg version="1.1" id="Layer_1" xmlns="http://www.w3.org/2000/svg" xmlns:xlink="http://www.w3.org/1999/xlink" x="0px" y="0px"
	 viewBox="0 0 60.8 55" style="enable-background:new 0 0 60.8 55;" xml:space="preserve">
<g>
	<path d="M44,7V48c0,1.8-1.5,3.3-3.3,3.3H20.2c-1.8,0-3.3-1.5-3.3-3.3V7c0-1.8,1.5-3.3,3.3-3.3h20.5C42.4,3.7,44,5.2,44,7z
		 M40.6,12.5H20.2V43h20.5V12.5z M24.8,8.3c0,0.9,0.7,1.7,1.7,1.7h7.8c0.9,0,1.7-0.7,1.7-1.7c0-0.9-0.7-1.7-1.7-1.7h-7.8
		C25.6,6.6,24.8,7.4,24.8,8.3z M32,47.1c0-0.9-0.7-1.7-1.7-1.7c-0.9,0-1.7,0.7-1.7,1.7c0,0.9,0.7,1.7,1.7,1.7
		C31.3,48.8,32,48.1,32,47.1z"/>
</g>
</svg>
