<?xml version="1.0" encoding="utf-8"?>
<!-- Generator: Adobe Illustrator 24.0.2, SVG Export Plug-In . SVG Version: 6.00 Build 0)  -->
<svg version="1.1" id="Layer_1" xmlns="http://www.w3.org/2000/svg" xmlns:xlink="http://www.w3.org/1999/xlink" x="0px" y="0px"
	 viewBox="0 0 60.83 55" style="enable-background:new 0 0 60.83 55;" xml:space="preserve">
<style type="text/css">
	.st0{fill:none;stroke:#000000;stroke-miterlimit:10;}
</style>
<path class="st0" d="M43.98,7.85v40.9c0,1.83-1.49,3.33-3.33,3.33H20.18c-1.83,0-3.33-1.49-3.33-3.33V7.85
	c0-1.83,1.49-3.33,3.33-3.33h20.47C42.45,4.52,43.98,6.02,43.98,7.85z M40.65,13.35H20.18V43.8h20.47V13.35z M24.87,9.1
	c0,0.92,0.75,1.66,1.66,1.66h7.78c0.92,0,1.66-0.75,1.66-1.66c0-0.92-0.75-1.66-1.66-1.66h-7.78C25.61,7.44,24.87,8.19,24.87,9.1z
	 M32.06,47.94c0-0.92-0.75-1.66-1.66-1.66c-0.92,0-1.66,0.75-1.66,1.66c0,0.92,0.75,1.66,1.66,1.66
	C31.32,49.6,32.06,48.85,32.06,47.94z"/>
</svg>
