<svg width="28" height="48" viewBox="0 0 28 48" fill="none" xmlns="http://www.w3.org/2000/svg">
<path d="M27.1249 3.32659V44.2301C27.1249 46.0632 25.6311 47.5567 23.7979 47.5567H3.32695C1.49372 47.5567 0 46.0632 0 44.2301V3.32659C0 1.49357 1.49372 0 3.32695 0H23.7979C25.5972 0 27.1249 1.49357 27.1249 3.32659ZM23.7979 8.82566H3.32695V39.2742H23.7979V8.82566ZM8.01187 4.58256C8.01187 5.49907 8.7587 6.24585 9.67531 6.24585H17.4496C18.3662 6.24585 19.1131 5.49907 19.1131 4.58256C19.1131 3.66605 18.3662 2.91925 17.4496 2.91925H9.67531C8.7587 2.91925 8.01187 3.66605 8.01187 4.58256ZM15.2089 43.4155C15.2089 42.499 14.4621 41.7522 13.5454 41.7522C12.6288 41.7522 11.882 42.499 11.882 43.4155C11.882 44.332 12.6288 45.0788 13.5454 45.0788C14.4621 45.0788 15.2089 44.332 15.2089 43.4155Z" fill="#B4267A"/>
</svg>
