<svg id="Layer_1" data-name="Layer 1" xmlns="http://www.w3.org/2000/svg" viewBox="0 0 72 72"><defs><style>.cls-1{fill:#b3287a;}.cls-2{fill:#fff;}</style></defs><path class="cls-1" d="M71.64,26.77a2.83,2.83,0,0,1-2.47,1.44,2.89,2.89,0,0,1-1.38-.35L35.89,9.73,4.22,27.86a2.86,2.86,0,0,1-3.86-1A2.89,2.89,0,0,1,1.4,23l6.1-3.46V6.91A2.43,2.43,0,0,1,9.92,4.49h6.22a2.43,2.43,0,0,1,2.41,2.42v6.27l15.9-9.1a2.79,2.79,0,0,1,2.82,0L70.55,23A2.67,2.67,0,0,1,71.64,26.77ZM64.5,31.49V63a2.43,2.43,0,0,1-2.41,2.42H9.92A2.43,2.43,0,0,1,7.5,63V31.49L35.89,15.2ZM40,44.91l9-9a2.81,2.81,0,1,0-4-4l-9,9-9-9a2.81,2.81,0,1,0-4,4l9,9-9,9a2.81,2.81,0,0,0,0,4,2.73,2.73,0,0,0,2,.8,3.1,3.1,0,0,0,2-.8l9-9,9,9a2.74,2.74,0,0,0,2,.8,3,3,0,0,0,2-.8,2.83,2.83,0,0,0,0-4Z"/><path class="cls-1" d="M20.35,27.44H52.58V61.36H20.35Z"/><path class="cls-2" d="M44.1,48a5.51,5.51,0,0,1-2.72,4.74,8.44,8.44,0,0,1-3,1.23v2.12a1.86,1.86,0,1,1-3.72,0V54l-.13,0a8.69,8.69,0,0,1-1.92-.6,6.23,6.23,0,0,1-2.37-1.77,1.89,1.89,0,0,1,.18-2.66,1.84,1.84,0,0,1,2.62.19,2.42,2.42,0,0,0,.94.72,5.14,5.14,0,0,0,1.17.38,9.24,9.24,0,0,0,1.27.14,5.55,5.55,0,0,0,2.9-.81c.9-.6,1-1.14,1-1.56a1.75,1.75,0,0,0-.45-1.18,3.47,3.47,0,0,0-1-.81,4.48,4.48,0,0,0-1.21-.44,5.55,5.55,0,0,0-1.18-.12,10.56,10.56,0,0,1-1.82-.15,7.85,7.85,0,0,1-2.34-.77,6.82,6.82,0,0,1-2.21-1.79,5.77,5.77,0,0,1-1.31-3.59,5.7,5.7,0,0,1,.58-2.46,6.24,6.24,0,0,1,2.27-2.45,9,9,0,0,1,2.92-1.16V31a1.87,1.87,0,1,1,3.73,0v2.1l.12,0a9.23,9.23,0,0,1,1.95.67,7,7,0,0,1,2.08,1.45,1.9,1.9,0,0,1,0,2.68,1.83,1.83,0,0,1-2.64,0,3.22,3.22,0,0,0-1-.68,6.26,6.26,0,0,0-1.21-.44l-.12,0a7.14,7.14,0,0,0-1-.17,5.54,5.54,0,0,0-2.85.77,2,2,0,0,0-1.1,1.71,1.92,1.92,0,0,0,.47,1.2,3.06,3.06,0,0,0,1,.79,5.26,5.26,0,0,0,1.27.42,7.59,7.59,0,0,0,1.21.1,8.47,8.47,0,0,1,2,.21,8.93,8.93,0,0,1,2.15.79,7.61,7.61,0,0,1,2.07,1.66A5.42,5.42,0,0,1,44.1,48Z"/></svg>