<svg width="43" height="37" viewBox="0 0 43 37" fill="none" xmlns="http://www.w3.org/2000/svg">
<path d="M42.2398 13.6034C41.9343 14.1465 41.3572 14.452 40.78 14.452C40.5085 14.452 40.2029 14.3841 39.9653 14.2483L21.1577 3.55571L2.48598 14.2483C1.67121 14.6896 0.65271 14.4181 0.211378 13.6373C-0.229954 12.8566 0.0416618 11.8383 0.82248 11.363L4.42103 9.32635V1.89242C4.42103 1.11169 5.06605 0.466741 5.84686 0.466741H9.51332C10.2941 0.466741 10.9392 1.11169 10.9392 1.89242V5.59242L20.309 0.229128C20.8182 -0.0763759 21.4632 -0.0763759 21.9725 0.229128L41.5948 11.397C42.4095 11.7704 42.6811 12.7887 42.2398 13.6034ZM38.0302 16.3869V34.9886C38.0302 35.7694 37.3851 36.4143 36.6043 36.4143H5.84686C5.06605 36.4143 4.42103 35.7694 4.42103 34.9886V16.3869L21.1577 6.78048L38.0302 16.3869ZM23.5681 24.296L28.898 18.9667C29.543 18.3217 29.543 17.2694 28.898 16.6245C28.253 15.9795 27.2006 15.9795 26.5556 16.6245L21.2256 21.9538L15.8957 16.6245C15.2507 15.9795 14.1982 15.9795 13.5532 16.6245C12.9082 17.2694 12.9082 18.3217 13.5532 18.9667L18.8831 24.296L13.5532 29.6254C12.9082 30.2703 12.9082 31.3226 13.5532 31.9676C13.8927 32.307 14.3001 32.4428 14.7414 32.4428C15.1488 32.4428 15.5901 32.2731 15.9296 31.9676L21.2596 26.6382L26.5895 31.9676C26.929 32.307 27.3364 32.4428 27.7777 32.4428C28.219 32.4428 28.6264 32.2731 28.9659 31.9676C29.6109 31.3226 29.6109 30.2703 28.9659 29.6254L23.5681 24.296Z" fill="#B4267A"/>
<path d="M12 14H31V34H12V14Z" fill="#B4267A"/>
<path d="M26 26.1168C26 27.2567 25.445 28.2249 24.3954 28.9113C23.8887 29.2545 23.2735 29.4996 22.634 29.6345V30.8846C22.634 31.4975 22.1394 32 21.5362 32C20.933 32 20.4383 31.4975 20.4383 30.8846V29.6467C20.4142 29.6467 20.3901 29.6345 20.3659 29.6345C19.9316 29.5609 19.5456 29.4138 19.2319 29.279C18.7131 29.0707 18.2426 28.7152 17.8324 28.2372C17.4343 27.7714 17.4826 27.0606 17.941 26.6684C18.3995 26.2761 19.0992 26.3129 19.4853 26.7787C19.6662 26.987 19.8472 27.1341 20.0402 27.2076C20.2694 27.3057 20.5107 27.3915 20.7279 27.4283C20.8727 27.4528 21.2346 27.5141 21.4759 27.5141C21.9464 27.5141 22.6461 27.3915 23.189 27.036C23.7198 26.6806 23.7922 26.3619 23.7922 26.1168C23.7922 25.8594 23.6957 25.602 23.5268 25.4182C23.3579 25.2221 23.1408 25.0505 22.9357 24.9402C22.7185 24.8298 22.4772 24.7318 22.2239 24.6828C22.0067 24.6337 21.7654 24.6092 21.5241 24.6092C21.1501 24.6092 20.7882 24.5847 20.4504 24.5234C19.9678 24.4376 19.4973 24.2906 19.0751 24.0699C18.5804 23.8125 18.122 23.4571 17.7721 23.0159C17.2775 22.403 17 21.6431 17 20.8955C17 20.3929 17.1206 19.9027 17.3378 19.4492C17.6273 18.8731 18.0737 18.3828 18.6769 18.0029C19.1716 17.6842 19.7748 17.4513 20.4021 17.3165V16.1154C20.4021 15.5025 20.8968 15 21.5 15C22.1032 15 22.5979 15.5025 22.5979 16.1154V17.3533L22.6702 17.3655C23.0322 17.4391 23.4062 17.5739 23.8163 17.7578C24.2748 17.9661 24.6971 18.2603 25.0469 18.6157C25.4812 19.0447 25.4812 19.7556 25.0469 20.1968C24.6247 20.6381 23.9249 20.6381 23.4906 20.1968C23.3338 20.0375 23.1166 19.8904 22.8995 19.7924C22.6341 19.6698 22.3928 19.584 22.1877 19.535L22.1153 19.5227C21.874 19.4737 21.6568 19.4247 21.5241 19.4247C20.9209 19.4247 20.2936 19.5963 19.8472 19.8782C19.3043 20.2213 19.1957 20.6136 19.1957 20.8832C19.1957 21.1161 19.2922 21.3735 19.4732 21.5941C19.618 21.7779 19.8351 21.9495 20.0402 22.0598C20.2574 22.1702 20.5349 22.2559 20.7882 22.305C21.0054 22.3417 21.2466 22.3663 21.5 22.3663C21.8981 22.3663 22.2842 22.403 22.6582 22.4888C23.0925 22.5869 23.5389 22.7462 23.9249 22.9546C24.3713 23.1875 24.7936 23.5429 25.1434 23.9351C25.7105 24.5479 26 25.3201 26 26.1168Z" fill="white"/>
</svg>
