<?xml version="1.0" encoding="utf-8"?>
<!-- Generator: Adobe Illustrator 24.0.2, SVG Export Plug-In . SVG Version: 6.00 Build 0)  -->
<svg version="1.1" id="Layer_1" xmlns="http://www.w3.org/2000/svg" xmlns:xlink="http://www.w3.org/1999/xlink" x="0px" y="0px"
	 viewBox="0 0 65.6 57.1" style="enable-background:new 0 0 65.6 57.1;" xml:space="preserve">
<g>
	<path d="M43.2,9.4c1.8,0,3.3,1.5,3.3,3.3v8.9c0.3-0.2,0.7-0.4,1.1-0.4c0.9,0,1.7,0.7,1.7,1.7v1.4c0,0.9-0.7,1.7-1.7,1.7
		c-0.4,0-0.8-0.1-1.1-0.4v4.2c0.7,0.6,1.1,1.5,1.1,2.5v6.3c0.6,0.2,1,0.7,1,1.4v2.9c0,0.8-0.6,1.4-1.4,1.4h-1.8v3
		c0,0.8-0.6,1.4-1.4,1.4h-3.2c-0.8,0-1.4-0.6-1.4-1.4v-3H22.5v3c0,0.8-0.6,1.4-1.4,1.4h-2.6c-0.8,0-1.4-0.6-1.4-1.4v-3h-1.8
		c-0.8,0-1.4-0.6-1.4-1.4v-2.9c0-0.6,0.4-1.2,1-1.4v-6.3c0-1,0.4-1.9,1.1-2.5v-4.2c-0.3,0.2-0.7,0.4-1.1,0.4c-0.9,0-1.7-0.7-1.7-1.7
		v-1.4c0-0.9,0.7-1.7,1.7-1.7c0.4,0,0.8,0.1,1.1,0.4v-8.9c0-1.8,1.5-3.3,3.3-3.3H43.2 M21.2,15.9h20.1c0.9,0,1.7-0.7,1.7-1.7
		s-0.7-1.7-1.7-1.7H21.2c-1,0-1.7,0.7-1.7,1.7S20.3,15.9,21.2,15.9 M32.9,28.8h10.3v-9.5H32.9V28.8 M19.3,28.8h10.3v-9.5H19.3V28.8
		 M42.3,36c1.3,0,2.4-1.1,2.4-2.4c0-1.3-1.1-2.4-2.4-2.4c-1.3,0-2.4,1.1-2.4,2.4C39.9,35,41,36,42.3,36 M20.2,36
		c1.3,0,2.4-1.1,2.4-2.4c0-1.3-1.1-2.4-2.4-2.4c-1.3,0-2.4,1.1-2.4,2.4C17.8,35,18.9,36,20.2,36 M43.2,6.4H19.3
		c-3.5,0-6.3,2.8-6.3,6.3v5.9c-1.6,0.7-2.8,2.4-2.8,4.3v1.4c0,1.9,1.1,3.5,2.8,4.3v0.1c-0.7,1-1.1,2.3-1.1,3.6V37
		c-0.6,0.8-1,1.8-1,2.8v2.9c0,2,1.4,3.8,3.3,4.3v0.2c0,2.4,2,4.4,4.4,4.4h2.6c2.4,0,4.4-2,4.4-4.4v0h10.9v0c0,2.4,2,4.4,4.4,4.4H44
		c2.4,0,4.4-2,4.4-4.4V47c1.9-0.5,3.3-2.2,3.3-4.3v-2.9c0-1-0.4-2-1-2.8v-4.8c0-1.3-0.4-2.5-1.1-3.6v-0.1c1.6-0.7,2.7-2.4,2.7-4.3
		v-1.4c0-1.9-1.1-3.5-2.7-4.3v-5.9C49.5,9.2,46.7,6.4,43.2,6.4L43.2,6.4z M35.9,22.3h4.3v3.5h-4.3V22.3L35.9,22.3z M22.3,22.3h4.3
		v3.5h-4.3V22.3L22.3,22.3z"/>
</g>
</svg>
