<svg width="37" height="40" viewBox="0 0 37 40" fill="none" xmlns="http://www.w3.org/2000/svg">
<path d="M36.0874 13.4421V14.8339C36.0874 15.7504 35.3406 16.4972 34.424 16.4972C34.0166 16.4972 33.6431 16.3614 33.3376 16.0899V20.299C34.0166 20.91 34.4579 21.7926 34.4579 22.777V29.0568C35.035 29.2265 35.4764 29.7696 35.4764 30.4145V33.3338C35.4764 34.1145 34.8313 34.7595 34.0505 34.7595H32.2173V37.7806C32.2173 38.5614 31.5723 39.2063 30.7914 39.2063H27.6342C26.8534 39.2063 26.2084 38.5614 26.2084 37.7806V34.7595H9.30194V37.7806C9.30194 38.5614 8.65691 39.2063 7.87609 39.2063H5.29599C4.51517 39.2063 3.87015 38.5614 3.87015 37.7806V34.7595H2.03692C1.2561 34.7595 0.611076 34.1145 0.611076 33.3338V30.4145C0.611076 29.7696 1.05241 29.2265 1.62954 29.0568V22.777C1.62954 21.7926 2.07087 20.91 2.74984 20.299V16.0899C2.47825 16.3275 2.07087 16.4972 1.66349 16.4972C0.746871 16.4972 0 15.7504 0 14.8339V13.4421C0 12.5256 0.746871 11.7789 1.66349 11.7789C2.07087 11.7789 2.4443 11.9146 2.74984 12.1862V3.32658C2.74984 1.49356 4.24358 0 6.07681 0H30.0106C31.8439 0 33.3376 1.49356 33.3376 3.32658V12.1862C33.6431 11.9486 34.0166 11.7789 34.424 11.7789C35.3406 11.7789 36.0874 12.5256 36.0874 13.4421ZM9.36983 24.3045C9.36983 22.9807 8.31742 21.9283 6.99343 21.9283C5.66943 21.9283 4.61702 22.9807 4.61702 24.3045C4.61702 25.6284 5.66943 26.6806 6.99343 26.6806C8.31742 26.6806 9.36983 25.6284 9.36983 24.3045ZM16.3972 9.91189H6.07681V19.4504H16.3972V9.91189ZM6.3484 4.92199C6.3484 5.8385 7.09527 6.58531 8.01189 6.58531H28.1095C29.0261 6.58531 29.773 5.8385 29.773 4.92199C29.773 4.00548 29.0261 3.25868 28.1095 3.25868H8.01189C7.06132 3.25868 6.3484 4.00548 6.3484 4.92199ZM30.0106 19.4504V9.91189H19.7242V19.4504H30.0106ZM31.4704 24.3045C31.4704 22.9807 30.418 21.9283 29.094 21.9283C27.77 21.9283 26.7176 22.9807 26.7176 24.3045C26.7176 25.6284 27.77 26.6806 29.094 26.6806C30.418 26.6806 31.4704 25.6284 31.4704 24.3045Z" fill="#B4267A"/>
</svg>
