<svg id="Layer_1" data-name="Layer 1" xmlns="http://www.w3.org/2000/svg" viewBox="0 0 72 72"><defs><style>.cls-1{fill:#b3287a;}</style></defs><path class="cls-1" d="M69.25,24.7v2.55a3.06,3.06,0,0,1-3,3.06,3,3,0,0,1-2-.75v7.73a6.11,6.11,0,0,1,2.06,4.55V53.37a2.62,2.62,0,0,1,1.87,2.49v5.36a2.64,2.64,0,0,1-2.62,2.62H62.15v5.54A2.64,2.64,0,0,1,59.53,72h-5.8a2.63,2.63,0,0,1-2.61-2.62V63.84h-31v5.54A2.64,2.64,0,0,1,17.46,72H12.72a2.63,2.63,0,0,1-2.61-2.62V63.84H6.74a2.64,2.64,0,0,1-2.62-2.62V55.86A2.62,2.62,0,0,1,6,53.37V41.84a6.11,6.11,0,0,1,2.06-4.55V29.56a3.13,3.13,0,0,1-2,.75,3.06,3.06,0,0,1-3-3.06V24.7a3.06,3.06,0,0,1,3.05-3.05,3,3,0,0,1,2,.74V6.13A6.12,6.12,0,0,1,14.16,0H58.1a6.11,6.11,0,0,1,6.1,6.11V22.39a3.34,3.34,0,0,1,2-.74A3.06,3.06,0,0,1,69.25,24.7Zm-49,19.94A4.36,4.36,0,1,0,15.84,49,4.33,4.33,0,0,0,20.2,44.64ZM33.1,18.22H14.16V35.73H33.1ZM14.65,9.06a3.06,3.06,0,0,0,3.06,3h36.9a3.06,3.06,0,0,0,0-6.11H17.71A3,3,0,0,0,14.65,9.06ZM58.1,35.73V18.22H39.21V35.73Zm2.68,8.91A4.37,4.37,0,1,0,56.41,49,4.34,4.34,0,0,0,60.78,44.64Z"/></svg>