<svg id="Layer_1" data-name="Layer 1" xmlns="http://www.w3.org/2000/svg" viewBox="0 0 72 72"><defs><style>.cls-1{fill:#b3287a;fill-rule:evenodd;}</style></defs><g id="business_24px" data-name="business 24px"><path id="icon_communication_business_24px" data-name="icon/communication/business_24px" class="cls-1" d="M36.17,3.37V17.7H72V67.86H.35V3.37ZM7.51,60.69h7.17V53.53H7.51Zm7.17-14.33H7.51V39.2h7.17ZM7.51,32h7.17V24.86H7.51ZM14.68,17.7H7.51V10.53h7.17Zm7.16,43H29V53.53H21.84ZM29,46.36H21.84V39.2H29ZM21.84,32H29V24.86H21.84ZM29,17.7H21.84V10.53H29Zm7.16,43H64.83V24.86H36.17V32h7.17V39.2H36.17v7.16h7.17v7.17H36.17ZM57.67,32H50.5V39.2h7.17ZM50.5,46.36h7.17v7.17H50.5Z"/></g></svg>