<?xml version="1.0" encoding="utf-8"?>
<!-- Generator: Adobe Illustrator 24.0.2, SVG Export Plug-In . SVG Version: 6.00 Build 0)  -->
<svg version="1.1" id="Layer_1" xmlns="http://www.w3.org/2000/svg" xmlns:xlink="http://www.w3.org/1999/xlink" x="0px" y="0px"
	 viewBox="0 0 65.6 57.1" style="enable-background:new 0 0 65.6 57.1;" xml:space="preserve">
<g>
	<path d="M31.2,7v8.8h22.1v30.9H9.1V7H31.2 M22.4,15.8h4.4v-4.4h-4.4V15.8 M13.5,15.8H18v-4.4h-4.4V15.8 M31.2,24.6h4.4V29h-4.4v4.4
		h4.4v4.4h-4.4v4.4h17.7V20.2H31.2V24.6 M22.4,24.6h4.4v-4.4h-4.4V24.6 M13.5,24.6H18v-4.4h-4.4V24.6 M22.4,33.5h4.4V29h-4.4V33.5
		 M13.5,33.5H18V29h-4.4V33.5 M22.4,42.3h4.4v-4.4h-4.4V42.3 M13.5,42.3H18v-4.4h-4.4V42.3 M44.5,24.6V29H40v-4.4H44.5 M44.5,33.5
		v4.4H40v-4.4H44.5 M34.2,4h-3H9.1h-3v3v39.8v3h3h44.2h3v-3V15.8v-3h-3H34.2V7V4L34.2,4z"/>
</g>
</svg>
