<svg width="59" height="65" viewBox="0 0 59 65" fill="none" xmlns="http://www.w3.org/2000/svg">
<path fill-rule="evenodd" clip-rule="evenodd" d="M26.4994 18.625V27.4583H48.5827V58.375H4.41602V18.625H26.4994ZM8.8328 53.9583H13.2495V49.5416H8.8328V53.9583ZM13.2495 45.1251H8.8328V40.7084H13.2495V45.1251ZM8.8328 36.2917H13.2495V31.875H8.8328V36.2917ZM13.2495 27.4583H8.8328V23.0416H13.2495V27.4583ZM17.666 53.9583H22.0827V49.5416H17.666V53.9583ZM22.0827 45.1251H17.666V40.7084H22.0827V45.1251ZM17.666 36.2917H22.0827V31.875H17.666V36.2917ZM22.0827 27.4583H17.666V23.0416H22.0827V27.4583ZM26.4992 53.9583H44.1659V31.875H26.4992V36.2917H30.9159V40.7083H26.4992V45.125H30.9159V49.5417H26.4992V53.9583ZM39.7495 36.2916H35.3328V40.7083H39.7495V36.2916ZM35.3328 45.125H39.7495V49.5417H35.3328V45.125Z" fill="#B4267A"/>
<path fill-rule="evenodd" clip-rule="evenodd" d="M45.75 0L33 5.66667V14.1667C33 22.0292 38.44 29.3817 45.75 31.1667C53.06 29.3817 58.5 22.0292 58.5 14.1667V5.66667L45.75 0ZM55.6667 14.1667C55.6667 20.57 51.445 26.4775 45.75 28.2342C40.055 26.4775 35.8333 20.57 35.8333 14.1667V7.50833L45.75 3.1025L55.6667 7.50833V14.1667ZM37.25 17L39.2475 15.0025L42.9167 18.6575L52.2525 9.32166L54.25 11.3333L42.9167 22.6667L37.25 17Z" fill="#B4267A"/>
</svg>
