<svg width="53" height="53" viewBox="0 0 53 53" fill="none" xmlns="http://www.w3.org/2000/svg">
<g id="business_24px">
<path id="icon/communication/business_24px" fill-rule="evenodd" clip-rule="evenodd" d="M26.4994 6.625V15.4583H48.5827V46.375H4.41602V6.625H26.4994ZM8.8328 41.9583H13.2495V37.5416H8.8328V41.9583ZM13.2495 33.1251H8.8328V28.7084H13.2495V33.1251ZM8.8328 24.2917H13.2495V19.875H8.8328V24.2917ZM13.2495 15.4583H8.8328V11.0416H13.2495V15.4583ZM17.666 41.9583H22.0827V37.5416H17.666V41.9583ZM22.0827 33.1251H17.666V28.7084H22.0827V33.1251ZM17.666 24.2917H22.0827V19.875H17.666V24.2917ZM22.0827 15.4583H17.666V11.0416H22.0827V15.4583ZM26.4992 41.9583H44.1659V19.875H26.4992V24.2917H30.9159V28.7083H26.4992V33.125H30.9159V37.5417H26.4992V41.9583ZM39.7495 24.2916H35.3328V28.7083H39.7495V24.2916ZM35.3328 33.125H39.7495V37.5417H35.3328V33.125Z" fill="#B4267A"/>
</g>
</svg>
