<svg id="Layer_1" data-name="Layer 1" xmlns="http://www.w3.org/2000/svg" viewBox="0 0 72 72"><defs><style>.cls-1{fill:#b3287a;fill-rule:evenodd;}</style></defs><path class="cls-1" d="M30.07,22.83V33.65H57.13V71.54H3V22.83ZM8.41,66.13h5.42V60.72H8.41Zm5.42-10.82H8.41V49.89h5.42ZM8.41,44.48h5.42V39.07H8.41Zm5.42-10.83H8.41V28.24h5.42Zm5.41,32.48h5.41V60.72H19.24Zm5.41-10.82H19.24V49.89h5.41ZM19.24,44.48h5.41V39.07H19.24Zm5.41-10.83H19.24V28.24h5.41Zm5.42,32.48H51.72V39.07H30.07v5.41h5.41v5.41H30.07v5.42h5.41v5.41H30.07ZM46.3,44.48H40.89v5.41H46.3ZM40.89,55.31H46.3v5.41H40.89Z"/><path class="cls-1" d="M54.2,0,39.11,6.71V16.77c0,9.3,6.43,18,15.09,20.12,8.65-2.12,15.09-10.82,15.09-20.12V6.71ZM65.93,16.77c0,7.57-5,14.57-11.73,16.64-6.74-2.07-11.74-9.07-11.74-16.64V8.89L54.2,3.67,65.93,8.89ZM44.14,20.12l2.36-2.36,4.34,4.32,11-11,2.37,2.38L50.84,26.83Z"/></svg>