<?xml version="1.0" encoding="utf-8"?>
<!-- Generator: Adobe Illustrator 24.0.2, SVG Export Plug-In . SVG Version: 6.00 Build 0)  -->
<svg version="1.1" id="Layer_1" xmlns="http://www.w3.org/2000/svg" xmlns:xlink="http://www.w3.org/1999/xlink" x="0px" y="0px"
	 viewBox="0 0 65.6 57.1" style="enable-background:new 0 0 65.6 57.1;" xml:space="preserve">
<g>
	<path d="M46,10.3c0.4,0.1,0.7,0.4,0.7,0.8c0,0.1,0,0.2-0.1,0.3c-0.4,0.8-0.8,1.8-1.1,2.7c-0.4,1.6-0.5,3.2-0.3,4.8
		c1.5,1.5,2.5,3.4,3.2,5.3H50c1.8,0,3.3,1.5,3.3,3.3v2c0,1.8-1.5,3.3-3.3,3.3h-1.6c-0.7,2.1-1.8,4-3.4,5.5c-0.2,0.2-0.5,0.5-0.7,0.7
		V45c0,0.8-0.6,1.4-1.4,1.4h-4.4c-0.8,0-1.4-0.6-1.4-1.4v-2.6c-0.6,0.1-1.3,0.1-1.9,0.1h-5.9c-0.6,0-1.3,0-1.9-0.1V45
		c0,0.8-0.6,1.4-1.4,1.4h-4.4c-0.8,0-1.4-0.6-1.4-1.4v-5.9c-0.2-0.2-0.5-0.4-0.7-0.7c-2-2-3.3-4.5-3.8-7.2c-1.4-0.1-2.6-1.3-2.6-2.7
		c0-1.5,1.2-2.6,2.6-2.7c0.5-2.7,1.9-5.2,3.8-7.2c2.6-2.6,6.2-4.1,9.9-4.1h5.9c1,0,1.9,0.1,2.8,0.3l7.6-4.4
		C45.7,10.3,45.9,10.3,46,10.3 M28.6,19.9h7.7c0.8,0,1.4-0.6,1.4-1.4c0-0.8-0.6-1.4-1.4-1.4h-7.7c-0.8,0-1.4,0.6-1.4,1.4
		C27.1,19.2,27.8,19.9,28.6,19.9 M32.2,35.3c-0.2,0-0.6-0.1-0.8-0.1c-0.2,0-0.5-0.1-0.7-0.2c-0.2-0.1-0.4-0.2-0.5-0.4
		c-0.2-0.3-0.6-0.4-0.9-0.4c-0.3,0-0.5,0.1-0.8,0.3c-0.5,0.4-0.5,1.2-0.1,1.7c0.4,0.5,0.9,0.8,1.5,1.1c0.3,0.1,0.7,0.3,1.2,0.4h0
		v0.9c0,0.6,0.5,1.2,1.2,1.2c0.6,0,1.2-0.5,1.2-1.2v-0.9c0.6-0.1,1.3-0.4,1.8-0.7c1.2-0.7,1.7-1.7,1.7-2.9c0-0.8-0.3-1.6-0.8-2.2
		c-0.4-0.4-0.8-0.8-1.3-1c-0.4-0.2-0.8-0.4-1.3-0.5c-0.4-0.1-0.8-0.1-1.2-0.1c-0.3,0-0.5,0-0.7-0.1c-0.3,0-0.5-0.1-0.8-0.2
		c-0.2-0.1-0.4-0.3-0.6-0.5c-0.2-0.2-0.3-0.5-0.3-0.7c0-0.3,0.1-0.6,0.6-1c0.4-0.3,1.1-0.5,1.7-0.5c0.1,0,0.3,0,0.6,0.1H33
		c0.2,0,0.4,0.1,0.7,0.3c0.2,0.1,0.4,0.2,0.6,0.4c0.2,0.2,0.5,0.4,0.8,0.4c0.3,0,0.6-0.1,0.8-0.4c0.5-0.5,0.5-1.2,0-1.7
		c-0.4-0.4-0.8-0.7-1.3-0.9c-0.4-0.2-0.8-0.3-1.2-0.4h0V24c0-0.6-0.5-1.2-1.2-1.2c-0.6,0-1.2,0.5-1.2,1.2v0.9
		c-0.6,0.1-1.3,0.4-1.8,0.7c-1.1,0.7-1.8,1.8-1.8,3c0,0.8,0.3,1.6,0.8,2.2c0.4,0.4,0.8,0.8,1.4,1.1c0.4,0.2,1,0.4,1.4,0.5
		c0.4,0.1,0.7,0.1,1.1,0.1c0.2,0,0.5,0,0.7,0.1c0.3,0.1,0.5,0.1,0.7,0.3c0.2,0.1,0.4,0.3,0.6,0.5c0.2,0.2,0.3,0.4,0.3,0.7
		c0,0.2,0,0.5-0.6,0.9C33.6,35.1,33,35.3,32.2,35.3 M46.3,7.3H46c-0.6,0-1.3,0.1-1.8,0.4l-0.1,0l-0.1,0l-6.7,3.9
		c-0.8-0.1-1.5-0.1-2.2-0.1h-5.9c-4.5,0-8.8,1.8-12,5c-1.9,1.9-3.4,4.3-4.2,6.9c-1.8,1-3.1,2.9-3.1,5.1c0,2.2,1.3,4.1,3.1,5.1
		c0.8,2.5,2.2,4.8,4,6.7V45c0,2.4,2,4.4,4.4,4.4h4.4c2.3,0,4.1-1.7,4.4-3.9h3.8c0.3,2.2,2.1,3.9,4.4,3.9h4.4c2.4,0,4.4-2,4.4-4.4
		v-4.6c1.3-1.3,2.4-2.9,3.2-4.5c3.3-0.2,5.9-3,5.9-6.3v-2c0-3.3-2.6-6.1-5.8-6.3c-0.6-1.3-1.4-2.5-2.3-3.6c0-0.9,0.1-1.8,0.3-2.8
		c0.2-0.7,0.4-1.4,0.8-2.1l0.1-0.2l0.1-0.2c0.1-0.3,0.2-0.6,0.2-1.1c0.1-1.9-1.3-3.6-3.2-3.9L46.3,7.3L46.3,7.3z"/>
</g>
</svg>
