<svg width="38" height="42" viewBox="0 0 38 42" fill="none" xmlns="http://www.w3.org/2000/svg">
<path d="M16.4349 11.6582H0V39.3485H16.4349V11.6582Z" fill="#257675"/>
<path d="M13.0349 0H3.41559C2.92344 0 2.50586 0.404567 2.50586 0.914021V1.07884V1.66322V2.57724H3.41559H13.0349H13.9446V1.66322V1.07884V0.914021C13.9297 0.404567 13.5271 0 13.0349 0Z" fill="#257675"/>
<path d="M13.9294 4.41992H2.50549L0 9.81414H16.4498L13.9294 4.41992Z" fill="#257675"/>
<path d="M27.2485 34.3425C27.159 35.1667 26.3984 35.8409 25.5782 35.8409H15.9738C15.1386 35.8409 14.3929 35.1667 14.3035 34.3425L12.1261 14.6986C12.0366 13.8745 12.6331 13.2002 13.4683 13.2002H28.0837C28.9188 13.2002 29.5154 13.8745 29.4259 14.6986L27.2485 34.3425Z" stroke="white" stroke-width="4.041" stroke-miterlimit="10"/>
<path d="M27.2485 34.3425C27.159 35.1667 26.3984 35.8409 25.5782 35.8409H15.9738C15.1386 35.8409 14.3929 35.1667 14.3035 34.3425L12.1261 14.6986C12.0366 13.8745 12.6331 13.2002 13.4683 13.2002H28.0837C28.9188 13.2002 29.5154 13.8745 29.4259 14.6986L27.2485 34.3425Z" fill="white"/>
<path d="M27.2485 34.3425C27.159 35.1667 26.3984 35.8409 25.5782 35.8409H15.9738C15.1386 35.8409 14.3929 35.1667 14.3035 34.3425L12.1261 14.6986C12.0366 13.8745 12.6331 13.2002 13.4683 13.2002H28.0837C28.9188 13.2002 29.5154 13.8745 29.4259 14.6986L27.2485 34.3425Z" stroke="#257675" stroke-width="1.01" stroke-miterlimit="10"/>
<path d="M12.6621 19.6738C15.3018 19.6738 15.3018 20.8875 17.9415 20.8875C20.5813 20.8875 20.5813 19.6738 23.221 19.6738C25.8607 19.6738 25.8607 20.8875 28.5004 20.8875" fill="white"/>
<path d="M12.6621 19.6738C15.3018 19.6738 15.3018 20.8875 17.9415 20.8875C20.5813 20.8875 20.5813 19.6738 23.221 19.6738C25.8607 19.6738 25.8607 20.8875 28.5004 20.8875" stroke="#257675" stroke-width="1.01" stroke-miterlimit="10"/>
<path d="M27.0978 28.2294C26.7697 29.0835 26.5609 30.1324 26.5609 31.4959C26.5609 32.1852 25.9942 32.7545 25.3082 32.7545C24.6222 32.7545 24.0554 32.1852 24.0554 31.4959C24.0554 29.9975 24.2642 28.7388 24.6222 27.705C23.6677 27.5551 22.6685 27.4502 21.6544 27.4053C21.0876 28.3642 20.7297 29.6529 20.7297 31.4959C20.7297 32.1852 20.163 32.7545 19.477 32.7545C18.7909 32.7545 18.2242 32.1852 18.2242 31.4959C18.2242 29.8626 18.4628 28.5291 18.8804 27.4352C17.7321 27.5102 16.6284 27.645 15.5696 27.8548C15.152 28.7538 14.8835 29.9226 14.8835 31.4959C14.8835 32.1852 14.3168 32.7545 13.6308 32.7545C12.9448 32.7545 12.3781 32.1852 12.3781 31.4959C12.3781 30.417 12.4824 29.4731 12.6763 28.634C8.5005 30.0724 5.72656 32.6347 5.72656 35.5266C5.72656 38.838 10.2603 39.3475 14.1826 39.3475H26.9189C30.8412 39.3475 35.3749 38.823 35.3749 35.5266C35.36 32.35 31.9895 29.563 27.0978 28.2294Z" stroke="white" stroke-width="3.031" stroke-miterlimit="10"/>
<path d="M27.0978 28.2294C26.7697 29.0835 26.5609 30.1324 26.5609 31.4959C26.5609 32.1852 25.9942 32.7545 25.3082 32.7545C24.6222 32.7545 24.0554 32.1852 24.0554 31.4959C24.0554 29.9975 24.2642 28.7388 24.6222 27.705C23.6677 27.5551 22.6685 27.4502 21.6544 27.4053C21.0876 28.3642 20.7297 29.6529 20.7297 31.4959C20.7297 32.1852 20.163 32.7545 19.477 32.7545C18.7909 32.7545 18.2242 32.1852 18.2242 31.4959C18.2242 29.8626 18.4628 28.5291 18.8804 27.4352C17.7321 27.5102 16.6284 27.645 15.5696 27.8548C15.152 28.7538 14.8835 29.9226 14.8835 31.4959C14.8835 32.1852 14.3168 32.7545 13.6308 32.7545C12.9448 32.7545 12.3781 32.1852 12.3781 31.4959C12.3781 30.417 12.4824 29.4731 12.6763 28.634C8.5005 30.0724 5.72656 32.6347 5.72656 35.5266C5.72656 38.838 10.2603 39.3475 14.1826 39.3475H26.9189C30.8412 39.3475 35.3749 38.823 35.3749 35.5266C35.36 32.35 31.9895 29.563 27.0978 28.2294Z" fill="#257675"/>
</svg>
