<svg id="Layer_1" data-name="Layer 1" xmlns="http://www.w3.org/2000/svg" viewBox="0 0 72 72"><defs><style>.cls-1{fill:#277776;}.cls-2,.cls-4,.cls-5{fill:none;stroke-miterlimit:10;}.cls-2,.cls-5{stroke:#fff;}.cls-2{stroke-width:4.04px;}.cls-3{fill:#fff;}.cls-4{stroke:#277776;stroke-width:1.01px;}.cls-5{stroke-width:3.03px;}</style></defs><path class="cls-1" d="M35.63,21.83H7.08V69.94H35.63Z"/><path class="cls-1" d="M29.73,1.58H13a1.59,1.59,0,0,0-1.58,1.59V6.06H31.31V3.17A1.61,1.61,0,0,0,29.73,1.58Z"/><path class="cls-1" d="M31.28,9.26H11.43L7.08,18.63H35.66Z"/><path class="cls-2" d="M54.42,61.24a3,3,0,0,1-2.9,2.61H34.83a3,3,0,0,1-2.9-2.61L28.15,27.12a2.29,2.29,0,0,1,2.33-2.61H55.87a2.29,2.29,0,0,1,2.33,2.61Z"/><path class="cls-3" d="M54.42,61.24a3,3,0,0,1-2.9,2.61H34.83a3,3,0,0,1-2.9-2.61L28.15,27.12a2.29,2.29,0,0,1,2.33-2.61H55.87a2.29,2.29,0,0,1,2.33,2.61Z"/><path class="cls-4" d="M54.42,61.24a3,3,0,0,1-2.9,2.61H34.83a3,3,0,0,1-2.9-2.61L28.15,27.12a2.29,2.29,0,0,1,2.33-2.61H55.87a2.29,2.29,0,0,1,2.33,2.61Z"/><path class="cls-3" d="M29.08,35.76c4.59,0,4.59,2.11,9.17,2.11s4.59-2.11,9.17-2.11S52,37.87,56.6,37.87"/><path class="cls-4" d="M29.08,35.76c4.59,0,4.59,2.11,9.17,2.11s4.59-2.11,9.17-2.11S52,37.87,56.6,37.87"/><path class="cls-5" d="M54.16,50.62a15.64,15.64,0,0,0-.93,5.68,2.18,2.18,0,1,1-4.36,0,20.24,20.24,0,0,1,1-6.59,47.43,47.43,0,0,0-5.16-.52,13.72,13.72,0,0,0-1.6,7.11,2.18,2.18,0,1,1-4.36,0,19.83,19.83,0,0,1,1.14-7.06,45.36,45.36,0,0,0-5.75.73,15,15,0,0,0-1.19,6.33,2.18,2.18,0,1,1-4.35,0,22.35,22.35,0,0,1,.51-5c-7.25,2.5-12.07,7-12.07,12,0,5.76,7.88,6.64,14.69,6.64H53.85c6.81,0,14.69-.91,14.69-6.64C68.51,57.78,62.66,52.94,54.16,50.62Z"/><path class="cls-1" d="M54.16,50.62a15.64,15.64,0,0,0-.93,5.68,2.18,2.18,0,1,1-4.36,0,20.24,20.24,0,0,1,1-6.59,47.43,47.43,0,0,0-5.16-.52,13.72,13.72,0,0,0-1.6,7.11,2.18,2.18,0,1,1-4.36,0,19.83,19.83,0,0,1,1.14-7.06,45.36,45.36,0,0,0-5.75.73,15,15,0,0,0-1.19,6.33,2.18,2.18,0,1,1-4.35,0,22.35,22.35,0,0,1,.51-5c-7.25,2.5-12.07,7-12.07,12,0,5.76,7.88,6.64,14.69,6.64H53.85c6.81,0,14.69-.91,14.69-6.64C68.51,57.78,62.66,52.94,54.16,50.62Z"/></svg>