<svg width="32" height="42" viewBox="0 0 32 42" fill="none" xmlns="http://www.w3.org/2000/svg">
<path d="M31.1309 18.2963V39.0366C31.1309 40.3265 30.0446 41.4127 28.7545 41.4127H2.37641C1.08636 41.4127 0 40.3265 0 39.0366V18.2963C0 16.9724 1.08636 15.9201 2.37641 15.9201H4.9565V10.6247C4.9565 7.77336 6.07682 5.12567 8.07979 3.12292C10.0828 1.12017 12.7647 0 15.5824 0C18.4002 0 21.0821 1.12017 23.0851 3.12292C25.0881 5.12567 26.2084 7.80731 26.2084 10.6247V15.9201H28.7885C30.0785 15.9201 31.1309 17.0064 31.1309 18.2963ZM22.8475 10.6247C22.8475 6.61924 19.5884 3.32661 15.5485 3.32661C11.5426 3.32661 8.24953 6.58529 8.24953 10.6247V15.9201H22.8135V10.6247H22.8475ZM18.9094 25.9339C18.9094 24.1008 17.4157 22.6073 15.5824 22.6073C13.7492 22.6073 12.2555 24.1008 12.2555 25.9339C12.2555 27.2577 13.0363 28.4118 14.1566 28.955V34.5219C14.1566 35.3027 14.8016 35.9476 15.5824 35.9476C16.3633 35.9476 17.0083 35.3027 17.0083 34.5219V28.955C18.1286 28.4118 18.9094 27.2577 18.9094 25.9339Z" fill="#257675"/>
</svg>
