<svg id="Layer_1" data-name="Layer 1" xmlns="http://www.w3.org/2000/svg" viewBox="0 0 72 72"><defs><style>.cls-1{fill:#277776;}</style></defs><path class="cls-1" d="M63.16,31.8V67.87A4.18,4.18,0,0,1,59,72H13.16A4.18,4.18,0,0,1,9,67.87V31.8a4.14,4.14,0,0,1,4.13-4.13h4.49V18.46a18.48,18.48,0,0,1,37,0v9.21h4.49A4.13,4.13,0,0,1,63.16,31.8ZM48.76,18.46a12.7,12.7,0,0,0-25.39,0v9.21H48.7V18.46ZM41.91,45.08a5.79,5.79,0,0,0-11.57,0,5.89,5.89,0,0,0,3.3,5.26V60a2.48,2.48,0,1,0,5,0V50.34A5.88,5.88,0,0,0,41.91,45.08Z"/></svg>