<svg id="Layer_1" data-name="Layer 1" xmlns="http://www.w3.org/2000/svg" viewBox="0 0 72 72"><defs><style>.cls-1{fill:#b3287a;}</style></defs><path class="cls-1" d="M71.18,26.81c1.09.47,1.09,1.25,0,1.71L38,42.64a5.88,5.88,0,0,1-4,0L.82,28.52c-1.09-.46-1.09-1.24,0-1.71L34,12.75a5.88,5.88,0,0,1,4,0ZM39.67,46.59,58,38.78v9.58C58,54.77,48.11,60,35.92,60S13.84,54.77,13.84,48.36V38.78l18.33,7.81a9.61,9.61,0,0,0,3.75.68A9.58,9.58,0,0,0,39.67,46.59Zm22.76,7.76H70V49.3a3.8,3.8,0,0,0-7.6,0v5.05Zm3.8-16.61a2.55,2.55,0,1,0-2.55-2.55A2.55,2.55,0,0,0,66.23,37.74Zm0,6.51a2.55,2.55,0,1,0-2.55-2.55A2.55,2.55,0,0,0,66.23,44.25Z"/></svg>