<svg width="47" height="32" viewBox="0 0 47 32" fill="none" xmlns="http://www.w3.org/2000/svg">
<path d="M46.3993 9.39423C47.1123 9.69973 47.1123 10.2089 46.3993 10.5144L24.774 19.7135C24.0611 20.019 22.8729 20.019 22.16 19.7135L0.534692 10.5144C-0.178231 10.2089 -0.178231 9.69973 0.534692 9.39423L22.16 0.229128C22.8729 -0.0763759 24.0611 -0.0763759 24.774 0.229128L46.3993 9.39423ZM25.8604 22.2933L37.8103 17.2016V23.4474C37.8103 27.6226 31.3601 31.0171 23.4161 31.0171C15.4721 31.0171 9.02186 27.6226 9.02186 23.4474V17.2016L20.9718 22.2933C21.8545 22.6667 22.7711 22.7346 23.4161 22.7346C24.0611 22.7346 24.9778 22.6667 25.8604 22.2933ZM40.696 27.3511H45.6185V24.0584C45.6185 22.7006 44.4982 21.5804 43.1403 21.5804C41.7823 21.5804 40.6621 22.7006 40.6621 24.0584V27.3511H40.696ZM43.1742 16.5226C44.0908 16.5226 44.8377 15.7759 44.8377 14.8594C44.8377 13.9428 44.0908 13.1961 43.1742 13.1961C42.2576 13.1961 41.5108 13.9428 41.5108 14.8594C41.5108 15.7759 42.2576 16.5226 43.1742 16.5226ZM43.1742 20.7657C44.0908 20.7657 44.8377 20.019 44.8377 19.1025C44.8377 18.1859 44.0908 17.4392 43.1742 17.4392C42.2576 17.4392 41.5108 18.1859 41.5108 19.1025C41.5108 20.019 42.2576 20.7657 43.1742 20.7657Z" fill="#B4267A"/>
</svg>
