<?xml version="1.0" encoding="utf-8"?>
<!-- Generator: Adobe Illustrator 24.0.2, SVG Export Plug-In . SVG Version: 6.00 Build 0)  -->
<svg version="1.1" id="Layer_1" xmlns="http://www.w3.org/2000/svg" xmlns:xlink="http://www.w3.org/1999/xlink" x="0px" y="0px"
	 viewBox="0 0 60.8 55" style="enable-background:new 0 0 60.8 55;" xml:space="preserve">
<style type="text/css">
	.st0{fill:none;stroke:#000000;stroke-miterlimit:10;}
</style>
<path class="st0" d="M52.6,22.1c0.7,0.3,0.7,0.8,0,1.1L31,32.4c-0.7,0.3-1.9,0.3-2.6,0L6.8,23.2c-0.7-0.3-0.7-0.8,0-1.1l21.6-9.2
	c0.7-0.3,1.9-0.3,2.6,0L52.6,22.1z M32.1,35l12-5.1v6.2c0,4.2-6.5,7.6-14.4,7.6c-8,0-14.4-3.4-14.4-7.6v-6.2L27.2,35
	c0.9,0.4,1.8,0.4,2.5,0.4C30.3,35.4,31.2,35.4,32.1,35z M46.9,40.1h4.9v-3.3c0-1.4-1.1-2.5-2.5-2.5s-2.5,1.1-2.5,2.5L46.9,40.1
	L46.9,40.1z M49.4,29.2c0.9,0,1.7-0.7,1.7-1.7c0-0.9-0.8-1.7-1.7-1.7c-0.9,0-1.7,0.7-1.7,1.7C47.8,28.5,48.5,29.2,49.4,29.2z
	 M49.4,33.5c0.9,0,1.7-0.7,1.7-1.7c0-0.9-0.8-1.7-1.7-1.7c-0.9,0-1.7,0.7-1.7,1.7C47.8,32.7,48.5,33.5,49.4,33.5z"/>
</svg>
