<?xml version="1.0" encoding="utf-8"?>
<!-- Generator: Adobe Illustrator 24.0.2, SVG Export Plug-In . SVG Version: 6.00 Build 0)  -->
<svg version="1.1" id="Layer_1" xmlns="http://www.w3.org/2000/svg" xmlns:xlink="http://www.w3.org/1999/xlink" x="0px" y="0px"
	 viewBox="0 0 65.6 57.1" style="enable-background:new 0 0 65.6 57.1;" xml:space="preserve">
<g>
	<path d="M32.6,10.8c0.5,0,1,0.1,1.3,0.2l21.6,9.2c0.7,0.3,0.7,0.8,0,1.1l-21.6,9.2c-0.4,0.2-0.8,0.2-1.3,0.2s-1-0.1-1.3-0.2
		L9.7,21.3C9,21,9,20.5,9.7,20.2l21.6-9.2C31.7,10.9,32.2,10.8,32.6,10.8 M52.3,24c0.9,0,1.7,0.7,1.7,1.7c0,0.9-0.8,1.7-1.7,1.7
		c-0.9,0-1.7-0.7-1.7-1.7C50.7,24.8,51.4,24,52.3,24 M47,28v6.2c0,4.2-6.5,7.6-14.4,7.6c-8,0-14.4-3.4-14.4-7.6V28l11.9,5.1
		c0.9,0.4,1.8,0.4,2.5,0.4c0.6,0,1.6-0.1,2.4-0.4L47,28 M52.3,28.3c0.9,0,1.7,0.7,1.7,1.7c0,0.9-0.8,1.7-1.7,1.7
		c-0.9,0-1.7-0.7-1.7-1.7C50.7,29,51.4,28.3,52.3,28.3 M52.3,32.4c1.4,0,2.5,1.1,2.5,2.5v3.3h-4.9h0v-3.3
		C49.8,33.5,50.9,32.4,52.3,32.4 M32.6,7.8c-0.6,0-1.6,0.1-2.5,0.5L8.5,17.5c-1.5,0.6-2.4,1.9-2.4,3.3c0,1.4,0.9,2.7,2.3,3.3
		l6.7,2.8V28v6.2c0,6,7.5,10.6,17.4,10.6c6,0,11.1-1.7,14.2-4.3v0.7h3h5h3v-3v-3.3c0-1.2-0.4-2.4-1.1-3.3c0.2-0.5,0.3-1.1,0.3-1.7
		c0-0.8-0.2-1.5-0.5-2.1c0.3-0.6,0.5-1.4,0.5-2.1c0-0.6-0.1-1.1-0.3-1.6l0,0c1.5-0.6,2.4-1.9,2.4-3.3c0-1.4-0.9-2.7-2.3-3.3
		L35.1,8.3C34.2,7.9,33.3,7.8,32.6,7.8L32.6,7.8z"/>
</g>
</svg>
