<svg id="Layer_1" data-name="Layer 1" xmlns="http://www.w3.org/2000/svg" viewBox="0 0 72 72"><defs><style>.cls-1{fill:#b3287a;}</style></defs><path class="cls-1" d="M71.15,35.9A35.15,35.15,0,1,1,36,.75,35.16,35.16,0,0,1,71.15,35.9ZM18.42,22.8a22.51,22.51,0,0,0-4,9.49,3.51,3.51,0,0,0,2.86,4.06,2.43,2.43,0,0,0,.6,0,3.54,3.54,0,0,0,3.47-2.91,15.1,15.1,0,0,1,2.21-5.72v1.45a3.52,3.52,0,1,0,7,0V19.28a3.49,3.49,0,0,0-3.52-3.51H17.12a3.52,3.52,0,1,0,0,7Zm5,21.59a16.86,16.86,0,0,1-1.26-2.56,3.5,3.5,0,0,0-6.53,2.51,23.18,23.18,0,0,0,1.81,3.71,3.46,3.46,0,0,0,3,1.71,3.39,3.39,0,0,0,1.81-.5A3.62,3.62,0,0,0,23.4,44.39ZM32,51.11A18,18,0,0,1,29.37,50a3.53,3.53,0,0,0-3.31,6.23,21.19,21.19,0,0,0,3.81,1.6,3.93,3.93,0,0,0,1.06.15A3.53,3.53,0,0,0,32,51.11Zm5-30.57a3.55,3.55,0,0,0,3.52-3.47,3.46,3.46,0,0,0-3.47-3.56h-.05A3.46,3.46,0,0,0,33.49,17,3.5,3.5,0,0,0,37,20.54h.1Zm9.29,32.53a3.49,3.49,0,0,0-4.46-2.16c-.46.15-.91.31-1.36.41a3.51,3.51,0,0,0,.85,6.92,5,5,0,0,0,.86-.1,15.79,15.79,0,0,0,2-.6A3.59,3.59,0,0,0,46.34,53.07Zm.41-29.67a3.46,3.46,0,0,0,3-1.71,3.51,3.51,0,1,0-4.82,1.16l.05,0A3.11,3.11,0,0,0,46.75,23.4Zm7.63,20.84a3.58,3.58,0,0,0-4.92.85,14.31,14.31,0,0,1-.86,1.15,3.57,3.57,0,0,0,.41,5,3.51,3.51,0,0,0,2.26.85A3.47,3.47,0,0,0,54,50.81c.45-.55.85-1.1,1.25-1.65A3.48,3.48,0,0,0,54.38,44.24ZM50.51,28.87l.05.05a3.52,3.52,0,0,0,3.12,1.86,4,4,0,0,0,1.65-.4,3.55,3.55,0,1,0-4.82-1.51ZM56,33.59a3.54,3.54,0,0,0-3.72,3.32,1.87,1.87,0,0,1-.05.55,3.5,3.5,0,0,0,3.21,3.81h.3a3.5,3.5,0,0,0,3.52-3.21c0-.25,0-.55,0-.85A3.48,3.48,0,0,0,56,33.59Z"/></svg>