<svg width="48" height="48" viewBox="0 0 48 48" fill="none" xmlns="http://www.w3.org/2000/svg">
<path d="M47.5281 23.7614C47.5281 36.8981 36.8683 47.5228 23.7641 47.5228C10.6599 47.5228 0 36.8641 0 23.7614C0 10.6587 10.6599 0 23.7641 0C36.8683 0 47.5281 10.6247 47.5281 23.7614ZM11.882 14.9018C10.4901 16.8027 9.57354 18.9752 9.16616 21.3174C8.92852 22.6073 9.81118 23.8293 11.1012 24.0669C11.237 24.1009 11.3728 24.1008 11.5086 24.1008C12.6289 24.1008 13.6474 23.2862 13.8511 22.132C14.0887 20.7403 14.5979 19.4165 15.3448 18.2623V19.2467C15.3448 20.5706 16.3972 21.6229 17.7212 21.6229C19.0452 21.6229 20.0976 20.5706 20.0976 19.2467V12.5256C20.0976 11.2018 19.0452 10.1495 17.7212 10.1495H10.9994C9.67536 10.1495 8.62296 11.2018 8.62296 12.5256C8.62296 13.8495 9.67536 14.9018 10.9994 14.9018H11.882ZM15.2429 29.4981C14.9035 28.955 14.6319 28.344 14.3942 27.7669C13.9189 26.5449 12.561 25.9339 11.3389 26.4091C10.1167 26.8843 9.50564 28.2421 9.98092 29.4641C10.3204 30.3467 10.7278 31.1953 11.2031 31.9761C11.6444 32.7228 12.4252 33.1302 13.24 33.1302C13.6474 33.1302 14.0887 33.0284 14.4621 32.7907C15.5485 32.0779 15.9219 30.6183 15.2429 29.4981ZM21.0821 34.0467C20.471 33.843 19.86 33.6054 19.2828 33.2999C18.1286 32.6889 16.6688 33.1302 16.0577 34.2843C15.4467 35.4384 15.888 36.8981 17.0422 37.5091C17.857 37.9504 18.7397 38.3237 19.6223 38.5953C19.86 38.6632 20.0976 38.6971 20.3352 38.6971C21.3537 38.6971 22.2703 38.0522 22.6098 37.0338C23.0172 35.7779 22.3043 34.454 21.0821 34.0467ZM24.477 13.3743C25.767 13.3743 26.8195 12.322 26.8534 11.0321C26.8874 9.70823 25.8349 8.62199 24.5109 8.62199H24.477C23.153 8.58805 22.0666 9.64034 22.0666 10.9642C22.0666 12.288 23.0851 13.3743 24.4091 13.3743H24.4431H24.477ZM30.7575 35.3705C30.3162 34.1146 28.9582 33.4696 27.7361 33.9109C27.4305 34.0128 27.125 34.1146 26.8195 34.1825C25.5294 34.488 24.7825 35.7779 25.0881 37.0678C25.3597 38.154 26.3442 38.8669 27.3966 38.8669C27.6003 38.8669 27.77 38.8329 27.9737 38.799C28.415 38.6971 28.8903 38.5614 29.3316 38.3916C30.5199 37.9504 31.1649 36.5926 30.7575 35.3705ZM31.0291 15.3091C31.8438 15.3091 32.6247 14.9018 33.066 14.155C33.745 13.0348 33.4055 11.5752 32.2852 10.8963C31.1649 10.2174 29.7051 10.5568 29.0261 11.677C28.3471 12.7972 28.6866 14.2568 29.8069 14.9357L29.8409 14.9697C30.1804 15.2073 30.6217 15.3091 31.0291 15.3091ZM36.1893 29.3962C35.1029 28.6495 33.6431 28.921 32.8623 29.9733C32.6926 30.2449 32.4889 30.4825 32.2852 30.754C31.4365 31.7384 31.5723 33.266 32.5568 34.1146C32.9981 34.488 33.5413 34.6916 34.0845 34.6916C34.7634 34.6916 35.4424 34.4201 35.9177 33.843C36.2232 33.4696 36.4948 33.0962 36.7664 32.7228C37.5472 31.6366 37.2757 30.143 36.1893 29.3962ZM33.5752 19.0091L33.6092 19.0431C34.0505 19.8577 34.8653 20.299 35.714 20.299C36.0875 20.299 36.4609 20.1972 36.8343 20.0275C37.9886 19.4165 38.4299 17.9568 37.8188 16.8027C37.2077 15.6486 35.7819 15.1734 34.5937 15.7844C33.4055 16.4293 32.9642 17.855 33.5752 19.0091ZM37.2757 22.1999C35.9517 22.132 34.8313 23.1504 34.7634 24.4403C34.7634 24.5761 34.7635 24.7119 34.7295 24.8137C34.6277 26.1375 35.5782 27.2917 36.9022 27.3935C36.9701 27.3935 37.038 27.3935 37.1059 27.3935C38.328 27.3935 39.3804 26.477 39.4823 25.221C39.4823 25.0513 39.5163 24.8476 39.5163 24.644C39.5841 23.388 38.5996 22.2678 37.2757 22.1999Z" fill="#B4267A"/>
</svg>
