<?xml version="1.0" encoding="utf-8"?>
<!-- Generator: Adobe Illustrator 24.0.2, SVG Export Plug-In . SVG Version: 6.00 Build 0)  -->
<svg version="1.1" id="Layer_1" xmlns="http://www.w3.org/2000/svg" xmlns:xlink="http://www.w3.org/1999/xlink" x="0px" y="0px"
	 viewBox="0 0 65.6 57.1" style="enable-background:new 0 0 65.6 57.1;" xml:space="preserve">
<g>
	<path d="M31.4,4.1c13.1,0,23.8,10.6,23.8,23.8c0,13.1-10.7,23.8-23.8,23.8C18.3,51.6,7.7,41,7.7,27.9C7.7,14.8,18.3,4.1,31.4,4.1
		 M32.1,17.5L32.1,17.5L32.1,17.5c1.4,0,2.4-1.1,2.4-2.3c0-1.3-1-2.4-2.3-2.4h0c0,0,0,0-0.1,0c-1.3,0-2.3,1-2.3,2.3
		C29.7,16.4,30.8,17.5,32.1,17.5 M18.7,19h0.9c-1.4,1.9-2.3,4.1-2.7,6.4c-0.2,1.3,0.6,2.5,1.9,2.7c0.1,0,0.3,0,0.4,0
		c1.1,0,2.1-0.8,2.3-2c0.2-1.4,0.7-2.7,1.5-3.9v1c0,1.3,1.1,2.4,2.4,2.4c1.3,0,2.4-1.1,2.4-2.4v-6.7c0-1.3-1.1-2.4-2.4-2.4h-6.7
		c-1.3,0-2.4,1.1-2.4,2.4C16.3,17.9,17.4,19,18.7,19 M38.7,19.4c0.8,0,1.6-0.4,2-1.2c0.7-1.1,0.3-2.6-0.8-3.3
		c-0.4-0.2-0.8-0.3-1.2-0.3c-0.8,0-1.6,0.4-2,1.1c-0.7,1.1-0.3,2.6,0.8,3.3l0,0C37.9,19.3,38.3,19.4,38.7,19.4 M43.4,24.4
		c0.4,0,0.7-0.1,1.1-0.3c1.2-0.6,1.6-2.1,1-3.2c-0.4-0.8-1.3-1.3-2.1-1.3c-0.4,0-0.7,0.1-1.1,0.3c-1.2,0.6-1.6,2.1-1,3.2l0,0
		C41.7,24,42.5,24.4,43.4,24.4 M44.6,31.5c0.1,0,0.1,0,0.2,0c1.2,0,2.3-0.9,2.4-2.2c0-0.2,0-0.4,0-0.6c0.1-1.3-0.9-2.4-2.2-2.4
		c0,0-0.1,0-0.1,0c-1.3,0-2.3,1-2.4,2.2c0,0.1,0,0.3,0,0.4C42.3,30.2,43.3,31.4,44.6,31.5 M20.9,37.2c0.4,0,0.8-0.1,1.2-0.3
		c1.1-0.7,1.5-2.2,0.8-3.3c-0.3-0.5-0.6-1.2-0.8-1.7c-0.4-0.9-1.3-1.5-2.2-1.5c-0.3,0-0.6,0.1-0.9,0.2c-1.2,0.5-1.8,1.8-1.4,3.1
		c0.3,0.9,0.7,1.7,1.2,2.5C19.3,36.8,20.1,37.2,20.9,37.2 M41.8,38.8c0.7,0,1.4-0.3,1.8-0.8c0.3-0.4,0.6-0.7,0.8-1.1
		c0.8-1.1,0.5-2.6-0.6-3.3c-0.4-0.3-0.9-0.4-1.4-0.4c-0.8,0-1.5,0.4-2,1c-0.2,0.3-0.4,0.5-0.6,0.8c-0.8,1-0.7,2.5,0.3,3.4
		C40.7,38.6,41.2,38.8,41.8,38.8 M28,42.8c1,0,1.9-0.6,2.3-1.7c0.4-1.3-0.3-2.6-1.5-3c-0.6-0.2-1.2-0.4-1.8-0.7
		c-0.4-0.2-0.7-0.3-1.1-0.3c-0.9,0-1.7,0.5-2.1,1.3c-0.6,1.2-0.2,2.6,1,3.2c0.8,0.4,1.7,0.8,2.6,1.1C27.5,42.8,27.8,42.8,28,42.8
		 M35.1,43c0.2,0,0.4,0,0.6-0.1c0.4-0.1,0.9-0.2,1.4-0.4c1.2-0.4,1.8-1.8,1.4-3c-0.3-1-1.3-1.6-2.2-1.6c-0.3,0-0.5,0-0.8,0.1
		c-0.3,0.1-0.6,0.2-0.9,0.3c-1.3,0.3-2,1.6-1.7,2.9C33,42.3,34,43,35.1,43 M31.4,1.1c-14.8,0-26.8,12-26.8,26.8
		c0,14.8,12,26.8,26.8,26.8c14.8,0,26.8-12,26.8-26.8C58.2,13.1,46.2,1.1,31.4,1.1L31.4,1.1z"/>
</g>
</svg>
