<?xml version="1.0" encoding="utf-8"?>
<!-- Generator: Adobe Illustrator 24.0.2, SVG Export Plug-In . SVG Version: 6.00 Build 0)  -->
<svg version="1.1" id="Layer_1" xmlns="http://www.w3.org/2000/svg" xmlns:xlink="http://www.w3.org/1999/xlink" x="0px" y="0px"
	 viewBox="0 0 60.8 55" style="enable-background:new 0 0 60.8 55;" xml:space="preserve">
<style type="text/css">
	.st0{fill:none;stroke:#000000;stroke-miterlimit:10;}
</style>
<path class="st0" d="M54.2,27.2c0,13.1-10.7,23.8-23.8,23.8S6.7,40.3,6.7,27.2c0-13.1,10.7-23.8,23.8-23.8S54.2,14,54.2,27.2z
	 M18.5,18.3c-1.4,1.9-2.3,4.1-2.7,6.4c-0.2,1.3,0.6,2.5,1.9,2.7c0.1,0,0.3,0,0.4,0c1.1,0,2.1-0.8,2.3-2c0.2-1.4,0.7-2.7,1.5-3.9v1
	C22,24,23,25,24.4,25c1.3,0,2.4-1.1,2.4-2.4v-6.7c0-1.3-1.1-2.4-2.4-2.4h-6.7c-1.3,0-2.4,1.1-2.4,2.4c0,1.3,1.1,2.4,2.4,2.4H18.5z
	 M21.9,32.9c-0.3-0.5-0.6-1.2-0.8-1.7c-0.5-1.2-1.8-1.8-3.1-1.4s-1.8,1.8-1.4,3.1c0.3,0.9,0.7,1.7,1.2,2.5c0.4,0.7,1.2,1.2,2,1.2
	c0.4,0,0.8-0.1,1.2-0.3C22.2,35.5,22.6,34,21.9,32.9z M27.7,37.5c-0.6-0.2-1.2-0.4-1.8-0.7c-1.2-0.6-2.6-0.2-3.2,1
	c-0.6,1.2-0.2,2.6,1,3.2c0.8,0.4,1.7,0.8,2.6,1.1c0.2,0.1,0.5,0.1,0.7,0.1c1,0,1.9-0.6,2.3-1.7C29.7,39.2,29,37.9,27.7,37.5z
	 M31.1,16.8c1.3,0,2.3-1.1,2.4-2.3c0-1.3-1-2.4-2.3-2.4h0c-1.3,0-2.4,1-2.4,2.3C28.7,15.7,29.7,16.8,31.1,16.8L31.1,16.8L31.1,16.8z
	 M37.4,38.8c-0.4-1.3-1.8-1.9-3-1.5c-0.3,0.1-0.6,0.2-0.9,0.3c-1.3,0.3-2,1.6-1.7,2.9c0.3,1.1,1.3,1.8,2.3,1.8c0.2,0,0.4,0,0.6-0.1
	c0.4-0.1,0.9-0.2,1.4-0.4C37.2,41.4,37.8,40,37.4,38.8z M37.7,18.7c0.8,0,1.6-0.4,2-1.2c0.7-1.1,0.3-2.6-0.8-3.3
	c-1.1-0.7-2.6-0.3-3.3,0.8s-0.3,2.6,0.8,3.3l0,0C36.8,18.6,37.3,18.7,37.7,18.7z M42.8,32.8c-1.1-0.7-2.5-0.5-3.3,0.6
	c-0.2,0.3-0.4,0.5-0.6,0.8c-0.8,1-0.7,2.5,0.3,3.4c0.4,0.4,1,0.6,1.5,0.6c0.7,0,1.4-0.3,1.8-0.8c0.3-0.4,0.6-0.7,0.8-1.1
	C44.2,35.1,43.9,33.6,42.8,32.8z M40.2,22.4L40.2,22.4c0.5,0.8,1.3,1.3,2.1,1.3c0.4,0,0.7-0.1,1.1-0.3c1.2-0.6,1.6-2.1,1-3.2
	c-0.6-1.2-2-1.6-3.2-1C40.1,19.9,39.6,21.3,40.2,22.4z M43.9,25.6c-1.3-0.1-2.4,0.9-2.5,2.2c0,0.1,0,0.3,0,0.4
	c-0.1,1.3,0.8,2.5,2.2,2.6c0.1,0,0.1,0,0.2,0c1.2,0,2.3-0.9,2.4-2.2c0-0.2,0-0.4,0-0.6C46.2,26.8,45.3,25.7,43.9,25.6z"/>
</svg>
