<svg width="39" height="32" viewBox="0 0 39 32" fill="none" xmlns="http://www.w3.org/2000/svg">
<path d="M14.9981 14.3258C16.0842 14.3258 17.0927 14.5327 17.9978 14.9464C18.9158 15.3602 19.6915 15.9032 20.338 16.5885C20.9845 17.2737 21.5016 18.0624 21.8637 18.9675C22.2257 19.8596 22.4067 20.7905 22.4067 21.7732V25.4968C22.4067 26.5312 22.1481 27.3587 21.6309 27.9922C21.1138 28.6258 20.3768 29.1171 19.4071 29.4532C18.4374 29.8023 17.2737 30.0221 15.9032 30.1385C14.5327 30.2549 12.9941 30.3066 11.2874 30.3066C9.54192 30.3066 7.97746 30.2549 6.58108 30.1385C5.19763 30.0221 4.00812 29.8023 3.03842 29.4532C2.06871 29.1042 1.3188 28.6258 0.801625 27.9922C0.284447 27.3587 0.0129294 26.5312 0 25.4968V21.7732C0 20.8164 0.181012 19.8855 0.555965 18.9933C0.930919 18.1012 1.4481 17.2996 2.09457 16.6143C2.75397 15.9161 3.54266 15.3731 4.46065 14.9594C5.37864 14.5456 6.38714 14.3387 7.47321 14.3387H14.9981V14.3258ZM11.3003 12.4769C10.434 12.4769 9.6195 12.3088 8.86959 11.9856C8.11968 11.6623 7.44735 11.2098 6.89139 10.6539C6.33542 10.0979 5.88289 9.43849 5.54673 8.68858C5.22349 7.93867 5.05541 7.13705 5.05541 6.2837C5.05541 5.41743 5.22349 4.60288 5.54673 3.84004C5.86996 3.07721 6.32249 2.4178 6.89139 1.84891C7.46028 1.26708 8.11968 0.814555 8.86959 0.49132C9.6195 0.168084 10.434 0 11.3003 0C12.1537 0 12.9424 0.168084 13.6793 0.49132C14.4163 0.814555 15.0628 1.26709 15.6188 1.83598C16.1747 2.40488 16.6014 3.06428 16.9246 3.82712C17.2349 4.58995 17.3901 5.4045 17.3901 6.27078C17.3901 7.12412 17.2349 7.92574 16.9246 8.67565C16.6143 9.42556 16.1747 10.085 15.6188 10.6409C15.0628 11.1969 14.4163 11.6494 13.6793 11.9727C12.9424 12.3088 12.1537 12.4769 11.3003 12.4769Z" fill="#257675"/>
<path d="M30.5926 14.3256C31.6787 14.3256 32.6872 14.5324 33.5923 14.9462C34.5102 15.3599 35.286 15.903 35.9325 16.5882C36.579 17.2735 37.0832 18.0622 37.4582 18.9672C37.8202 19.8594 38.0012 20.7903 38.0012 21.7729V25.4966C38.0012 26.531 37.7426 27.3584 37.2254 27.992C36.7083 28.6255 35.9713 29.1168 35.0145 29.453C34.0448 29.8021 32.8811 30.0219 31.5106 30.1383C30.1401 30.2546 28.6015 30.3064 26.8948 30.3064C25.1493 30.3064 23.5849 30.2546 22.1885 30.1383C20.8051 30.0219 19.6155 29.8021 18.6458 29.453C17.6761 29.1039 16.9262 28.6255 16.409 27.992C15.8919 27.3584 15.6204 26.531 15.6074 25.4966V21.7729C15.6074 20.8161 15.7884 19.8852 16.1634 18.9931C16.5383 18.101 17.0555 17.2993 17.702 16.6141C18.3614 15.9159 19.1501 15.3729 20.0681 14.9591C20.9861 14.5454 21.9946 14.3385 23.0806 14.3385H30.5926V14.3256ZM26.9077 12.4767C26.0415 12.4767 25.2269 12.3086 24.477 11.9853C23.7271 11.6621 23.0548 11.2096 22.4988 10.6536C21.9428 10.0977 21.4903 9.43825 21.1541 8.68834C20.8309 7.93843 20.6628 7.13681 20.6628 6.28347C20.6628 5.4172 20.8309 4.60264 21.1541 3.83981C21.4774 3.07697 21.9299 2.41757 22.4988 1.84867C23.0677 1.27978 23.7271 0.840175 24.477 0.50401C25.2269 0.180774 26.0415 0.0126953 26.9077 0.0126953C27.7611 0.0126953 28.5498 0.180774 29.2868 0.50401C30.0237 0.827246 30.6702 1.27978 31.2262 1.84867C31.7821 2.41757 32.2088 3.07697 32.532 3.83981C32.8424 4.60264 32.9975 5.4172 32.9975 6.28347C32.9975 7.13681 32.8424 7.93843 32.532 8.68834C32.2217 9.43825 31.7821 10.0977 31.2262 10.6536C30.6702 11.2096 30.0237 11.6621 29.2868 11.9853C28.5498 12.3086 27.7482 12.4767 26.9077 12.4767Z" fill="#257675"/>
<path d="M21.3354 20.479C22.0077 20.479 22.6154 20.6083 23.1843 20.854C23.7403 21.1125 24.2187 21.4487 24.6195 21.8625C25.0203 22.2891 25.3306 22.7675 25.5633 23.3235C25.7831 23.8794 25.8995 24.4483 25.8995 25.0431V27.3316C25.8995 27.9651 25.7443 28.4823 25.4211 28.8702C25.1108 29.2581 24.6453 29.5555 24.0635 29.7753C23.4688 29.9821 22.7576 30.1244 21.9043 30.189C21.0639 30.2537 20.1071 30.2924 19.0728 30.2924C17.9996 30.2924 17.0299 30.2537 16.1766 30.189C15.3232 30.1244 14.5992 29.9821 14.0044 29.7753C13.4097 29.5684 12.9442 29.2581 12.6339 28.8702C12.3107 28.4823 12.1426 27.9651 12.1426 27.3316V25.056C12.1426 24.4613 12.2589 23.8924 12.4917 23.3493C12.7244 22.7934 13.0347 22.315 13.4485 21.8883C13.8493 21.4616 14.3406 21.1255 14.8965 20.8669C15.4654 20.6212 16.0861 20.4919 16.7455 20.4919H21.3354V20.479ZM19.0728 19.3412C18.5426 19.3412 18.0384 19.2378 17.5729 19.0438C17.1075 18.837 16.7067 18.5655 16.3576 18.2293C16.0085 17.8802 15.737 17.4794 15.5301 17.0139C15.3232 16.5485 15.2327 16.0571 15.2327 15.527C15.2327 14.9969 15.3361 14.4927 15.5301 14.0272C15.737 13.5618 16.0085 13.148 16.3576 12.7989C16.7067 12.4498 17.1075 12.1783 17.5729 11.9714C18.0384 11.7646 18.5297 11.6611 19.0728 11.6611C19.5899 11.6611 20.0812 11.7646 20.5338 11.9714C20.9863 12.1783 21.3871 12.4498 21.7233 12.7989C22.0595 13.148 22.331 13.5618 22.5249 14.0272C22.7189 14.4927 22.8094 14.9969 22.8094 15.527C22.8094 16.0442 22.7059 16.5485 22.5249 17.0139C22.331 17.4794 22.0595 17.8802 21.7233 18.2293C21.3871 18.5784 20.9863 18.8499 20.5338 19.0438C20.0812 19.2378 19.5899 19.3412 19.0728 19.3412Z" stroke="white" stroke-width="2.958" stroke-miterlimit="10"/>
<path d="M21.3354 20.479C22.0077 20.479 22.6154 20.6083 23.1843 20.854C23.7403 21.1125 24.2187 21.4487 24.6195 21.8625C25.0203 22.2891 25.3306 22.7675 25.5633 23.3235C25.7831 23.8794 25.8995 24.4483 25.8995 25.0431V27.3316C25.8995 27.9651 25.7443 28.4823 25.4211 28.8702C25.1108 29.2581 24.6453 29.5555 24.0635 29.7753C23.4688 29.9821 22.7576 30.1244 21.9043 30.189C21.0639 30.2537 20.1071 30.2924 19.0728 30.2924C17.9996 30.2924 17.0299 30.2537 16.1766 30.189C15.3232 30.1244 14.5992 29.9821 14.0044 29.7753C13.4097 29.5684 12.9442 29.2581 12.6339 28.8702C12.3107 28.4823 12.1426 27.9651 12.1426 27.3316V25.056C12.1426 24.4613 12.2589 23.8924 12.4917 23.3493C12.7244 22.7934 13.0347 22.315 13.4485 21.8883C13.8493 21.4616 14.3406 21.1255 14.8965 20.8669C15.4654 20.6212 16.0861 20.4919 16.7455 20.4919H21.3354V20.479ZM19.0728 19.3412C18.5426 19.3412 18.0384 19.2378 17.5729 19.0438C17.1075 18.837 16.7067 18.5655 16.3576 18.2293C16.0085 17.8802 15.737 17.4794 15.5301 17.0139C15.3232 16.5485 15.2327 16.0571 15.2327 15.527C15.2327 14.9969 15.3361 14.4927 15.5301 14.0272C15.737 13.5618 16.0085 13.148 16.3576 12.7989C16.7067 12.4498 17.1075 12.1783 17.5729 11.9714C18.0384 11.7646 18.5297 11.6611 19.0728 11.6611C19.5899 11.6611 20.0812 11.7646 20.5338 11.9714C20.9863 12.1783 21.3871 12.4498 21.7233 12.7989C22.0595 13.148 22.331 13.5618 22.5249 14.0272C22.7189 14.4927 22.8094 14.9969 22.8094 15.527C22.8094 16.0442 22.7059 16.5485 22.5249 17.0139C22.331 17.4794 22.0595 17.8802 21.7233 18.2293C21.3871 18.5784 20.9863 18.8499 20.5338 19.0438C20.0812 19.2378 19.5899 19.3412 19.0728 19.3412Z" fill="#257675"/>
</svg>
