<svg id="Layer_1" data-name="Layer 1" xmlns="http://www.w3.org/2000/svg" viewBox="0 0 72 72"><defs><style>.cls-1{fill:#277776;}.cls-2{fill:none;stroke:#fff;stroke-miterlimit:10;stroke-width:2.96px;}</style></defs><path class="cls-1" d="M28.39,33.1a13.58,13.58,0,0,1,5.68,1.17,13.88,13.88,0,0,1,4.43,3.11,14.41,14.41,0,0,1,2.89,4.5,14.07,14.07,0,0,1,1,5.32v7A7.23,7.23,0,0,1,41,59a9.11,9.11,0,0,1-4.21,2.76A26.38,26.38,0,0,1,30.1,63c-2.59.22-5.5.32-8.73.32s-6.27-.1-8.91-.32a26.79,26.79,0,0,1-6.71-1.3A9.41,9.41,0,0,1,1.52,59,7.36,7.36,0,0,1,0,54.24v-7a13.47,13.47,0,0,1,1.05-5.27A15.08,15.08,0,0,1,4,37.43,14,14,0,0,1,8.44,34.3a13.67,13.67,0,0,1,5.71-1.18H28.39Zm-7-3.5a11.56,11.56,0,0,1-4.6-.93,12,12,0,0,1-3.74-2.52,12.43,12.43,0,0,1-2.55-3.72,11.44,11.44,0,0,1-.93-4.56,11.77,11.77,0,0,1,3.48-8.39A11.54,11.54,0,0,1,21.39,6a11,11,0,0,1,4.5.93,11.63,11.63,0,0,1,3.68,2.55A11.92,11.92,0,0,1,32,13.22a12.34,12.34,0,0,1,.88,4.63A11.9,11.9,0,0,1,32,22.4a11.42,11.42,0,0,1-2.47,3.72,12,12,0,0,1-3.68,2.52A10.6,10.6,0,0,1,21.39,29.6Z"/><path class="cls-1" d="M57.91,33.1a13.58,13.58,0,0,1,5.68,1.17A13.88,13.88,0,0,1,68,37.38a14.77,14.77,0,0,1,2.89,4.5,14.06,14.06,0,0,1,1,5.31v7.05A7.28,7.28,0,0,1,70.47,59a9.14,9.14,0,0,1-4.19,2.76A26.29,26.29,0,0,1,59.65,63c-2.6.22-5.51.32-8.74.32S44.64,63.25,42,63a26.62,26.62,0,0,1-6.7-1.3A9.39,9.39,0,0,1,31.06,59a7.42,7.42,0,0,1-1.52-4.73V47.19a13.47,13.47,0,0,1,1.06-5.26,15.08,15.08,0,0,1,2.91-4.5A13.9,13.9,0,0,1,38,34.3a13.62,13.62,0,0,1,5.7-1.18H57.91Zm-7-3.5a11.6,11.6,0,0,1-4.6-.93,12,12,0,0,1-3.74-2.52A12.62,12.62,0,0,1,40,22.43a11.44,11.44,0,0,1-.93-4.56,11.77,11.77,0,0,1,3.48-8.39,12.41,12.41,0,0,1,3.74-2.55A11.6,11.6,0,0,1,50.93,6a11.13,11.13,0,0,1,4.51.93,11.75,11.75,0,0,1,3.67,2.55,11.83,11.83,0,0,1,3.35,8.39,11.76,11.76,0,0,1-.88,4.56,11.52,11.52,0,0,1-2.47,3.72,12,12,0,0,1-3.67,2.52A11.2,11.2,0,0,1,50.93,29.6Z"/><path class="cls-2" d="M40.39,44.75a8.62,8.62,0,0,1,3.5.71,8.94,8.94,0,0,1,2.71,1.9,9.16,9.16,0,0,1,1.79,2.77A8.67,8.67,0,0,1,49,53.38v4.34a4.41,4.41,0,0,1-.91,2.91,5.87,5.87,0,0,1-2.57,1.71,16.48,16.48,0,0,1-4.09.79c-1.59.12-3.4.19-5.36.19s-3.86-.07-5.48-.19a16.85,16.85,0,0,1-4.11-.79,5.56,5.56,0,0,1-2.59-1.71A4.36,4.36,0,0,1,23,57.72V53.41a8.12,8.12,0,0,1,.66-3.23,8.68,8.68,0,0,1,1.81-2.77,9,9,0,0,1,2.74-1.93,8.69,8.69,0,0,1,3.5-.71h8.69ZM36.1,42.59A7.34,7.34,0,0,1,33.26,42,8,8,0,0,1,31,40.49a7.49,7.49,0,0,1-1.56-2.3,6.87,6.87,0,0,1-.57-2.82,7.31,7.31,0,0,1,.57-2.84,7.39,7.39,0,0,1,3.86-3.89,6.94,6.94,0,0,1,2.84-.59,6.65,6.65,0,0,1,2.77.59,7.29,7.29,0,0,1,2.25,1.57,7.47,7.47,0,0,1,1.52,2.32,7.29,7.29,0,0,1,.54,2.84,7.86,7.86,0,0,1-.54,2.82,7.37,7.37,0,0,1-1.52,2.3A6.88,6.88,0,0,1,38.87,42,7,7,0,0,1,36.1,42.59Z"/><path class="cls-1" d="M40.39,44.75a8.62,8.62,0,0,1,3.5.71,8.94,8.94,0,0,1,2.71,1.9,9.16,9.16,0,0,1,1.79,2.77A8.67,8.67,0,0,1,49,53.38v4.34a4.41,4.41,0,0,1-.91,2.91,5.87,5.87,0,0,1-2.57,1.71,16.48,16.48,0,0,1-4.09.79c-1.59.12-3.4.19-5.36.19s-3.86-.07-5.48-.19a16.85,16.85,0,0,1-4.11-.79,5.56,5.56,0,0,1-2.59-1.71A4.36,4.36,0,0,1,23,57.72V53.41a8.12,8.12,0,0,1,.66-3.23,8.68,8.68,0,0,1,1.81-2.77,9,9,0,0,1,2.74-1.93,8.69,8.69,0,0,1,3.5-.71h8.69ZM36.1,42.59A7.34,7.34,0,0,1,33.26,42,8,8,0,0,1,31,40.49a7.49,7.49,0,0,1-1.56-2.3,6.87,6.87,0,0,1-.57-2.82,7.31,7.31,0,0,1,.57-2.84,7.39,7.39,0,0,1,3.86-3.89,6.94,6.94,0,0,1,2.84-.59,6.65,6.65,0,0,1,2.77.59,7.29,7.29,0,0,1,2.25,1.57,7.47,7.47,0,0,1,1.52,2.32,7.29,7.29,0,0,1,.54,2.84,7.86,7.86,0,0,1-.54,2.82,7.37,7.37,0,0,1-1.52,2.3A6.88,6.88,0,0,1,38.87,42,7,7,0,0,1,36.1,42.59Z"/></svg>