<svg width="45" height="35" viewBox="0 0 45 35" fill="none" xmlns="http://www.w3.org/2000/svg">
<path d="M0 17.8669C0 15.0419 1.80289 12.6572 4.29087 11.74L7.78847 2.56812C8.36539 1.10062 9.95192 0 11.5024 0H33.4976C35.0481 0 36.6346 1.10062 37.2115 2.56812L40.7091 11.74C43.1971 12.6572 45 15.0786 45 17.8669V27.1122C45 27.956 44.3149 28.653 43.4856 28.653H41.3581V33.4591C41.3581 34.3029 40.6731 35 39.8437 35H36.7428C35.9134 35 35.2283 34.3029 35.2283 33.4591V28.653H9.84378V33.4591C9.84378 34.3029 9.15869 35 8.32937 35H5.2284C4.39908 35 3.71399 34.3029 3.71399 33.4591V28.653H1.58655C0.75722 28.653 0.0721307 27.956 0.0721307 27.1122V17.8669H0ZM10.0241 17.9036C10.0241 16.0692 8.5457 14.565 6.74282 14.565C4.93994 14.565 3.46156 16.0692 3.46156 17.9036C3.46156 19.7379 4.93994 21.2421 6.74282 21.2421C8.5457 21.2421 10.0241 19.7379 10.0241 17.9036ZM8.25723 11.3365H36.7789L33.9303 3.88888C33.8942 3.77882 33.6418 3.59537 33.4976 3.59537H11.5024C11.3942 3.59537 11.1418 3.77882 11.0697 3.88888L8.25723 11.3365ZM41.5745 17.9036C41.5745 16.0692 40.0962 14.565 38.2933 14.565C36.4904 14.565 35.012 16.0692 35.012 17.9036C35.012 19.7379 36.4904 21.2421 38.2933 21.2421C40.0962 21.2421 41.5745 19.7379 41.5745 17.9036Z" fill="#B4267A"/>
</svg>
