<svg id="Layer_1" data-name="Layer 1" xmlns="http://www.w3.org/2000/svg" viewBox="0 0 72 72"><defs><style>.cls-1{fill:#b3287a;}</style></defs><path class="cls-1" d="M0,35.85a10.42,10.42,0,0,1,6.84-9.77l5.58-14.62a6.65,6.65,0,0,1,5.92-4.09H53.4a6.68,6.68,0,0,1,5.92,4.09l5.57,14.62a10.48,10.48,0,0,1,6.84,9.77V50.58A2.45,2.45,0,0,1,69.32,53H65.93V60.7a2.45,2.45,0,0,1-2.42,2.46H58.57a2.45,2.45,0,0,1-2.41-2.46V53H15.69V60.7a2.45,2.45,0,0,1-2.41,2.46H8.33A2.45,2.45,0,0,1,5.92,60.7V53H2.53A2.46,2.46,0,0,1,.11,50.58V35.85Zm16,0a5.3,5.3,0,0,0-5.23-5.32,5.33,5.33,0,0,0,0,10.65A5.3,5.3,0,0,0,16,35.9ZM13.16,25.44H58.63L54.09,13.56a1,1,0,0,0-.69-.46H18.34a1.3,1.3,0,0,0-.69.46ZM66.27,35.9A5.23,5.23,0,1,0,61,41.23,5.29,5.29,0,0,0,66.27,35.9Z"/></svg>