<svg width="48" height="48" viewBox="0 0 48 48" fill="none" xmlns="http://www.w3.org/2000/svg">
<g id="24 / basic / trash">
<path id="icon" fill-rule="evenodd" clip-rule="evenodd" d="M18 2H30C32.2091 2 34 3.79086 34 6V8H40C42.2091 8 44 9.79086 44 12V16C44 18.2091 42.2091 20 40 20H39.8406L38.0009 42C38.0009 44.2091 36.21 46 34.0009 46H14.0009C11.7917 46 10.0009 44.2091 10.0078 42.1661L8.1606 20H8C5.79086 20 4 18.2091 4 16V12C4 9.79086 5.79086 8 8 8H14V6C14 3.79086 15.7909 2 18 2ZM8 12H14H34H40V16H8V12ZM12.1724 20H35.8259L34.0064 41.8339L33.9995 42H13.9994L12.1724 20ZM30 6V8H18V6H30Z" fill="#B4267A"/>
</g>
</svg>
