<svg id="Layer_1" data-name="Layer 1" xmlns="http://www.w3.org/2000/svg" viewBox="0 0 72 72"><defs><style>.cls-1{fill:#b3287a;fill-rule:evenodd;}</style></defs><g id="_24_basic_trash" data-name="24 / basic / trash"><path id="icon" class="cls-1" d="M26.18,0H45.82a6.54,6.54,0,0,1,6.54,6.55V9.82h9.82a6.54,6.54,0,0,1,6.55,6.54v6.55a6.54,6.54,0,0,1-6.55,6.54h-.26l-3,36A6.54,6.54,0,0,1,52.37,72H19.64a6.48,6.48,0,0,1-6.54-6.27l-3-36.28H9.82a6.54,6.54,0,0,1-6.55-6.54V16.36A6.54,6.54,0,0,1,9.82,9.82h9.82V6.55A6.54,6.54,0,0,1,26.18,0ZM9.82,16.36H62.18v6.55H9.82Zm6.83,13.09h38.7l-3,35.73v.27H19.64ZM45.82,6.55V9.82H26.18V6.55Z"/></g></svg>