<?xml version="1.0" encoding="utf-8"?>
<!-- Generator: Adobe Illustrator 24.0.2, SVG Export Plug-In . SVG Version: 6.00 Build 0)  -->
<svg version="1.1" id="Layer_1" xmlns="http://www.w3.org/2000/svg" xmlns:xlink="http://www.w3.org/1999/xlink" x="0px" y="0px"
	 viewBox="0 0 60.8 55" style="enable-background:new 0 0 60.8 55;" xml:space="preserve">
<path d="M19.8,28.4c-0.3,0.8-0.5,1.6-0.6,2.5H7.3c-0.8,0-1.4-0.6-1.4-1.4v-1.2c0-0.8,0.6-1.4,1.4-1.4h13.1c0.1,0,0.1,0,0.2,0
	C20.3,27.4,20,27.9,19.8,28.4z M53.2,25.2v12c0,0.8-0.6,1.4-1.4,1.4h-3.2c-1.4,2.6-4.1,4.2-7.7,4.2H13.7c-0.8,0-1.4-0.6-1.4-1.4
	v-1.2c0-0.8,0.6-1.4,1.4-1.4h8.4c3.3,3,8.3,3,11.7,0.2c3.8-3.2,4.4-8.9,1.2-12.7c-3.2-3.8-8.9-4.4-12.7-1.2H9.1
	c-0.8,0-1.4-0.6-1.4-1.4v-1.3c0-0.8,0.6-1.4,1.4-1.4h18h5.3c0.6,0,1.1-0.5,1.1-1.1c0-0.6-0.5-1.1-1.1-1.1h-3.3h-3.6
	c-0.8,0-1.4-0.6-1.4-1.4v-1.6c0-0.8,0.6-1.4,1.4-1.4H33c0,0,0.1,0,0.1,0h0.6c5.6,0,11.2,4.1,13.2,9.3h4.9
	C52.6,23.7,53.2,24.3,53.2,25.2z M20.5,36.9H9.1c-0.8,0-1.4-0.6-1.4-1.4v-1.2c0-0.8,0.6-1.4,1.4-1.4h10c0.1,0.9,0.3,1.8,0.7,2.7
	C20,36,20.2,36.4,20.5,36.9z M29.3,25.3v1c0.3,0.1,0.7,0.2,1,0.3c0.4,0.2,0.8,0.5,1.2,0.8c0.4,0.4,0.4,1.2,0,1.6
	c-0.4,0.5-1.2,0.5-1.7,0.1c-0.1-0.1-0.3-0.2-0.5-0.3c-0.2-0.1-0.4-0.2-0.6-0.2h-0.1c-0.2,0-0.4-0.1-0.5-0.1c-0.5,0-1.1,0.1-1.4,0.4
	c-0.3,0.2-0.5,0.5-0.5,0.7c0,0.2,0.1,0.4,0.2,0.5c0.1,0.2,0.3,0.3,0.5,0.4c0.2,0.1,0.4,0.2,0.6,0.2c0.2,0,0.4,0,0.6,0
	c0.4,0,0.7,0,1.1,0.1c0.4,0.1,0.8,0.2,1.2,0.4c0.4,0.2,0.8,0.5,1.2,0.9c0.5,0.6,0.8,1.3,0.8,2.1c0,0.7-0.3,1.8-1.6,2.7
	c-0.5,0.3-1,0.5-1.5,0.6v1c0,0.6-0.5,1.2-1.2,1.2c-0.6,0-1.2-0.5-1.2-1.2v-1c-0.3-0.1-0.7-0.2-1-0.3c-0.5-0.2-1-0.5-1.4-1
	c0,0,0,0,0,0c-0.4-0.5-0.4-1.3,0.1-1.7c0.5-0.4,1.3-0.3,1.7,0.1c0.1,0.1,0.3,0.3,0.4,0.3c0.2,0.1,0.4,0.1,0.6,0.2
	c0.1,0,0.4,0.1,0.6,0.1c0.5,0,1.1-0.2,1.5-0.4c0.5-0.3,0.5-0.5,0.5-0.7c0-0.2-0.1-0.4-0.2-0.5c-0.1-0.2-0.3-0.3-0.5-0.4
	c-0.2-0.1-0.4-0.2-0.6-0.2c-0.2,0-0.4-0.1-0.6-0.1c-0.3,0-0.7,0-1-0.1c-0.4-0.1-0.9-0.2-1.3-0.4c-0.5-0.2-0.9-0.6-1.3-1
	c-0.5-0.6-0.7-1.3-0.7-2c0-1.1,0.6-2.1,1.6-2.7c0.5-0.3,0.9-0.5,1.5-0.6v-1c0-0.6,0.5-1.2,1.2-1.2C28.7,24.1,29.3,24.6,29.3,25.3z"
	/>
</svg>
