<svg width="48" height="29" viewBox="0 0 48 29" fill="none" xmlns="http://www.w3.org/2000/svg">
<path d="M13.8511 14.0871C13.5116 14.8678 13.3079 15.7165 13.206 16.5651H1.42584C0.645025 16.5651 0 15.9201 0 15.1394V13.9174C0 13.1367 0.645025 12.4917 1.42584 12.4917H14.4961C14.564 12.4917 14.6319 12.4917 14.6998 12.4917C14.3942 13.0009 14.0887 13.544 13.8511 14.0871ZM47.3244 10.7945V22.777C47.3244 23.5577 46.6794 24.2027 45.8986 24.2027H42.7074C41.3495 26.7825 38.5996 28.4458 35.035 28.4458H7.80819C7.02737 28.4458 6.38235 27.8008 6.38235 27.0201V25.7981C6.38235 25.0173 7.02737 24.3724 7.80819 24.3724H16.1935C19.5205 27.3256 24.5109 27.3935 27.9398 24.5761C31.776 21.3852 32.3191 15.6825 29.128 11.8467C25.9368 8.01098 20.2334 7.46786 16.3972 10.6587H3.19117C2.41035 10.6587 1.76533 10.0137 1.76533 9.233V7.97703C1.76533 7.1963 2.41035 6.55136 3.19117 6.55136H21.184H26.48C27.0571 6.55136 27.5663 6.07614 27.5663 5.49907C27.5663 4.92201 27.091 4.44679 26.48 4.44679H23.153H19.5205C18.7397 4.44679 18.0946 3.80182 18.0946 3.02109V1.42568C18.0946 0.644946 18.7397 0 19.5205 0H27.0571C27.091 0 27.1589 0 27.1929 0H27.8379C33.4055 0 39.0749 4.10733 41.01 9.33483H45.8647C46.6794 9.36878 47.3244 9.97979 47.3244 10.7945ZM14.5979 22.5055H3.22512C2.4443 22.5055 1.79928 21.8605 1.79928 21.0797V19.8577C1.79928 19.077 2.4443 18.4321 3.22512 18.4321H13.206C13.2739 19.3486 13.5116 20.2651 13.885 21.1137C14.0547 21.5889 14.2924 22.0642 14.5979 22.5055ZM23.3906 10.9642V11.9486C23.7301 12.0504 24.0696 12.1523 24.4091 12.288C24.8504 12.4917 25.2578 12.7633 25.5973 13.1027C26.0047 13.544 26.0047 14.2568 25.5973 14.6981C25.156 15.1734 24.4091 15.2073 23.8999 14.766C23.7641 14.6302 23.5943 14.5284 23.4246 14.4266C23.2209 14.3247 23.0172 14.2568 22.8135 14.2229H22.7456C22.5419 14.189 22.3382 14.1211 22.2364 14.1211C21.7271 14.1211 21.184 14.2569 20.8105 14.4945C20.471 14.6981 20.3013 14.9697 20.3013 15.2412C20.3013 15.411 20.3692 15.6146 20.505 15.7504C20.6408 15.9201 20.7766 16.022 20.9803 16.1238C21.184 16.2256 21.3877 16.2935 21.6253 16.3275C21.829 16.3614 22.0327 16.3614 22.2364 16.3614C22.6098 16.3614 22.9832 16.3954 23.3227 16.4632C23.7301 16.5651 24.1375 16.7009 24.5109 16.9045C24.9523 17.1422 25.3597 17.4477 25.6652 17.821C26.1744 18.3981 26.446 19.1449 26.446 19.8917C26.446 20.6385 26.1744 21.7247 24.8844 22.5733C24.4091 22.8788 23.8999 23.0825 23.3567 23.2183V24.2027C23.3567 24.8476 22.8135 25.3908 22.1685 25.3908C21.5235 25.3908 20.9803 24.8476 20.9803 24.2027V23.2522C20.6408 23.1843 20.3013 23.0825 19.9958 22.9467C19.4865 22.7431 19.0452 22.4036 18.6378 21.9623C18.6378 21.9623 18.6378 21.9284 18.6039 21.9284C18.1965 21.4192 18.2304 20.6724 18.7397 20.2651C19.2489 19.8577 19.9958 19.9256 20.4032 20.4009C20.505 20.5366 20.6747 20.6724 20.8445 20.7403C21.0482 20.8082 21.2519 20.8761 21.4556 20.944C21.5914 20.9779 21.8969 21.0119 22.1006 21.0119C22.6098 21.0119 23.1869 20.8421 23.5604 20.6045C24.0357 20.299 24.0357 20.0614 24.0357 19.9256C24.0357 19.722 23.9678 19.5522 23.832 19.4165C23.6962 19.2467 23.5264 19.1449 23.3567 19.0431C23.153 18.9412 22.9493 18.8733 22.7456 18.8394C22.5419 18.8055 22.3382 18.7715 22.1685 18.7715C21.829 18.7715 21.4895 18.7376 21.15 18.7036C20.7087 18.6357 20.2674 18.4999 19.826 18.2963C19.3507 18.0587 18.9094 17.7192 18.5699 17.3119C18.0946 16.7348 17.823 16.022 17.823 15.2752C17.823 14.1889 18.4002 13.1706 19.4526 12.5257C19.9279 12.2541 20.4031 12.0504 20.9463 11.9146V10.9642C20.9463 10.3192 21.4895 9.77613 22.1345 9.77613C22.7796 9.77613 23.3906 10.2853 23.3906 10.9642Z" fill="#257675"/>
</svg>
