<svg id="Layer_1" data-name="Layer 1" xmlns="http://www.w3.org/2000/svg" viewBox="0 0 72 72"><defs><style>.cls-1{fill:#277776;}</style></defs><path class="cls-1" d="M21.19,34.91a13.39,13.39,0,0,0-1,3.74H2.44A2.16,2.16,0,0,1,.29,36.5V34.65A2.16,2.16,0,0,1,2.44,32.5h20A20.68,20.68,0,0,0,21.19,34.91Zm50.54-5V48a2.17,2.17,0,0,1-2.16,2.15H64.76c-2.05,3.89-6.2,6.4-11.59,6.4H12.07a2.16,2.16,0,0,1-2.15-2.15V52.59a2.16,2.16,0,0,1,2.15-2.15H24.73A13.63,13.63,0,1,0,25,29.73H5.1A2.16,2.16,0,0,1,3,27.58v-1.9A2.17,2.17,0,0,1,5.1,23.53H40.26a1.64,1.64,0,0,0,1.64-1.59,1.6,1.6,0,0,0-1.64-1.58H29.75A2.17,2.17,0,0,1,27.6,18.2V15.79a2.17,2.17,0,0,1,2.15-2.15H42.31c8.4,0,17,6.2,19.88,14.09h7.33A2.24,2.24,0,0,1,71.73,29.94ZM22.32,47.62H5.15A2.17,2.17,0,0,1,3,45.46V43.62a2.17,2.17,0,0,1,2.15-2.15H20.22a12.28,12.28,0,0,0,1,4.05A9.06,9.06,0,0,0,22.32,47.62ZM35.6,30.19v1.49c.51.15,1,.31,1.53.51a6.39,6.39,0,0,1,1.8,1.23,1.82,1.82,0,0,1,0,2.41,1.84,1.84,0,0,1-2.57.1,3.66,3.66,0,0,0-.71-.51,3.39,3.39,0,0,0-.93-.31h-.1c-.31,0-.61-.15-.77-.15a4.17,4.17,0,0,0-2.15.56,1.38,1.38,0,0,0-.77,1.13,1.12,1.12,0,0,0,.31.77A1.83,1.83,0,0,0,32,38a2.83,2.83,0,0,0,1,.31,5.74,5.74,0,0,0,.92.05,7.87,7.87,0,0,1,1.64.16,7.35,7.35,0,0,1,1.8.66A5.78,5.78,0,0,1,39,40.55a4.68,4.68,0,0,1-1.18,7.17,7.57,7.57,0,0,1-2.31,1v1.49a1.79,1.79,0,1,1-3.58,0V48.74a6.62,6.62,0,0,1-1.49-.46,5.68,5.68,0,0,1-2-1.48,0,0,0,0,0-.05,0,1.8,1.8,0,0,1,.2-2.52,1.84,1.84,0,0,1,2.52.21,1.68,1.68,0,0,0,.66.51l.92.31a5.38,5.38,0,0,0,1,.1,4.38,4.38,0,0,0,2.2-.61c.72-.46.72-.82.72-1a1,1,0,0,0-.31-.77,2.42,2.42,0,0,0-.72-.56,3.22,3.22,0,0,0-.92-.31,5.81,5.81,0,0,0-.87-.1c-.51,0-1,0-1.54-.1a7.43,7.43,0,0,1-2-.62,6.06,6.06,0,0,1-1.89-1.48,4.74,4.74,0,0,1,1.33-7.23,8.59,8.59,0,0,1,2.26-.92V30.19A1.81,1.81,0,0,1,33.7,28.4,1.88,1.88,0,0,1,35.6,30.19Z"/></svg>