<svg id="Layer_1" data-name="Layer 1" xmlns="http://www.w3.org/2000/svg" viewBox="0 0 72 72"><defs><style>.cls-1{fill:#b3287a;}</style></defs><path class="cls-1" d="M59,61a2.79,2.79,0,0,1-1.9-.76,2.67,2.67,0,0,1,0-3.77,29.87,29.87,0,0,0,8.7-21.1,29.87,29.87,0,0,0-8.7-21.11A29.68,29.68,0,0,0,36.08,5.58a29.14,29.14,0,0,0-11.2,2.18A30.08,30.08,0,0,0,15,14.3a30.54,30.54,0,0,0-6.58,9.87A29.51,29.51,0,0,0,6.28,35.41,30.41,30.41,0,0,0,8.45,46.64,29.41,29.41,0,0,0,15,56.51a2.66,2.66,0,0,1-3.75,3.77A35.28,35.28,0,0,1,22.92,2.69,35.24,35.24,0,0,1,61,60.28,2.91,2.91,0,0,1,59,61ZM48.65,50.62a2.91,2.91,0,0,1-1.9-.76,2.66,2.66,0,0,1,0-3.76,15,15,0,0,0,4.4-10.75,15.33,15.33,0,0,0-4.4-10.74,15.14,15.14,0,0,0-21.38,0A14.9,14.9,0,0,0,21,35.35,15.31,15.31,0,0,0,25.37,46.1a2.67,2.67,0,0,1,0,3.76,2.64,2.64,0,0,1-3.75,0,20.56,20.56,0,0,1,0-29,20.48,20.48,0,0,1,28.93,29A2.67,2.67,0,0,1,48.65,50.62Zm-5.39,16H38.75V42.12a6.74,6.74,0,0,0,2.5-1.64,7.28,7.28,0,1,0-10.28,0,7.86,7.86,0,0,0,2.5,1.64V66.66H29A2.67,2.67,0,1,0,29,72H43.37A2.68,2.68,0,0,0,46,69.33,2.85,2.85,0,0,0,43.26,66.66Z"/></svg>