<svg width="44" height="45" viewBox="0 0 44 45" fill="none" xmlns="http://www.w3.org/2000/svg">
<path d="M36.3375 38.1373C35.8947 38.1373 35.4861 37.9666 35.1455 37.6593C34.4985 37.0106 34.4985 35.9522 35.1455 35.3035C36.9164 33.528 38.3127 31.4454 39.2322 29.1237C40.1517 26.8703 40.5944 24.5144 40.5944 22.0903C40.5944 19.6662 40.1177 17.2762 39.2322 15.0569C38.2786 12.7352 36.9164 10.6525 35.1455 8.8771C33.3746 7.10169 31.2972 5.70182 28.9814 4.77997C26.7337 3.85812 24.3839 3.41426 21.966 3.41426C19.548 3.41426 17.1641 3.85812 14.9505 4.77997C12.6347 5.73597 10.5573 7.10169 8.78638 8.8771C7.01548 10.6525 5.61919 12.7352 4.66563 15.0569C3.74613 17.3103 3.3034 19.6662 3.3034 22.0903C3.3034 24.5144 3.78018 26.9044 4.66563 29.1237C5.61919 31.4454 6.98143 33.528 8.78638 35.3035C9.43344 35.9522 9.43344 37.0106 8.78638 37.6593C8.13932 38.308 7.08359 38.308 6.43653 37.6593C4.32508 35.5425 2.72446 33.0842 1.60062 30.3528C0.544889 27.7238 0 24.9241 0 22.0562C0 19.1882 0.544889 16.3885 1.60062 13.7595C2.72446 11.0281 4.32508 8.5698 6.43653 6.45295C8.54799 4.33611 11 2.73141 13.7245 1.60471C16.3467 0.546286 19.1393 0 22 0C24.8607 0 27.6533 0.546286 30.2755 1.60471C33 2.73141 35.452 4.33611 37.5635 6.45295C39.6749 8.5698 41.2755 11.0281 42.3994 13.7595C43.4551 16.3885 44 19.1882 44 22.0562C44 24.9241 43.4551 27.7238 42.3994 30.3528C41.2755 33.0842 39.6749 35.5425 37.5635 37.6593C37.1889 38.0007 36.7461 38.1373 36.3375 38.1373ZM29.8328 31.6161C29.4241 31.6161 28.9814 31.4454 28.6409 31.1381C27.9938 30.4894 27.9938 29.4309 28.6409 28.7822C30.4458 26.9727 31.3994 24.6169 31.3994 22.0562C31.3994 19.5296 30.4118 17.1396 28.6409 15.3301C24.9629 11.6427 18.935 11.6427 15.257 15.3301C13.452 17.1055 12.4985 19.4955 12.4985 22.0562C12.4985 24.5827 13.4861 26.9727 15.257 28.7822C15.904 29.4309 15.904 30.4894 15.257 31.1381C14.6099 31.7868 13.5542 31.7868 12.9071 31.1381C10.4892 28.714 9.16099 25.5046 9.16099 22.0562C9.16099 18.6419 10.4892 15.3983 12.9071 12.9742C15.3251 10.5501 18.5263 9.21852 21.966 9.21852C25.4056 9.21852 28.6068 10.5501 31.0248 12.9742C33.4427 15.3983 34.7709 18.6078 34.7709 22.0562C34.7709 25.4704 33.4427 28.714 31.0248 31.1381C30.6842 31.4795 30.2415 31.6161 29.8328 31.6161ZM26.4613 41.654H23.6347V26.2898C24.2136 26.085 24.7245 25.7435 25.2012 25.2655C26.9721 23.4901 26.9721 20.588 25.2012 18.8126C23.4303 17.0372 20.5356 17.0372 18.7647 18.8126C16.9938 20.588 16.9938 23.4901 18.7647 25.2655C19.2074 25.7094 19.7523 26.0508 20.3313 26.2898V41.654H17.5046C16.5851 41.654 15.8359 42.4051 15.8359 43.327C15.8359 44.2488 16.5851 45 17.5046 45H26.5294C27.4489 45 28.1981 44.2488 28.1981 43.327C28.13 42.4051 27.3808 41.654 26.4613 41.654Z" fill="#B4267A"/>
</svg>
