<svg id="Layer_1" data-name="Layer 1" xmlns="http://www.w3.org/2000/svg" viewBox="0 0 72 72"><defs><style>.cls-1{fill:#277776;}</style></defs><path class="cls-1" d="M36.91,24.22l-.22,37.65A5.61,5.61,0,0,1,31,67.44l-21-.12a5.59,5.59,0,0,1-5.56-5.68L4.66,24a5.6,5.6,0,0,1,5.68-5.57l21,.12A5.62,5.62,0,0,1,36.91,24.22ZM17.8,37.65a2.81,2.81,0,0,0-5.62,0l-.12,19.74a2.82,2.82,0,1,0,5.63,0Zm5.91-11.19a2.93,2.93,0,1,0-2.92,2.93A2.94,2.94,0,0,0,23.71,26.46Zm-3-9.41A2.94,2.94,0,0,0,22.91,16a2.83,2.83,0,0,0-.52-4A2.82,2.82,0,1,0,19,16.47,3.22,3.22,0,0,0,20.67,17.05ZM23.2,9.3a2.89,2.89,0,0,0,2.23-1.09,2.82,2.82,0,1,0-4,.51A2.7,2.7,0,0,0,23.2,9.3Zm6,28.41a2.81,2.81,0,1,0-5.62,0l-.12,19.74a2.82,2.82,0,0,0,5.63,0Zm3.85-34.9a2.82,2.82,0,1,0-2.81,2.81A2.81,2.81,0,0,0,33.07,2.81ZM37.32,9.3A2.79,2.79,0,0,0,39,8.72a2.89,2.89,0,0,0,.52-4,2.9,2.9,0,0,0-4-.51,2.88,2.88,0,0,0-.51,4A2.76,2.76,0,0,0,37.32,9.3Zm2.52,7.75A2.94,2.94,0,0,0,42.08,16a2.83,2.83,0,1,0-4,.51A3.06,3.06,0,0,0,39.84,17.05ZM65.16,64.57,45.3,71.4a5.64,5.64,0,0,1-6.15-1.72,10.17,10.17,0,0,0,2.24-3.39,11.32,11.32,0,0,0,.92-4.36l.06-5.17L44,61.35a2.83,2.83,0,0,0,2.64,1.9,2.66,2.66,0,0,0,.91-.17,2.78,2.78,0,0,0,1.73-3.56L42.83,40.81a2.49,2.49,0,0,0-.35-.69l.06-8a.9.9,0,0,0,.34-.11,2.93,2.93,0,0,0-.28-5.63V24.28a11.21,11.21,0,0,0-.52-3.45l7.23-2.46a5.66,5.66,0,0,1,7.18,3.5L68.71,57.51A5.67,5.67,0,0,1,65.16,64.57Zm-5.11-8.78L53.62,37.08a2.79,2.79,0,1,0-5.28,1.83l6.43,18.71a2.83,2.83,0,0,0,2.64,1.9,2.55,2.55,0,0,0,.92-.18A2.82,2.82,0,0,0,60.05,55.79Z"/></svg>