<svg width="39" height="43" viewBox="0 0 39 43" fill="none" xmlns="http://www.w3.org/2000/svg">
<path d="M19.2154 14.3247L19.0797 36.5926C19.0797 38.4256 17.5519 39.9192 15.7187 39.8852L3.29348 39.8173C1.46026 39.8173 -0.0333811 38.2898 0.000567488 36.4568L0.136287 14.189C0.136287 12.3559 1.66405 10.8624 3.49727 10.8963L15.9224 10.9642C17.7556 10.9981 19.2493 12.4917 19.2154 14.3247ZM7.91055 22.2679C7.91055 21.3513 7.16371 20.6045 6.2471 20.6045C5.33049 20.6045 4.58355 21.3513 4.58355 22.2679L4.51569 33.9449C4.51569 34.8614 5.26252 35.6082 6.17914 35.6082C7.09575 35.6082 7.84269 34.8614 7.84269 33.9449L7.91055 22.2679ZM11.4073 15.6486C11.4073 14.6981 10.6603 13.9174 9.67584 13.9174C8.72528 13.9174 7.94453 14.6642 7.94453 15.6486C7.94453 16.599 8.69133 17.3798 9.67584 17.3798C10.6264 17.3798 11.4073 16.599 11.4073 15.6486ZM9.60798 10.0816C10.1172 10.0816 10.5924 9.84403 10.9319 9.4367C11.509 8.72385 11.3393 7.67155 10.6264 7.09449C9.91348 6.51743 8.86106 6.6532 8.28393 7.39998C7.70681 8.11282 7.84269 9.16512 8.58956 9.74219C8.8951 9.94586 9.26849 10.0816 9.60798 10.0816ZM11.1017 5.49908C11.611 5.49908 12.0862 5.26146 12.4257 4.85412C13.0028 4.14128 12.867 3.089 12.1201 2.51194C11.4072 1.93488 10.3548 2.07064 9.77768 2.81743C9.20055 3.56422 9.33634 4.58257 10.0832 5.15963C10.3887 5.39725 10.7283 5.49908 11.1017 5.49908ZM14.6663 22.3018C14.6663 21.3853 13.9195 20.6385 13.0028 20.6385C12.0862 20.6385 11.3394 21.3853 11.3394 22.3018L11.2714 33.9788C11.2714 34.8953 12.0184 35.6421 12.935 35.6421C13.8516 35.6421 14.5984 34.8953 14.5984 33.9788L14.6663 22.3018ZM16.9409 1.66332C16.9409 0.746806 16.1941 0 15.2774 0C14.3608 0 13.6139 0.746806 13.6139 1.66332C13.6139 2.57983 14.3608 3.32661 15.2774 3.32661C16.1941 3.32661 16.9409 2.57983 16.9409 1.66332ZM19.4531 5.49908C19.7925 5.49908 20.166 5.39725 20.4716 5.15963C21.1845 4.58257 21.3203 3.56422 20.7771 2.81743C20.2 2.10459 19.1815 1.96882 18.4346 2.51194C17.7217 3.089 17.5859 4.10733 18.1291 4.85412C18.4686 5.2954 18.9438 5.49908 19.4531 5.49908ZM20.9468 10.0816C21.456 10.0816 21.9314 9.84403 22.2709 9.4367C22.848 8.72385 22.7121 7.67155 21.9652 7.09449C21.2184 6.51743 20.2 6.6532 19.6229 7.39998C19.0457 8.14677 19.1815 9.16512 19.9284 9.74219C20.2339 9.94586 20.5734 10.0816 20.9468 10.0816ZM35.9182 38.188L24.172 42.2275C22.848 42.7027 21.3882 42.2274 20.5394 41.2091C21.1166 40.632 21.5578 39.9531 21.8634 39.2063C22.2029 38.3916 22.4066 37.5091 22.4066 36.6265L22.4406 33.5715L23.3911 36.2871C23.6287 36.966 24.2737 37.4072 24.9527 37.4072C25.1225 37.4072 25.3262 37.3733 25.4959 37.3054C26.3786 36.9999 26.82 36.0495 26.5144 35.2008L22.7121 24.1348C22.6781 23.999 22.5763 23.8293 22.5084 23.7275L22.5424 19.0091C22.6103 19.0091 22.6782 18.9752 22.7461 18.9412C23.6627 18.6357 24.138 17.6513 23.8325 16.7348C23.6288 16.1578 23.1535 15.7504 22.5764 15.6147V14.3587C22.5764 13.6458 22.4745 12.967 22.2709 12.322L26.5483 10.8624C28.2797 10.2514 30.1808 11.2018 30.7919 12.933L38.023 34.0128C38.6001 35.6761 37.6495 37.577 35.9182 38.188ZM32.8967 32.9944L29.0944 21.9284C28.7889 21.0458 27.8384 20.6045 26.9897 20.9101C26.107 21.2156 25.6657 22.166 25.9712 23.0146L29.7735 34.0807C30.0111 34.7595 30.6561 35.2008 31.3351 35.2008C31.5048 35.2008 31.7085 35.1669 31.8783 35.099C32.727 34.7935 33.2022 33.843 32.8967 32.9944Z" fill="#257675"/>
</svg>
