<?xml version="1.0" encoding="utf-8"?>
<!-- Generator: Adobe Illustrator 24.0.2, SVG Export Plug-In . SVG Version: 6.00 Build 0)  -->
<svg version="1.1" id="Layer_1" xmlns="http://www.w3.org/2000/svg" xmlns:xlink="http://www.w3.org/1999/xlink" x="0px" y="0px"
	 viewBox="0 0 60.8 55" style="enable-background:new 0 0 60.8 55;" xml:space="preserve">
<g>
	<path d="M28,5.8c0.9,0,1.7,0.7,1.7,1.7S28.9,9.2,28,9.2c-0.9,0-1.7-0.7-1.7-1.7S27.1,5.8,28,5.8 M23.9,8c0.4,0,0.7,0.1,1,0.4
		c0.7,0.6,0.9,1.6,0.3,2.3c-0.3,0.4-0.8,0.6-1.3,0.6c-0.4,0-0.7-0.1-1-0.3c-0.7-0.6-0.9-1.6-0.3-2.3C22.9,8.2,23.4,8,23.9,8 M32.2,8
		c0.5,0,1,0.2,1.3,0.6c0.5,0.7,0.4,1.8-0.3,2.3c-0.3,0.2-0.7,0.3-1,0.3c-0.5,0-1-0.2-1.3-0.6c-0.5-0.7-0.4-1.8,0.3-2.3
		C31.5,8.1,31.8,8,32.2,8 M33.7,12.6c0.4,0,0.7,0.1,1,0.4c0.7,0.6,0.9,1.6,0.3,2.3c-0.3,0.4-0.8,0.6-1.3,0.6c-0.4,0-0.7-0.1-1-0.3
		c-0.7-0.6-0.9-1.6-0.3-2.3C32.7,12.8,33.2,12.6,33.7,12.6 M22.4,12.6c0.4,0,0.7,0.1,1,0.4c0.7,0.6,0.9,1.6,0.3,2.3
		c-0.3,0.4-0.8,0.6-1.3,0.6c-0.3,0-0.7-0.1-1-0.3c-0.7-0.6-0.9-1.6-0.3-2.3C21.4,12.8,21.9,12.6,22.4,12.6 M40.4,16.5
		c1.4,0,2.7,0.9,3.2,2.3l7.2,21.1c0.6,1.7-0.4,3.6-2.1,4.2l-11.7,4c-0.4,0.1-0.7,0.2-1.1,0.2c-1,0-1.9-0.5-2.6-1.2
		c0.6-0.6,1-1.3,1.3-2c0.3-0.8,0.5-1.7,0.5-2.6l0-3.1l1,2.7c0.2,0.7,0.9,1.1,1.6,1.1c0.2,0,0.4,0,0.5-0.1c0.9-0.3,1.3-1.3,1-2.1
		L35.5,30c0-0.1-0.1-0.3-0.2-0.4l0-4.7c0.1,0,0.1,0,0.2-0.1c0.9-0.3,1.4-1.3,1.1-2.2c-0.2-0.6-0.7-1-1.3-1.1v-1.3
		c0-0.7-0.1-1.4-0.3-2l4.3-1.5C39.7,16.6,40,16.5,40.4,16.5 M44.1,41c0.2,0,0.4,0,0.5-0.1c0.8-0.3,1.3-1.3,1-2.1l-3.8-11.1
		c-0.2-0.7-0.9-1.1-1.6-1.1c-0.2,0-0.4,0-0.6,0.1c-0.9,0.3-1.3,1.3-1,2.1l3.8,11.1C42.8,40.6,43.4,41,44.1,41 M16.2,16.7
		C16.2,16.7,16.2,16.7,16.2,16.7l12.5,0.1c1.8,0,3.3,1.5,3.3,3.4l-0.1,22.3c0,1.8-1.5,3.3-3.3,3.3c0,0,0,0-0.1,0L16,45.7
		c-1.8,0-3.3-1.5-3.3-3.4L12.9,20C12.9,18.2,14.4,16.7,16.2,16.7 M22.4,23.2c1,0,1.7-0.8,1.7-1.7c0-1-0.7-1.7-1.7-1.7
		c-1,0-1.7,0.7-1.7,1.7C20.7,22.4,21.4,23.2,22.4,23.2 M18.9,41.4c0.9,0,1.7-0.7,1.7-1.7l0.1-11.7c0-0.9-0.7-1.7-1.7-1.7
		s-1.7,0.7-1.7,1.7l-0.1,11.7C17.3,40.7,18,41.4,18.9,41.4 M25.7,41.5c0.9,0,1.7-0.7,1.7-1.7l0.1-11.7c0-0.9-0.7-1.7-1.7-1.7
		c-0.9,0-1.7,0.7-1.7,1.7L24,39.8C24,40.7,24.8,41.5,25.7,41.5 M28,2.8c-1.7,0-3.1,0.9-3.9,2.2c-0.1,0-0.2,0-0.2,0
		c-1.5,0-2.8,0.7-3.7,1.8c-0.8,1-1.1,2.2-0.9,3.5c0,0.2,0,0.3,0.1,0.5c-0.2,0.2-0.4,0.4-0.6,0.6c-0.6,0.7-0.9,1.5-1,2.4l-1.4,0
		l-0.1,0h0c-3.5,0-6.3,2.8-6.3,6.3L9.7,42.3c0,1.7,0.6,3.3,1.8,4.5c1.2,1.2,2.8,1.9,4.5,1.9l12.4,0.1l0.1,0c0.7,0,1.4-0.1,2-0.3
		L31,49c1.2,1.4,3,2.3,4.9,2.3c0.7,0,1.4-0.1,2.1-0.4l11.7-4c3.3-1.2,5.1-4.8,4-8l-7.2-21.1c-0.9-2.6-3.3-4.3-6-4.3h0
		c-0.7,0-1.4,0.1-2,0.3c0,0,0-0.1,0-0.1c-0.1-1.2-0.7-2.2-1.6-3c0.3-1.3,0-2.7-0.8-3.8l0-0.1l0-0.1C35,5.7,33.6,5,32.2,5
		C32.1,5,32,5,32,5C31.1,3.7,29.7,2.8,28,2.8L28,2.8z M28,12.2c0.1,0,0.2,0,0.2,0c0.1,0.1,0.1,0.2,0.2,0.3l0,0l0,0
		c0.2,0.2,0.4,0.5,0.6,0.7c0,0.2-0.1,0.4-0.1,0.6c-0.1,0-0.2,0-0.3,0l-1.7,0c0-0.1,0-0.1,0-0.2c0-0.1,0-0.3-0.1-0.4
		c0.2-0.2,0.4-0.4,0.6-0.6c0.1-0.1,0.2-0.3,0.3-0.5C27.9,12.2,28,12.2,28,12.2L28,12.2z"/>
</g>
</svg>
