<?xml version="1.0" encoding="utf-8"?>
<!-- Generator: Adobe Illustrator 24.0.2, SVG Export Plug-In . SVG Version: 6.00 Build 0)  -->
<svg version="1.1" id="Layer_1" xmlns="http://www.w3.org/2000/svg" xmlns:xlink="http://www.w3.org/1999/xlink" x="0px" y="0px"
	 viewBox="0 0 60.83 55" style="enable-background:new 0 0 60.83 55;" xml:space="preserve">
<style type="text/css">
	.st0{fill-rule:evenodd;clip-rule:evenodd;fill:none;stroke:#000000;stroke-miterlimit:10;}
</style>
<path class="st0" d="M31.7,6.76c10.83,9.46,16.34,17.72,16.34,24.98c0,10.28-8.02,17.63-17.63,17.63c-9.6,0-17.63-7.35-17.63-17.63
	c0-7.26,5.51-15.52,16.34-24.98l1.29-1.12L31.7,6.76z M16.72,31.74c0,8.04,6.2,13.71,13.71,13.71c7.51,0,13.71-5.67,13.71-13.71
	c0-5.58-4.52-12.6-13.71-20.88C21.23,19.14,16.72,26.16,16.72,31.74z M30.41,39.57v3.92c6.49,0,11.75-5.26,11.75-11.75h-3.92
	C38.24,36.06,34.74,39.57,30.41,39.57z"/>
</svg>
