<?xml version="1.0" encoding="utf-8"?>
<!-- Generator: Adobe Illustrator 24.0.2, SVG Export Plug-In . SVG Version: 6.00 Build 0)  -->
<svg version="1.1" id="Layer_1" xmlns="http://www.w3.org/2000/svg" xmlns:xlink="http://www.w3.org/1999/xlink" x="0px" y="0px"
	 viewBox="0 0 60.8 55" style="enable-background:new 0 0 60.8 55;" xml:space="preserve">
<style type="text/css">
	.st0{fill-rule:evenodd;clip-rule:evenodd;}
</style>
<g>
	<path class="st0" d="M34,5.7c10.8,9.5,16.3,17.7,16.3,25c0,10.3-8,17.6-17.6,17.6C23.1,48.3,15,41,15,30.7c0-7.3,5.5-15.5,16.3-25
		l1.3-1.1L34,5.7z M19,30.7c0,8,6.2,13.7,13.7,13.7c7.5,0,13.7-5.7,13.7-13.7c0-5.6-4.5-12.6-13.7-20.9C23.5,18.1,19,25.1,19,30.7z
		 M32.7,38.6v3.9c6.5,0,11.8-5.3,11.8-11.7h-3.9C40.5,35,37,38.6,32.7,38.6z"/>
</g>
</svg>
