<svg id="Layer_1" data-name="Layer 1" xmlns="http://www.w3.org/2000/svg" viewBox="0 0 72 72"><defs><style>.cls-1{fill:#b3287a;fill-rule:evenodd;}</style></defs><g id="_24_basic_drop" data-name="24 / basic / drop"><path id="icon" class="cls-1" d="M37.87,1.85c17.8,15.54,26.85,29.11,26.85,41,0,16.9-13.19,29-29,29s-29-12.07-29-29c0-11.93,9.05-25.5,26.85-41L35.75,0Zm-24.65,41A22.12,22.12,0,0,0,35.75,65.42,22.11,22.11,0,0,0,58.28,42.89c0-9.17-7.42-20.7-22.53-34.32C20.65,22.19,13.22,33.72,13.22,42.89ZM35.75,55.77V62.2A19.3,19.3,0,0,0,55.06,42.89H48.63A12.88,12.88,0,0,1,35.75,55.77Z"/></g></svg>