<?xml version="1.0" encoding="utf-8"?>
<!DOCTYPE svg PUBLIC "-//W3C//DTD SVG 1.1//EN" "http://www.w3.org/Graphics/SVG/1.1/DTD/svg11.dtd">
<svg version="1.1" id="Layer_1" xmlns="http://www.w3.org/2000/svg" xmlns:xlink="http://www.w3.org/1999/xlink" x="0px" y="0px"
	 width="524px" height="132px" viewBox="0 0 524 132" style="enable-background:new 0 0 524 132;" xml:space="preserve">
<style type="text/css">
<![CDATA[
	.st0{fill:#ADDC91;}
	.st1{fill:#2CB34A;}
	.st2{fill:#75787B;}
]]>
</style>
<g>
	<g>
		<path class="st2" d="M309.2,55.8c-1.1-1.5-2.9-2.3-4.7-2.3c-4.2,0-7.1,3.7-7.1,7.8c0,4.3,2.9,7.8,7.1,7.8c2.3,0,4.1-0.9,5.4-2.6
			l1.7,1.4c-1.7,2.2-4.1,3.3-7.1,3.3c-5.4,0-9.5-4.2-9.5-9.8c0-5.5,4-9.8,9.5-9.8c2.5,0,5,0.9,6.6,2.9L309.2,55.8z"/>
		<path class="st2" d="M320.2,58c3.8,0,6.6,2.6,6.6,6.5c0,3.9-2.8,6.5-6.6,6.5c-3.8,0-6.6-2.6-6.6-6.5C313.6,60.6,316.4,58,320.2,58
			z M320.2,69.1c2.7,0,4.4-2,4.4-4.6c0-2.6-1.7-4.6-4.4-4.6s-4.4,2-4.4,4.6C315.8,67.1,317.6,69.1,320.2,69.1z"/>
		<path class="st2" d="M330,61.2c0-1.1-0.1-2.1-0.1-2.9h2c0,0.7,0.1,1.3,0.1,2h0.1c0.6-1.2,2.1-2.4,4.1-2.4c3.3,0,4.7,2.1,4.7,5.1
			v7.7h-2.1v-7.4c0-2.1-0.9-3.4-2.8-3.4c-2.7,0-3.8,1.9-3.8,4.8v6H330V61.2z"/>
		<path class="st2" d="M345,67.4c0.8,1,1.7,1.7,3.2,1.7c1.3,0,2.7-0.6,2.7-1.9c0-1.3-1.3-1.7-2.7-2c-2.4-0.5-4.4-1-4.4-3.6
			c0-2.4,2.3-3.7,4.6-3.7c1.8,0,3.4,0.7,4.2,2.2l-1.7,1.1c-0.5-0.9-1.4-1.5-2.6-1.5c-1.1,0-2.4,0.6-2.4,1.7c0,1,1.5,1.5,3.1,1.8
			c2.2,0.4,4,1.2,4,3.7c0,2.8-2.5,3.9-4.9,3.9c-2.1,0-3.6-0.6-4.8-2.3L345,67.4z"/>
		<path class="st2" d="M366.8,67.7c0,1.1,0.1,2.1,0.1,2.9h-2c0-0.7-0.1-1.3-0.1-2h-0.1c-0.6,1.2-2.1,2.4-4.1,2.4
			c-3.3,0-4.7-2.1-4.7-5.1v-7.7h2.1v7.4c0,2.1,0.9,3.4,2.8,3.4c2.7,0,3.8-1.9,3.8-4.8v-6h2.1V67.7z"/>
		<path class="st2" d="M370.7,61.2c0-1.1-0.1-2.1-0.1-2.9h2c0,0.7,0.1,1.3,0.1,2h0.1c0.6-1.2,2.1-2.4,4.1-2.4c2.7,0,3.5,1.5,3.9,2.4
			c0.9-1.5,2-2.4,3.9-2.4c3.5,0,4.7,2,4.7,5.2v7.5h-2.1v-7.4c0-1.7-0.6-3.4-3-3.4c-1.7,0-3.2,1.4-3.2,3.7v7.1H379v-7
			c0-2.7-0.7-3.8-2.4-3.8c-2.7,0-3.8,1.9-3.8,4.8v6h-2.1V61.2z"/>
		<path class="st2" d="M404.4,68.4c-1.5,1.9-3.2,2.6-5.5,2.6c-3.9,0-6.3-2.9-6.3-6.5c0-3.8,2.7-6.5,6.4-6.5c3.5,0,5.9,2.4,5.9,6.5
			v0.7h-10c0.2,2.1,1.8,4,4,4c1.8,0,3-0.6,3.9-1.9L404.4,68.4z M402.6,63.3c-0.1-2.1-1.5-3.5-3.7-3.5s-3.8,1.4-4,3.5H402.6z"/>
		<path class="st2" d="M408,61.2c0-1.1-0.1-2.1-0.1-2.9h2c0,0.7,0,1.3,0,2h0.1c0.6-1.2,2.1-2.4,4.1-2.4c0.3,0,0.6,0,0.8,0.1
			l-0.1,2.1c-0.3-0.1-0.7-0.2-1.1-0.2c-2.5,0-3.6,1.8-3.6,4.6v6H408V61.2z"/>
		<path class="st2" d="M425,51.9h11.6V54h-9.4v6.2h8.7v2.1h-8.7v8.4H425V51.9z"/>
		<path class="st2" d="M440.6,51.9c0.9,0,1.5,0.7,1.5,1.5c0,0.9-0.6,1.5-1.5,1.5c-0.9,0-1.5-0.6-1.5-1.5
			C439.1,52.6,439.8,51.9,440.6,51.9z M439.6,58.3h2.1v12.4h-2.1V58.3z"/>
		<path class="st2" d="M445.7,61.2c0-1.1-0.1-2.1-0.1-2.9h2c0,0.7,0,1.3,0,2h0.1c0.6-1.2,2.1-2.4,4.1-2.4c3.3,0,4.7,2.1,4.7,5.1v7.7
			h-2.1v-7.4c0-2.1-0.9-3.4-2.8-3.4c-2.7,0-3.8,1.9-3.8,4.8v6h-2.1V61.2z"/>
		<path class="st2" d="M460.3,59.9c1.3-1.3,3.1-1.9,4.9-1.9c3.7,0,5.2,1.7,5.2,5.2v5.3c0,0.7,0.1,1.5,0.2,2.1h-2
			c-0.1-0.6-0.1-1.3-0.1-1.9h-0.1c-0.8,1.3-2.2,2.2-4.1,2.2c-2.5,0-4.6-1.3-4.6-3.7c0-4.1,4.8-4.3,7.8-4.3h0.8v-0.4
			c0-1.8-1.1-2.7-3.1-2.7c-1.3,0-2.7,0.4-3.7,1.3L460.3,59.9z M466.3,64.7c-2.6,0-4.3,0.7-4.3,2.4c0,1.6,1.2,2.1,2.7,2.1
			c2.4,0,3.6-1.7,3.7-3.7v-0.8H466.3z"/>
		<path class="st2" d="M474.2,61.2c0-1.1-0.1-2.1-0.1-2.9h2c0,0.7,0.1,1.3,0.1,2h0.1c0.6-1.2,2.1-2.4,4.1-2.4c3.3,0,4.7,2.1,4.7,5.1
			v7.7h-2.1v-7.4c0-2.1-0.9-3.4-2.8-3.4c-2.7,0-3.8,1.9-3.8,4.8v6h-2.1V61.2z"/>
		<path class="st2" d="M497.7,61.4c-0.9-1.1-1.9-1.5-3.1-1.5c-2.8,0-4.2,2.1-4.2,4.6s1.7,4.6,4.2,4.6c1.4,0,2.4-0.5,3.2-1.5l1.5,1.5
			c-1.2,1.4-2.9,2-4.7,2c-3.8,0-6.4-2.7-6.4-6.5c0-3.8,2.6-6.5,6.4-6.5c1.8,0,3.5,0.6,4.8,2L497.7,61.4z"/>
		<path class="st2" d="M502.9,51.9c0.8,0,1.5,0.7,1.5,1.5c0,0.9-0.6,1.5-1.5,1.5c-0.9,0-1.5-0.6-1.5-1.5
			C501.4,52.6,502,51.9,502.9,51.9z M501.8,58.3h2.1v12.4h-2.1V58.3z"/>
		<path class="st2" d="M507.9,59.9c1.3-1.3,3.1-1.9,4.9-1.9c3.7,0,5.2,1.7,5.2,5.2v5.3c0,0.7,0.1,1.5,0.2,2.1h-2
			c-0.1-0.6-0.1-1.3-0.1-1.9H516c-0.8,1.3-2.2,2.2-4.1,2.2c-2.5,0-4.6-1.3-4.6-3.7c0-4.1,4.8-4.3,7.8-4.3h0.8v-0.4
			c0-1.8-1.1-2.7-3.1-2.7c-1.3,0-2.7,0.4-3.7,1.3L507.9,59.9z M513.8,64.7c-2.6,0-4.3,0.7-4.3,2.4c0,1.6,1.2,2.1,2.7,2.1
			c2.4,0,3.6-1.7,3.7-3.7v-0.8H513.8z"/>
		<path class="st2" d="M521.9,50.6h2.1v20h-2.1V50.6z"/>
		<path class="st2" d="M296.1,78.7h5.6c3.4,0,6.6,1.2,6.6,5.1c0,4.1-3.5,5.2-6.1,5.2h-3.8v8.4h-2.2V78.7z M298.3,87h3.8
			c2.2,0,3.8-1,3.8-3.1c0-2.1-1.5-3.1-3.8-3.1h-3.8V87z"/>
		<path class="st2" d="M311.4,88c0-1.1-0.1-2.1-0.1-2.9h2c0,0.7,0.1,1.4,0.1,2h0.1c0.6-1.2,2.1-2.4,4.1-2.4c0.3,0,0.6,0,0.8,0.1
			l-0.1,2.1c-0.3-0.1-0.7-0.2-1.1-0.2c-2.5,0-3.6,1.8-3.6,4.6v6h-2.1V88z"/>
		<path class="st2" d="M326.1,84.8c3.8,0,6.6,2.6,6.6,6.5c0,3.9-2.8,6.5-6.6,6.5c-3.8,0-6.6-2.6-6.6-6.5
			C319.5,87.4,322.3,84.8,326.1,84.8z M326.1,95.9c2.7,0,4.4-2,4.4-4.6s-1.7-4.6-4.4-4.6c-2.7,0-4.4,2-4.4,4.6
			S323.5,95.9,326.1,95.9z"/>
		<path class="st2" d="M342.7,86.8h-3.7V93c0,1.6,0,2.9,1.9,2.9c0.6,0,1.3-0.1,1.8-0.4l0.1,1.9c-0.7,0.3-1.6,0.4-2.4,0.4
			c-2.9,0-3.4-1.6-3.4-4.2v-6.8h-2.7v-1.7h2.7v-3.5h2.1v3.5h3.7V86.8z"/>
		<path class="st2" d="M356.3,95.2c-1.5,1.9-3.2,2.6-5.5,2.6c-3.9,0-6.3-2.9-6.3-6.5c0-3.8,2.7-6.5,6.4-6.5c3.5,0,5.9,2.4,5.9,6.5
			v0.7h-10c0.2,2.1,1.8,4,4.1,4c1.8,0,3-0.6,3.9-1.9L356.3,95.2z M354.6,90.2c-0.1-2.1-1.5-3.5-3.7-3.5c-2.3,0-3.8,1.4-4.1,3.5
			H354.6z"/>
		<path class="st2" d="M368.8,88.2c-0.9-1.1-1.9-1.5-3.1-1.5c-2.8,0-4.2,2.1-4.2,4.6c0,2.5,1.7,4.6,4.2,4.6c1.4,0,2.4-0.5,3.2-1.5
			l1.5,1.5c-1.2,1.4-2.9,2-4.7,2c-3.8,0-6.4-2.7-6.4-6.5c0-3.8,2.6-6.5,6.4-6.5c1.8,0,3.5,0.6,4.8,2L368.8,88.2z"/>
		<path class="st2" d="M379.5,86.8h-3.7V93c0,1.6,0,2.9,1.9,2.9c0.6,0,1.3-0.1,1.8-0.4l0.1,1.9c-0.7,0.3-1.6,0.4-2.4,0.4
			c-2.9,0-3.4-1.6-3.4-4.2v-6.8h-2.7v-1.7h2.7v-3.5h2.1v3.5h3.7V86.8z"/>
		<path class="st2" d="M383.3,78.7c0.8,0,1.5,0.7,1.5,1.5c0,0.9-0.6,1.5-1.5,1.5c-0.9,0-1.5-0.6-1.5-1.5
			C381.8,79.4,382.4,78.7,383.3,78.7z M382.2,85.1h2.1v12.4h-2.1V85.1z"/>
		<path class="st2" d="M394.3,84.8c3.8,0,6.6,2.6,6.6,6.5c0,3.9-2.8,6.5-6.6,6.5c-3.8,0-6.6-2.6-6.6-6.5
			C387.7,87.4,390.5,84.8,394.3,84.8z M394.3,95.9c2.7,0,4.4-2,4.4-4.6s-1.7-4.6-4.4-4.6c-2.7,0-4.4,2-4.4,4.6
			S391.6,95.9,394.3,95.9z"/>
		<path class="st2" d="M404.1,88c0-1.1-0.1-2.1-0.1-2.9h2c0,0.7,0.1,1.4,0.1,2h0.1c0.6-1.2,2.1-2.4,4.1-2.4c3.3,0,4.7,2.1,4.7,5.1
			v7.7h-2.1V90c0-2.1-0.9-3.4-2.8-3.4c-2.7,0-3.8,1.9-3.8,4.8v6h-2.1V88z"/>
		<path class="st2" d="M426.6,78.7h5.7c3.1,0,6.2,1.2,6.2,4.6c0,2.2-1.3,3.6-3.3,4.2v0.1c2.4,0.2,4.2,2.1,4.2,4.6
			c0,4.1-3.8,5.2-7.3,5.2h-5.6V78.7z M428.8,86.7h3.1c2.1,0,4.3-0.4,4.3-3c0-2.3-2-2.8-4-2.8h-3.3V86.7z M428.8,95.4h3.8
			c2.2,0,4.5-0.9,4.5-3.3c0-2.6-2.2-3.4-4.5-3.4h-3.8V95.4z"/>
		<path class="st2" d="M453.7,94.5c0,1.1,0.1,2.1,0.1,2.9h-2c0-0.7-0.1-1.3-0.1-2h0c-0.6,1.2-2.1,2.4-4.1,2.4
			c-3.3,0-4.7-2.1-4.7-5.1v-7.7h2.1v7.4c0,2.1,0.9,3.4,2.8,3.4c2.7,0,3.8-1.9,3.8-4.8v-6h2.1V94.5z"/>
		<path class="st2" d="M457.6,88c0-1.1-0.1-2.1-0.1-2.9h2c0,0.7,0.1,1.4,0.1,2h0.1c0.6-1.2,2.1-2.4,4.1-2.4c0.3,0,0.6,0,0.8,0.1
			l-0.1,2.1c-0.3-0.1-0.7-0.2-1.1-0.2c-2.5,0-3.6,1.8-3.6,4.6v6h-2.1V88z"/>
		<path class="st2" d="M477.5,95.2c-1.5,1.9-3.2,2.6-5.5,2.6c-3.9,0-6.3-2.9-6.3-6.5c0-3.8,2.7-6.5,6.3-6.5c3.5,0,5.9,2.4,5.9,6.5
			v0.7h-10c0.2,2.1,1.8,4,4.1,4c1.8,0,3-0.6,3.9-1.9L477.5,95.2z M475.7,90.2c-0.1-2.1-1.5-3.5-3.7-3.5s-3.8,1.4-4.1,3.5H475.7z"/>
		<path class="st2" d="M481,86.7c1.3-1.3,3.1-1.9,4.9-1.9c3.7,0,5.2,1.7,5.2,5.2v5.3c0,0.7,0.1,1.5,0.2,2.1h-2
			c-0.1-0.6-0.1-1.3-0.1-1.9h-0.1c-0.8,1.3-2.2,2.2-4.1,2.2c-2.5,0-4.6-1.3-4.6-3.7c0-4.1,4.8-4.3,7.8-4.3h0.8v-0.4
			c0-1.8-1.1-2.7-3.1-2.7c-1.3,0-2.7,0.5-3.7,1.3L481,86.7z M487,91.5c-2.6,0-4.3,0.7-4.3,2.4c0,1.6,1.2,2.1,2.7,2.1
			c2.4,0,3.6-1.7,3.7-3.7v-0.8H487z"/>
		<path class="st2" d="M505.7,94.5c0,1.1,0.1,2.1,0.1,2.9h-2c0-0.7-0.1-1.3-0.1-2h-0.1c-0.6,1.2-2.1,2.4-4.1,2.4
			c-3.3,0-4.7-2.1-4.7-5.1v-7.7h2.1v7.4c0,2.1,0.9,3.4,2.8,3.4c2.7,0,3.8-1.9,3.8-4.8v-6h2.1V94.5z"/>
	</g>
</g>
<g>
	<path class="st1" d="M75.7,79.1l20.5,3.3v15.2H75.7V79.1z M110.4,34.6H96.2v-4.1c0-6.2,1.2-11.7,9.1-11.7c1.7,0,3.4,0.3,5.1,0.6
		V1.7c0,0-0.3-0.2-2.7-0.5c-2.5-0.4-5-0.6-7.7-0.6c-21.4,0-24.3,14.7-24.3,29.1v23.3l34.7-5.6V34.6z M213.3,2h-20.5v32.1l20.5-3.3V2
		z M119.4,130.1h20.5V94.2c4.5,3.2,10,4.8,16.4,4.8c5.8,0,11.1-1.6,15.6-4.3l-52.5-8.5V130.1z M155.7,33.2c-6.4,0-12.1,1.8-16.5,5.1
		v-3.7h-19.8V46l52.7-8.5C167.4,34.7,161.9,33.2,155.7,33.2z M45,74.1c-2.2,3.3-5.9,5.7-11,5.7c-8.8,0-13.4-6.9-13.4-13.8
		S25.2,52.3,34,52.3c5.2,0,8.9,2.4,11,5.7l21-3.4C61.5,41.7,49.4,33.1,34,33.1C14.3,33.1,0,47,0,66.1S14.3,99,34,99
		c15.5,0,27.6-8.6,32.1-21.5L45,74.1z"/>
	<path class="st0" d="M96.2,53v29.4l-20.5-3.3v-26l34.7-5.6V53H96.2z M192.8,97.5V34.1l20.5-3.3v7.1c4.5-3.2,10-4.8,16.4-4.8
		c17.4,0,30.5,14.1,30.5,32.9c0,19.4-12.8,32.9-31.1,32.9c-6.4,0-12.1-1.8-16.5-5.1v3.7H192.8z M212.9,66.1
		c0,6.8,4.6,13.8,13.4,13.8c8.8,0,13.4-6.9,13.4-13.8c0-6.8-4.6-13.8-13.4-13.8C217.5,52.3,212.9,59.2,212.9,66.1z M171.9,94.6
		l-52.5-8.5V46l52.7-8.5c9.1,5.5,14.8,15.7,14.8,28.6C186.9,78.6,181,89,171.9,94.6z M166.3,66.1c0-6.8-4.6-13.8-13.4-13.8
		s-13.4,6.9-13.4,13.8c0,6.8,4.6,13.8,13.4,13.8S166.3,72.9,166.3,66.1z"/>
</g>
</svg>
