<svg height="24" viewBox="0 0 24 24" width="24" xmlns="http://www.w3.org/2000/svg"><path d="m13.1317725 13.9168514c.3692043-.2398036.56456-.5742382.56456-.9663833 0-.2756487-.1000078-.5419776-.2828177-.7516713-.1215148-.138362-.2742149-.2602353-.4312163-.3433958-.1372866-.0716902-.2924958-.1276085-.4498557-.1620198-.1319099-.0286761-.2706304-.0430141-.4125769-.0430141-.0957063 0-.1824514-.0068106-.2663289-.0207901-.0971401-.0164888-.200374-.0494662-.2842515-.0917634-.0838774-.0415803-.1623782-.1046677-.2222394-.1777916-.0673888-.0828021-.1075353-.1867529-.1075353-.2781578 0-.1053845.0444479-.2588015.2566508-.3925036.167755-.1064599.4032571-.1699057.629798-.1699057.0552014 0 .1333437.0172057.2243902.0369204l.0261669.0057353c.0770669.0164887.1670381.0480324.2670458.0928387.0831606.0376373.160586.0906881.2236733.1537754.1408712.1405127.3688459.1405127.5093586-.0003585.1401542-.1405127.1397958-.3684874-.0007169-.5093585-.124024-.1236655-.2749318-.2276163-.4369515-.30038176-.1473233-.06595494-.2810254-.11183664-.4100677-.1397958l-.02545-.00573522-.029393-.00645211v-.47458883c0-.19894018-.1613028-.36024303-.360243-.36024303s-.3598846.16130285-.3598846.36024303v.4631184c-.2340684.04408945-.4570247.12868383-.6427022.24589722-.3763734.2372944-.5918023.6021973-.5918023 1.001153 0 .2588015.0957064.5193952.2691966.7319565.1240239.1534169.2828176.280667.4584585.3677705.1469648.0741993.3208134.1301176.48821.1580768.1225901.0204317.2487648.0304683.3846176.0304683.0910465 0 .178867.0089613.2595184.0265254.094631.0204317.1874698.054126.2674043.0957063.0777838.0415803.1623782.1089691.2243902.1799423.0670303.0767085.105026.1777916.105026.2781578 0 .0967817-.0268838.2261825-.2365775.3620353-.1699056.1104029-.4165198.1788669-.6430607.1788669-.087462 0-.2243901-.0240162-.276724-.0333359-.0860281-.0146965-.1752824-.0491077-.2602352-.0828021-.0745578-.0297514-.1473233-.0853113-.2161458-.1648874-.1301177-.1501908-.3573755-.167038-.5075663-.0365619-.1505494.1301176-.1670381.3573754-.0369205.5079247.1448141.167755.3114938.2892698.4935867.3616768.1143458.0458817.2491233.0971402.4036156.124024.0189979.0035845.0383543.0068106.0577106.0100366v.4753058c0 .1982232.1609444.3598845.3598846.3598845s.360243-.1616613.360243-.3598845v-.4792487c.2394451-.0469571.4706459-.1354944.6577572-.2566508zm2.5647153-1.904449c0 .484267-.094631.9538375-.2817423 1.3954489-.1803008.4269148-.4387438.8100987-.76816 1.139515-.3294163.3294162-.7133171.5878593-1.1398735.76816-.4419698.1871113-.9111819.2817423-1.3954489.2817423-.4839085 0-.953479-.094631-1.3950904-.2817423-.4269149-.1803007-.8104572-.4387438-1.13951501-.76816-.32977472-.3294163-.58821773-.7126002-.76887692-1.139515-.18675285-.4416114-.28138386-.9111819-.28138386-1.3954489 0-.4839086.09463101-.9538375.28138386-1.3950904.18065919-.4269149.4391022-.81045723.76887692-1.13987349.32905781-.32941626.71260011-.58785927 1.13951501-.76816001.4416114-.18711131.9111819-.28174231 1.3950904-.28174231.484267 0 .9534791.094631 1.3954489.28138386.4265564.18065919.8104572.4391022 1.1398735.76851846.3294162.32941626.5878592.71295859.76816 1.13987349.1871113.4412529.2817423.9111818.2817423 1.3950904zm4.8071833 3.8225191v-7.64539663c0-.26381977-.2157873-.47960713-.4799656-.47960713h-16.03206935c-.26417822 0-.48032404.21578736-.48032404.47960713v7.64539663c0 .2641782.21614582.4799656.48032404.4799656h16.03206935c.2641783 0 .4799656-.2157874.4799656-.4799656zm3.4963289-3.8350649c0 6.6277549-5.3724602 12.0002151-11.9998566 12.0002151-6.62739641 0-12.00021509-5.3724602-12.00021509-12.0002151 0-6.62739637 5.37281868-11.9998566 12.00021509-11.9998566 6.6273964 0 11.9998566 5.37246023 11.9998566 11.9998566z" fill="#101820" fill-rule="evenodd"/></svg>