<svg height="20" viewBox="0 0 20 20" width="20" xmlns="http://www.w3.org/2000/svg"><path d="m134.0003 1736.04519h-3.290228l1.866796-1.69133c.182304-.16913.358775-.34123.529412-.51482.170636-.17358.322314-.36052.455031-.56229.134176-.20029.237725-.41838.315022-.65428.07438-.23441.1123-.49998.1123-.79374 0-.42431-.081673-.79374-.245017-1.11123-.163345-.31601-.380652-.57861-.654838-.78781-.272727-.2077-.584832-.36348-.933398-.46289-.348566-.10088-.708799-.15133-1.0807-.15133-.395236 0-.770053.06083-1.121536.18101-.3544.12017-.666505.29524-.939232.5252s-.498785.50591-.678172.83231c-.177929.3264-.290229.69731-.33544 1.1142l1.833252.25519c.03792-.37091.157511-.66912.358775-.8976.199806-.22847.460866-.34271.778804-.34271.303355 0 .546913.0905.729218.2715.182304.18249.272727.41987.272727.71214 0 .24628-.061254.47031-.182304.6706-.121051.20029-.28002.39761-.476909.59048l-3.142926 2.88862v1.62012h5.829363zm7-3.04551c0 5.52376-4.476248 10-10 10-5.522254 0-10-4.47624-10-10 0-5.52225 4.477746-10 10-10 5.523752 0 10 4.47775 10 10z" fill="#1e9642" fill-rule="evenodd" transform="translate(-121 -1723)"/></svg>