<svg height="20" viewBox="0 0 20 20" width="20" xmlns="http://www.w3.org/2000/svg"><path d="m134.0003 1841.20038c0-.22557-.036271-.43812-.108812-.63621-.072541-.19953-.174378-.38028-.304115-.54077-.131133-.16339-.287375-.3022-.468728-.41787-.181354-.11712-.382237-.20099-.599861-.25449v-.03325c.378052-.10556.689142-.31088.931876-.61597.242735-.30509.365497-.68103.365497-1.12492 0-.38462-.078122-.71863-.234364-1.00058-.157638-.2834-.362707-.51909-.616601-.70706-.253895-.18797-.542665-.32822-.864915-.41787-.323646-.09109-.655662-.13592-.997443-.13592-.318065 0-.630551.04338-.936061.13014-.30551.08675-.58591.21399-.84399.38461-.258079.16773-.479888.37883-.669612.63042-.188328.25159-.33062.54801-.425482.88635l1.700535.40775c.057196-.27183.181353-.48727.375261-.65066.192514-.1605.418508-.24147.679377-.24147.25529 0 .481284.07519.676587.22701.195303.15038.292955.3716.292955.6579 0 .19809-.037665.35569-.114392.47715-.075331.12146-.177168.21833-.304115.29063-.126947.07085-.270635.12001-.431063.14748-.159032.02603-.326435.03904-.500813.03904h-.5329v1.37797h.489654c.188328 0 .378051.0159.56638.05061.188328.03325.358521.08964.506394.16772.149267.08097.269239.18797.359916.32244.090676.13592.135317.30509.135317.50752 0 .18942-.034875.34702-.103232.47426-.068356.12869-.156242.23135-.260869.31088-.106022.07808-.224599.13736-.359916.17495-.133923.03904-.26645.0564-.397582.0564-.347361 0-.634737-.09977-.86073-.29931-.224599-.19809-.372472-.43089-.445013-.69404l-1.69914.46269c.100442.37594.253894.69838.456173.96588.203674.26749.442223.48438.714252.655.27203.16773.573356.29497.903976.37739.329226.08386.669612.12435 1.018368.12435.354336 0 .704487-.05061 1.050454-.15183.344571-.10266.655661-.25592.930481-.46269.276215-.20677.499419-.46993.669612-.78947.170192-.31955.256684-.69694.256684-1.13216m7-2.2007c0 5.52376-4.476248 10-10 10-5.522254 0-10-4.47624-10-10 0-5.52225 4.477746-10 10-10 5.523752 0 10 4.47775 10 10" fill="#1e9642" fill-rule="evenodd" transform="translate(-121 -1829)"/></svg>