<svg height="19" viewBox="0 0 20 19" width="20" xmlns="http://www.w3.org/2000/svg"><path d="m89.8914224 383.926988.9360328 4.673437c.2586955 1.292506-.475666 1.82082-1.6342326 1.179395l-4.1933712-2.328442-4.1919804 2.328442c-1.1585666.641425-1.894319.113111-1.6356234-1.179395l.4659301-2.325683.4701027-2.347754-1.7719254-1.624944-1.7552353-1.61115c-.9749762-.892477-.6940273-1.751849.6244855-1.906343l2.3755482-.27864 2.3964108-.2814 2.0125401-4.328585c.5549436-1.194568 1.4645505-1.194568 2.020885 0l2.01254 4.328585 2.39502.2814 2.3755483.27864c1.3185127.154494 1.5994616 1.013866.6258763 1.906343l-1.7566262 1.61115z" fill="#ffb858" fill-rule="evenodd" stroke="#dc731c" transform="translate(-75 -372)"/></svg>