<?xml version="1.0" standalone="no"?>
<!DOCTYPE svg PUBLIC "-//W3C//DTD SVG 1.1//EN" "http://www.w3.org/Graphics/SVG/1.1/DTD/svg11.dtd" >
<svg xmlns="http://www.w3.org/2000/svg">
<metadata></metadata>
<defs>
<font id="cfpbminiconsregular" horiz-adv-x="2048" >
<font-face units-per-em="2048" ascent="1536" descent="-512" />
<missing-glyph horiz-adv-x="571" />
<glyph unicode=" "  horiz-adv-x="571" />
<glyph unicode="&#x09;" horiz-adv-x="571" />
<glyph unicode="&#xa0;" horiz-adv-x="571" />
<glyph unicode="0" horiz-adv-x="1337" />
<glyph unicode="1" horiz-adv-x="1337" />
<glyph unicode="2" horiz-adv-x="1337" />
<glyph unicode="3" horiz-adv-x="1337" />
<glyph unicode="4" horiz-adv-x="1337" />
<glyph unicode="5" horiz-adv-x="1337" />
<glyph unicode="6" horiz-adv-x="1337" />
<glyph unicode="7" horiz-adv-x="1337" />
<glyph unicode="8" horiz-adv-x="1337" />
<glyph unicode="9" horiz-adv-x="1337" />
<glyph unicode="&#x2000;" horiz-adv-x="901" />
<glyph unicode="&#x2001;" horiz-adv-x="1802" />
<glyph unicode="&#x2002;" horiz-adv-x="901" />
<glyph unicode="&#x2003;" horiz-adv-x="1802" />
<glyph unicode="&#x2004;" horiz-adv-x="600" />
<glyph unicode="&#x2005;" horiz-adv-x="450" />
<glyph unicode="&#x2006;" horiz-adv-x="300" />
<glyph unicode="&#x2007;" horiz-adv-x="300" />
<glyph unicode="&#x2008;" horiz-adv-x="225" />
<glyph unicode="&#x2009;" horiz-adv-x="360" />
<glyph unicode="&#x200a;" horiz-adv-x="100" />
<glyph unicode="&#x202f;" horiz-adv-x="360" />
<glyph unicode="&#x205f;" horiz-adv-x="450" />
<glyph unicode="&#x25fc;" horiz-adv-x="1024" d="M0 0z" />
<glyph unicode="&#xe000;" horiz-adv-x="1302" d="M62 805.5q0 89.5 63 155.5q668 667 674 669q63 64 152 64t153 -64q63 -61 63 -150.5t-63 -154.5l-518 -520q325 -325 520 -518q63 -65 63 -154.5t-63 -150.5q-66 -64 -155 -64t-152 64l-674 671q-63 63 -63 152.5z" />
<glyph unicode="&#xe001;" d="M0 731q0 208 81 397.5t218.5 327t327 218.5t397.5 81t397.5 -81t327 -218.5t218.5 -327t81 -397.5t-81 -397.5t-218.5 -327t-327 -218.5t-397.5 -81t-397.5 81t-327 218.5t-218.5 327t-81 397.5zM562 731.5q0 -64.5 44 -108.5l475 -478q46 -44 109.5 -44t107.5 44 q46 46 46 109.5t-46 107.5l-366 369l366 367q46 46 46 109.5t-46 107.5q-44 46 -108.5 46t-108.5 -46l-475 -475q-44 -44 -44 -108.5z" />
<glyph unicode="&#xe002;" horiz-adv-x="1302" d="M134 1479q0 89 65 151q65 64 154 64t153 -64l672 -672q64 -64 64 -153t-64 -154q-668 -667 -672 -669q-64 -64 -153 -64t-154 64q-63 62 -63 151t63 154l518 518q-81 82 -251.5 252.5t-266.5 267.5q-65 65 -65 154z" />
<glyph unicode="&#xe003;" d="M0 731q0 208 81 397.5t218.5 327t327 218.5t397.5 81t397.5 -81t327 -218.5t218.5 -327t81 -397.5t-81 -397.5t-218.5 -327t-327 -218.5t-397.5 -81t-397.5 81t-327 218.5t-218.5 327t-81 397.5zM704 255q0 -64 46 -108q44 -46 108.5 -46t108.5 46l475 476 q44 44 44 108.5t-44 108.5l-475 477q-46 44 -109.5 44t-107.5 -44q-46 -46 -46 -109.5t46 -107.5l366 -369l-366 -366q-46 -46 -46 -110z" />
<glyph unicode="&#xe004;" horiz-adv-x="1902" d="M62 365.5q0 88.5 63 152.5l674 674q63 63 152 63t155 -63q668 -668 670 -674q64 -63 64 -151.5t-64 -153.5q-62 -65 -152.5 -65t-153.5 65l-520 518l-520 -520q-63 -63 -152.5 -63t-152.5 63q-63 66 -63 154.5z" />
<glyph unicode="&#xe005;" d="M0 731q0 208 81 397.5t218.5 327t327 218.5t397.5 81t397.5 -81t327 -218.5t218.5 -327t81 -397.5t-81 -397.5t-218.5 -327t-327 -218.5t-397.5 -81t-397.5 81t-327 218.5t-218.5 327t-81 397.5zM394 564.5q0 -63.5 44 -107.5q46 -46 109.5 -46t107.5 46l369 366 l367 -366q46 -44 109.5 -44t107.5 44q46 44 46 108.5t-46 108.5l-475 475q-44 44 -109 44t-109 -44l-477 -475q-44 -46 -44 -109.5z" />
<glyph unicode="&#xe006;" horiz-adv-x="1902" d="M62 951q0 89 63 153q63 63 153 63t154 -63l518 -518q73 72 155 154t190 190.5t175 175.5q63 63 153 63t153 -63q64 -66 64 -155t-64 -152l-672 -674q-64 -63 -153 -63t-154 63q-668 668 -672 674q-63 63 -63 152z" />
<glyph unicode="&#xe007;" d="M0 731q0 208 81 397.5t218.5 327t327 218.5t397.5 81t397.5 -81t327 -218.5t218.5 -327t81 -397.5t-81 -397.5t-218.5 -327t-327 -218.5t-397.5 -81t-397.5 81t-327 218.5t-218.5 327t-81 397.5zM394 898.5q0 -63.5 46 -107.5l475 -478q44 -44 109 -44t109 44l477 478 q44 44 44 108.5t-44 108.5q-46 44 -109.5 44t-107.5 -44l-369 -369l-369 369q-44 44 -107.5 44t-107.5 -44q-46 -46 -46 -109.5z" />
<glyph unicode="&#xe008;" horiz-adv-x="1976" d="M74 785.5q0 68.5 49 117.5q616 615 620 619q47 50 116 50t118 -50q47 -50 47 -117t-47 -117q-3 -2 -72 -71l-154 -154t-114 -113h1173q69 0 117.5 -47.5t48.5 -116.5t-48.5 -117t-117.5 -48h-1173q326 -324 340 -338q47 -47 47 -117t-47 -119q-49 -47 -118 -47t-116 47 l-620 623q-49 47 -49 115.5z" />
<glyph unicode="&#xe009;" d="M0 731q0 208 81 397.5t218.5 327t327 218.5t397.5 81t397.5 -81t327 -218.5t218.5 -327t81 -397.5t-81 -397.5t-218.5 -327t-327 -218.5t-397.5 -81t-397.5 81t-327 218.5t-218.5 327t-81 397.5zM402 730.5q0 -44.5 32 -75.5q398 -397 406 -405q32 -32 76 -32t75 32 q32 31 32 75.5t-32 75.5l-221 222h768q44 0 75.5 32t31.5 76t-31.5 76.5t-75.5 32.5h-766q217 217 219 221q32 32 32 75.5t-32 75.5q-31 32 -75 32t-76 -32l-406 -405q-32 -32 -32 -76.5z" />
<glyph unicode="&#xe010;" horiz-adv-x="1976" d="M0 784q0 69 48.5 117.5t117.5 48.5h1171l-338 338q-47 50 -47 118t47 118q49 47 118 47t116 -47l620 -623q49 -46 49 -114.5t-49 -118.5q-616 -615 -620 -619q-47 -49 -116 -49t-118 49q-47 49 -47 116.5t47 117.5q3 2 69 68t158.5 159t110.5 111h-1171 q-69 0 -117.5 47.5t-48.5 115.5z" />
<glyph unicode="&#xe011;" d="M0 731q0 208 81 397.5t218.5 327t327 218.5t397.5 81t397.5 -81t327 -218.5t218.5 -327t81 -397.5t-81 -397.5t-218.5 -327t-327 -218.5t-397.5 -81t-397.5 81t-327 218.5t-218.5 327t-81 397.5zM403 731q0 -44 31.5 -75t75.5 -31h766q-217 -220 -219 -224 q-32 -31 -32 -75t32 -76q31 -31 75 -31t76 31l406 405q32 32 32 77t-32 77q-398 395 -406 405q-32 31 -76 31t-75 -31q-32 -32 -32 -76.5t32 -76.5l221 -221h-768q-44 0 -75.5 -32.5t-31.5 -76.5z" />
<glyph unicode="&#xe012;" horiz-adv-x="1570" d="M0 824.5q0 68.5 47 115.5l623 621q47 49 115.5 49t117.5 -49q615 -617 619 -621q50 -47 50 -115.5t-50 -117.5q-50 -47 -117 -47t-117 47q-2 3 -71 72l-154 154t-113 114v-1174q0 -69 -47.5 -117.5t-116.5 -48.5t-117 48.5t-48 117.5v1174q-324 -326 -338 -340 q-47 -47 -117 -47t-119 47q-47 49 -47 117.5z" />
<glyph unicode="&#xe013;" d="M0 731q0 208 81 397.5t218.5 327t327 218.5t397.5 81t397.5 -81t327 -218.5t218.5 -327t81 -397.5t-81 -397.5t-218.5 -327t-327 -218.5t-397.5 -81t-397.5 81t-327 218.5t-218.5 327t-81 397.5zM511 839q0 -44 32 -75q31 -32 75.5 -32t75.5 32l221 221v-766 q0 -44 32.5 -76t76.5 -32t75 32t31 76v764q220 -217 224 -219q31 -32 75 -32t76 32q32 31 32 75t-32 76l-405 406q-32 32 -76.5 32t-75.5 -32q-397 -398 -405 -406q-32 -32 -32 -76z" />
<glyph unicode="&#xe014;" horiz-adv-x="1570" d="M0 639q0 70 49 117t116.5 47t117.5 -47l338 -338v1171q0 69 47.5 117.5t115.5 48.5q69 0 117.5 -48.5t48.5 -117.5v-1171l338 338q50 47 118.5 47t117.5 -47q47 -47 47 -116.5t-47 -115.5l-623 -622q-46 -50 -114.5 -50t-118.5 50q-615 616 -619 620q-49 47 -49 117z" />
<glyph unicode="&#xe015;" d="M0 731q0 208 81 397.5t218.5 327t327 218.5t397.5 81t397.5 -81t327 -218.5t218.5 -327t81 -397.5t-81 -397.5t-218.5 -327t-327 -218.5t-397.5 -81t-397.5 81t-327 218.5t-218.5 327t-81 397.5zM511 623.5q0 -44.5 32 -76.5l405 -406q32 -31 76.5 -31t75.5 31 q397 398 405 406q32 32 32 76.5t-32 76.5q-31 31 -75.5 31t-75.5 -31l-221 -223v768q0 44 -32.5 75.5t-76.5 31.5t-75 -31.5t-31 -75.5v-766q-220 217 -224 221q-31 31 -75 31t-76 -31q-32 -32 -32 -76.5z" />
<glyph unicode="&#xe100;" horiz-adv-x="1808" d="M140.5 686.5q10.5 70.5 68.5 112.5q55 42 124.5 32t112.5 -67l216 -293l700 942q43 57 111.5 67.5t125.5 -30.5q57 -43 67.5 -113t-30.5 -127l-837 -1126q-52 -68 -137 -68q-40 0 -76.5 18t-59.5 50l-354 475q-42 57 -31.5 127.5z" />
<glyph unicode="&#xe101;" d="M0 731q0 208 81 397.5t218.5 327t327 218.5t397.5 81t397.5 -81t327 -218.5t218.5 -327t81 -397.5t-81 -397.5t-218.5 -327t-327 -218.5t-397.5 -81t-397.5 81t-327 218.5t-218.5 327t-81 397.5zM442.5 638q-6.5 -50 22.5 -91l250 -336q36 -49 98 -49q60 0 96 49l592 799 q31 40 23.5 89.5t-47.5 78.5t-89.5 22t-78.5 -47l-496 -668l-154 207q-31 40 -80 47t-90 -22q-40 -29 -46.5 -79z" />
<glyph unicode="&#xe102;" horiz-adv-x="643" d="M113 1384q-8 86 55 156t149 70q91 0 155 -69.5t58 -156.5l-71 -854q-3 -57 -48 -95.5t-104 -35.5q-52 4 -87.5 42.5t-37.5 88.5zM182 117v26q0 59 40 100.5t97 41.5q58 0 99 -41.5t41 -100.5v-26q0 -59 -40.5 -99.5t-99.5 -40.5q-57 0 -97 41t-40 99z" />
<glyph unicode="&#xe103;" d="M0 731q0 208 81 397.5t218.5 327t327 218.5t397.5 81t397.5 -81t327 -218.5t218.5 -327t81 -397.5t-81 -397.5t-218.5 -327t-327 -218.5t-397.5 -81t-397.5 81t-327 218.5t-218.5 327t-81 397.5zM834 1272l63 -778q3 -47 36 -81.5t79 -37.5q53 -3 94 31.5t45 87.5l63 778 q6 77 -53 140t-141 63q-77 0 -135 -63.5t-51 -139.5zM897 117q0 -54 36.5 -91.5t88.5 -37.5q54 0 91.5 37.5t37.5 91.5v24q0 53 -37.5 90t-91.5 37q-52 0 -88.5 -37t-36.5 -90v-24z" />
<glyph unicode="&#xe104;" horiz-adv-x="1077" d="M111 1180q0 177 126 303.5t304 126.5q177 0 301.5 -126.5t124.5 -303.5q0 -69 -14.5 -127t-45 -107t-52.5 -76.5t-62 -70.5q-34 -36 -49.5 -54.5t-36 -50.5t-28 -66.5t-7.5 -78.5q0 -55 -38.5 -94t-92.5 -39q-57 0 -96 38.5t-39 94.5q0 65 13 124.5t30 99.5t47 83.5 t49.5 65.5t52.5 57q59 65 81.5 104t22.5 97q0 67 -47.5 115t-113.5 48q-68 0 -116 -48t-48 -115q0 -54 -39 -92.5t-94 -38.5t-94 38.5t-39 92.5zM379 137q0 66 47.5 113t114.5 47q65 0 112 -47t47 -113q0 -67 -47 -113.5t-112 -46.5q-68 0 -115 46.5t-47 113.5z" />
<glyph unicode="&#xe105;" d="M0 731q0 208 81 397.5t218.5 327t327 218.5t397.5 81t397.5 -81t327 -218.5t218.5 -327t81 -397.5t-81 -397.5t-218.5 -327t-327 -218.5t-397.5 -81t-397.5 81t-327 218.5t-218.5 327t-81 397.5zM627 1042q0 -47 33.5 -80.5t80.5 -33.5q48 0 82.5 33.5t34.5 80.5 q0 59 40.5 100.5t98.5 41.5q59 0 100.5 -42t41.5 -100q0 -51 -19 -84.5t-71 -89.5q-32 -34 -45.5 -50t-42 -56t-41.5 -73.5t-25 -85.5t-12 -109q0 -47 33.5 -81t80.5 -34t82 34t35 81q0 50 15.5 91t33 63.5t54.5 62.5t54.5 62t45.5 65.5t40.5 93.5t12.5 110 q0 154 -109.5 263.5t-263.5 109.5q-153 0 -261.5 -109.5t-108.5 -263.5zM860 135q0 -57 40 -97t97 -40q58 0 99 40t41 97q0 58 -40.5 98.5t-99.5 40.5q-57 0 -97 -40.5t-40 -98.5z" />
<glyph unicode="&#xe106;" horiz-adv-x="1474" d="M116 134.5q0 65.5 44 109.5l356 356l-356 358q-44 44 -44 109t46 111q44 46 108.5 46t108.5 -46l358 -357l357 357q46 45 110.5 45t110.5 -45q44 -46 44 -110t-46 -110l-357 -358l357 -356q46 -44 46 -109.5t-44 -109.5q-46 -46 -110.5 -46t-110.5 46l-359 356l-354 -356 q-46 -46 -110.5 -46t-108.5 46q-46 44 -46 109.5z" />
<glyph unicode="&#xe107;" d="M0 731q0 208 81 397.5t218.5 327t327 218.5t397.5 81t397.5 -81t327 -218.5t218.5 -327t81 -397.5t-81 -397.5t-218.5 -327t-327 -218.5t-397.5 -81t-397.5 81t-327 218.5t-218.5 327t-81 397.5zM512 348q0 -53 37 -90q38 -38 91.5 -38t90.5 38l293 293l293 -293 q38 -38 91.5 -38t90.5 38q37 37 37 90t-37 90l-293 293l293 295q37 37 37 90t-37 90t-90.5 37t-91.5 -37l-293 -295l-293 295q-37 37 -90.5 37t-91.5 -37q-37 -37 -37 -90t37 -90l295 -295l-295 -293q-37 -37 -37 -90z" />
<glyph unicode="&#xe108;" horiz-adv-x="1630" d="M0 795q0 63 45 108t111 45h506v506q-1 64 43.5 110t109.5 46t110.5 -46t45.5 -110v-506h504q64 0 109.5 -45t45.5 -108q0 -66 -45 -112t-110 -46h-504v-504q0 -65 -45.5 -110.5t-110.5 -45.5t-109.5 46t-43.5 110l-3 504h-503q-66 0 -111 46t-45 112z" />
<glyph unicode="&#xe109;" d="M0 731q0 208 81 397.5t218.5 327t327 218.5t397.5 81t397.5 -81t327 -218.5t218.5 -327t81 -397.5t-81 -397.5t-218.5 -327t-327 -218.5t-397.5 -81t-397.5 81t-327 218.5t-218.5 327t-81 397.5zM352 731q0 -53 37.5 -90t91.5 -37h414v-416q0 -54 37.5 -90.5t91.5 -36.5 t90.5 36.5t36.5 90.5v416h416q54 0 91.5 37t37.5 90q0 54 -37.5 91.5t-91.5 37.5h-416v414q0 54 -36.5 91.5t-90.5 37.5t-91.5 -37.5t-37.5 -91.5v-414h-414q-54 0 -91.5 -37.5t-37.5 -91.5z" />
<glyph unicode="&#xe110;" horiz-adv-x="1630" d="M0 795q0 63 45 108t111 45h1319q64 0 109.5 -45t45.5 -108q0 -66 -45 -112t-110 -46h-1319q-66 0 -111 46t-45 112z" />
<glyph unicode="&#xe111;" d="M0 731q0 208 81 397.5t218.5 327t327 218.5t397.5 81t397.5 -81t327 -218.5t218.5 -327t81 -397.5t-81 -397.5t-218.5 -327t-327 -218.5t-397.5 -81t-397.5 81t-327 218.5t-218.5 327t-81 397.5zM352 731q0 -53 37.5 -90t91.5 -37h1086q54 0 91.5 37t37.5 90 q0 54 -37.5 91.5t-91.5 37.5h-1086q-54 0 -91.5 -37.5t-37.5 -91.5z" />
<glyph unicode="&#xe112;" horiz-adv-x="2117" d="M37 680v57q0 55 38.5 94t94.5 39t94.5 -39t38.5 -94q0 -33 2 -45q3 -55 -34.5 -95.5t-94.5 -43.5h-4q-54 0 -93 36.5t-42 90.5zM142.5 363q16.5 52 66.5 77q47 26 100.5 9.5t79.5 -66.5q8 -16 35 -61q31 -46 18.5 -101t-59.5 -84q-31 -22 -72 -22q-71 0 -110 61 q-31 46 -49 84q-26 51 -9.5 103zM157 1135.5q-15 54.5 13 101.5l6 12q29 47 83 61t101 -14t61.5 -81.5t-13.5 -100.5l-7 -8q-31 -53 -84.5 -65.5t-97.5 14.5q-47 26 -62 80.5zM448 -45.5q-12 54.5 19 100.5q29 46 83 57.5t101 -18.5q10 -6 31 -18.5t31 -18.5 q50 -25 66.5 -76.5t-9.5 -101.5q-19 -34 -50.5 -53t-68.5 -19q-34 0 -61 15q-23 11 -84 49q-46 29 -58 83.5zM480.5 1532q13.5 54 60.5 82l14 8q47 28 100.5 13t81.5 -64q28 -47 13 -100.5t-64 -79.5l-8 -7q-30 -18 -68 -18q-35 0 -65.5 17t-48.5 49q-29 46 -15.5 100z M883 -152q1 55 42.5 92t96.5 35h39q37 0 57 2q54 4 96.5 -32t47.5 -90q3 -57 -33 -99t-92 -47q-12 0 -37 -1t-39 -1q-35 0 -51 2q-55 1 -92.5 42t-34.5 97zM922 1616q-3 55 34 95.5t93 43.5h12q55 0 94 -38.5t39 -94.5t-39 -94.5t-94 -38.5h-2h-6q-54 0 -92 36.5t-39 90.5z M1372 1024v479q0 55 39 94t94 39h480q55 0 94 -39t39 -94t-39 -94t-94 -39h-125q129 -159 186 -360q13 -55 18 -76q11 -54 -19.5 -100t-84.5 -56q-16 -4 -27 -4q-46 0 -84 31t-47 78q-9 40 -12 55q-49 160 -152 281v-195q0 -56 -39 -94.5t-94 -38.5t-94 38.5t-39 94.5z M1387.5 -1q13.5 54 60.5 83q47 24 94 68q42 34 99 28.5t90 -47.5q35 -43 30 -98t-47 -90q-62 -49 -129 -93q-31 -16 -67 -16q-34 0 -65.5 17t-49.5 47q-29 47 -15.5 101zM1750.5 323.5q-19.5 51.5 2.5 102.5q23 51 39 109q13 54 61 81t103 13q52 -13 80 -61.5t14 -102.5 q-20 -71 -53 -148q-17 -37 -50 -58t-71 -21q-28 0 -55 12q-51 22 -70.5 73.5z" />
<glyph unicode="&#xe113;" d="M0 731q0 208 81 397.5t218.5 327t327 218.5t397.5 81t397.5 -81t327 -218.5t218.5 -327t81 -397.5t-81 -397.5t-218.5 -327t-327 -218.5t-397.5 -81t-397.5 81t-327 218.5t-218.5 327t-81 397.5zM332 709q2 -25 2 -37q1 -34 25.5 -57t58.5 -23h4q35 2 59 27.5t23 60.5v29 q0 35 -25.5 60.5t-60.5 25.5t-60.5 -25.5t-25.5 -60.5zM400 469q-11 -34 6 -66q25 -45 30 -53q26 -39 72 -39q24 0 47 13q31 20 38 54.5t-13 63.5q-9 18 -23 39q-15 32 -49 43t-66 -6q-31 -15 -42 -49zM410.5 962.5q9.5 -34.5 40.5 -51.5q28 -17 61.5 -9t54.5 42l2 6 q19 29 10 63.5t-40 53.5q-29 17 -63.5 8.5t-53.5 -39.5l-4 -8q-17 -31 -7.5 -65.5zM595.5 208q7.5 -33 37.5 -54q9 -5 26.5 -15.5t26.5 -15.5q23 -10 39 -10q52 0 78 47q15 31 5 64t-42 50q-18 8 -41 23q-29 20 -63.5 12.5t-53.5 -37.5q-20 -31 -12.5 -64zM616 1216.5 q-8 -34.5 11 -65.5q26 -41 73 -41q26 0 43 14l7 2q31 17 40 51t-10 66q-17 31 -51 40.5t-65 -9.5l-9 -4q-31 -19 -39 -53.5zM874 139q-1 -35 23 -60.5t59 -27.5q5 0 16 -1t17 -1q8 0 23.5 1t23.5 1q37 3 60 30t20 62t-30 58t-62 20h-35h-26q-34 2 -61 -22.5t-28 -59.5z M899 1272q1 -35 25.5 -59.5t58.5 -24.5h4h2q35 0 59.5 25.5t24.5 60.5q0 37 -24.5 61.5t-59.5 24.5h-8q-35 -2 -60 -28t-22 -60zM1188 891q0 -35 24.5 -59.5t61.5 -24.5q35 0 59.5 24.5t24.5 59.5v125q70 -83 96 -180q4 -8 8 -35q6 -29 29.5 -48.5t54.5 -19.5q13 0 17 2 q35 6 54 35.5t13 65.5q-7 31 -12 47q-33 122 -119 231h80q35 0 60.5 24.5t25.5 59.5t-25.5 60.5t-60.5 25.5h-305q-35 0 -60.5 -25.5t-25.5 -60.5v-307zM1197.5 235.5q-8.5 -34.5 8.5 -63.5q24 -41 74 -41q28 0 43 10q45 26 82 60q28 23 31.5 57.5t-19.5 60.5q-23 28 -58 32 t-63 -19q-26 -23 -59 -43q-31 -19 -39.5 -53.5zM1430 443q13 -33 45 -48q15 -6 34 -6q56 0 78 51q18 38 33 95q9 34 -8 64.5t-51 39.5t-65 -8t-40 -51q-9 -38 -24 -72q-15 -32 -2 -65z" />
<glyph unicode="&#xe200;" horiz-adv-x="2072" d="M31 115v295q0 154 107 261t261 107h1276q151 0 259 -107.5t108 -260.5v-295q0 -151 -108 -259t-259 -108h-1276q-153 0 -260.5 108t-107.5 259zM313 549h119v-590h115v590h119v98h-353v-98zM412 1714h131l82 -303h8l80 303h131l-150 -444v-314h-129v299zM711 43 q0 -46 18 -70q19 -22 53 -22q28 0 60 16q27 13 57 47v-55h102v508h-102v-385q-10 -15 -31 -29q-17 -10 -28 -10q-16 0 -21 8q-6 9 -6 27v389h-102v-424zM854 1096v290q0 63 45 105q45 39 125 39q70 0 117 -41q45 -42 45 -105v-288q0 -73 -45 -115q-44 -41 -123 -41 q-70 0 -119 43q-45 42 -45 113zM971 1085q0 -18 12 -34q13 -13 35 -13q23 0 39 13q12 12 12 34v306q0 19 -14 30q-11 11 -37 11q-22 0 -33 -11q-14 -14 -14 -30v-306zM1077 -41h103v39q24 -27 45 -35q23 -10 53 -10q48 0 68 29q24 27 24 81v283q0 64 -24 94q-27 35 -74 35 q-22 0 -47 -14q-16 -6 -45 -35v221h-103v-688zM1180 55v318q17 13 22 14q9 6 21 6q20 0 32 -12q11 -18 11 -41v-262q0 -23 -9 -35q-7 -10 -28 -10q-9 0 -25 4q-18 12 -24 18zM1278 1047v469h115v-431q0 -20 8 -28q5 -8 22 -8q18 0 33 10q21 14 35 31v426h115v-560h-115v62 q-25 -32 -66 -53q-36 -19 -65 -19q-37 0 -62 25q-20 30 -20 76zM1423 102q0 -74 39 -116q41 -41 109 -41q76 0 115 39q38 44 38 118v25h-106v-23q0 -47 -10 -57q-9 -12 -35 -12q-27 0 -35 14q-8 13 -8 55v97h194v131q0 70 -38 108q-36 39 -107 39q-73 0 -111 -41 q-45 -39 -45 -106v-230zM1530 281v51q0 35 10 45q8 14 33 14q27 0 35 -14q10 -10 10 -45v-51h-88z" />
<glyph unicode="&#xe201;" horiz-adv-x="1755" d="M0 -145v1755h1755v-1755h-1755zM221 330q0 -101 70 -170.5t170 -69.5h835q99 0 168.5 69.5t69.5 170.5v192q0 100 -70 170t-168 70h-835q-100 0 -170 -70t-70 -170v-192zM406 612v66h231v-66h-78v-387h-76v387h-77zM469 1374l100 -299v-196h86v206l97 289h-86l-52 -198 h-4l-55 198h-86zM666 281v278h65v-256q0 -8 4 -16q4 -4 15 -4q10 0 18 6q10 5 20 18v252h68v-334h-68v37q-22 -22 -38 -31q-20 -10 -37 -10q-26 0 -37 17q-10 12 -10 43zM760 971q0 -50 26 -76q34 -27 80 -27q48 0 82 27q29 29 29 74v190q0 42 -33 68q-26 26 -74 26 q-53 0 -82 -26q-28 -22 -28 -66v-190zM836 963v200q0 11 8 19t22 8q17 0 25 -8t8 -19v-200q0 -15 -8 -23t-25 -8q-14 0 -22 8t-8 23zM905 225v453h66v-148q9 11 28 25q24 8 33 8q33 0 47 -20q17 -24 17 -64v-184q0 -31 -17 -55q-15 -19 -43 -19q-13 0 -37 8q-8 3 -28 23v-27 h-66zM971 291q14 -11 18 -12q5 -5 17 -5q9 0 16 7q6 9 6 22v174q0 16 -6 25q-8 8 -23 8q-8 0 -12 -4q-6 0 -16 -10v-205zM1036 938q0 -34 15 -49q14 -17 39 -17q17 0 43 13q23 13 43 33v-39h73v366h-73v-278q-20 -20 -25 -23q-18 -6 -21 -6q-11 0 -14 6q-4 8 -4 19v282h-76 v-307zM1130 319v150q0 43 29 72q26 26 74 26q46 0 70 -24q24 -27 24 -74v-84h-127v-63q0 -29 6 -35q9 -13 23 -13q13 0 24 11q7 21 7 37v16h67v-19q0 -51 -24 -75q-24 -27 -76 -27q-46 0 -70 27q-27 30 -27 75zM1200 436h60v33q0 17 -9 31q-7 10 -22 10q-13 0 -23 -10 q-6 -6 -6 -31v-33z" />
<glyph unicode="&#xe202;" horiz-adv-x="1554" d="M0 1311q0 76 52.5 125t137.5 49q83 0 133.5 -48.5t53.5 -125.5q0 -73 -52.5 -122.5t-138.5 -49.5h-2q-81 0 -132.5 50t-51.5 122zM20 0v1001h332v-1001h-332zM539 0q4 907 0 1001h331v-141l-2 -2h2v2q105 166 299 166q173 0 279 -115.5t106 -337.5v-573h-331v537 q0 225 -172 225q-62 0 -105 -35t-65 -86q-11 -27 -11 -82v-559h-331z" />
<glyph unicode="&#xe203;" horiz-adv-x="1755" d="M0 -145v1755h1755v-1755h-1755zM401 1081q0 -45 31 -75.5t82 -30.5h2q51 0 83 30.5t32 75.5q-2 46 -33 76.5t-82 30.5t-83 -31t-32 -76zM412 274h204v617h-204v-617zM731 274h203v344q0 34 8 50q12 31 39.5 53t65.5 22q104 0 104 -139v-330h205v353q0 137 -65.5 207.5 t-170.5 70.5q-39 0 -70.5 -9.5t-53.5 -27t-35 -31.5t-27 -34v88h-203v-617z" />
<glyph unicode="&#xe204;" horiz-adv-x="915" d="M0 737v320h233v270q0 82 27.5 154.5t81.5 130.5t143.5 91.5t204.5 33.5q57 0 113 -3.5t83 -6.5l27 -3l-10 -299q-95 2 -201 2q-79 0 -106 -34t-27 -105v-231h346l-14 -320h-332v-882h-336v882h-233z" />
<glyph unicode="&#xe205;" horiz-adv-x="1755" d="M0 -145v1755h1755v-1755h-1755zM831 618h170v-641h246v641h240l12 232h-252v170q0 52 19 76t77 24h148l6 217q-70 9 -164 9q-162 0 -247 -85.5t-85 -211.5v-199h-170v-232z" />
<glyph unicode="&#xe206;" horiz-adv-x="1501" d="M0 784q0 138 98 236t236 98q137 0 234.5 -98t97.5 -236q0 -136 -97.5 -233.5t-234.5 -97.5q-138 0 -236 97t-98 234zM836 784q0 138 96.5 236t234.5 98t236 -98t98 -236q0 -137 -98 -234t-236 -97t-234.5 97t-96.5 234z" />
<glyph unicode="&#xe207;" horiz-adv-x="1755" d="M0 -145v1755h1755v-1755h-1755zM231 731q0 -119 83.5 -203t203.5 -84q118 0 202.5 84t84.5 203t-84.5 203t-202.5 84q-120 0 -203.5 -84t-83.5 -203zM950 731q0 -119 84 -203t203 -84t203 84t84 203t-84 203t-203 84t-203 -84t-84 -203z" />
<glyph unicode="&#xe208;" horiz-adv-x="1902" d="M51 166q44 -6 88 -6q257 0 459 159q-120 1 -215 72.5t-131 183.5q31 -8 70 -8q40 0 98 15q-129 27 -213 127.5t-84 234.5v4q84 -44 168 -47q-75 52 -119.5 133t-44.5 176q0 106 49 185q139 -169 337.5 -271t424.5 -114q-10 45 -10 84q0 152 108 260t262 108 q164 0 271 -116q130 29 233 90q-20 -64 -62 -116.5t-100 -86.5q106 11 213 57q-77 -112 -186 -192q2 -16 2 -47q0 -105 -22.5 -211.5t-68 -210t-109.5 -197t-153 -172.5t-193.5 -137t-234.5 -90.5t-272 -32.5q-303 0 -565 166z" />
<glyph unicode="&#xe209;" horiz-adv-x="1755" d="M0 -145v1755h1755v-1755h-1755zM240 332q188 -119 401 -119q139 0 260.5 44t208.5 118.5t150 170.5t93.5 201.5t30.5 210.5v33q75 57 129 135q-73 -32 -149 -41q87 52 115 144q-80 -47 -166 -62q-79 82 -191 82q-107 0 -184.5 -77.5t-77.5 -184.5q0 -32 8 -59 q-161 9 -300.5 80.5t-237.5 191.5q-37 -60 -37 -131q0 -66 31.5 -123.5t85.5 -93.5q-63 3 -119 33v-4q0 -93 60 -165t151 -91q-34 -9 -70 -9q-9 0 -49 5q27 -79 94 -130t150 -51q-137 -112 -324 -112q-23 0 -63 4z" />
<glyph unicode="&#xe210;" horiz-adv-x="1521" d="M2.5 513q6.5 6 17 9.5t20.5 3.5h11q49 -4 91.5 -32.5t60.5 -55.5l18 -26q28 -48 65.5 -76.5t72 -37t72.5 -5.5t63.5 10.5t48.5 18.5q14 97 71 147q-68 8 -123.5 21.5t-116 38.5t-106 65.5t-83 97t-57 139t-19.5 185.5q0 177 114 297q-10 24 -17 55.5t-3.5 100.5t30.5 139 q4 1 11.5 2t35.5 -2t60 -12.5t86 -36t113 -66.5q130 37 276 37q150 0 277 -37q60 40 113 66.5t86.5 36t58.5 13t36 1.5l11 -2q27 -70 30.5 -139t-3.5 -100.5t-17 -55.5q115 -121 115 -297q0 -123 -30 -217t-76 -151t-115.5 -96t-135.5 -56t-149 -27q76 -61 76 -205 q0 -88 -1 -194t-1 -109q0 -49 -33 -72q-59 -36 -242 -36q-195 0 -240 36q-34 24 -34 72q0 97 -2 189q-91 -18 -156.5 -10.5t-107.5 33t-66 53t-33 49.5l-10 22q-14 36 -31.5 66t-33 47t-29 29t-21.5 16l-8 4q-28 20 -37.5 34t-3 20z" />
<glyph unicode="&#xe211;" horiz-adv-x="1755" d="M0 -145v1755h1755v-1755h-571q-62 0 -62 49q0 4 1 90t1 158q0 111 -61 165q67 8 120.5 22t110 45.5t94 78t61.5 123t24 176.5q0 143 -93 239q43 109 -8 240q-3 1 -9 2t-28.5 -1t-49 -9.5t-70 -29t-91.5 -54.5q-116 29 -225 29t-225 -29q-48 33 -90.5 54.5t-70 28.5 t-47.5 10t-29 1l-9 -2q-48 -122 -10 -240q-92 -98 -92 -239q0 -100 24 -176.5t61.5 -123t94 -78t109.5 -45.5t120 -22q-47 -47 -57 -120q-19 -9 -39 -15t-51.5 -8.5t-59 4.5t-58.5 30t-54 62q-2 4 -5.5 9.5t-16.5 21t-28 27.5t-38.5 22.5t-48.5 11.5h-9.5t-16 -3t-15 -7.5 t3 -16t30.5 -26.5q7 -3 18 -11t38 -42t45 -80q1 -2 2.5 -6t7 -15.5t13 -22t21.5 -24t30 -24.5t39.5 -20.5t50.5 -14t63 -3t76 10.5v-153q0 -49 -62 -49h-614z" />
<glyph unicode="&#xe212;" horiz-adv-x="1667" d="M0 72v1095q0 30 21 51t51 21h1523q30 0 51 -21t21 -51v-1095q0 -29 -21.5 -50.5t-50.5 -21.5h-1523q-29 0 -50.5 21.5t-21.5 50.5zM143 244l381 381l-381 372v-753zM244 143h1179l-385 385q-87 -67 -204 -67q-118 0 -205 67zM246 1096l446 -434q58 -58 142 -58t141 58 l446 434h-1175zM1143 625l383 -381v753z" />
<glyph unicode="&#xe213;" horiz-adv-x="1755" d="M0 -145v1755h1755v-1755h-1755zM307 393l340 342l-340 334v-676zM369 309h1017l-354 353q-74 -74 -153 -74q-82 0 -156 74zM371 1153l446 -438q25 -23 61.5 -23t61.5 23l446 438h-1015zM1108 735l342 -342v676z" />
<glyph unicode="&#xe300;" horiz-adv-x="1632" d="M0 793q0 222 109.5 410t297 297.5t408.5 109.5q111 0 217 -29.5t195.5 -82t165 -128t128 -165t82 -195.5t29.5 -217q0 -166 -64.5 -317t-174 -260.5t-261 -174t-317.5 -64.5q-165 0 -316 64.5t-260.5 174t-174 260.5t-64.5 317zM170 713q22 -170 122 -306t253 -204 q-118 197 -133 510h-242zM170 874h240q12 303 114 502q-144 -73 -238 -205.5t-116 -296.5zM573 874h486q-6 128 -31.5 238.5t-61 181.5t-75 111.5t-76.5 40.5q-36 0 -75.5 -40.5t-75 -111t-61 -181.5t-30.5 -239zM575 713q14 -240 89 -393.5t151 -153.5q77 0 152.5 153 t89.5 394h-482zM1090 203q150 68 250 204.5t122 305.5h-241q-15 -311 -131 -510zM1108 1376q103 -201 115 -502h239q-22 164 -116 296.5t-238 205.5z" />
<glyph unicode="&#xe301;" d="M0 731q0 208 81 397.5t218.5 327t327 218.5t397.5 81t397.5 -81t327 -218.5t218.5 -327t81 -397.5t-81 -397.5t-218.5 -327t-327 -218.5t-397.5 -81t-397.5 81t-327 218.5t-218.5 327t-81 397.5zM410 731q0 -166 82.5 -307.5t224 -224t307.5 -82.5q167 0 308.5 82.5 t223.5 224t82 307.5q0 125 -48.5 239t-130.5 196.5t-196 131t-239 48.5t-238.5 -48.5t-195.5 -131t-131 -196.5t-49 -239zM537 672h182q12 -235 100 -385q-115 53 -190 155t-92 230zM537 793q15 122 86.5 221.5t179.5 154.5q-75 -153 -84 -376h-182zM842 672h364 q-11 -181 -67 -296.5t-115 -115.5q-57 0 -114 116t-68 296zM842 793q5 127 35.5 228.5t70 151.5t76.5 50t76.5 -50t70 -151.5t35.5 -228.5h-364zM1229 287q88 150 100 385h182q-17 -128 -92 -230t-190 -155zM1245 1169q108 -55 179.5 -154.5t86.5 -221.5h-180 q-12 225 -86 376z" />
<glyph unicode="&#xe302;" horiz-adv-x="1662" d="M0 76v1089q0 31 22 52.5t54 21.5h1511q32 0 54 -21.5t22 -52.5v-1089q0 -32 -22 -54t-54 -22h-1511q-32 0 -54 22t-22 54zM152 223l475 342l-475 428v-770zM272 1090l559 -504l560 504h-1119zM309 152h1045l-432 311l-39 -35q-23 -20 -52 -20q-28 0 -51 20l-39 35z M1036 565l475 -342v770z" />
<glyph unicode="&#xe303;" d="M0 731q0 208 81 397.5t218.5 327t327 218.5t397.5 81t397.5 -81t327 -218.5t218.5 -327t81 -397.5t-81 -397.5t-218.5 -327t-327 -218.5t-397.5 -81t-397.5 81t-327 218.5t-218.5 327t-81 397.5zM500 383l389 281l-389 348v-629zM573 1069l451 -405l451 405h-902z M596 340h856l-362 260l-35 -33q-10 -10 -31 -10t-31 10l-35 33zM1159 664l389 -281v629z" />
<glyph unicode="&#xe304;" horiz-adv-x="1662" d="M0 76v1089q0 31 22 52.5t54 21.5h1511q31 0 53.5 -21.5t22.5 -52.5v-1089q0 -31 -22.5 -53.5t-53.5 -22.5h-1511q-32 0 -54 22.5t-22 53.5zM152 152h1359v935h-1359v-935zM426 348v88h688v-88h-688zM426 494v86h688v-86h-688zM426 639v88h688v-88h-688zM1202 754v209h209 v-209h-209z" />
<glyph unicode="&#xe305;" d="M0 731q0 208 81 397.5t218.5 327t327 218.5t397.5 81t397.5 -81t327 -218.5t218.5 -327t81 -397.5t-81 -397.5t-218.5 -327t-327 -218.5t-397.5 -81t-397.5 81t-327 218.5t-218.5 327t-81 397.5zM461 360q0 -8 5.5 -13t12.5 -5h1088q20 0 20 18v797q0 7 -6 13t-14 6 h-1088q-8 0 -13 -6t-5 -15v-795zM717 555v66h518v-66h-518zM717 664v65h518v-65h-518zM717 772v68h518v-68h-518zM1303 860v158h157v-158h-157z" />
<glyph unicode="&#xe306;" horiz-adv-x="1914" d="M2 340q9 160 186.5 349t491.5 370q8 2 8 6q315 181 569.5 240.5t395.5 -11.5q76 -39 133 -131q27 -56 31 -73l-529 -306q-35 40 -45 64q-47 77 -47 164q-199 -76 -373 -178q-193 -113 -350 -242q82 -51 121 -119q22 -46 31 -74l-529 -303q-33 33 -47 60v2q-55 95 -47 182 zM158 4l516 297l47 -80l-518 -297zM1352 694l516 299l47 -82l-518 -297z" />
<glyph unicode="&#xe307;" d="M0 731q0 208 81 397.5t218.5 327t327 218.5t397.5 81t397.5 -81t327 -218.5t218.5 -327t81 -397.5t-81 -397.5t-218.5 -327t-327 -218.5t-397.5 -81t-397.5 81t-327 218.5t-218.5 327t-81 397.5zM406 545q-3 -56 30 -117q9 -15 31 -41l342 197q-11 30 -21 47 q-25 49 -77 76q91 80 227 157q124 71 242 115q-3 -53 28 -107q7 -16 29 -38l342 196q-14 38 -20 47q-32 60 -86 86q-92 46 -255.5 7t-367.5 -156l-6 -4q-202 -118 -317 -240t-121 -225zM506 328l31 -52l333 193l-30 51zM1278 774l29 -51l335 192l-30 54z" />
<glyph unicode="&#xe308;" horiz-adv-x="878" d="M0 170v1147q0 70 49.5 119t120.5 49h539q71 0 120.5 -49t49.5 -119v-1147q0 -70 -49.5 -120t-120.5 -50h-539q-70 0 -120 50t-50 120zM106 358q0 -15 11 -25.5t26 -10.5h609q15 0 24.5 10.5t9.5 25.5v809q0 14 -10 25.5t-24 11.5h-609q-15 0 -26 -11.5t-11 -25.5v-809z M279 1309q0 -15 9 -25t23 -10h271q15 0 24.5 10t9.5 25q0 14 -9.5 23t-24.5 9h-271q-13 0 -22.5 -9.5t-9.5 -22.5zM379 193q0 -28 20 -49t47 -21q29 0 48.5 21t19.5 49t-19.5 47.5t-48.5 19.5q-28 0 -47.5 -19.5t-19.5 -47.5z" />
<glyph unicode="&#xe309;" d="M0 731q0 208 81 397.5t218.5 327t327 218.5t397.5 81t397.5 -81t327 -218.5t218.5 -327t81 -397.5t-81 -397.5t-218.5 -327t-327 -218.5t-397.5 -81t-397.5 81t-327 218.5t-218.5 327t-81 397.5zM662 258q0 -59 40.5 -100t98.5 -41h446q58 0 98.5 41t40.5 100v948 q0 59 -40.5 99.5t-98.5 40.5h-446q-58 0 -98.5 -40.5t-40.5 -99.5v-948zM750 412v671q0 12 9 21.5t21 9.5h502q12 0 21.5 -9.5t9.5 -21.5v-671q0 -11 -9.5 -20t-21.5 -9h-502q-12 0 -21 9t-9 20zM891 1200q0 12 8.5 20.5t20.5 8.5h223q11 0 18.5 -8.5t7.5 -20.5t-7.5 -19 t-18.5 -7h-223q-12 0 -20.5 7t-8.5 19zM975 276q0 23 16 39.5t39 16.5t40 -16.5t17 -39.5t-17 -39t-40 -16t-39 16t-16 39z" />
<glyph unicode="&#xe310;" horiz-adv-x="1531" d="M0 240v680q0 97 80.5 166.5t195.5 72.5v258q0 28 20 48t48 20h651q12 0 27 -6q8 -3 20 -15l318 -315q5 -5 14 -23q4 -10 4 -26v-178h86q29 0 48.5 -20t19.5 -48v-788q0 -28 -19.5 -47t-48.5 -19h-1181q-117 0 -200 70t-83 170zM133 240q0 -43 45 -75t105 -32t104.5 32 t44.5 75v680q0 43 -43.5 74.5t-105.5 31.5q-61 0 -105.5 -31.5t-44.5 -74.5v-680zM410 1135q70 -31 112.5 -88t42.5 -125h680v112h-250q-27 0 -46 19.5t-19 46.5v252h-520v-217zM735 287q0 -21 16.5 -37.5t36.5 -16.5q23 0 38.5 16t15.5 38t-15.5 37.5t-38.5 15.5 q-21 0 -37 -16t-16 -37zM735 461q0 -21 16 -37t37 -16q23 0 38.5 15.5t15.5 37.5t-15.5 37.5t-38.5 15.5q-21 0 -37 -16t-16 -37zM735 635q0 -21 16 -37t37 -16q23 0 38.5 15.5t15.5 37.5t-15.5 37.5t-38.5 15.5q-21 0 -37 -16t-16 -37zM942 287q0 -22 15 -38t36 -16 q23 0 38.5 16t15.5 38t-15.5 37.5t-38.5 15.5q-22 0 -36.5 -15.5t-14.5 -37.5zM942 461q0 -22 14.5 -37.5t36.5 -15.5q23 0 38.5 15.5t15.5 37.5t-15.5 37.5t-38.5 15.5q-22 0 -36.5 -15.5t-14.5 -37.5zM942 635q0 -22 14.5 -37.5t36.5 -15.5q23 0 38.5 15.5t15.5 37.5 t-15.5 37.5t-38.5 15.5q-22 0 -36.5 -15.5t-14.5 -37.5zM1147 287q0 -22 15 -38t38 -16q22 0 37.5 16t15.5 38t-15.5 37.5t-37.5 15.5q-23 0 -38 -15.5t-15 -37.5zM1147 461q0 -22 15 -37.5t38 -15.5q22 0 37.5 15.5t15.5 37.5t-15.5 37.5t-37.5 15.5q-23 0 -38 -15.5 t-15 -37.5zM1147 635q0 -22 15 -37.5t38 -15.5q22 0 37.5 15.5t15.5 37.5t-15.5 37.5t-37.5 15.5q-23 0 -38 -15.5t-15 -37.5z" />
<glyph unicode="&#xe311;" d="M0 731q0 208 81 397.5t218.5 327t327 218.5t397.5 81t397.5 -81t327 -218.5t218.5 -327t81 -397.5t-81 -397.5t-218.5 -327t-327 -218.5t-397.5 -81t-397.5 81t-327 218.5t-218.5 327t-81 397.5zM395 319q0 -43 42.5 -73.5t101.5 -30.5q60 0 102.5 30.5t42.5 73.5v652 q0 43 -42.5 73.5t-102.5 30.5q-59 0 -101.5 -30.5t-42.5 -73.5v-652zM653 1153q66 -29 99.5 -75.5t33.5 -131.5h711v121h-278q-23 0 -38.5 15.5t-15.5 37.5v281h-487q-9 0 -17 -8.5t-8 -18.5v-221zM752 215h809q22 0 36.5 16t14.5 39v521q0 23 -14.5 38t-36.5 15h-775v-525 q0 -55 -34 -104zM1016 395q0 22 14.5 36.5t36.5 14.5t36.5 -14.5t14.5 -36.5t-14.5 -36.5t-36.5 -14.5t-36.5 14.5t-14.5 36.5zM1016 530q0 21 15 36.5t36 15.5t36 -15.5t15 -36.5q0 -22 -14.5 -36.5t-36.5 -14.5t-36.5 14.5t-14.5 36.5zM1016 664q0 22 14.5 36.5t36.5 14.5 t36.5 -14.5t14.5 -36.5q0 -20 -15 -35t-36 -15t-36 15t-15 35zM1174 395q0 22 14.5 36.5t36.5 14.5t36.5 -14.5t14.5 -36.5t-14.5 -36.5t-36.5 -14.5t-36.5 14.5t-14.5 36.5zM1174 530q0 21 15 36.5t36 15.5t36 -15.5t15 -36.5q0 -22 -14.5 -36.5t-36.5 -14.5t-36.5 14.5 t-14.5 36.5zM1174 664q0 22 14.5 36.5t36.5 14.5t36.5 -14.5t14.5 -36.5q0 -20 -15 -35t-36 -15t-36 15t-15 35zM1272 1176h192l-192 190v-190zM1331 395q0 22 14.5 36.5t36.5 14.5t37 -14.5t15 -36.5t-15 -36.5t-37 -14.5t-36.5 14.5t-14.5 36.5zM1331 530q0 21 15 36.5 t36 15.5t36.5 -15.5t15.5 -36.5q0 -22 -15 -36.5t-37 -14.5t-36.5 14.5t-14.5 36.5zM1331 664q0 22 14.5 36.5t36.5 14.5t37 -14.5t15 -36.5q0 -20 -15 -35t-37 -15t-36.5 15t-14.5 35z" />
<glyph unicode="&#xe400;" horiz-adv-x="1267" d="M0 72v1464q0 31 21.5 52.5t50.5 21.5h778q28 0 51 -23l346 -346q21 -21 21 -53v-1116q0 -30 -21 -51t-51 -21h-1124q-29 0 -50.5 21.5t-21.5 50.5zM145 145h979v971h-274q-31 0 -52.5 21.5t-21.5 50.5v274h-631v-1317zM256 324v108h756v-108h-756zM256 575v109h756v-109 h-756zM256 827v109h756v-109h-756zM293 1212q0 44 31.5 75.5t74.5 31.5q44 0 76.5 -31.5t32.5 -75.5q0 -45 -32 -76.5t-77 -31.5q-43 0 -74.5 31.5t-31.5 76.5z" />
<glyph unicode="&#xe401;" d="M0 731q0 208 81 397.5t218.5 327t327 218.5t397.5 81t397.5 -81t327 -218.5t218.5 -327t81 -397.5t-81 -397.5t-218.5 -327t-327 -218.5t-397.5 -81t-397.5 81t-327 218.5t-218.5 327t-81 397.5zM539 135q0 -7 6 -12.5t14 -5.5h930q8 0 14 5.5t6 12.5v838h-352 q-9 0 -14.5 6t-5.5 14v353h-578q-9 0 -14.5 -6.5t-5.5 -14.5v-1190zM735 365v84h578v-84h-578zM735 557v82h578v-82h-578zM735 750v81h578v-81h-578zM762 1042q0 34 24 58t58 24q35 0 59.5 -24t24.5 -58t-24.5 -57.5t-59.5 -23.5q-34 0 -58 23.5t-24 57.5zM1239 1077h242 l-242 240v-240z" />
<glyph unicode="&#xe402;" horiz-adv-x="1267" d="M0 72v1464q0 31 21.5 52.5t50.5 21.5h778q33 0 51 -23l348 -346q19 -23 19 -53v-1116q0 -30 -21 -51t-51 -21h-1124q-29 0 -50.5 21.5t-21.5 50.5zM145 145h979v971h-274q-29 0 -51.5 21.5t-22.5 50.5v274h-631v-1317zM264 496v473q0 13 9.5 21.5t21.5 8.5h108 q28 0 48 -20.5t20 -48.5v-158q0 -29 -20 -49.5t-48 -20.5h-79v-206q0 -12 -9 -21.5t-20 -9.5q-12 0 -21.5 9.5t-9.5 21.5zM324 762h79q9 0 9 10v158q0 8 -9 8h-79v-176zM530 496v473q0 13 9 21.5t20 8.5h107q43 0 72.5 -35t29.5 -85v-295q0 -50 -29.5 -84.5t-72.5 -34.5 h-107q-11 0 -20 9.5t-9 21.5zM590 524h76q17 0 31 18.5t14 41.5v295q0 24 -13.5 41.5t-31.5 17.5h-76v-414zM827 496v473q0 13 8.5 21.5t22.5 8.5h115q14 0 23.5 -8.5t9.5 -21.5q0 -12 -10 -21.5t-23 -9.5h-86v-176h86q13 0 23 -9t10 -20q0 -13 -9.5 -22t-23.5 -9h-86v-206 q0 -12 -9 -21.5t-20 -9.5q-13 0 -22 9.5t-9 21.5z" />
<glyph unicode="&#xe403;" d="M0 731q0 208 81 397.5t218.5 327t327 218.5t397.5 81t397.5 -81t327 -218.5t218.5 -327t81 -397.5t-81 -397.5t-218.5 -327t-327 -218.5t-397.5 -81t-397.5 81t-327 218.5t-218.5 327t-81 397.5zM539 135q0 -7 6 -12.5t14 -5.5h930q8 0 14 5.5t6 12.5v838h-352 q-9 0 -14.5 6t-5.5 14v353h-578q-9 0 -14.5 -6.5t-5.5 -14.5v-1190zM666 365v458q0 12 8 20.5t20 8.5h105q28 0 47.5 -19.5t19.5 -48.5v-151q0 -28 -19.5 -48t-47.5 -20h-76v-200q0 -11 -8.5 -20t-20.5 -9t-20 9t-8 20zM723 623h76q10 0 10 10v151q0 11 -10 11h-76v-172z M924 365v458q0 12 8 20.5t20 8.5h101q41 0 70.5 -34t29.5 -81v-286q0 -47 -29.5 -81t-70.5 -34h-101q-12 0 -20 9t-8 20zM981 395h72q17 0 30 16.5t13 39.5v286q0 24 -12.5 41t-30.5 17h-72v-400zM1210 365v458q0 12 8.5 20.5t20.5 8.5h115q12 0 20 -8.5t8 -20.5 q0 -11 -8 -19.5t-20 -8.5h-86v-172h86q12 0 20 -8.5t8 -20.5t-8 -20.5t-20 -8.5h-86v-200q0 -11 -8.5 -20t-20.5 -9t-20.5 9t-8.5 20zM1239 1077h242l-242 240v-240z" />
<glyph unicode="&#xe404;" horiz-adv-x="1267" d="M0 74v1462q0 31 21.5 52.5t52.5 21.5h776q25 0 51 -21l346 -348q21 -21 21 -51v-1116q0 -31 -20.5 -52.5t-51.5 -21.5h-1122q-31 0 -52.5 21.5t-21.5 52.5zM145 145h979v971h-274q-31 0 -52.5 21.5t-21.5 50.5v274h-631v-1317zM338 803q0 29 22 51l224 223q22 22 51 22 t49 -22q223 -221 225 -223q20 -22 20 -51t-20 -51q-22 -22 -51 -22t-51 22l-100 100v-512q0 -29 -21.5 -50.5t-50.5 -21.5t-50.5 21.5t-21.5 50.5v512q-94 -92 -100 -100q-22 -22 -51.5 -22t-51.5 22t-22 51z" />
<glyph unicode="&#xe405;" d="M0 731q0 208 81 397.5t218.5 327t327 218.5t397.5 81t397.5 -81t327 -218.5t218.5 -327t81 -397.5t-81 -397.5t-218.5 -327t-327 -218.5t-397.5 -81t-397.5 81t-327 218.5t-218.5 327t-81 397.5zM539 137q0 -7 6.5 -13.5t13.5 -6.5h930q9 0 14.5 6.5t5.5 15.5v834h-352 q-7 0 -13.5 6.5t-6.5 13.5v353h-578q-8 0 -14 -6t-6 -15v-1188zM800 731q0 24 15 39l170 170q17 15 40 15t38 -15q170 -168 170 -170q17 -15 17 -39t-17 -39q-15 -15 -38 -15t-40 15l-76 76v-391q0 -23 -16 -39t-39 -16t-39 16t-16 39v391q-70 -72 -76 -76q-15 -15 -39 -15 t-39 15t-15 39zM1239 1077h242l-242 242v-242z" />
<glyph unicode="&#xe406;" horiz-adv-x="1269" d="M0 74v1464q0 29 21.5 50.5t50.5 21.5h778q30 0 51 -21q348 -348 348 -350q21 -21 21 -49v-1116q0 -31 -21.5 -52.5t-50.5 -21.5h-1126q-29 0 -50.5 21.5t-21.5 52.5zM145 145h979v973h-274q-30 0 -52 21t-22 51v274h-631v-1319zM338 562q0 30 22 52t51.5 22t49.5 -22 l102 -100v512q0 31 21.5 52.5t50.5 21.5t50.5 -21.5t21.5 -52.5v-512q94 94 102 100q20 22 49 22t51 -22t22 -52t-22 -50l-223 -223q-22 -22 -51 -22t-51 22q-222 219 -224 223q-22 20 -22 50z" />
<glyph unicode="&#xe407;" d="M0 731q0 208 81 397.5t218.5 327t327 218.5t397.5 81t397.5 -81t327 -218.5t218.5 -327t81 -397.5t-81 -397.5t-218.5 -327t-327 -218.5t-397.5 -81t-397.5 81t-327 218.5t-218.5 327t-81 397.5zM539 137q0 -7 6.5 -13.5t13.5 -6.5h930q9 0 14.5 6.5t5.5 15.5v834h-352 q-7 0 -13.5 6.5t-6.5 13.5v353h-578q-8 0 -14 -6t-6 -15v-1188zM798 548q0 23 17 38q15 17 38 17t40 -17l76 -76v391q0 23 16 39t39 16t39 -16t16 -39v-391l76 76q17 17 40 17t38 -17q17 -15 17 -38t-17 -40l-170 -170q-17 -15 -39 -15t-39 15l-170 170q-17 17 -17 40z M1239 1077h242l-242 242v-242z" />
<glyph unicode="&#xe408;" horiz-adv-x="1560" d="M0 -74v1475q0 31 21.5 52.5t52.5 21.5h207v206q0 31 21.5 52.5t53.5 21.5h781q31 0 53 -22q340 -341 348 -349q23 -23 23 -51v-1124q0 -31 -22 -52.5t-54 -21.5h-207v-209q0 -29 -21.5 -50t-52.5 -21h-1130q-31 0 -52.5 21t-21.5 50zM147 2h983v977h-272q-32 0 -53 21 t-21 51v276h-637v-1325zM428 1475h430q28 0 51 -23l348 -348q21 -21 21 -53v-770h135v976h-276q-31 0 -52.5 22.5t-21.5 53.5v275h-635v-133z" />
<glyph unicode="&#xe409;" d="M0 731q0 208 81 397.5t218.5 327t327 218.5t397.5 81t397.5 -81t327 -218.5t218.5 -327t81 -397.5t-81 -397.5t-218.5 -327t-327 -218.5t-397.5 -81t-397.5 81t-327 218.5t-218.5 327t-81 397.5zM481 137q0 -9 6.5 -14.5t14.5 -5.5h801q8 0 14 5.5t6 14.5v723h-279 q-19 0 -32 13t-13 30v279h-497q-8 0 -14.5 -6t-6.5 -13v-1026zM698 1257h346q34 0 55.5 -11.5t55.5 -45.5l62 -61v260h-498q-17 0 -21 -21v-121zM1090 948h206l-206 209v-209zM1278 1077l84 -84q37 -37 37 -90v-569h121q18 0 18 20v723h-260zM1305 1165h208l-208 209v-209z " />
<glyph unicode="&#xe410;" horiz-adv-x="1630" d="M0 1137q0 68 47 118l182 181q49 49 119 49q65 0 117 -49l127 -125l-418 -418l-127 127q-47 50 -47 117zM233 834l234 237l868 -868l-170 -170l230 -64l118 121l-61 229l-51 -51l-869 869l117 114q39 -39 803 -805q17 -14 23 -36l155 -555l-555 155q-23 6 -37 23z" />
<glyph unicode="&#xe411;" d="M0 731q0 208 81 397.5t218.5 327t327 218.5t397.5 81t397.5 -81t327 -218.5t218.5 -327t81 -397.5t-81 -397.5t-218.5 -327t-327 -218.5t-397.5 -81t-397.5 81t-327 218.5t-218.5 327t-81 397.5zM410 1106q0 -48 32 -80l86 -88l289 287l-86 88q-38 33 -82 33t-82 -33 l-125 -125q-32 -37 -32 -82zM569 899l557 -557q11 -11 25 -14l385 -109l-106 385q-7 18 -17 25q-528 528 -555 557l-80 -80l600 -600l19 18l41 -147q2 -4 6 -8l-58 -58q-6 6 -8 6l-147 41l100 101l-600 600z" />
<glyph unicode="&#xe412;" horiz-adv-x="1705" d="M0 1040q0 134 100 242q101 98 240 98q134 0 240 -98l809 -813q63 -65 63 -151t-63 -150q-61 -62 -148.5 -62t-150.5 62l-510 514q-25 23 -25 57.5t25 59.5q23 26 59 26t59 -26l510 -508q14 -15 31.5 -15t32.5 15q12 12 12 30t-12 27l-809 811q-51 49 -124 49t-120 -49 q-49 -52 -49 -119q0 -68 49 -120l811 -811q86 -86 209.5 -86t212.5 86q84 90 84 210q0 119 -84 209l-815 813q-23 25 -23 59t23 60q26 25 61.5 25t61.5 -25l809 -813q65 -63 101 -149t36 -179q0 -190 -137 -327q-134 -137 -330 -137q-92 0 -178 35t-152 102l-809 807 q-100 100 -100 241z" />
<glyph unicode="&#xe413;" d="M0 731q0 208 81 397.5t218.5 327t327 218.5t397.5 81t397.5 -81t327 -218.5t218.5 -327t81 -397.5t-81 -397.5t-218.5 -327t-327 -218.5t-397.5 -81t-397.5 81t-327 218.5t-218.5 327t-81 397.5zM410 981q0 -104 71 -172l584 -586q47 -47 110 -72.5t128 -25.5 q134 0 237 98q98 103 98 238q0 141 -98 239l-584 584q-19 17 -44 17t-42 -17q-19 -19 -19 -44t19 -44l584 -584q62 -62 62 -151q0 -88 -62 -150q-63 -63 -151.5 -63t-151.5 63l-584 582q-37 40 -37 88q0 46 37 86q35 35 87 35t87 -35l582 -584q9 -9 9 -21.5t-9 -21.5 q-7 -9 -20.5 -9t-22.5 9l-367 369q-19 17 -44 17t-44 -17q-17 -19 -17 -44t17 -44l369 -367q44 -44 108.5 -44t108.5 44t44 107.5t-44 107.5l-586 584q-69 72 -172 72t-172 -72q-71 -68 -71 -172z" />
<glyph unicode="&#xe414;" horiz-adv-x="1644" d="M0 152v673q0 32 21.5 55t52.5 23h135v508q0 31 21.5 52.5t50.5 21.5h731q24 0 53 -21l352 -352q21 -21 21 -51v-158h133q32 0 53 -22.5t21 -55.5v-673q0 -30 -21 -51t-53 -21h-133v-154q0 -31 -21.5 -52t-52.5 -21h-1083q-29 0 -50.5 21.5t-21.5 51.5v154h-135 q-31 0 -52.5 21.5t-21.5 50.5zM356 4h936v473h-936v-473zM356 903h936v84h-280q-30 0 -52 22t-22 52v274h-582v-432zM467 109v108h709v-108h-709zM467 285v110h709v-110h-709zM1366 696q0 -33 21 -55.5t53 -22.5q31 0 52 23t21 55q0 30 -21.5 52t-51.5 22q-32 0 -53 -22 t-21 -52z" />
<glyph unicode="&#xe415;" d="M0 731q0 208 81 397.5t218.5 327t327 218.5t397.5 81t397.5 -81t327 -218.5t218.5 -327t81 -397.5t-81 -397.5t-218.5 -327t-327 -218.5t-397.5 -81t-397.5 81t-327 218.5t-218.5 327t-81 397.5zM416 342q0 -22 14.5 -36.5t36.5 -14.5h53v303q0 42 31 72t74 30h811 q42 0 72 -30t30 -72v-303h55q22 0 35.5 14.5t13.5 36.5v508q0 22 -13.5 36.5t-35.5 14.5h-1126q-22 0 -36.5 -14.5t-14.5 -36.5v-508zM612 989h811v68h-319q-22 0 -37.5 14.5t-15.5 36.5v319h-439v-438zM625 123h811v471h-811v-471zM764 260v82h532v-82h-532zM764 391v84 h532v-84h-532zM1155 1159h217l-217 217v-217zM1491 782q0 22 14.5 37t36.5 15t36.5 -15t14.5 -37t-14.5 -36.5t-36.5 -14.5t-36.5 14.5t-14.5 36.5z" />
<glyph unicode="&#xe416;" horiz-adv-x="1484" d="M0 211v1212q0 25 18 43.5t43 18.5h1360q26 0 45 -18.5t19 -43.5v-1360q0 -26 -19 -44.5t-45 -18.5h-1210q-25 0 -43 18l-152 152q-16 16 -16 41zM272 918q0 -26 18 -45t42 -19h819q25 0 43 18.5t18 45.5v393q0 26 -18 43.5t-43 17.5h-819q-24 0 -42 -17.5t-18 -43.5v-393 zM332 123q0 -25 13.5 -41t35.5 -16h723q20 0 33.5 16t13.5 41v424q0 24 -13.5 42.5t-33.5 18.5h-723q-21 0 -35 -18.5t-14 -42.5v-424zM463 199v272h149v-272h-149z" />
<glyph unicode="&#xe417;" d="M0 731q0 208 81 397.5t218.5 327t327 218.5t397.5 81t397.5 -81t327 -218.5t218.5 -327t81 -397.5t-81 -397.5t-218.5 -327t-327 -218.5t-397.5 -81t-397.5 81t-327 218.5t-218.5 327t-81 397.5zM461 330q0 -22 14 -33l113 -115q18 -14 35 -14h917q20 0 33.5 14t13.5 33 v1032q0 20 -13.5 33.5t-33.5 13.5h-1032q-20 0 -33.5 -13.5t-13.5 -33.5v-917zM668 864v299q0 19 13 32t32 13h620q20 0 33.5 -13t13.5 -32v-299q0 -20 -13.5 -33.5t-33.5 -13.5h-620q-19 0 -32 13.5t-13 33.5zM713 262v322q0 18 10.5 31.5t24.5 13.5h550q15 0 25 -13 t10 -32v-322q0 -19 -10 -33t-25 -14h-550q-14 0 -24.5 14t-10.5 33zM811 317h115v207h-115v-207z" />
<glyph unicode="&#xe418;" horiz-adv-x="1554" d="M0 193v1493q0 29 22 49t54 20h788q34 0 56 -22l354 -351q22 -22 22 -53v-577h187q32 0 51.5 -23.5t19.5 -54.5v-748q0 -30 -20.5 -50.5t-50.5 -20.5h-1145q-30 0 -54 20.5t-24 50.5v191h-184q-32 0 -54 22t-22 54zM150 264h999v989h-285q-31 0 -51 22t-20 54v279h-643 v-1344zM262 428q0 31 22.5 53.5t53.5 22.5t53.5 -22.5t22.5 -53.5t-22.5 -53.5t-53.5 -22.5t-53.5 22.5t-22.5 53.5zM410 4h997v594h-111v-405q0 -32 -23 -54t-54 -22h-809v-113zM469 428q0 31 22.5 53.5t53.5 22.5q30 0 51.5 -22.5t21.5 -53.5t-21.5 -53.5t-51.5 -22.5 q-31 0 -53.5 22.5t-22.5 53.5zM676 428q0 31 21.5 53.5t52.5 22.5q32 0 53.5 -22.5t21.5 -53.5t-21.5 -53.5t-53.5 -22.5q-31 0 -52.5 22.5t-21.5 53.5zM883 428q0 31 21.5 53.5t53.5 22.5q31 0 52.5 -22.5t21.5 -53.5t-21.5 -53.5t-52.5 -22.5q-32 0 -53.5 22.5t-21.5 53.5 z" />
<glyph unicode="&#xe419;" d="M0 731q0 208 81 397.5t218.5 327t327 218.5t397.5 81t397.5 -81t327 -218.5t218.5 -327t81 -397.5t-81 -397.5t-218.5 -327t-327 -218.5t-397.5 -81t-397.5 81t-327 218.5t-218.5 327t-81 397.5zM481 352q0 -8 6 -13t15 -5h801q7 0 12.5 5t5.5 13v725h-279 q-18 0 -30.5 12.5t-12.5 30.5v279h-497q-21 -3 -21 -21v-1026zM598 496q0 22 13.5 35.5t35.5 13.5q21 0 35 -14t14 -35q0 -20 -14.5 -35t-34.5 -15q-21 0 -35 14.5t-14 35.5zM698 137q0 -9 5.5 -14.5t13.5 -5.5h801q20 0 20 20v121v418q0 18 -20 18h-121v-393q0 -19 -12 -31 t-31 -12h-656v-121zM768 496q0 21 14 35t35 14t35 -14t14 -35q0 -20 -14.5 -35t-34.5 -15t-34.5 15t-14.5 35zM938 496q0 22 13.5 35.5t35.5 13.5q21 0 35 -14t14 -35q0 -20 -14.5 -35t-34.5 -15q-21 0 -35 14.5t-14 35.5zM1087 1165h209l-209 209v-209zM1108 496 q0 22 13.5 35.5t35.5 13.5q21 0 35 -14t14 -35q0 -20 -14.5 -35t-34.5 -15q-21 0 -35 14.5t-14 35.5z" />
<glyph unicode="&#xe420;" horiz-adv-x="1558" d="M0 188v1495q0 29 21.5 50.5t50.5 21.5h796q25 0 50 -22l352 -353q24 -21 24 -55v-575h187q34 0 56 -22t22 -54v-748q0 -30 -23.5 -50.5t-54.5 -20.5h-1147q-26 0 -50 21.5t-24 49.5v187h-188q-30 0 -51 21.5t-21 53.5zM145 264h1000v985h-277q-32 0 -53.5 22.5 t-21.5 53.5v279h-648v-1340zM344 758q0 29 23 50t55 21h149v158q0 31 21.5 52.5t52.5 21.5q32 0 54 -21.5t22 -52.5v-158h153q30 0 52 -21t22 -50q0 -32 -22 -54t-52 -22h-153v-154q0 -31 -22 -52t-54 -21q-31 0 -52.5 21t-21.5 52v154h-149q-32 0 -55 22t-23 54zM412 2h995 v596h-113v-410q0 -32 -23 -53.5t-54 -21.5h-805v-111z" />
<glyph unicode="&#xe421;" d="M0 731q0 208 81 397.5t218.5 327t327 218.5t397.5 81t397.5 -81t327 -218.5t218.5 -327t81 -397.5t-81 -397.5t-218.5 -327t-327 -218.5t-397.5 -81t-397.5 81t-327 218.5t-218.5 327t-81 397.5zM481 352q0 -8 6 -13t15 -5h801q7 0 12.5 5t5.5 13v725h-279 q-18 0 -30.5 12.5t-12.5 30.5v277h-497q-21 0 -21 -19v-1026zM645 731q0 20 14.5 34.5t34.5 14.5h158v158q0 21 14 35t35 14t35 -14t14 -35v-158h158q21 0 35 -14t14 -35q0 -19 -14 -34t-35 -15h-158v-158q0 -20 -14.5 -34.5t-34.5 -14.5t-34.5 14.5t-14.5 34.5v158h-158 q-20 0 -34.5 14.5t-14.5 34.5zM698 137q0 -9 5.5 -14.5t13.5 -5.5h801q20 0 20 20v537q0 20 -20 20h-121v-393q0 -19 -12 -31t-31 -12h-656v-121zM1087 1165h209l-209 209v-209z" />
<glyph unicode="&#xe500;" horiz-adv-x="1746" d="M0 0v131h88v92h105v709h-105v164l784 452l787 -452v-164h-105v-709h105v-92h88v-131h-1747zM340 223h262v615h-262v-615zM459 1096h829l-418 231zM743 223h263v615h-263v-615zM1149 223h262v615h-262v-615z" />
<glyph unicode="&#xe501;" d="M0 731q0 208 81 397.5t218.5 327t327 218.5t397.5 81t397.5 -81t327 -218.5t218.5 -327t81 -397.5t-81 -397.5t-218.5 -327t-327 -218.5t-397.5 -81t-397.5 81t-327 218.5t-218.5 327t-81 397.5zM330 244h1388v104h-69v74h-84v563h84v131l-625 357l-625 -357v-131h82 v-563h-82v-74h-69v-104zM598 422v489h207v-489h-207zM694 1116l328 182l332 -182h-660zM920 422v489h206v-489h-206zM1243 422v489h207v-489h-207z" />
<glyph unicode="&#xe502;" horiz-adv-x="1957" d="M0 137v555h1958v-555q0 -57 -39.5 -97t-93.5 -40h-1688q-57 0 -97 40t-40 97zM0 922v86q0 57 40 96t97 39h1688q55 0 94 -39.5t39 -95.5v-86h-1958zM301 264h813v78h-813v-78z" />
<glyph unicode="&#xe503;" d="M0 731q0 208 81 397.5t218.5 327t327 218.5t397.5 81t397.5 -81t327 -218.5t218.5 -327t81 -397.5t-81 -397.5t-218.5 -327t-327 -218.5t-397.5 -81t-397.5 81t-327 218.5t-218.5 327t-81 397.5zM387 430q0 -37 26.5 -63.5t63.5 -26.5h1102q37 0 62.5 26.5t25.5 63.5v363 h-1280v-363zM387 942h1280v59q0 36 -26 62.5t-62 26.5h-1102q-37 0 -63.5 -27t-26.5 -62v-59zM584 514v49h532v-49h-532z" />
<glyph unicode="&#xe504;" horiz-adv-x="1267" d="M0 74v1462q0 31 21.5 52.5t52.5 21.5h776q25 0 51 -21l346 -348q21 -21 21 -51v-1116q0 -31 -20.5 -52.5t-51.5 -21.5h-1122q-31 0 -52.5 21.5t-21.5 52.5zM145 145h977v971h-272q-31 0 -52.5 21.5t-21.5 52.5v272h-631v-1317zM256 326v110h756v-110h-756zM256 578v108 h756v-108h-756zM274 1028q0 14 11 24.5t26 10.5q13 0 24 -10.5t11 -24.5q0 -6 6 -18q20 -17 49 -17q27 0 43.5 10.5t16.5 24.5q1 2 -6 16q-19 19 -52 19q-58 0 -100 39q-29 33 -29 67q0 36 27.5 64t69.5 37v41q0 12 10.5 21t24.5 11q14 0 24 -9.5t10 -22.5v-43q34 -8 52 -23 q40 -30 40 -78q0 -15 -10 -24.5t-24 -9.5q-15 0 -25 9.5t-10 24.5q2 9 -12 23q-21 14 -48 14q-24 0 -39.5 -11.5t-15.5 -25.5q-2 -8 6 -16q18 -18 49 -18q61 0 101 -37q26 -32 26 -70q0 -35 -25 -62t-67 -38v-39q0 -15 -11 -25t-26 -10q-13 0 -23.5 10.5t-10.5 24.5l2 41 q-35 5 -66 33q-29 32 -29 67zM684 829v109h328v-109h-328z" />
<glyph unicode="&#xe505;" d="M0 731q0 208 81 397.5t218.5 327t327 218.5t397.5 81t397.5 -81t327 -218.5t218.5 -327t81 -397.5t-81 -397.5t-218.5 -327t-327 -218.5t-397.5 -81t-397.5 81t-327 218.5t-218.5 327t-81 397.5zM539 172q0 -23 16 -39t41 -16h856q23 0 40 16t17 39v801h-321 q-22 0 -36.5 15.5t-14.5 37.5v320h-541q-25 0 -41 -16.5t-16 -41.5v-1116zM705 932q0 14 9.5 23.5t22.5 9.5t23 -9.5t10 -23.5q0 -9 8 -17q13 -16 45 -16q23 0 39.5 11t16.5 22q0 7 -9 16q-17 17 -45 17q-58 0 -94 36q-26 26 -26 64q0 33 24.5 59t63.5 35v37q0 13 9.5 22 t22.5 11q13 0 24 -10.5t11 -22.5l-2 -39q25 -3 49 -20q37 -27 37 -74q0 -13 -10 -23t-23 -10t-21.5 10t-8.5 23q0 7 -13 20q-14 11 -43 15q-23 0 -39 -10.5t-16 -22.5t8 -16q16 -19 47 -19q59 0 93 -37q26 -26 26 -61q0 -34 -24 -60.5t-62 -35.5v-35q-2 -14 -12 -24.5 t-23 -10.5q-14 2 -23 12t-9 23v37q-41 11 -60 32q-26 23 -26 62zM735 365v84h578v-84h-578zM735 557v82h578v-82h-578zM1061 750v81h252v-81h-252zM1239 1077h242l-242 240v-240z" />
<glyph unicode="&#xe506;" horiz-adv-x="1759" d="M0 301v848q0 27 25 27h1710q10 0 17 -7t7 -20v-848q0 -10 -7.5 -18.5t-16.5 -8.5h-1710q-11 0 -18 8t-7 19zM583 -1q0 25 19 44q19 17 43 17t43 -17l27 -27q27 -26 58 -56.5t42 -41.5v205q0 25 17 43t42 18q26 0 45 -18t19 -43v-205q119 119 123 125q20 17 44.5 17 t43.5 -17q19 -19 19 -44t-19 -42l-229 -231q-19 -19 -44.5 -19t-44.5 19q-227 229 -229 229q-19 19 -19 44zM583 1463q0 25 19 42l229 232q17 19 43.5 19t45.5 -19q227 -228 229 -230q19 -19 19 -44t-19 -42q-19 -19 -43.5 -19t-44.5 19q0 1 -52.5 53t-72.5 70v-203 q0 -26 -18 -44.5t-44 -18.5q-25 0 -43 18.5t-18 44.5v203q-119 -119 -125 -123q-19 -19 -43 -19t-43 19q-19 17 -19 42zM707 639q-1 -50 35.5 -86.5t86.5 -46.5v-51q0 -21 13.5 -35t34.5 -14q19 0 32 13t13 32v55q54 11 89.5 47.5t35.5 83.5q0 49 -39 88q-45 51 -129 51 q-29 0 -53.5 11.5t-24.5 35.5q0 18 22.5 31.5t55.5 13.5q27 0 51 -11t24 -34q0 -19 13 -33t32 -14q20 0 34 14t14 33q0 50 -36.5 84.5t-86.5 48.5v52q0 19 -12.5 33t-32.5 14t-34 -14t-14 -33v-52q-54 -12 -89 -48.5t-35 -82.5q0 -52 38 -90q48 -51 134 -51q25 0 49 -12.5 t24 -34.5q0 -16 -21.5 -30.5t-53.5 -14.5q-28 0 -53 11.5t-25 33.5q0 20 -13 33.5t-32 13.5q-20 0 -33.5 -13t-13.5 -32z" />
<glyph unicode="&#xe507;" horiz-adv-x="2050" d="M2 735q1 209 83 398.5t219.5 326t327.5 216.5t398 79q209 -1 398.5 -83t325.5 -219.5t216.5 -327.5t79.5 -398t-83.5 -397.5t-220 -326t-327.5 -217t-399 -79.5q-139 1 -271.5 38.5t-244.5 104.5t-206 162t-159.5 207t-101.5 244.5t-35 271.5zM301 371q0 -21 21 -21h1409 q9 0 15.5 6t6.5 15v700q0 10 -6.5 16.5t-15.5 6.5h-1409q-21 0 -21 -23v-700zM784 121q0 -22 15 -35l188 -190q15 -14 37 -14t35 14l190 190q13 14 13 35.5t-13 36.5q-15 14 -35.5 14t-35.5 -14l-103 -103v168q0 21 -15 36t-36 15q-22 0 -36.5 -14.5t-14.5 -36.5v-168 q-15 13 -59 57t-44 46q-15 14 -36.5 14t-34.5 -14q-15 -15 -15 -37zM784 1331.5q0 -20.5 13 -35.5q15 -15 36.5 -15t36.5 15l103 103v-170q0 -20 14.5 -34.5t36.5 -14.5q20 0 34.5 14.5t14.5 34.5v170q10 -8 36 -34t47 -47.5t22 -21.5q15 -15 35.5 -15t35.5 15q13 15 13 36 t-13 36l-190 191q-13 13 -36 13t-36 -13q-184 -187 -190 -193q-13 -14 -13 -34.5zM885 651q0 15 11 26t26 11q16 0 27.5 -11t11.5 -28q0 -18 20 -27.5t43 -9.5q26 0 44.5 12t18.5 25q0 18 -20 28.5t-41 10.5q-73 0 -108 41q-33 29 -33 76q0 36 29.5 66.5t72.5 41.5v43 q0 15 12 26t27 11q17 0 28 -11t11 -28v-43q41 -10 70.5 -38.5t29.5 -69.5q0 -16 -11 -27.5t-28 -11.5q-15 0 -27 12t-12 27q0 19 -19.5 28t-41.5 9q-27 0 -46 -11.5t-19 -25.5q0 -20 20.5 -29.5t44.5 -9.5q66 0 107 -41q30 -33 30 -74q0 -39 -28.5 -69t-73.5 -41v-43 q0 -15 -11 -26t-26 -11q-17 0 -29 11t-12 28v41q-40 10 -69.5 41t-28.5 71z" />
<glyph unicode="&#xe508;" horiz-adv-x="1607" d="M0 -229v1773q0 27 18 46.5t45 19.5q25 0 44.5 -20t19.5 -46v-90h1374q25 0 45.5 -19.5t20.5 -45.5t-20.5 -44t-45.5 -18h-121v-113h164q26 0 45 -19.5t19 -47.5v-762q0 -28 -19 -47t-45 -19h-1282q-26 0 -43.5 19t-17.5 47v762q0 28 17.5 47.5t43.5 19.5h164v113h-299 v-1556q0 -27 -19.5 -45.5t-44.5 -18.5q-28 0 -45.5 18t-17.5 46zM332 643q39 -39 100 -39q47 0 84 26.5t37 74.5q0 60 -70 83q-71 19 -71 48q0 30 47 30q31 0 49 -18l45 51q-36 31 -94 31q-46 0 -81.5 -28t-35.5 -73q0 -33 18 -52t52 -32q3 -1 16.5 -4.5t20.5 -6.5t17 -8 t14.5 -11.5t4.5 -14.5q0 -16 -13 -25t-32 -9q-40 0 -61 30zM489 1214h828v113h-828v-113zM584 766q0 -74 46.5 -118t119.5 -44q75 0 121.5 44t46.5 118t-47 119t-121 45q-73 0 -119.5 -45t-46.5 -119zM653 766q0 41 28.5 70.5t68.5 29.5t69 -29.5t29 -70.5t-29 -70.5 t-69 -29.5t-68.5 29.5t-28.5 70.5zM967 612h192v62h-125v248h-67v-310zM1196 612h109q68 0 120 42t52 110q0 81 -48 119.5t-135 38.5h-98v-310zM1262 674v184h36q44 0 75.5 -22.5t31.5 -65.5q0 -44 -29.5 -69t-79.5 -27h-34z" />
<glyph unicode="&#xe509;" d="M0 731q0 167 51.5 323t146.5 282t220.5 221t281.5 146.5t322 51.5q209 0 399 -81t327.5 -218.5t218.5 -327t81 -397.5t-81 -397.5t-218.5 -327t-327.5 -218.5t-399 -81q-263 0 -514 139v1254h237v-92h-131q-20 0 -33.5 -17t-13.5 -39v-612q0 -22 13.5 -36.5t33.5 -14.5 h1031q21 0 36 15t15 36v612q0 22 -15.5 39t-35.5 17h-132v92h97q22 0 36.5 13t14.5 34q0 22 -14.5 37.5t-36.5 15.5h-1102v72q0 20 -15.5 35.5t-35.5 15.5q-23 0 -37 -15t-14 -36v-1356q-188 142 -297 356t-109 459zM672 547l39 47q15 -27 47 -27q14 0 25.5 7.5t11.5 19.5 q0 5 -2 9t-6.5 7.5t-8.5 6t-11 5t-11 3.5t-11.5 3t-9.5 3q-29 12 -43 26t-14 39q0 39 28.5 60.5t65.5 21.5q51 0 78 -24l-37 -41q-14 14 -41 14q-37 0 -37 -25q0 -18 58 -36q57 -20 57 -68q0 -37 -29.5 -59.5t-66.5 -22.5q-51 0 -82 31zM799 1008v92h663v-92h-663zM872 647 q0 59 38.5 95t97.5 36t96 -36t37 -95t-37 -95t-96 -36t-97.5 36t-38.5 95zM930 647q0 -34 23 -57t55 -23t54.5 23t22.5 57t-22.5 57t-54.5 23t-55 -23t-23 -57zM1182 522v250h53v-199h100v-51h-153zM1364 522v250h80q147 0 147 -127q0 -53 -41.5 -88t-95.5 -35h-90z M1417 573h29q40 2 63 22.5t23 55.5q0 34 -24 52t-58 18h-33v-148z" />
<glyph unicode="&#xe510;" horiz-adv-x="2447" d="M74 653v74q0 31 23 53.5t83 22.5h502q-65 -100 -74 -225h-428h-24.5t-26.5 4t-28.5 11t-18 22.5t-8.5 37.5zM180 367v57q0 76 107 76h321q9 -110 68 -211h-389q-107 0 -107 78zM180 958v58q0 12 6.5 27.5t32.5 32t68 16.5h1138q20 0 29 19t3 38.5t-23 19.5h-336 q-26 0 -45 8t-27.5 19t-13.5 22t-6 19v8v58q0 26 9.5 45.5t23 28.5t27 14t22.5 5l10 1h512q47 0 96.5 -18.5t88 -42.5t84.5 -69.5t72.5 -75t66.5 -85t52 -74.5t43 -67q8 -12 11 -17h291q32 -154 32 -297q0 -218 -75 -440h-248q-60 -92 -181 -150.5t-294 -58.5h-1153 q-4 0 -10 0.5t-22 4t-28 10.5t-22 23t-11 38v57q0 3 0.5 8t6 18.5t14 23.5t27.5 18t45 8h239q70 -74 162.5 -116t198.5 -42q201 0 344 144t143 346t-143 344.5t-344 142.5q-102 0 -192.5 -39t-158.5 -108h-458q-111 0 -107 75zM918 446q0 19 13.5 33.5t33.5 14.5t34.5 -15 t14.5 -35q0 -44 82 -49q34 0 57 15t23 34q0 24 -26 37t-54 13q-91 0 -138 53q-40 37 -40 96q0 47 37 86t94 51v56q0 20 13.5 33.5t35.5 13.5t35.5 -13.5t13.5 -35.5v-54q53 -16 91 -52t38 -89q0 -20 -14.5 -33.5t-36.5 -13.5q-20 0 -33.5 14t-13.5 33q0 44 -82 49 q-34 0 -57 -15t-23 -34q0 -24 25.5 -35.5t54.5 -11.5q84 0 139 -55q39 -42 39 -93t-36.5 -89t-94.5 -52v-55q0 -20 -14 -34.5t-33 -14.5q-22 0 -37 14.5t-15 36.5v53q-54 13 -91.5 51t-34.5 92z" />
<glyph unicode="&#xe511;" horiz-adv-x="2023" d="M0 731q0 208 81 397.5t218.5 327t327 218.5t397.5 81q180 0 346.5 -60.5t297 -166.5t223.5 -253t132 -317h-223q-2 3 -20 31t-26 40t-29.5 42.5t-35.5 47.5t-38.5 45t-43.5 44.5t-45.5 36.5t-50 31t-51.5 19t-55 8h-391q-3 0 -8 -0.5t-17 -4.5t-21.5 -10.5t-17.5 -21.5 t-8 -35v-45q0 -2 0.5 -6t4.5 -14t10.5 -17.5t21.5 -14t35 -6.5h258q13 0 17.5 -15t-2 -29.5t-21.5 -14.5h-873q-33 0 -53.5 -12.5t-25.5 -24.5t-5 -22v-43q0 -60 84 -60h350q109 115 269 115q155 0 263.5 -109.5t108.5 -265.5t-108.5 -265.5t-263.5 -109.5q-80 0 -151.5 32 t-123.5 89h-184q-32 0 -50 -14.5t-20 -28.5l-2 -14v-45q2 -26 20 -41t35 -17l17 -2h883q132 0 225.5 46t138.5 118h191q-68 -200 -210 -355.5t-339 -244t-418 -88.5q-208 0 -397.5 81t-327 218.5t-218.5 327t-81 397.5zM229 733q0 -59 82 -59h328q6 95 57 174h-385 q-82 0 -82 -60v-55zM309 512q3 -57 84 -57h299q-47 77 -53 159h-246q-84 0 -84 -59v-43zM874 573q0 -40 29 -68.5t72 -39.5l-2 -43q0 -15 12 -26t27 -11t26 11t11 26v43q45 9 72.5 38t27.5 68q0 49 -41.5 81t-93.5 32q-20 0 -41 10t-21 29q0 13 18 25t44 12q20 0 40.5 -9 t20.5 -28q0 -17 11 -28t28 -11q15 0 26 11t11 26q0 40 -28.5 68.5t-71.5 39.5v43q0 15 -10 26t-25 11q-18 0 -28.5 -10.5t-10.5 -26.5v-43q-43 -9 -71.5 -38.5t-28.5 -67.5q0 -42 30 -72q40 -43 105 -43q21 0 42 -9t21 -28q0 -13 -18.5 -24.5t-44.5 -11.5q-22 0 -41.5 9 t-20.5 29q0 15 -11 25t-26 12q-15 0 -27 -11t-12 -26z" />
<glyph unicode="&#xe512;" horiz-adv-x="1267" d="M0 74v1462q0 31 21 52.5t53 21.5h774q27 0 53 -21l346 -348q21 -21 21 -51v-1116q0 -31 -20.5 -52.5t-51.5 -21.5h-1122q-32 0 -53 21.5t-21 52.5zM145 145h977v971h-274q-29 0 -50.5 21.5t-21.5 52.5v272h-631v-1317zM248.5 641.5q5.5 32.5 32.5 52.5q26 20 57.5 15 t50.5 -31l103 -135l323 436q21 26 52.5 30.5t58.5 -16.5q26 -19 31 -50.5t-15 -57.5l-387 -523q-26 -32 -63 -32q-42 0 -64 32l-166 222q-19 25 -13.5 57.5z" />
<glyph unicode="&#xe513;" d="M0 731q0 208 81 397.5t218.5 327t327 218.5t397.5 81t397.5 -81t327 -218.5t218.5 -327t81 -397.5t-81 -397.5t-218.5 -327t-327 -218.5t-397.5 -81t-397.5 81t-327 218.5t-218.5 327t-81 397.5zM539 172q0 -23 17 -39t40 -16h856q23 0 40 16t17 39v803h-321 q-22 0 -36.5 15.5t-14.5 37.5v318h-541q-23 0 -40 -16t-17 -38v-1120zM730 607q4 25 24 38q20 15 44.5 12.5t39.5 -22.5l75 -105l248 334q13 20 39.5 23.5t46.5 -10.5q20 -15 23.5 -39.5t-10.5 -44.5l-297 -400q-17 -24 -50 -24q-28 0 -45 24l-127 170q-15 19 -11 44z M1239 1077h242l-242 240v-240z" />
<glyph unicode="&#xe514;" horiz-adv-x="2217" d="M0 31v1079q0 12 8.5 21.5t20.5 9.5l2160 2q9 0 19 -10.5t10 -22.5v-1079q0 -11 -10 -21t-19 -10h-2160q-11 0 -20 9.5t-9 21.5zM889 451q0 -59 51 -113q39 -42 104 -55v-70q0 -22 17.5 -38.5t40.5 -16.5q26 0 42.5 14.5t16.5 40.5v70q69 10 113.5 56.5t44.5 106.5 q0 62 -45 113q-64 64 -170 64q-61 0 -82 30q-12 12 -12 31q2 21 28 37t66 16q55 0 84 -26q16 -16 16 -29q0 -26 17 -42.5t39 -16.5q25 0 42 16.5t17 42.5q0 66 -45 111q-40 40 -107 57v63q0 24 -17 41t-44 17q-23 0 -40 -16t-17 -37v-68q-68 -14 -113 -61t-45 -105 q0 -57 49 -113q59 -65 164 -65q53 0 84 -31q12 -9 12 -29q0 -22 -28 -39.5t-70 -17.5q-49 0 -80 25q-12 16 -12 32q0 25 -18.5 42.5t-43.5 17.5q-24 0 -41.5 -16t-17.5 -39z" />
<glyph unicode="&#xe515;" horiz-adv-x="2050" d="M2 735q1 209 83 398.5t219.5 326t327.5 216.5t398 79t397.5 -83t326 -219.5t217 -327.5t79.5 -398t-83.5 -397.5t-220 -326t-327.5 -217t-399 -79.5q-139 1 -271.5 38.5t-244.5 104.5t-206 162t-159.5 207t-101.5 244.5t-35 271.5zM299 377q0 -9 5 -15t13 -6h1420 q7 0 12.5 6.5t5.5 14.5v708q0 8 -5.5 14.5t-12.5 6.5h-1420q-18 -4 -18 -21v-708zM885 651q0 15 11 26t26 11q17 0 28 -11t11 -26q0 -12 10 -22q17 -17 53 -17q26 0 44.5 12.5t18.5 26.5q0 11 -8 19q-18 18 -53 18q-68 0 -108 43q-33 29 -33 74q0 39 28.5 69t73.5 39v45 q0 15 12 26t27 11t27 -11t12 -26v-45q44 -10 70 -36q30 -30 30 -74q0 -15 -11 -26t-28 -11q-15 0 -25.5 11t-10.5 26q0 13 -11 20q-23 19 -53 19q-26 0 -44.5 -12t-18.5 -25q0 -9 8 -21q18 -18 55 -18q66 0 109 -43q30 -30 30 -74q0 -39 -29.5 -69t-74.5 -41v-43 q0 -15 -11 -26t-26 -11q-17 0 -28 11t-11 28v43q-42 9 -70 37q-30 30 -30 73z" />
<glyph unicode="&#xe516;" horiz-adv-x="1587" d="M0 645q0 153 56 293.5t152.5 245.5t230.5 173.5t284 82.5v174h-70q-29 0 -51 21.5t-22 50.5q0 28 22 48.5t51 20.5h283q27 0 46 -20.5t19 -48.5q0 -30 -19 -51t-46 -21h-74v-174q224 -20 414 -164l90 94q32 31 76 31t76 -31q31 -32 31 -75.5t-31 -75.5l-95 -91 q164 -225 164 -483q0 -161 -62.5 -308t-169 -253t-253.5 -168.5t-309 -62.5q-161 0 -308 62.5t-253 168.5t-169 253t-63 308zM162 645q0 -128 50 -245t134 -201.5t201 -134.5t246 -50q130 0 248 50t203 134.5t135.5 201.5t50.5 245q0 129 -50.5 247t-135.5 203.5t-203 136 t-248 50.5q-129 0 -246 -50.5t-201 -136t-134 -203.5t-50 -247zM555 526q0 28 16.5 45t44.5 17q26 0 44 -18.5t18 -43.5q0 -18 16 -30q33 -33 88 -33q44 0 74.5 19t32.5 42q0 6 -3 12.5t-8 12.5t-6 8q-29 29 -88 29q-107 3 -176 69q-53 50 -53 123q0 62 47.5 111.5 t120.5 64.5v72q0 25 18.5 43t44.5 18q25 0 43.5 -19t18.5 -46v-70q53 -9 94 -41q32 -25 51 -62t19 -75q0 -25 -18.5 -43t-43.5 -18t-43 18t-18 43q0 26 -27 39q-24 22 -78 25q-43 0 -73.5 -19.5t-30.5 -40.5q0 -15 16 -35q30 -30 88 -30q110 0 174 -70q52 -49 52 -119 q0 -65 -46 -114t-120 -64v-72q0 -25 -18.5 -43t-45.5 -18q-26 0 -44 18t-17 43v72q-66 15 -113 62q-51 48 -51 118z" />
<glyph unicode="&#xe517;" d="M0 731q0 208 81 397.5t218.5 327t327 218.5t397.5 81t397.5 -81t327 -218.5t218.5 -327t81 -397.5t-81 -397.5t-218.5 -327t-327 -218.5t-397.5 -81t-397.5 81t-327 218.5t-218.5 327t-81 397.5zM469 674q0 -113 44 -216.5t119 -178.5t178.5 -119.5t217.5 -44.5 q113 0 216 44.5t178 119.5t119 178.5t44 216.5q0 188 -115 338l64 65q23 22 23 52t-23 53q-22 22 -51.5 21.5t-52.5 -23.5l-66 -64q-129 98 -287 113v125h49q20 0 35 14.5t15 34.5q0 21 -14.5 35t-35.5 14h-198q-21 0 -35 -14t-14 -35q0 -20 14.5 -34.5t34.5 -14.5h49v-125 q-215 -19 -361.5 -178.5t-146.5 -376.5zM582 674q0 185 130 314.5t316 129.5q185 0 315 -130t130 -314q0 -185 -130.5 -316t-314.5 -131q-122 0 -224.5 60t-162 163t-59.5 224zM858 588q0 -48 37 -82q29 -34 80 -43v-51q-1 -17 11.5 -30t31.5 -13q18 0 30.5 12.5t12.5 30.5 v49q53 12 86 47t33 80q0 46 -35 84q-49 49 -125 49q-45 0 -62 20q-10 10 -10 23q0 16 21 30.5t51 14.5q32 0 57 -18q15 -15 15 -27q0 -19 13 -31t32 -12t31 12t12 31q0 59 -52 96q-26 20 -63 29v49q0 19 -12 32t-31 13t-32 -13t-13 -30v-49q-52 -12 -84.5 -47t-32.5 -80 q0 -46 35 -84q50 -47 125 -47q38 0 61 -23q11 -11 11 -22q0 -16 -21.5 -29.5t-52.5 -13.5q-40 0 -62 22q-10 10 -10 21q0 19 -12 32t-31 13q-18 0 -30.5 -13t-14.5 -32z" />
<glyph unicode="&#xe518;" horiz-adv-x="1148" d="M0 721q7 6 19 16.5t48 44.5t69.5 70.5t76.5 90t76 106.5q89 133 130.5 274.5t41.5 263.5q0 11 19.5 11t39.5 -6l19 -5v-901q-35 -9 -56.5 -33.5t-21.5 -56.5q0 -39 33.5 -66.5t78.5 -27.5q50 0 84.5 27t34.5 67q0 32 -22 56.5t-56 33.5v901q78 25 78 0q0 -123 40.5 -264 t127.5 -274q34 -53 76.5 -106t78.5 -91t67 -69t49 -47l18 -15l-246 -522h-655zM76 47h995v-192h-995v192z" />
<glyph unicode="&#xe519;" d="M0 733q0 166 51.5 322t146.5 281.5t221 220.5t282 146.5t323 51.5t323 -51.5t282 -146.5t221 -220.5t146.5 -281.5t51.5 -322q0 -209 -81 -399t-218.5 -327.5t-327 -218.5t-397.5 -81t-397.5 81t-327 218.5t-218.5 327.5t-81 399zM586 727l188 -399h500l188 399 q-14 12 -38 34t-82.5 88t-100.5 130q-66 102 -97.5 210t-31.5 200q0 15 -28 7l-29 -7v-687q25 -6 41 -25t16 -44q0 -29 -26.5 -51.5t-61.5 -22.5t-61.5 22.5t-26.5 51.5q0 25 16 44t41 25v687q-57 20 -57 0q0 -92 -31.5 -200t-97.5 -210q-42 -64 -97 -127t-90 -94zM643 66 h762v149h-762v-149z" />
<glyph unicode="&#xe520;" horiz-adv-x="1705" d="M0 156v1114q0 32 23 55t57 23h1548q32 0 55 -23t23 -55v-1114q0 -33 -22.5 -54.5t-55.5 -21.5h-602l-147 -211q-7 -14 -27 -14t-27 14l-143 211h-602q-34 0 -57 21.5t-23 54.5zM748 1012l34 -430q2 -26 20 -45.5t44 -22.5q29 -3 52 17t26 51l32 430q4 44 -28 79t-76 35 t-76 -35t-28 -79zM782 371q0 -31 20.5 -51.5t49.5 -20.5q30 0 51 21t21 51v12q0 29 -21.5 51.5t-50.5 22.5t-49.5 -22t-20.5 -52v-12z" />
<glyph unicode="&#xe521;" d="M0 731q0 208 81 397.5t218.5 327t327 218.5t397.5 81t397.5 -81t327 -218.5t218.5 -327t81 -397.5t-81 -397.5t-218.5 -327t-327 -218.5t-397.5 -81t-397.5 81t-327 218.5t-218.5 327t-81 397.5zM399 324q0 -26 16.5 -42t41.5 -16h442l105 -153q9 -13 20 -13t20 13 l109 153h440q25 0 41.5 16t16.5 42v815q0 25 -16.5 42t-41.5 17h-1136q-25 0 -41.5 -17t-16.5 -42v-815zM948 952q-3 31 19.5 57.5t54.5 26.5q35 0 59 -26.5t21 -57.5l-25 -317q-1 -23 -18 -37t-39 -12q-20 2 -34 15.5t-15 33.5zM971 479v10q0 22 15 38t38 16q22 0 37.5 -16 t15.5 -38v-10q0 -23 -15.5 -37t-37.5 -14q-23 0 -38 14t-15 37z" />
<glyph unicode="&#xe522;" horiz-adv-x="2072" d="M0 330v530h844q-56 -37 -72 -94.5t10 -103.5l64 -138h-557v-73h592l118 -250h-870q-53 0 -91 37.5t-38 91.5zM0 1079v88q0 54 38 91.5t91 37.5h1034q-45 -118 -121 -217h-1042zM918 725q19 16 50 45t108 115.5t132 169.5q88 136 130 278.5t42 261.5q0 12 19.5 12t38.5 -6 l20 -6v-903q-34 -9 -56 -33.5t-22 -56.5q0 -41 33.5 -69.5t81.5 -28.5t81.5 28.5t33.5 69.5q0 32 -21.5 56.5t-54.5 33.5v903q5 2 13 4t24.5 6t27.5 1.5t11 -11.5q0 -120 41 -262.5t129 -277.5q56 -83 129 -165.5t119 -123.5l45 -41l-248 -526h-660zM993 51h1002v-196h-1002 v196z" />
<glyph unicode="&#xe523;" d="M0 731q0 208 81 397.5t218.5 327t327 218.5t397.5 81t397.5 -81t327 -218.5t218.5 -327t81 -397.5t-81 -397.5t-218.5 -327t-327 -218.5t-397.5 -81t-397.5 81t-327 218.5t-218.5 327t-81 397.5zM287 430q0 -37 25.5 -62.5t62.5 -25.5h594l-82 172h-404v49h379l-43 92 q-17 33 -6 72t49 66h-575v-363zM287 942h710q48 64 82 148h-704q-37 0 -62.5 -26t-25.5 -63v-59zM911 700l170 -360h451l168 360q-13 11 -34.5 30.5t-74.5 78.5t-90 115q-117 181 -117 370q0 8 -13 8t-25 -4l-13 -4v-616q51 -18 51 -64q0 -28 -22.5 -46.5t-54.5 -18.5 q-33 0 -56.5 19t-23.5 46q0 47 53 64v616q-53 18 -53 0q0 -189 -117 -370q-36 -56 -86 -112t-82 -84zM965 104h682v136h-682v-136z" />
<glyph unicode="&#xe524;" horiz-adv-x="1955" d="M2 172v528q-1 95 57.5 155.5t116.5 66.5l160 415q57 148 221 148h840q164 0 221 -148l160 -415q60 -5 119 -65.5t59 -156.5v-528h-156v-168q0 -59 -30.5 -99t-73.5 -49.5t-86.5 0t-74 50t-30.5 98.5v168h-526h-528v-168q0 -37 -12.5 -67t-33.5 -48.5t-47.5 -29t-54 -10.5 t-54 10t-47.5 28.5t-33.5 49t-12.5 67.5v168h-154zM145 629q0 -69 47.5 -117.5t114.5 -48.5q68 0 115.5 48.5t46.5 117.5q0 70 -47 118t-115 48q-67 1 -114.5 -47t-47.5 -119zM342 928h1272l-121 325q-13 39 -34 60t-58 22h-846q-65 -3 -92 -82zM1483 629q1 -69 50 -117.5 t116 -48.5t114 48.5t47 117.5q0 71 -47 119t-114 47q-67 1 -116 -47t-50 -119z" />
<glyph unicode="&#xe525;" d="M0 731q0 208 81 397.5t218.5 327t327 218.5t397.5 81t397.5 -81t327 -218.5t218.5 -327t81 -397.5t-81 -397.5t-218.5 -327t-327 -218.5t-397.5 -81t-397.5 81t-327 218.5t-218.5 327t-81 397.5zM420 426h96v-104q0 -45 28.5 -70.5t62.5 -25.5t62.5 25.5t28.5 70.5v104 h652v-104q1 -36 19.5 -61t45.5 -30.5t53.5 0t45 30.5t18.5 61v104h96v326q0 59 -35.5 96t-72.5 43l-101 256q-33 90 -135 90h-520q-102 0 -135 -90l-101 -256q-37 -6 -72.5 -43t-35.5 -96v-326zM510 709q0 43 29.5 73.5t70.5 30.5t71 -30.5t30 -73.5t-30 -73t-71 -30 t-70.5 30t-29.5 73zM633 893l74 203q13 46 55 49h524q42 -3 55 -49l74 -203h-782zM1337 709q0 43 30 73.5t73 30.5q40 0 69 -30.5t29 -73.5t-29 -73t-69 -30q-43 0 -73 30t-30 73z" />
<glyph unicode="&#xe526;" horiz-adv-x="1935" d="M0 1001l967 484l968 -486l-966 -481l-396 197l467 233q21 11 29 34t-2 46q-12 22 -35.5 30t-48.5 -3l-512 -260q-11 -4 -22 -19zM340 553v213l98 -47l13 -336q-111 79 -111 170zM420 -205l24 316q3 22 19 35t39 10q20 -1 32.5 -13.5t14.5 -31.5l24 -316q0 -35 -19 -59 t-50 -27q-34 -2 -59 21.5t-25 64.5zM543 336l10 323l399 -200q8 -4 17 -4q6 0 14 4l619 311v-217q0 -57 -46 -111t-133 -96q-177 -91 -435.5 -93.5t-444.5 83.5z" />
<glyph unicode="&#xe527;" d="M0 731q0 208 81 397.5t218.5 327t327 218.5t397.5 81t397.5 -81t327 -218.5t218.5 -327t81 -397.5t-81 -397.5t-218.5 -327t-327 -218.5t-397.5 -81t-397.5 81t-327 218.5t-218.5 327t-81 397.5zM348 938l320 -162q5 8 16 15l365 184q18 8 34 2.5t25 -21.5q7 -17 0.5 -33 t-21.5 -24l-331 -166l282 -139l688 342l-688 346zM592 616q0 -62 80 -118l-10 237l-70 35v-154zM647 78q0 -29 18 -45.5t42 -16.5q22 3 35.5 20t13.5 42l-17 225q-4 29 -34 35q-15 0 -26.5 -10t-12.5 -25zM735 463q133 -60 316.5 -59t310.5 65q61 30 94 69t33 78v156 l-440 -223q-2 0 -5.5 -1t-5.5 -1q-6 0 -10 2l-287 145z" />
<glyph unicode="&#xe528;" horiz-adv-x="1916" d="M0 1016l291 170v338h209v-224l411 234q48 26 99 0l907 -518l-100 -180l-861 491l-856 -491zM242 0v842l714 397l721 -397v-842h-1435zM532 444h273v275h-273v-275zM1116 444h268v275h-268v-275z" />
<glyph unicode="&#xe529;" d="M0 731q0 208 81 397.5t218.5 327t327 218.5t397.5 81t397.5 -81t327 -218.5t218.5 -327t81 -397.5t-81 -397.5t-218.5 -327t-327 -218.5t-397.5 -81t-397.5 81t-327 218.5t-218.5 327t-81 397.5zM299 981l78 -133l647 369l649 -369l76 133l-686 391q-40 22 -76 0 l-311 -176v168h-152v-256zM483 215h1084v635l-543 299l-541 -299v-635zM702 553v203h205v-203h-205zM1141 553v203h207v-203h-207z" />
<glyph unicode="&#xe530;" horiz-adv-x="3217" d="M4.5 51q11.5 34 42.5 49l412 209l80 39q33 19 77 0l617 -313l336 174q-170 5 -318 98t-229 252q-58 118 -65 246.5t31.5 243t122 212t200.5 154.5q134 70 282 70q179 0 334.5 -95t237.5 -262q78 -161 65.5 -331.5t-108.5 -311.5l786 400l-244 80q-33 11 -49 42.5t-4 63.5 q10 34 42.5 50t66.5 5l436 -143q36 -9 53 -43t4 -66q-139 -432 -143 -442q-10 -34 -42.5 -49.5t-66.5 -3.5q-34 9 -50.5 41t-4.5 67l80 244l-1714 -866q-38 -19 -78 0l-616 311q-449 -227 -453 -229q-31 -15 -64.5 -4t-50.5 43q-17 31 -5.5 65zM1313.5 984 q-20.5 -66 7.5 -130q31 -64 104 -88q98 -32 199 18q19 8 41.5 13t47.5 0t36 -25q13 -29 -12 -59.5t-58 -48.5q-19 -9 -41 -14t-47.5 0t-36.5 26q-12 26 -37.5 34.5t-48.5 -3.5q-26 -12 -34.5 -38.5t2.5 -52.5q31 -61 100 -85.5t141 -6.5l31 -65q12 -25 37 -34t51 3 q25 12 34 38.5t-3 49.5l-33 68q62 48 83 115.5t-9 129.5q-25 52 -78 78t-112 23.5t-111 -29.5q-19 -9 -42.5 -14.5t-48.5 -0.5t-36 25q-11 23 8.5 55.5t60.5 51.5q18 9 40.5 14t48 0.5t36.5 -24.5q12 -25 37.5 -34t48.5 3q26 12 34.5 37.5t-3.5 50.5q-17 36 -51.5 61.5 t-79.5 34.5q-50 9 -109 -4l-30 66q-12 24 -35.5 32t-52.5 -2q-25 -12 -34 -37.5t3 -50.5l33 -65q-61 -50 -81.5 -116z" />
<glyph unicode="&#xe531;" d="M0 731q0 208 81 397.5t218.5 327t327 218.5t397.5 81t397.5 -81t327 -218.5t218.5 -327t81 -397.5t-81 -397.5t-218.5 -327t-327 -218.5t-397.5 -81q-310 0 -564.5 170t-375.5 445l276 139l361 -182q24 -13 45 0l1006 505q-46 -135 -48 -141q-8 -20 1.5 -38.5t29.5 -22.5 q20 -8 40 1t26 29l82 258q7 20 -2 37q-11 22 -31 25l-256 86q-21 6 -39.5 -4t-24.5 -31q-6 -19 3 -37t28 -24l145 -48l-460 -231q56 83 63.5 181.5t-37.5 193.5q-51 97 -142 153t-196 56q-91 0 -166 -41q-138 -68 -187 -214t20 -286q45 -93 132.5 -148.5t186.5 -58.5 l-197 -100l-360 184q-26 8 -45 0l-45 -22q-224 -115 -244 -125q-49 146 -49 315zM791.5 931.5q12.5 37.5 48.5 69.5l-19 39q-7 14 -2 29t19 23q18 5 31.5 0.5t19.5 -17.5l18 -39q41 10 84.5 -5t57.5 -50q6 -15 1 -30t-20 -21q-14 -7 -28.5 -2.5t-22.5 18.5q-5 12 -21 15 t-29.5 -0.5t-23.5 -8.5q-23 -10 -34.5 -29t-6.5 -32q14 -18 36 -17t38 11q45 26 100 14.5t78 -57.5q17 -36 5 -75t-48 -67l19 -38q8 -13 2 -30t-21 -24q-14 -6 -28.5 -0.5t-22.5 19.5l-16 39q-43 -11 -83.5 3t-58.5 50q-7 15 -2 30t19 21q13 8 28.5 3.5t22.5 -19.5 q6 -12 21 -15.5t29 0t26 9.5q18 8 32.5 26t6.5 35q-14 17 -35.5 16.5t-38.5 -10.5q-46 -25 -99.5 -14.5t-78.5 57.5q-16 36 -3.5 73.5z" />
<glyph unicode="&#xe532;" horiz-adv-x="1460" d="M0 102v412h1460v-412q0 -43 -29.5 -72.5t-70.5 -29.5h-1258q-43 0 -72.5 29.5t-29.5 72.5zM0 686v68q0 43 29.5 71.5t72.5 28.5h1258q42 0 71 -29t29 -71v-68h-1460zM225 199h606v53h-606v-53zM401 1425q0 26 19 45t45 19h203v203q0 26 18.5 44.5t44.5 18.5 q25 0 43.5 -18.5t18.5 -44.5v-203h204q26 0 45 -19t19 -45q0 -25 -19 -43t-45 -18h-204v-205q0 -26 -18.5 -44.5t-43.5 -18.5q-26 0 -44.5 18.5t-18.5 44.5v205h-203q-26 0 -45 18t-19 43z" />
<glyph unicode="&#xe533;" d="M0 778q0 208 81 397.5t218.5 327t327 218.5t397.5 81t397.5 -81t327 -218.5t218.5 -327t81 -397.5t-81 -397.5t-218.5 -327t-327 -218.5t-397.5 -81t-397.5 81t-327 218.5t-218.5 327t-81 397.5zM461 311q0 -32 23.5 -55t54.5 -23h970q32 0 55 23t23 55v318h-1126v-318z M461 764h1126v49q0 33 -22.5 55.5t-55.5 22.5h-970q-31 0 -54.5 -22.5t-23.5 -55.5v-49zM635 385v43h469v-43h-469zM770 1333q0 -20 14.5 -34.5t34.5 -14.5h158v-158q0 -22 13.5 -35t33.5 -12q20 -1 33.5 12t13.5 35v158h158q21 0 35 14t14 35q0 20 -13.5 33.5t-35.5 13.5 h-158v158q0 20 -13.5 34.5t-33.5 14.5t-33.5 -14.5t-13.5 -34.5v-158h-158q-20 0 -34.5 -13.5t-14.5 -33.5z" />
<glyph unicode="&#xe534;" horiz-adv-x="2519" d="M0 137v553h1233q-35 -196 40.5 -383.5t227.5 -306.5h-1368q-54 0 -93.5 40t-39.5 97zM0 920v86q0 58 39 97.5t94 39.5h1368q-120 -97 -186 -223h-1315zM299 262h811v78h-811v-78zM1378 575q0 115 45.5 220.5t122 181.5t182 121t220.5 45q116 0 222 -45t182 -121 t121.5 -181.5t45.5 -220.5q0 -156 -76.5 -288.5t-208 -209.5t-286.5 -77q-115 0 -220.5 45.5t-182 122.5t-122 183.5t-45.5 223.5zM1737 459q-3 -64 42 -109.5t109 -60.5v-66q0 -25 17.5 -42t42.5 -17q23 0 40 17t17 40v68q69 15 113.5 60.5t44.5 105.5q0 63 -49 112 q-64 64 -164 64q-36 0 -66.5 14.5t-30.5 44.5q0 22 28 38.5t69 16.5q34 0 65 -13.5t31 -41.5q0 -25 17 -42t40 -17q26 0 43 16.5t17 42.5q0 62 -44.5 104t-109.5 62v66q0 24 -16.5 40.5t-40.5 16.5q-26 0 -43 -16.5t-17 -38.5v-66q-69 -18 -112 -63t-43 -103q0 -64 47 -114 q61 -64 166 -64q33 0 63.5 -14.5t30.5 -44.5q0 -22 -27.5 -40t-68.5 -18q-34 0 -65.5 13.5t-31.5 44.5q0 26 -17 42.5t-42 16.5q-23 0 -39 -16t-16 -39z" />
<glyph unicode="&#xe535;" d="M0 731q0 208 81 397.5t218.5 327t327 218.5t397.5 81t397.5 -81t327 -218.5t218.5 -327t81 -397.5t-81 -397.5t-218.5 -327t-327 -218.5t-397.5 -81t-397.5 81t-327 218.5t-218.5 327t-81 397.5zM287 432q0 -37 25.5 -63.5t60.5 -26.5h899q-100 80 -149.5 203.5 t-26.5 251.5h-809v-365zM287 946h862q41 81 123 150h-899q-35 0 -60.5 -27t-25.5 -65v-58zM481 516v51h535v-51h-535zM1190 721q0 -155 111 -267t266 -112t265 111.5t110 267.5q0 155 -110 265t-265 110t-266 -110t-111 -265zM1425 645q0 15 11 26t26 11q16 0 27.5 -11 t11.5 -28q0 -37 66 -37q25 0 43 11.5t18 25.5q0 19 -20.5 29t-40.5 10q-71 0 -109 41q-33 33 -33 76q0 37 29.5 67t73.5 41v43q0 15 12 26t27 11q17 0 28 -11t11 -28v-41q41 -12 70.5 -41t29.5 -69q0 -17 -11 -28t-28 -11q-15 0 -26 12t-11 27q0 19 -20 28t-43 9 q-27 0 -46.5 -11.5t-19.5 -25.5q0 -21 20 -30t46 -9q65 0 108 -43q31 -31 31 -72t-28.5 -70.5t-75.5 -40.5v-43q0 -15 -10.5 -26.5t-24.5 -11.5q-18 0 -29.5 11t-11.5 27v43q-42 10 -72 40.5t-29 72.5z" />
<glyph unicode="&#xe536;" horiz-adv-x="2291" d="M0 684q0 194 130 337.5t319 162.5v104h-43q-20 0 -33 13t-13 34q0 19 13 30t33 11h182q16 0 29.5 -11.5t13.5 -29.5q0 -21 -13.5 -34t-29.5 -13h-49v-100q148 -15 262 -101l47 48q20 20 48 20t48 -20q22 -19 22 -48t-22 -49l-47 -47q107 -133 107 -307q0 -135 -68 -250.5 t-183 -183.5t-249 -68q-138 0 -254 68t-183 183.5t-67 250.5zM104 684q0 -162 116 -277.5t280 -115.5q165 0 279 115.5t114 277.5q0 164 -114 279.5t-279 115.5q-164 0 -280 -116t-116 -279zM453 684v258q0 22 14.5 36.5t36.5 14.5q21 0 36 -15t15 -36v-137l63 63 q12 15 32.5 15t37.5 -15q14 -14 14 -33t-14 -36l-149 -152q-12 -12 -35 -12q-15 0 -21 4q-30 10 -30 45zM1016 70v217q137 181 137 397q0 150 -63 279q36 53 36 124q0 100 -67 164q-23 23 -43 33v254q0 31 21.5 51.5t52.5 20.5h1128q31 0 52.5 -20.5t21.5 -51.5v-1468 q0 -29 -21.5 -49.5t-52.5 -20.5h-1128q-31 0 -52.5 20.5t-21.5 49.5zM1227 1040q-1 -49 35 -85.5t86 -47.5v-51q0 -20 12.5 -33.5t32.5 -13.5t33.5 13t13.5 32v53q55 12 89 47t34 82q0 49 -39 88q-49 52 -129 52q-28 0 -52 11.5t-24 35.5q0 17 22 30t54 13q28 0 51.5 -10.5 t23.5 -32.5q0 -19 13.5 -33t32.5 -14q20 0 33.5 13.5t13.5 33.5q0 49 -36 83t-85 46v51q0 20 -12.5 33.5t-32.5 13.5t-32.5 -13t-12.5 -32v-51q-56 -12 -90.5 -47.5t-34.5 -81.5q0 -54 39 -90q44 -50 129 -50q27 0 51 -12.5t24 -36.5q0 -16 -22 -29.5t-55 -13.5 q-29 0 -52.5 10t-23.5 33q0 22 -12.5 35.5t-32.5 13.5q-19 0 -32 -13t-13 -32zM1272 248h803v114h-803v-114zM1272 516h803v115h-803v-115zM1722 784h353v115h-353v-115zM1722 1038h353v119h-353v-119zM1722 1296h353v117h-353v-117z" />
<glyph unicode="&#xe537;" d="M0 731q0 208 81 397.5t218.5 327t327 218.5t397.5 81t397.5 -81t327 -218.5t218.5 -327t81 -397.5t-81 -397.5t-218.5 -327t-327 -218.5t-397.5 -81t-397.5 81t-327 218.5t-218.5 327t-81 397.5zM229 657q0 -131 92.5 -224t225.5 -93q129 0 221 93t92 224q0 114 -67 193 l30 31q13 11 13 29t-13 30q-12 12 -29.5 12t-29.5 -12l-31 -29q-75 56 -164 62v63h29q11 0 20 9t9 22q0 10 -9 17.5t-20 7.5h-113q-12 0 -20 -7t-8 -18q0 -13 8 -22t20 -9h29v-65q-119 -11 -202 -101.5t-83 -212.5zM297 657q0 103 72 175.5t176 72.5q103 0 175.5 -72.5 t72.5 -175.5t-72.5 -175t-175.5 -72q-104 0 -176 72t-72 175zM514 657q0 -21 21 -28q2 -2 12 -2q14 0 22 8l95 94q8 11 8 23t-8 20q-10 10 -24 10t-22 -10l-40 -39v86q0 12 -9.5 22.5t-21.5 10.5q-13 0 -23 -10.5t-10 -22.5v-162zM868 270q0 -20 13 -32.5t32 -12.5h713 q19 0 32 12.5t13 32.5v924q0 20 -13 32.5t-32 12.5h-713q-19 0 -32 -12.5t-13 -32.5v-160q2 -1 27 -20q43 -40 43 -103q0 -41 -25 -77q43 -82 43 -177q0 -136 -88 -249v-138zM1001 881q0 10 9 19t20 9q12 0 20.5 -9t8.5 -21q0 -14 15.5 -20.5t33.5 -6.5q20 0 33.5 8.5 t13.5 18.5q0 14 -15.5 22t-31.5 8q-54 0 -82 31q-25 25 -25 57q0 28 23 51t55 29v33q0 12 9 20.5t22 8.5q12 0 20.5 -8.5t8.5 -20.5v-33q31 -8 53 -29.5t22 -52.5q0 -12 -9 -20t-21 -8q-11 0 -20 8t-9 20q0 14 -15 20.5t-32 6.5q-21 0 -35 -8t-14 -19q0 -28 49 -28 q54 0 80 -33q24 -21 24 -55q0 -29 -21.5 -51.5t-53.5 -28.5v-35q0 -12 -8.5 -20.5t-20.5 -8.5q-13 0 -22 8.5t-9 20.5v35q-31 5 -53.5 27.5t-22.5 54.5zM1030 381v74h506v-74h-506zM1030 553v72h506v-72h-506zM1315 719v74h221v-74h-221zM1315 881v73h221v-73h-221z M1315 1042v74h221v-74h-221z" />
<glyph unicode="&#xe538;" horiz-adv-x="1718" d="M0 741q0 54 36 91.5t87 37.5q50 221 245.5 366t454.5 146q168 0 320 -65q11 8 30 21.5t70 46t93 55.5t84 37.5t59 5.5q10 -3 9 -15t-12 -24.5t-24.5 -34t-29 -44t-25 -55t-12 -67t9 -79t37.5 -91.5q45 -73 63 -110h152q31 0 51 -20.5t20 -51.5v-283q0 -28 -20.5 -48.5 t-50.5 -20.5l-152 -2q-66 -150 -184 -254l-17 -283h-237l-17 143q-91 -30 -215 -30q-116 0 -217 26l-16 -139h-225l-29 281q-164 133 -215 335q-52 3 -87.5 38.5t-35.5 86.5zM336 639h133v-53h63v53h39v55h-39v170h-77l-119 -168v-57zM401 694l66 105h2v-105h-68zM551 1182 q6 -21 26 -29.5t37 -3.5q113 45 209 45q95 0 201 -45q50 -10 66 35q6 19 -3 36t-28 25q-136 48 -236 51q-109 -3 -243 -53q-19 -8 -27 -24.5t-2 -36.5zM604 725q0 -67 29.5 -107t79.5 -40q110 0 110 147q0 75 -25.5 112t-84.5 37q-109 0 -109 -149zM668 727q0 41 11.5 67.5 t33.5 26.5q41 0 41 -94q0 -92 -41 -92q-22 0 -33.5 26.5t-11.5 65.5zM848 799l31 -47l53 43v-209h67v278h-59zM1065 586h68v129l104 -129h90l-131 153l125 125h-88l-100 -112v112h-68v-278z" />
<glyph unicode="&#xe539;" d="M0 731q0 208 81 397.5t218.5 327t327 218.5t397.5 81t397.5 -81t327 -218.5t218.5 -327t81 -397.5t-81 -397.5t-218.5 -327t-327 -218.5t-397.5 -81t-397.5 81t-327 218.5t-218.5 327t-81 397.5zM358 731q0 -39 28.5 -67.5t68.5 -30.5q38 -154 166 -260l22 -217h176 l12 108q73 -22 166 -22q92 0 168 22l13 -108h184l12 219q92 80 144 196l114 2q26 0 42 16t16 38l-2 217q0 26 -16 41.5t-40 15.5h-114q-12 25 -50 86q-23 41 -31.5 80t-3.5 67.5t15.5 55.5t24.5 44t23.5 33.5t13.5 23.5t-7 14q-20 11 -85 -21t-120 -70l-55 -38 q-114 51 -246 51q-201 -1 -352 -113.5t-190 -284.5q-40 0 -68.5 -29t-28.5 -69zM618 651v45l93 129h61v-133h29v-41h-29v-43h-49v43h-105zM670 692h53v82h-2zM784 1071q-5 14 2.5 27.5t22.5 19.5q101 39 188 39q79 0 183 -37q31 -17 24 -47q-13 -36 -51 -26q-78 32 -156 32 t-163 -32q-12 -5 -28 1t-22 23zM825 717q0 117 86 117t86 -117q0 -115 -86 -115q-38 0 -62 31.5t-24 83.5zM879 719q0 -72 32 -72q31 0 31 72t-31 72q-32 0 -32 -72zM1016 774l71 51h46v-217h-52v162l-43 -33zM1184 608v217h51v-88l80 88h65l-94 -98l100 -119h-67l-84 101 v-101h-51z" />
<glyph unicode="&#xe600;" horiz-adv-x="1142" d="M0 184v189q0 98 48.5 185.5t137 141.5t195.5 54h383q163 0 271 -113t108 -268v-189q0 -62 -26.5 -106.5t-72 -71t-120.5 -42t-155.5 -20.5t-193.5 -5q-95 0 -166 3.5t-139.5 13t-115 27t-82.5 44t-54 66t-18 91.5zM258 1165q0 132 92.5 226t224.5 94q130 0 221 -94 t91 -226q0 -131 -91 -224t-221 -93q-132 0 -224.5 93t-92.5 224z" />
<glyph unicode="&#xe601;" d="M0 731q0 208 81 397.5t218.5 327t327 218.5t397.5 81t397.5 -81t327 -218.5t218.5 -327t81 -397.5t-81 -397.5t-218.5 -327t-327 -218.5t-397.5 -81t-397.5 81t-327 218.5t-218.5 327t-81 397.5zM508 225q0 -48 16 -83.5t49 -59.5t74.5 -39.5t104 -24t126.5 -11.5t152 -3 q86 0 149 3t124.5 11.5t103 24t74 39.5t48 59.5t15.5 83.5v172q0 139 -98 242.5t-246 103.5h-346q-148 0 -247 -104t-99 -242v-172zM741 1116q0 -118 84.5 -202.5t204.5 -84.5q118 0 200.5 84.5t82.5 202.5q0 120 -82.5 205.5t-200.5 85.5q-120 0 -204.5 -85.5t-84.5 -205.5 z" />
<glyph unicode="&#xe602;" horiz-adv-x="1857" d="M0 1100q189 189 434.5 287t494.5 98t494.5 -98t434.5 -287l-146 -142q-159 160 -366.5 243t-417.5 83t-417.5 -83t-367.5 -243zM283 815q131 131 301.5 199.5t343.5 68.5t343.5 -68.5t301.5 -199.5l-143 -143q-137 136 -320 184t-365 0t-317 -184zM573 530 q97 97 227 131.5t260 0t228 -131.5l-141 -143q-89 91 -216.5 91t-213.5 -91zM780 145q0 62 44.5 105t105.5 43t104 -43t43 -105q0 -59 -43.5 -102t-103.5 -43t-105 43.5t-45 101.5z" />
<glyph unicode="&#xe603;" d="M0 731q0 208 81 397.5t218.5 327t327 218.5t397.5 81t397.5 -81t327 -218.5t218.5 -327t81 -397.5t-81 -397.5t-218.5 -327t-327 -218.5t-397.5 -81t-397.5 81t-327 218.5t-218.5 327t-81 397.5zM383 928l98 -99q110 110 253.5 167.5t289.5 57.5t289.5 -57.5 t253.5 -167.5l98 99q-174 173 -408 234.5t-467.5 0t-406.5 -234.5zM580 731l98 -100q95 93 221 126.5t252 0t219 -126.5l98 100q-121 120 -282.5 162.5t-323 0t-282.5 -162.5zM778 535l99 -99q61 60 148 60t149 -60l98 99q-103 101 -248 101t-246 -101zM924 268 q0 -41 29.5 -70.5t72.5 -29.5q40 0 70 29.5t30 70.5t-30 71t-70 30q-42 0 -72 -29.5t-30 -71.5z" />
<glyph unicode="&#xe604;" horiz-adv-x="1630" d="M0 920q0 153 76 283t206 206t283 76q154 0 284 -76t205.5 -206t75.5 -283q0 -169 -92 -314l559 -559q32 -32 32 -79t-32 -81q-34 -32 -80.5 -32t-78.5 32l-559 559q-152 -94 -314 -94q-153 0 -283 76t-206 207t-76 285zM137 920q0 -179 125 -305t303 -126t304 126 t126 305q0 178 -125.5 303t-304.5 125t-303.5 -125t-124.5 -303z" />
<glyph unicode="&#xe605;" d="M0 731q0 208 81 397.5t218.5 327t327 218.5t397.5 81t397.5 -81t327 -218.5t218.5 -327t81 -397.5t-81 -397.5t-218.5 -327t-327 -218.5t-397.5 -81t-397.5 81t-327 218.5t-218.5 327t-81 397.5zM358 944q0 -175 125 -300.5t301 -125.5q127 0 236 72l422 -422 q25 -25 60 -25t61 25q25 25 25 60t-25 61l-422 422q71 107 71 233q0 177 -125.5 302.5t-302.5 125.5t-301.5 -125.5t-124.5 -302.5zM461 944q0 135 94.5 229.5t228.5 94.5t229 -94.5t95 -229.5q0 -133 -95 -227t-229 -94t-228.5 94t-94.5 227z" />
<glyph unicode="&#xe606;" horiz-adv-x="1316" d="M0 729q0 105 73.5 178.5t178.5 73.5q97 0 164 -61l407 254q-10 20 -10 59q0 104 74.5 178t177.5 74q104 0 178 -74t74 -178q0 -103 -74 -177.5t-178 -74.5q-93 0 -164 61l-407 -249q10 -50 10 -64q0 -11 -10 -61l407 -250q69 63 164 63q104 0 178 -74t74 -178t-74 -178 t-178 -74q-103 0 -177.5 74t-74.5 178q0 37 10 60l-407 250q-71 -58 -164 -58q-104 0 -178 72.5t-74 175.5z" />
<glyph unicode="&#xe607;" d="M0 731q0 208 81 397.5t218.5 327t327 218.5t397.5 81t397.5 -81t327 -218.5t218.5 -327t81 -397.5t-81 -397.5t-218.5 -327t-327 -218.5t-397.5 -81t-397.5 81t-327 218.5t-218.5 327t-81 397.5zM526 731q0 -71 50 -120.5t120 -49.5q60 0 111 41l278 -170q-6 -21 -6 -43 q0 -69 50 -119.5t120 -50.5t120 50.5t50 119.5q0 72 -49.5 122t-120.5 50q-64 0 -110 -43l-277 170q6 42 6 43q0 5 -6 41l277 172q46 -43 110 -43q70 0 120 50.5t50 121.5t-49.5 120.5t-120.5 49.5t-120.5 -49.5t-49.5 -120.5q0 -22 6 -43l-278 -170q-51 41 -111 41 q-70 0 -120 -49.5t-50 -120.5z" />
<glyph unicode="&#xe608;" horiz-adv-x="1509" d="M0 1065q0 110 78 188l153 154q81 78 189 78t186 -78l207 -207q78 -78 78 -184q0 -110 -78 -191l-20 -16l38 -39l19 18q78 78 188 78q112 0 187 -78l207 -204q77 -77 77 -187q0 -108 -77 -188l-156 -156q-79 -76 -186 -76q-110 0 -189 76l-205 207q-78 78 -78 186 q0 111 78 189l19 18l-39 39l-17 -20q-79 -76 -188 -76q-106 0 -188 76l-205 207q-78 75 -78 186zM166 1065q0 -35 29 -72l204 -205q29 -28 72.5 -28t71.5 28l16 21l-94 94q-25 25 -25 59.5t25 57.5q23 25 57.5 25t57.5 -25l96 -96l20 18q29 32 29 74q0 37 -29 69l-204 207 q-32 29 -72 29q-41 0 -70 -29l-155 -155q-29 -29 -29 -72zM782 446q0 -38 31 -69l207 -207q28 -28 70.5 -28t68.5 28l156 156q28 28 28 71q0 42 -28 70l-207 205q-27 30 -70 30q-45 0 -69 -30l-21 -19q92 -90 94 -96q26 -23 26 -57.5t-26 -59.5q-23 -23 -56 -23t-58 23 l-97 97l-18 -19q-31 -31 -31 -72z" />
<glyph unicode="&#xe609;" d="M0 731q0 208 81 397.5t218.5 327t327 218.5t397.5 81t397.5 -81t327 -218.5t218.5 -327t81 -397.5t-81 -397.5t-218.5 -327t-327 -218.5t-397.5 -81t-397.5 81t-327 218.5t-218.5 327t-81 397.5zM449 944q0 -84 59 -143l158 -158q60 -57 143 -57t143 57l15 14l28 -28 l-14 -15q-59 -59 -59 -143q0 -82 59 -141l156 -158q59 -59 145 -59q82 0 141 59l119 119q60 63 60 143q0 81 -60 141l-158 158q-63 60 -143 60q-81 0 -141 -60l-17 -14l-28 29l14 14q59 59 59 143q0 85 -59 144l-156 157q-61 58 -143 58t-143 -58l-119 -119 q-59 -59 -59 -143zM575 944q0 30 23 53l119 119q27 23 53 23t53 -23l158 -158q23 -23 23 -53q0 -29 -23 -55l-14 -14l-74 75q-19 17 -44.5 17t-45.5 -17q-19 -20 -19 -45.5t19 -44.5l76 -73l-17 -15q-22 -22 -54 -22t-52 22l-158 158q-23 23 -23 53zM1047 471q0 30 22 55 l14 17q70 -72 74 -76q19 -19 45 -19t45 19t19 44.5t-19 45.5l-73 72l14 14q25 25 53 25q32 0 53 -25l158 -156q23 -23 23 -53q0 -32 -23 -55l-117 -119q-22 -22 -54 -22t-54 22l-158 160q-22 19 -22 51z" />
<glyph unicode="&#xe610;" horiz-adv-x="1484" d="M0 96v922q0 40 28 69t66 29h885l178 176h-285q-39 0 -67.5 29.5t-28.5 69.5q0 38 28 66t68 28h517q40 0 68 -28t28 -66v-519q0 -39 -28.5 -67.5t-67.5 -28.5t-68 29t-29 67v285l-176 -178v-883q0 -40 -29 -68t-69 -28h-924q-38 0 -66 28t-28 68zM190 193h732v593 q-295 -292 -295 -294q-29 -29 -69.5 -29t-68.5 29q-28 26 -28 66t28 69l297 297h-596v-731z" />
<glyph unicode="&#xe611;" d="M0 731q0 208 81 397.5t218.5 327t327 218.5t397.5 81t397.5 -81t327 -218.5t218.5 -327t81 -397.5t-81 -397.5t-218.5 -327t-327 -218.5t-397.5 -81t-397.5 81t-327 218.5t-218.5 327t-81 397.5zM432 215q0 -31 23 -52.5t55 -21.5h735q31 0 53.5 21.5t22.5 52.5v705 l141 141v-225q0 -32 22 -54t54 -22t55 22t23 54v409q0 32 -23 54t-55 22h-410q-32 0 -53.5 -22.5t-21.5 -53.5t21.5 -53.5t53.5 -22.5h226l-140 -141h-704q-32 0 -55 -22.5t-23 -53.5v-737zM586 293v581h475l-238 -237q-23 -22 -23 -53.5t23 -53.5q22 -23 54 -23t55 23 l237 238v-475h-583z" />
<glyph unicode="&#xe612;" horiz-adv-x="864" d="M0 547v371q0 44 30 73t74 29h297l394 393q20 20 45 10q24 -7 24 -39v-1302q0 -18 -11.5 -31.5t-29.5 -13.5q-12 0 -28 16l-394 389h-297q-43 0 -73.5 31.5t-30.5 73.5z" />
<glyph unicode="&#xe613;" horiz-adv-x="1232" d="M0 547v371q0 44 30 73t74 29h295h2l394 393q20 20 45 10q24 -7 24 -39v-1302q0 -18 -11.5 -31.5t-29.5 -13.5q-12 0 -28 16l-394 389h-2h-295q-43 0 -73.5 31.5t-30.5 73.5zM973 543q75 82 75 192.5t-75 188.5l125 125q88 -85 119 -200t0 -230.5t-119 -202.5z" />
<glyph unicode="&#xe614;" horiz-adv-x="1593" d="M0 547v371q0 44 30 73t74 29h295h2l394 393q20 20 45 10q24 -7 24 -39v-1302q0 -18 -11.5 -31.5t-29.5 -13.5q-12 0 -28 16l-394 389h-2h-295q-43 0 -73.5 31.5t-30.5 73.5zM973 543q75 82 75 192.5t-75 188.5l125 125q88 -85 119 -200t0 -230.5t-119 -202.5zM1225 287 q121 122 164 284.5t0 325t-164 283.5l129 127q157 -156 212.5 -365t0 -417.5t-212.5 -364.5z" />
<glyph unicode="&#xe615;" horiz-adv-x="1953" d="M0 547v371q0 44 30 73t74 29h295h2l394 393q20 20 45 10q24 -7 24 -39v-1302q0 -18 -11.5 -31.5t-29.5 -13.5q-12 0 -28 16l-394 389h-2h-295q-43 0 -73.5 31.5t-30.5 73.5zM973 543q75 82 75 192.5t-75 188.5l125 125q88 -85 119 -200t0 -230.5t-119 -202.5zM1225 287 q121 122 164 284.5t0 325t-164 283.5l129 127q157 -156 212.5 -365t0 -417.5t-212.5 -364.5zM1483 31q143 143 217 329t74 374t-74 374.5t-217 331.5l127 123q169 -169 257 -388.5t88 -441t-88 -441t-257 -388.5z" />
<glyph unicode="&#xe616;" d="M0 731q0 208 81 397.5t218.5 327t327 218.5t397.5 81t397.5 -81t327 -218.5t218.5 -327t81 -397.5t-81 -397.5t-218.5 -327t-327 -218.5t-397.5 -81t-397.5 81t-327 218.5t-218.5 327t-81 397.5zM219 588q0 -34 24 -58t56 -24h227q0 2 2 2l301 -303q12 -8 23 -8 q13 0 22 9t11 23v1004q0 21 -21 31q-20 6 -35 -9l-301 -301h-2h-227q-33 0 -56.5 -23.5t-23.5 -56.5v-286z" />
<glyph unicode="&#xe617;" d="M0 731q0 208 81 397.5t218.5 327t327 218.5t397.5 81t397.5 -81t327 -218.5t218.5 -327t81 -397.5t-81 -397.5t-218.5 -327t-327 -218.5t-397.5 -81t-397.5 81t-327 218.5t-218.5 327t-81 397.5zM219 588q0 -34 24 -58t56 -24h227q0 2 2 2l301 -303q12 -8 23 -8 q13 0 22 9t11 23v1004q0 21 -21 31q-20 6 -35 -9l-301 -301h-2h-227q-33 0 -56.5 -23.5t-23.5 -56.5v-286zM967 584l100 -99q100 101 100 246t-100 246l-100 -98q61 -61 61 -148t-61 -147z" />
<glyph unicode="&#xe618;" d="M0 731q0 208 81 397.5t218.5 327t327 218.5t397.5 81t397.5 -81t327 -218.5t218.5 -327t81 -397.5t-81 -397.5t-218.5 -327t-327 -218.5t-397.5 -81t-397.5 81t-327 218.5t-218.5 327t-81 397.5zM219 588q0 -34 24 -58t56 -24h227h2l301 -301q12 -8 23 -8q2 0 6 1t6 1 q21 7 21 30v1004q0 21 -21 31q-20 6 -35 -9l-301 -301h-2h-227q-33 0 -56.5 -23.5t-23.5 -56.5v-286zM967 584l100 -99q100 101 100 246t-100 246l-100 -98q61 -61 61 -148t-61 -147zM1163 387l99 -98q120 120 162.5 281.5t0 323t-162.5 282.5l-99 -99q93 -95 126.5 -220.5 t0 -251t-126.5 -218.5z" />
<glyph unicode="&#xe619;" d="M0 731q0 208 81 397.5t218.5 327t327 218.5t397.5 81t397.5 -81t327 -218.5t218.5 -327t81 -397.5t-81 -397.5t-218.5 -327t-327 -218.5t-397.5 -81t-397.5 81t-327 218.5t-218.5 327t-81 397.5zM219 586q0 -32 24 -56t56 -24h227h2l301 -301q8 -8 23 -8q13 0 22 8t11 22 v1006q0 22 -21 29q-16 8 -35 -7l-301 -301h-2h-227q-33 0 -56.5 -23.5t-23.5 -56.5v-288zM967 584l100 -101q100 101 100 247t-100 247l-100 -98q61 -61 61 -148t-61 -147zM1163 387l99 -98q120 120 162.5 281.5t0 322.5t-162.5 281l-99 -99q93 -93 126.5 -219t0 -251.5 t-126.5 -217.5zM1360 190l98 -98q173 173 234.5 406t0 466.5t-234.5 407.5l-98 -98q110 -111 167.5 -254.5t57.5 -289t-57.5 -288.5t-167.5 -252z" />
<glyph unicode="&#xe620;" horiz-adv-x="1576" d="M0 883q0 45 31 77t84 39l389 58l172 350q40 78 110 78q73 0 115 -80l170 -348l387 -58q54 -7 86.5 -39.5t32.5 -76.5q0 -49 -47 -99l-281 -272l72 -416q0 -76 -61.5 -106.5t-131.5 8.5l-342 178l-346 -180q-33 -21 -68.5 -17.5t-64 20.5t-43 51t-6.5 73q0 3 68 389 q-113 111 -183.5 179.5t-84.5 81.5l-15 13q-43 43 -43 97z" />
<glyph unicode="&#xe621;" d="M0 731q0 208 81 397.5t218.5 327t327 218.5t397.5 81t397.5 -81t327 -218.5t218.5 -327t81 -397.5t-81 -397.5t-218.5 -327t-327 -218.5t-397.5 -81t-397.5 81t-327 218.5t-218.5 327t-81 397.5zM356 860q0 -36 35 -80q2 0 242 -233l-60 -328q-12 -69 43 -105.5t113 -2.5 l293 151l291 -151q62 -33 115.5 -5t44.5 89l-58 352l238 231q39 39 39 82q0 38 -27.5 66.5t-71.5 34.5l-327 47l-148 295q-15 32 -40.5 49.5t-55.5 17.5q-28 0 -53.5 -17.5t-40.5 -47.5l-146 -297l-329 -47q-44 -6 -70.5 -34t-26.5 -67z" />
<glyph unicode="&#xe622;" horiz-adv-x="1574" d="M0 883q0 45 30.5 77t82.5 41l391 56l170 350q19 36 49 57t63 21q71 0 115 -80l170 -348l387 -56q54 -9 85.5 -41t31.5 -77q0 -49 -45 -97l-281 -272l68 -416q0 -76 -58.5 -107t-130.5 7l-342 178l-346 -178q-47 -23 -91.5 -14.5t-72.5 48.5t-18 91q0 5 68 391l-283 274 q-43 43 -43 95zM203 852l260 -256q31 -25 24 -68l-61 -362l326 172q39 17 69 0l326 -172l-60 362q-7 42 23 68l262 256l-362 55q-19 1 -35.5 13.5t-24.5 29.5l-164 330l-163 -330q-8 -18 -24 -30t-34 -13z" />
<glyph unicode="&#xe623;" d="M0 731q0 208 81 397.5t218.5 327t327 218.5t397.5 81t397.5 -81t327 -218.5t218.5 -327t81 -397.5t-81 -397.5t-218.5 -327t-327 -218.5t-397.5 -81t-397.5 81t-327 218.5t-218.5 327t-81 397.5zM356 860q0 -36 35 -80q2 0 242 -233l-60 -328q-12 -69 43 -105.5t113 -2.5 l293 151l291 -151q62 -33 115.5 -5t44.5 89l-58 352l238 231q39 39 39 82q0 38 -27.5 66.5t-71.5 34.5l-327 47l-148 295q-15 32 -40.5 49.5t-55.5 17.5q-28 0 -53.5 -17.5t-40.5 -47.5l-146 -297l-329 -47q-44 -6 -70.5 -34t-26.5 -67zM528 834l306 47q32 3 51 37l137 278 l139 -278q19 -34 51 -37l308 -47l-224 -216q-21 -21 -18 -59l51 -305l-276 143q-12 7 -29 7t-31 -7l-276 -143l53 305q3 39 -20 59z" />
<glyph unicode="&#xe624;" horiz-adv-x="1024" d="M0 -80v1522q0 17 12 30t29 13h940q18 0 30.5 -12.5t12.5 -30.5v-1522q0 -26 -26 -36.5t-48 10.5l-438 438l-438 -441q-22 -20 -48 -9t-26 38z" />
<glyph unicode="&#xe625;" d="M0 731q0 208 81 397.5t218.5 327t327 218.5t397.5 81t397.5 -81t327 -218.5t218.5 -327t81 -397.5t-81 -397.5t-218.5 -327t-327 -218.5t-397.5 -81t-397.5 81t-327 218.5t-218.5 327t-81 397.5zM621 133q0 -22 21 -29.5t36 7.5l348 346l344 -346q17 -15 37 -7.5t20 29.5 v1198q0 15 -9 24t-23 9h-742q-13 0 -22.5 -9.5t-9.5 -23.5v-1198z" />
<glyph unicode="&#xe626;" horiz-adv-x="1054" d="M0 -41v1444q0 32 24 57t56 25h893q33 0 57.5 -24.5t24.5 -57.5v-1444q0 -55 -49.5 -76t-87.5 17l-390 391l-393 -391q-38 -38 -86.5 -16.5t-48.5 75.5zM160 152l311 309q21 24 57 24q32 0 56 -24l309 -309v1171h-733v-1171z" />
<glyph unicode="&#xe627;" d="M0 731q0 208 81 397.5t218.5 327t327 218.5t397.5 81t397.5 -81t327 -218.5t218.5 -327t81 -397.5t-81 -397.5t-218.5 -327t-327 -218.5t-397.5 -81t-397.5 81t-327 218.5t-218.5 327t-81 397.5zM588 135q0 -45 40 -63t74 14l324 324l322 -324q32 -32 72 -14t40 63v1196 q0 28 -18.5 47t-46.5 19h-740q-29 0 -48 -19t-19 -47v-1196zM721 293v971h608v-971l-256 256q-20 20 -47 20q-30 0 -47 -20z" />
<glyph unicode="&#xe628;" horiz-adv-x="1755" d="M0 606v254q0 14 10 27t23 16l209 31q10 31 45 104q-21 29 -62 82.5t-59 77.5q-12 15 -13 26t11 25q33 44 113 125.5t106 81.5q18 0 33 -12l159 -121q38 22 101 45q17 142 33 209q7 33 43 33h254q35 0 41 -37l32 -205q61 -24 101 -43l163 121q31 21 54 -2 q124 -100 190 -195q18 -25 0 -49q-22 -34 -67.5 -94t-49.5 -66q35 -77 43 -110l209 -31q13 -4 23 -16.5t10 -24.5v-256q0 -13 -10 -25.5t-23 -13.5l-209 -33q-15 -50 -43 -102q15 -22 56 -77t63 -87q22 -28 4 -51q-36 -47 -116 -127t-105 -80q-21 0 -31 10l-159 123 q-68 -33 -103 -43q-19 -154 -32 -209q-10 -32 -41 -32h-254q-39 0 -43 32l-31 209q-49 15 -103 41l-163 -121q-28 -21 -54 2q-137 118 -190 195q-17 28 0 51q22 32 63.5 85.5t55.5 72.5q-41 89 -47 110l-207 33q-13 3 -23 15t-10 26zM586 731q0 -121 85.5 -207t205.5 -86 q121 0 206.5 85.5t85.5 207.5t-85.5 208.5t-206.5 86.5q-120 0 -205.5 -86.5t-85.5 -208.5z" />
<glyph unicode="&#xe629;" d="M0 731q0 208 81 397.5t218.5 327t327 218.5t397.5 81t397.5 -81t327 -218.5t218.5 -327t81 -397.5t-81 -397.5t-218.5 -327t-327 -218.5t-397.5 -81t-397.5 81t-327 218.5t-218.5 327t-81 397.5zM358 637q0 -11 7.5 -20.5t17.5 -10.5l160 -26q3 -11 32 -82 q-15 -21 -46 -61.5t-44 -59.5q-13 -20 0 -37q38 -55 144 -147q21 -18 43 -3l123 91q11 -4 37 -15.5t40 -15.5l23 -158q3 -11 12 -18.5t21 -7.5h192q24 0 31 26q14 50 27 158q8 2 77 33l121 -93q8 -8 25 -8q19 0 77.5 60t88.5 98q14 14 -2 39q-71 95 -92 123q26 46 34 78 l158 24q10 1 17.5 11t7.5 20v192q0 22 -25 33l-158 23q-6 25 -34 84q3 4 38 48.5t52 71.5q16 19 0 39q-41 60 -144 146q-18 18 -41 2l-125 -90q-8 3 -24 9.5t-28.5 11.5l-22.5 9l-27 158q-4 25 -31 25h-192q-26 0 -33 -25q-10 -51 -23 -158q-35 -10 -77 -34l-121 92 q-13 10 -23 10q-20 0 -79.5 -59.5t-88.5 -96.5q-18 -21 2 -41q15 -20 45 -59.5t45 -60.5q-26 -59 -32 -80l-160 -23q-10 -1 -17.5 -11.5t-7.5 -21.5v-192zM803 731q0 93 64.5 159t156.5 66t156.5 -66t64.5 -159q0 -92 -64.5 -156.5t-156.5 -64.5t-156.5 64.5t-64.5 156.5z " />
<glyph unicode="&#xe630;" horiz-adv-x="2054" d="M0 154q0 64 44.5 108.5t109.5 44.5h1749q65 0 108 -44t43 -109q0 -64 -43 -109t-108 -45h-1749q-64 0 -109 45.5t-45 108.5zM0 731q0 66 44.5 110t109.5 44h1749q66 0 108.5 -44t42.5 -110q0 -65 -43 -109t-108 -44h-1749q-65 0 -109.5 44.5t-44.5 108.5zM0 1309 q0 64 44.5 108.5t109.5 44.5h1749q65 0 108 -44t43 -109t-42.5 -108.5t-108.5 -43.5h-1749q-65 0 -109.5 44t-44.5 108z" />
<glyph unicode="&#xe631;" d="M0 731q0 208 81 397.5t218.5 327t327 218.5t397.5 81t397.5 -81t327 -218.5t218.5 -327t81 -397.5t-81 -397.5t-218.5 -327t-327 -218.5t-397.5 -81t-397.5 81t-327 218.5t-218.5 327t-81 397.5zM358 358q0 -41 30 -70.5t71 -29.5h1130q41 0 71 29.5t30 70.5 q0 40 -30 69.5t-71 29.5h-1130q-41 0 -71 -29.5t-30 -69.5zM358 731q0 -41 29.5 -69.5t71.5 -28.5h1130q42 0 71.5 28.5t29.5 69.5t-30 70.5t-71 29.5h-1130q-41 0 -71 -29.5t-30 -70.5zM358 1106q0 -41 29.5 -69.5t71.5 -28.5h1130q42 0 71.5 28.5t29.5 69.5t-30 70.5 t-71 29.5h-1130q-41 0 -71 -29.5t-30 -70.5z" />
<glyph unicode="&#xe632;" horiz-adv-x="1210" d="M0 217v522q0 82 52 141.5t130 71.5v144q0 174 124 299t298 125q176 0 300 -125t124 -299v-144q78 -12 130 -71.5t52 -141.5v-522q0 -91 -63 -154t-154 -63h-776q-92 0 -154.5 63t-62.5 154zM338 956h534v140q0 112 -78 190t-190 78q-111 0 -188.5 -78t-77.5 -190v-140z M475 588q0 -42 24 -75t64 -48v-221q0 -17 13 -30t28 -13q19 0 32 13t13 30v221q37 16 61.5 49t24.5 74q0 55 -38.5 93t-92.5 38q-53 0 -91 -38t-38 -93z" />
<glyph unicode="&#xe633;" d="M0 731q0 208 81 397.5t218.5 327t327 218.5t397.5 81t397.5 -81t327 -218.5t218.5 -327t81 -397.5t-81 -397.5t-218.5 -327t-327 -218.5t-397.5 -81t-397.5 81t-327 218.5t-218.5 327t-81 397.5zM541 299q0 -72 50.5 -123t121.5 -51h622q71 0 121.5 51t50.5 123v418 q0 64 -41.5 112.5t-103.5 57.5v114q0 138 -99.5 237t-238.5 99t-238.5 -99t-99.5 -237v-114q-62 -9 -103.5 -57.5t-41.5 -112.5v-418zM809 891v110q0 88 63 152t152 64t152 -64t63 -152v-110h-430zM920 596q0 43 30.5 73.5t73.5 30.5t73.5 -30.5t30.5 -73.5q0 -33 -19.5 -60 t-49.5 -38v-179q0 -15 -10.5 -24.5t-24.5 -9.5t-24.5 9.5t-10.5 24.5v179q-30 11 -49.5 38t-19.5 60z" />
<glyph unicode="&#xe634;" horiz-adv-x="1210" d="M0 217v522q0 71 42.5 128t109.5 81l-37 113q-50 172 28 319q83 156 250 209q165 51 320 -26q76 -39 130.5 -103.5t80.5 -144.5q10 -30 -6.5 -58.5t-47.5 -37.5q-30 -10 -56.5 3.5t-37.5 43.5q-38 107 -133 157q-99 55 -203 19q-105 -29 -159 -129q-53 -98 -17 -205 l49 -152h680q88 0 152.5 -64t64.5 -153v-522q0 -91 -64 -154t-153 -63h-776q-91 0 -154 62.5t-63 154.5zM475 588q0 -44 24 -77.5t64 -45.5v-223q0 -17 13 -29t30 -12t29 12t12 29v223q38 12 62 46t24 77q0 51 -37.5 89t-89.5 38q-55 0 -93 -37.5t-38 -89.5z" />
<glyph unicode="&#xe635;" d="M0 731q0 208 81 397.5t218.5 327t327 218.5t397.5 81t397.5 -81t327 -218.5t218.5 -327t81 -397.5t-81 -397.5t-218.5 -327t-327 -218.5t-397.5 -81t-397.5 81t-327 218.5t-218.5 327t-81 397.5zM541 260q0 -70 50.5 -121t121.5 -51h622q71 0 121.5 51t50.5 121v420 q0 70 -50.5 121t-121.5 51h-544l-39 121q-29 88 14 164q42 79 125 106q89 26 164 -14q81 -43 106 -125q8 -26 29.5 -38t46.5 -3q24 6 36.5 29t4.5 47q-20 65 -63 116t-103 82q-122 66 -258 23q-132 -41 -199 -166q-65 -126 -20 -258l29 -92q-54 -15 -88.5 -60.5 t-34.5 -103.5v-420zM920 557q0 43 30.5 74t73.5 31t73.5 -31t30.5 -74q0 -32 -19.5 -58.5t-49.5 -37.5v-178q0 -15 -10.5 -25t-24.5 -10t-24.5 10t-10.5 25v178q-30 11 -49.5 37.5t-19.5 58.5z" />
<glyph unicode="&#xe636;" horiz-adv-x="1632" d="M0 793q0 222 109.5 410t297 297.5t408.5 109.5q111 0 217 -29.5t195.5 -82t165 -128t128 -165t82 -195.5t29.5 -217q0 -166 -64.5 -317t-174 -260.5t-261 -174t-317.5 -64.5q-165 0 -316 64.5t-260.5 174t-174 260.5t-64.5 317zM172 793q0 -174 86.5 -322t234.5 -234.5 t322 -86.5q130 0 249.5 51t206 137.5t138 205.5t51.5 249q0 174 -87 322.5t-235.5 235.5t-322.5 87q-130 0 -249 -51.5t-205.5 -138t-137.5 -206t-51 -249.5zM752 700v535q0 27 18 45t45 18t45.5 -18t18.5 -45v-381l157 158q19 19 46 19t46 -19t19 -45.5t-19 -46.5 l-268 -267q-18 -18 -45 -18q-25 0 -43.5 18.5t-19.5 46.5z" />
<glyph unicode="&#xe637;" d="M0 731q0 208 81 397.5t218.5 327t327 218.5t397.5 81t397.5 -81t327 -218.5t218.5 -327t81 -397.5t-81 -397.5t-218.5 -327t-327 -218.5t-397.5 -81t-397.5 81t-327 218.5t-218.5 327t-81 397.5zM410 731q0 -166 82 -307.5t223.5 -224t308.5 -82.5q166 0 307.5 82.5 t224 224t82.5 307.5q0 125 -49 239t-131 196.5t-195.5 131t-238.5 48.5t-239 -48.5t-196 -131t-130.5 -196.5t-48.5 -239zM539 731q0 132 65 244t176.5 177t243.5 65t243.5 -65t176.5 -177t65 -244q0 -131 -65 -242t-176.5 -176t-243.5 -65t-243.5 65t-176.5 176t-65 242z M973 662q0 -20 14.5 -35t34.5 -15q23 0 35 15l203 200q14 15 14 36t-14 34q-15 13 -35.5 13t-34.5 -13l-119 -121v289q0 20 -14.5 34.5t-34.5 14.5t-34.5 -14.5t-14.5 -34.5v-403z" />
<glyph unicode="&#xe638;" horiz-adv-x="1638" d="M0 -23v1633h127v-1508h1505v-125h-1632zM252 229v920h252v-920h-252zM631 229v1381h252v-1381h-252zM1008 229v920h254v-920h-254zM1384 229v457h254v-457h-254z" />
<glyph unicode="&#xe639;" d="M0 731q0 208 81 397.5t218.5 327t327 218.5t397.5 81t397.5 -81t327 -218.5t218.5 -327t81 -397.5t-81 -397.5t-218.5 -327t-327 -218.5t-397.5 -81t-397.5 81t-327 218.5t-218.5 327t-81 397.5zM442 121h1174v90h-1084v1081h-90v-1171zM623 301h182v662h-182v-662z M895 301h180v991h-180v-991zM1167 301h181v662h-181v-662zM1440 301h180v332h-180v-332z" />
<glyph unicode="&#xe640;" horiz-adv-x="1302" d="M0 94v1278q0 76 47 102t113 -14l1081 -690q64 -41 62 -96.5t-70 -95.5l-1069 -580q-68 -38 -116 -9.5t-48 105.5z" />
<glyph unicode="&#xe641;" d="M0 731q0 208 81 397.5t218.5 327t327 218.5t397.5 81t397.5 -81t327 -218.5t218.5 -327t81 -397.5t-81 -397.5t-218.5 -327t-327 -218.5t-397.5 -81t-397.5 81t-327 218.5t-218.5 327t-81 397.5zM735 383q0 -43 26.5 -59t63.5 6l590 321q36 19 37 49.5t-33 53.5l-596 379 q-35 23 -61.5 8.5t-26.5 -56.5v-702z" />
<glyph unicode="&#xe700;" horiz-adv-x="1800" d="M0 199v1222q0 25 18.5 44.5t44.5 19.5h1405q26 0 45 -19.5t19 -44.5v-114h205q27 0 45 -18.5t18 -43.5v-1046q0 -83 -58 -140t-140 -59h-1403q-82 0 -140.5 58.5t-58.5 140.5zM129 199q0 -29 20.5 -49.5t49.5 -20.5h1216q-12 34 -12 70v1157h-1274v-1157zM256 352v410 h430v-410h-430zM256 942v227h1018v-227h-1018zM811 352v115h463v-115h-463zM811 647v115h463v-115h-463zM1532 199q0 -29 20.5 -49.5t49.5 -20.5t49 20.5t20 49.5v979h-139v-979z" />
<glyph unicode="&#xe701;" d="M0 731q0 208 81 397.5t218.5 327t327 218.5t397.5 81t397.5 -81t327 -218.5t218.5 -327t81 -397.5t-81 -397.5t-218.5 -327t-327 -218.5t-397.5 -81t-397.5 81t-327 218.5t-218.5 327t-81 397.5zM367 268q0 -25 16.5 -42t42.5 -17h1036q-10 30 -10 59v985h-1085v-985z M473 399v349h367v-349h-367zM473 903v193h870v-193h-870zM946 399v97h397v-97h-397zM946 651v97h397v-97h-397zM1563 268q0 -25 17 -42t42 -17t42 17t17 42v836h-118v-836z" />
<glyph unicode="&#xe702;" horiz-adv-x="993" d="M0 754v139q0 22 15.5 37.5t37.5 15.5q23 0 39.5 -15.5t16.5 -37.5v-139q0 -159 114 -273t275 -114t274 114t113 273v139q0 22 16.5 37.5t38.5 15.5t37.5 -15.5t15.5 -37.5v-139q0 -189 -127.5 -329.5t-314.5 -162.5v-2v-174h215q23 0 38 -16t15 -39q0 -22 -15 -38 t-38 -16h-539q-22 0 -37.5 16t-15.5 38q0 23 15.5 39t37.5 16h217v174v2q-189 22 -316.5 162.5t-127.5 329.5zM201 760v426q0 124 87 211.5t210 87.5q124 0 209.5 -87t85.5 -212v-426q0 -122 -86 -208.5t-209 -86.5q-124 0 -210.5 86.5t-86.5 208.5z" />
<glyph unicode="&#xe703;" d="M0 731q0 208 81 397.5t218.5 327t327 218.5t397.5 81t397.5 -81t327 -218.5t218.5 -327t81 -397.5t-81 -397.5t-218.5 -327t-327 -218.5t-397.5 -81t-397.5 81t-327 218.5t-218.5 327t-81 397.5zM578 754q0 -171 115 -297.5t284 -145.5v-4v-155h-195q-22 0 -35.5 -14 t-13.5 -36q0 -20 13.5 -33.5t35.5 -13.5h484q22 0 35.5 13.5t13.5 33.5q0 22 -13.5 36t-35.5 14h-195v155v4q169 19 284 145.5t115 297.5v125q0 21 -14 35t-35 14q-20 0 -33.5 -14.5t-13.5 -34.5v-125q0 -145 -102.5 -246.5t-247.5 -101.5t-247.5 101.5t-102.5 246.5v125 q0 21 -14 35t-35 14q-20 0 -33.5 -14.5t-13.5 -34.5v-125zM756 760q0 -110 78.5 -188t187.5 -78q110 0 189 78t79 188l2 381q0 110 -79 189t-189 79t-189 -79t-79 -189v-381z" />
<glyph unicode="&#xe704;" horiz-adv-x="1601" d="M0 440v283q0 29 21.5 49.5t50.5 20.5h180l1261 315q34 10 60 -12q29 -23 29 -56v-917q0 -36 -29 -55q-14 -17 -43 -17q-3 0 -8.5 1t-8.5 1l-600 150l-43 -176q-5 -22 -28 -41q-22 -9 -33 -9q-7 0 -16 3l-398 100q-26 4 -39.5 27.5t-7.5 48.5l43 178l-139 35h-180 q-29 0 -50 20t-22 51zM487 188l275 -69l29 114l-275 70z" />
<glyph unicode="&#xe705;" d="M0 731q0 208 81 397.5t218.5 327t327 218.5t397.5 81t397.5 -81t327 -218.5t218.5 -327t81 -397.5t-81 -397.5t-218.5 -327t-327 -218.5t-397.5 -81t-397.5 81t-327 218.5t-218.5 327t-81 397.5zM406 651q0 -26 16 -39q13 -16 37 -16h139l111 -29l-35 -137q-5 -19 6 -37 t31 -22l307 -78h12q15 0 27 6q16 13 22 31l35 137l463 -115q4 -2 12 -2q21 0 33 10q20 14 20 46v710q0 27 -20 41q-20 17 -45 10l-979 -243h-139q-22 0 -37.5 -16.5t-15.5 -39.5v-217zM782 455l23 90l213 -53l-25 -91z" />
<glyph unicode="&#xe706;" horiz-adv-x="1148" d="M0 721q7 6 19 16.5t48 44.5t69.5 70.5t76.5 90t76 106.5q89 133 130.5 274.5t41.5 263.5q0 11 19.5 11t39.5 -6l19 -5v-901q-35 -9 -56.5 -33.5t-21.5 -56.5q0 -39 33.5 -66.5t78.5 -27.5q50 0 84.5 27t34.5 67q0 32 -22 56.5t-56 33.5v901q78 25 78 0q0 -123 40.5 -264 t127.5 -274q34 -53 76.5 -106t78.5 -91t67 -69t49 -47l18 -15l-246 -522h-655zM76 47h995v-192h-995v192z" />
</font>
</defs>
</svg>
