<?xml version="1.0" encoding="utf-8"?>
<!-- Generator: Adobe Illustrator 16.0.4, SVG Export Plug-In . SVG Version: 6.00 Build 0)  -->
<!DOCTYPE svg PUBLIC "-//W3C//DTD SVG 1.1//EN" "http://www.w3.org/Graphics/SVG/1.1/DTD/svg11.dtd">
<svg version="1.1" id="Layer_1" xmlns="http://www.w3.org/2000/svg" xmlns:xlink="http://www.w3.org/1999/xlink" x="0px" y="0px"
	 width="960px" height="390px" viewBox="0 0 960 390" enable-background="new 0 0 960 390" xml:space="preserve">
<g>
	<defs>
		<rect id="SVGID_1_" x="-1" y="0.049" width="962" height="390.408"/>
	</defs>
	<clipPath id="SVGID_2_">
		<use xlink:href="#SVGID_1_"  overflow="visible"/>
	</clipPath>
	<polygon opacity="0.2" clip-path="url(#SVGID_2_)" fill="#AFD791" points="959.364,0.876 959.364,485.061 -2.004,332.285 
		-2.004,1.749 	"/>
	<g clip-path="url(#SVGID_2_)">
		<defs>
			<polygon id="SVGID_3_" points="886.299,347.667 493.803,347.785 493.803,-29.38 886.299,-29.38 			"/>
		</defs>
		<clipPath id="SVGID_4_">
			<use xlink:href="#SVGID_3_"  overflow="visible"/>
		</clipPath>
	</g>
	<polyline clip-path="url(#SVGID_2_)" fill="#AFD791" points="-1.708,385.862 960.768,225.176 960.366,294.592 -1,454.479 	"/>
	<polyline clip-path="url(#SVGID_2_)" fill="#33B34A" points="-1,456.559 375.747,393.034 -1,332.354 	"/>
	<polyline clip-path="url(#SVGID_2_)" fill="#33B34A" points="959.643,483.061 375.746,391.879 959.999,293.7 	"/>
	<polygon opacity="0.5" clip-path="url(#SVGID_2_)" fill="#DBEDD4" points="-1.002,295.525 960.366,447.23 960.366,485.902 
		-1,332.197 	"/>
	<polygon opacity="0.7" clip-path="url(#SVGID_2_)" fill="#FFFFFF" points="-1.002,258.732 960.366,409.438 960.366,447.11 
		-1,295.404 	"/>
</g>
</svg>
