<svg xmlns="http://www.w3.org/2000/svg" version="1.1" x="0px" y="0px" width="474px" height="100px" viewBox="0 0 474 100" enable-background="new 0 0 474 100" xml:space="preserve"><path fill="#75787B" d="M243.4 30.2c-1.2-1.6-3.1-2.4-5-2.4 -4.5 0-7.6 3.9-7.6 8.3 0 4.6 3.1 8.3 7.6 8.3 2.4 0 4.4-1 5.8-2.8l1.8 1.5c-1.8 2.4-4.4 3.5-7.6 3.5 -5.7 0-10.2-4.4-10.2-10.5 0-5.9 4.2-10.5 10.2-10.5 2.7 0 5.4 0.9 7.1 3.1L243.4 30.2zM255.2 32.5c4.1 0 7.1 2.8 7.1 7 0 4.1-3 7-7.1 7 -4.1 0-7.1-2.8-7.1-7C248.1 35.3 251.1 32.5 255.2 32.5zM255.2 44.4c2.9 0 4.7-2.2 4.7-4.9 0-2.8-1.8-4.9-4.7-4.9 -2.9 0-4.7 2.1-4.7 4.9C250.5 42.2 252.4 44.4 255.2 44.4zM265.7 36c0-1.2-0.1-2.3-0.1-3.1h2.1c0 0.7 0.1 1.4 0.1 2.2h0.1c0.6-1.3 2.2-2.5 4.4-2.5 3.5 0 5 2.2 5 5.4v8.2h-2.2v-8c0-2.2-1-3.6-3-3.6 -2.9 0-4.1 2.1-4.1 5.1v6.5h-2.2V36zM281.7 42.6c0.9 1.1 1.8 1.8 3.4 1.8 1.4 0 2.9-0.6 2.9-2 0-1.4-1.4-1.8-2.8-2.1 -2.5-0.6-4.7-1.1-4.7-3.9 0-2.6 2.5-3.9 5-3.9 1.9 0 3.6 0.7 4.5 2.4l-1.8 1.2c-0.6-0.9-1.5-1.6-2.8-1.6 -1.2 0-2.6 0.6-2.6 1.8 0 1.1 1.6 1.6 3.3 1.9 2.3 0.5 4.3 1.3 4.3 4 0 3-2.7 4.2-5.3 4.2 -2.2 0-3.8-0.6-5.2-2.5L281.7 42.6zM305.1 43c0 1.2 0.1 2.3 0.1 3.1h-2.1c0-0.7-0.1-1.4-0.1-2.2H303c-0.6 1.3-2.2 2.5-4.4 2.5 -3.5 0-5-2.2-5-5.4v-8.2h2.2v8c0 2.2 1 3.6 3 3.6 2.9 0 4.1-2.1 4.1-5.1v-6.5h2.2V43zM309.2 36c0-1.2-0.1-2.3-0.1-3.1h2.1c0 0.7 0.1 1.4 0.1 2.2h0.1c0.6-1.3 2.2-2.5 4.4-2.5 2.9 0 3.8 1.6 4.2 2.5 1-1.6 2.2-2.5 4.2-2.5 3.8 0 5 2.1 5 5.5v8H327v-7.9c0-1.8-0.7-3.6-3.2-3.6 -1.9 0-3.4 1.5-3.4 3.9v7.6h-2.2v-7.5c0-2.9-0.7-4-2.5-4 -2.9 0-4.1 2.1-4.1 5.1v6.5h-2.2V36zM345.2 43.7c-1.6 2-3.4 2.7-5.9 2.7 -4.2 0-6.7-3.1-6.7-7 0-4.1 2.9-7 6.8-7 3.7 0 6.3 2.5 6.3 6.9v0.7H335c0.2 2.3 1.9 4.2 4.3 4.2 1.9 0 3.2-0.7 4.2-2L345.2 43.7zM343.3 38.3c-0.1-2.2-1.6-3.7-4-3.7 -2.4 0-4 1.5-4.3 3.7H343.3zM349.1 36c0-1.2-0.1-2.3-0.1-3.1h2.1c0 0.7 0.1 1.4 0.1 2.2h0.1c0.6-1.3 2.2-2.5 4.4-2.5 0.3 0 0.6 0 0.9 0.1l-0.1 2.2c-0.4-0.1-0.8-0.2-1.2-0.2 -2.7 0-3.9 1.9-3.9 4.9v6.5h-2.2V36z"/><polygon fill="#75787B" points="367.3,26.1 379.7,26.1 379.7,28.3 369.7,28.3 369.7,34.9 379,34.9 379,37.1 369.7,37.1 369.7,46.1   367.3,46.1 "/><path fill="#75787B" d="M384 26.1c0.9 0 1.6 0.7 1.6 1.6 0 0.9-0.7 1.6-1.6 1.6 -0.9 0-1.6-0.7-1.6-1.6C382.3 26.8 383.1 26.1 384 26.1zM382.9 32.8h2.2v13.2h-2.2V32.8zM389.4 36c0-1.2-0.1-2.3-0.1-3.1h2.1c0 0.7 0.1 1.4 0.1 2.2h0.1c0.6-1.3 2.2-2.5 4.4-2.5 3.5 0 5 2.2 5 5.4v8.2h-2.2v-8c0-2.2-1-3.6-3-3.6 -2.9 0-4.1 2.1-4.1 5.1v6.5h-2.2V36zM405 34.5c1.4-1.4 3.3-2 5.3-2 3.9 0 5.5 1.9 5.5 5.6v5.7c0 0.8 0.1 1.6 0.2 2.3h-2.1c-0.1-0.6-0.1-1.4-0.1-2h-0.1c-0.9 1.4-2.3 2.3-4.4 2.3 -2.7 0-4.9-1.4-4.9-3.9 0-4.4 5.1-4.6 8.4-4.6h0.8v-0.4c0-1.9-1.2-2.9-3.3-2.9 -1.4 0-2.9 0.5-3.9 1.4L405 34.5zM411.4 39.7c-2.8 0-4.6 0.8-4.6 2.5 0 1.7 1.2 2.3 2.9 2.3 2.5 0 3.9-1.8 3.9-4v-0.8H411.4zM419.9 36c0-1.2-0.1-2.3-0.1-3.1h2.1c0 0.7 0.1 1.4 0.1 2.2h0.1c0.6-1.3 2.2-2.5 4.4-2.5 3.5 0 5 2.2 5 5.4v8.2h-2.2v-8c0-2.2-1-3.6-3-3.6 -2.9 0-4.1 2.1-4.1 5.1v6.5h-2.2V36zM445 36.2c-0.9-1.1-2-1.6-3.3-1.6 -3 0-4.5 2.2-4.5 4.9 0 2.7 1.8 4.9 4.5 4.9 1.4 0 2.5-0.5 3.4-1.6l1.6 1.6c-1.3 1.5-3.1 2.1-5 2.1 -4.1 0-6.8-2.9-6.8-7 0-4 2.8-7 6.8-7 2 0 3.8 0.7 5.1 2.1L445 36.2zM450.6 26.1c0.9 0 1.6 0.7 1.6 1.6 0 0.9-0.7 1.6-1.6 1.6 -0.9 0-1.6-0.7-1.6-1.6C448.9 26.8 449.6 26.1 450.6 26.1zM449.5 32.8h2.2v13.2h-2.2V32.8zM455.9 34.5c1.4-1.4 3.3-2 5.3-2 3.9 0 5.5 1.9 5.5 5.6v5.7c0 0.8 0.1 1.6 0.2 2.3h-2.1c-0.1-0.6-0.1-1.4-0.1-2h-0.1c-0.9 1.4-2.3 2.3-4.4 2.3 -2.7 0-4.9-1.4-4.9-3.9 0-4.4 5.1-4.6 8.4-4.6h0.8v-0.4c0-1.9-1.2-2.9-3.3-2.9 -1.4 0-2.9 0.5-3.9 1.4L455.9 34.5zM462.3 39.7c-2.8 0-4.6 0.8-4.6 2.5 0 1.7 1.2 2.3 2.9 2.3 2.5 0 3.9-1.8 3.9-4v-0.8H462.3z"/><rect x="470.9" y="24.7" fill="#75787B" width="2.2" height="21.4"/><path fill="#75787B" d="M229.4 54.7h5.9c3.7 0 7 1.3 7 5.5 0 4.4-3.7 5.5-6.6 5.5h-4v9h-2.4V54.7zM231.7 63.6h4c2.4 0 4-1.1 4-3.3 0-2.2-1.6-3.3-4-3.3h-4V63.6zM245.8 64.7c0-1.2-0.1-2.3-0.1-3.1h2.1c0 0.7 0.1 1.4 0.1 2.2h0.1c0.6-1.3 2.2-2.5 4.4-2.5 0.3 0 0.6 0 0.9 0.1l-0.1 2.2c-0.4-0.1-0.8-0.2-1.2-0.2 -2.7 0-3.9 1.9-3.9 4.9v6.5h-2.2V64.7zM261.5 61.2c4.1 0 7.1 2.8 7.1 7 0 4.1-3 7-7.1 7 -4.1 0-7.1-2.8-7.1-7C254.4 64 257.4 61.2 261.5 61.2zM261.5 73.1c2.9 0 4.7-2.2 4.7-4.9s-1.8-4.9-4.7-4.9c-2.9 0-4.7 2.2-4.7 4.9S258.7 73.1 261.5 73.1zM279.3 63.4h-3.9V70c0 1.7 0 3.1 2 3.1 0.7 0 1.4-0.1 2-0.5l0.1 2c-0.8 0.3-1.8 0.5-2.6 0.5 -3.1 0-3.7-1.7-3.7-4.4v-7.3h-2.9v-1.9h2.9v-3.8h2.2v3.8h3.9V63.4zM293.8 72.4c-1.6 2-3.4 2.7-5.9 2.7 -4.2 0-6.7-3.1-6.7-7 0-4.1 2.9-7 6.8-7 3.7 0 6.3 2.5 6.3 6.9v0.7h-10.7c0.2 2.3 1.9 4.2 4.3 4.2 1.9 0 3.2-0.7 4.2-2L293.8 72.4zM291.9 66.9c-0.1-2.2-1.6-3.7-4-3.7 -2.4 0-4 1.5-4.3 3.7H291.9zM307.2 64.8c-0.9-1.1-2-1.6-3.3-1.6 -3 0-4.5 2.2-4.5 4.9 0 2.7 1.8 4.9 4.5 4.9 1.4 0 2.6-0.5 3.4-1.6l1.6 1.6c-1.3 1.5-3.1 2.1-5 2.1 -4.1 0-6.8-2.9-6.8-7 0-4 2.8-7 6.8-7 2 0 3.8 0.6 5.1 2.1L307.2 64.8zM318.6 63.4h-3.9V70c0 1.7 0 3.1 2 3.1 0.6 0 1.4-0.1 2-0.5l0.1 2c-0.8 0.3-1.8 0.5-2.6 0.5 -3.1 0-3.7-1.7-3.7-4.4v-7.3h-2.9v-1.9h2.9v-3.8h2.2v3.8h3.9V63.4zM322.6 54.7c0.9 0 1.6 0.7 1.6 1.6 0 0.9-0.7 1.6-1.6 1.6 -0.9 0-1.6-0.7-1.6-1.6C321 55.5 321.7 54.7 322.6 54.7zM321.5 61.5h2.2v13.2h-2.2V61.5zM334.4 61.2c4.1 0 7.1 2.8 7.1 7 0 4.1-3 7-7.1 7 -4.1 0-7.1-2.8-7.1-7C327.4 64 330.4 61.2 334.4 61.2zM334.4 73.1c2.9 0 4.7-2.2 4.7-4.9s-1.8-4.9-4.7-4.9c-2.9 0-4.7 2.2-4.7 4.9S331.6 73.1 334.4 73.1zM344.9 64.7c0-1.2-0.1-2.3-0.1-3.1h2.1c0 0.7 0.1 1.4 0.1 2.2h0.1c0.6-1.3 2.2-2.5 4.4-2.5 3.5 0 5 2.2 5 5.4v8.2h-2.2v-8c0-2.2-1-3.6-3-3.6 -2.9 0-4.1 2.1-4.1 5.1v6.5h-2.2V64.7zM368.9 54.7h6.1c3.3 0 6.7 1.2 6.7 4.9 0 2.3-1.4 3.9-3.5 4.5v0.1c2.6 0.2 4.5 2.3 4.5 4.9 0 4.4-4.1 5.6-7.8 5.6h-6V54.7zM371.3 63.2h3.3c2.2 0 4.6-0.5 4.6-3.3 0-2.5-2.2-3-4.3-3h-3.5V63.2zM371.3 72.6h4c2.3 0 4.8-0.9 4.8-3.5 0-2.8-2.4-3.6-4.8-3.6h-4.1V72.6zM397.9 71.6c0 1.2 0.1 2.3 0.1 3.1h-2.1c0-0.7-0.1-1.4-0.1-2.2h-0.1c-0.6 1.3-2.2 2.5-4.4 2.5 -3.5 0-5-2.2-5-5.4v-8.2h2.2v8c0 2.2 1 3.6 3 3.6 2.9 0 4.1-2.1 4.1-5.1v-6.5h2.2V71.6zM402.1 64.7c0-1.2-0.1-2.3-0.1-3.1h2.1c0 0.7 0.1 1.4 0.1 2.2h0.1c0.6-1.3 2.2-2.5 4.4-2.5 0.3 0 0.6 0 0.9 0.1l-0.1 2.2c-0.4-0.1-0.8-0.2-1.2-0.2 -2.7 0-3.9 1.9-3.9 4.9v6.5h-2.2V64.7zM423.4 72.4c-1.6 2-3.4 2.7-5.9 2.7 -4.2 0-6.7-3.1-6.7-7 0-4.1 2.9-7 6.8-7 3.7 0 6.3 2.5 6.3 6.9v0.7h-10.7c0.2 2.3 1.9 4.2 4.3 4.2 1.9 0 3.2-0.7 4.2-2L423.4 72.4zM421.5 66.9c-0.1-2.2-1.6-3.7-4-3.7 -2.4 0-4 1.5-4.3 3.7H421.5zM427.1 63.2c1.4-1.4 3.3-2 5.3-2 3.9 0 5.6 1.9 5.6 5.6v5.7c0 0.8 0.1 1.6 0.2 2.3H436c-0.1-0.6-0.1-1.4-0.1-2h-0.1c-0.9 1.4-2.4 2.3-4.4 2.3 -2.7 0-4.9-1.4-4.9-3.9 0-4.4 5.1-4.6 8.4-4.6h0.8v-0.4c0-1.9-1.2-2.9-3.3-2.9 -1.4 0-2.9 0.5-3.9 1.4L427.1 63.2zM433.5 68.4c-2.8 0-4.6 0.8-4.6 2.5 0 1.7 1.2 2.3 2.9 2.3 2.5 0 3.9-1.8 3.9-4v-0.8H433.5zM453.5 71.6c0 1.2 0.1 2.3 0.1 3.1h-2.1c0-0.7-0.1-1.4-0.1-2.2h-0.1c-0.6 1.3-2.2 2.5-4.4 2.5 -3.5 0-5-2.2-5-5.4v-8.2h2.2v8c0 2.2 1 3.6 3 3.6 2.9 0 4.1-2.1 4.1-5.1v-6.5h2.2V71.6z"/><polygon fill="#2CB34A" points="59,60.6 74.9,63.1 74.9,74.8 59,74.8 "/><path fill="#2CB34A" d="M85.8 26.2H74.9V23c0-4.8 0.9-9 7-9 1.3 0 2.6 0.2 3.9 0.5V0.8c0 0-0.3-0.1-2.1-0.4C81.8 0.1 79.9 0 77.8 0 61.2 0 59 11.4 59 22.5v18l26.8-4.3V26.2z"/><polygon fill="#2CB34A" points="166,1.1 150.2,1.1 150.2,25.9 166,23.3 "/><path fill="#2CB34A" d="M93.2 100H109V72.3c3.5 2.4 7.8 3.7 12.7 3.7 4.5 0 8.6-1.2 12.1-3.4L93.2 66V100zM121.3 25.1c-4.9 0-8.9 1.4-12.3 4v-2.9H93.2V35l40.7-6.6C130.3 26.3 126 25.1 121.3 25.1zM35.5 56.7c-1.7 2.6-4.5 4.4-8.5 4.4 -6.8 0-10.4-5.4-10.4-10.6 0-5.3 3.6-10.6 10.4-10.6 4 0 6.8 1.8 8.5 4.4l16.2-2.6c-3.5-10-12.8-16.6-24.8-16.6 -15.2 0-26.2 10.7-26.2 25.4 0 14.7 11 25.4 26.2 25.4 11.9 0 21.3-6.6 24.8-16.6L35.5 56.7z"/><polygon fill="#ADDC91" points="74.9,40 74.9,63.1 59,60.6 59,40.5 85.8,36.2 85.8,40 "/><path fill="#ADDC91" d="M150 74.8v-49l16-2.6v5.5c3.5-2.4 7.6-3.7 12.5-3.7 13.4 0 23.6 10.9 23.6 25.4 0 15-9.9 25.4-24 25.4 -4.9 0-9.7-1.4-13-4v2.9H150zM165.5 50.5c0 5.3 3.6 10.6 10.4 10.6 6.8 0 10.4-5.3 10.4-10.6 0-5.3-3.6-10.6-10.4-10.6C169.1 39.9 165.5 45.2 165.5 50.5zM133.6 72.6L93 66V35l40.7-6.6c7.1 4.2 11.4 12.2 11.4 22.1C145.1 60.2 140.6 68.3 133.6 72.6zM129.2 50.5c0-5.3-3.6-10.6-10.4-10.6 -6.8 0-10.4 5.3-10.4 10.6 0 5.3 3.6 10.6 10.4 10.6C125.7 61.2 129.2 55.8 129.2 50.5z"/></svg>