<svg data-name="Layer 1" xmlns="http://www.w3.org/2000/svg" viewBox="0 0 474 100"><path d="M243.4 30.2a6.2 6.2 0 0 0-5-2.4c-4.5 0-7.6 3.9-7.6 8.3 0 4.6 3.1 8.3 7.6 8.3a7.11 7.11 0 0 0 5.8-2.8l1.8 1.5a9 9 0 0 1-7.6 3.5 10.13 10.13 0 0 1-10.2-10.5c0-5.9 4.2-10.5 10.2-10.5a8.73 8.73 0 0 1 7.1 3.1zm11.8 2.3a6.75 6.75 0 0 1 7.1 7 7.1 7.1 0 0 1-14.2 0 6.75 6.75 0 0 1 7.1-7zm0 11.9a4.62 4.62 0 0 0 4.7-4.9 4.7 4.7 0 1 0-9.4 0 4.68 4.68 0 0 0 4.7 4.9zm10.5-8.4c0-1.2-.1-2.3-.1-3.1h2.1c0 .7.1 1.4.1 2.2h.1a4.76 4.76 0 0 1 4.4-2.5c3.5 0 5 2.2 5 5.4v8.2h-2.2v-8c0-2.2-1-3.6-3-3.6-2.9 0-4.1 2.1-4.1 5.1v6.5h-2.2V36zm16 6.6a4 4 0 0 0 3.4 1.8c1.4 0 2.9-.6 2.9-2s-1.4-1.8-2.8-2.1c-2.5-.6-4.7-1.1-4.7-3.9 0-2.6 2.5-3.9 5-3.9a4.77 4.77 0 0 1 4.5 2.4l-1.8 1.2a3.28 3.28 0 0 0-2.8-1.6c-1.2 0-2.6.6-2.6 1.8s1.6 1.6 3.3 1.9c2.3.5 4.3 1.3 4.3 4 0 3-2.7 4.2-5.3 4.2a5.77 5.77 0 0 1-5.2-2.5zm23.4.4c0 1.2.1 2.3.1 3.1h-2.1c0-.7-.1-1.4-.1-2.2a4.76 4.76 0 0 1-4.4 2.5c-3.5 0-5-2.2-5-5.4v-8.2h2.2v8c0 2.2 1 3.6 3 3.6 2.9 0 4.1-2.1 4.1-5.1v-6.5h2.2V43zm4.1-7c0-1.2-.1-2.3-.1-3.1h2.1c0 .7.1 1.4.1 2.2h.1a4.76 4.76 0 0 1 4.4-2.5c2.9 0 3.8 1.6 4.2 2.5a4.58 4.58 0 0 1 4.2-2.5c3.8 0 5 2.1 5 5.5v8H327v-7.9c0-1.8-.7-3.6-3.2-3.6-1.9 0-3.4 1.5-3.4 3.9v7.6h-2.2v-7.5c0-2.9-.7-4-2.5-4-2.9 0-4.1 2.1-4.1 5.1v6.5h-2.2V36zm36 7.7a6.81 6.81 0 0 1-5.9 2.7c-4.2 0-6.7-3.1-6.7-7a6.67 6.67 0 0 1 6.8-7c3.7 0 6.3 2.5 6.3 6.9v.7H335a4.38 4.38 0 0 0 4.3 4.2 4.91 4.91 0 0 0 4.2-2zm-1.9-5.4a3.71 3.71 0 0 0-4-3.7 4.1 4.1 0 0 0-4.3 3.7zm5.8-2.3c0-1.2-.1-2.3-.1-3.1h2.1c0 .7.1 1.4.1 2.2h.1a4.76 4.76 0 0 1 4.4-2.5 2.77 2.77 0 0 1 .9.1l-.1 2.2a5 5 0 0 0-1.2-.2c-2.7 0-3.9 1.9-3.9 4.9v6.5h-2.2V36zm18.2-9.9h12.4v2.2h-10v6.6h9.3v2.2h-9.3v9h-2.4v-20zm16.7 0a1.6 1.6 0 1 1-1.6 1.6 1.52 1.52 0 0 1 1.6-1.6zm-1.1 6.7h2.2V46h-2.2zm6.5 3.2c0-1.2-.1-2.3-.1-3.1h2.1c0 .7.1 1.4.1 2.2h.1a4.76 4.76 0 0 1 4.4-2.5c3.5 0 5 2.2 5 5.4v8.2h-2.2v-8c0-2.2-1-3.6-3-3.6-2.9 0-4.1 2.1-4.1 5.1v6.5h-2.2V36zm15.6-1.5a7.31 7.31 0 0 1 5.3-2c3.9 0 5.5 1.9 5.5 5.6v5.7a16.41 16.41 0 0 0 .2 2.3h-2.1a13.4 13.4 0 0 1-.1-2h-.1a4.89 4.89 0 0 1-4.4 2.3c-2.7 0-4.9-1.4-4.9-3.9 0-4.4 5.1-4.6 8.4-4.6h.8v-.4c0-1.9-1.2-2.9-3.3-2.9a6 6 0 0 0-3.9 1.4zm6.4 5.2c-2.8 0-4.6.8-4.6 2.5s1.2 2.3 2.9 2.3a3.75 3.75 0 0 0 3.9-4v-.8zm8.5-3.7c0-1.2-.1-2.3-.1-3.1h2.1c0 .7.1 1.4.1 2.2h.1a4.76 4.76 0 0 1 4.4-2.5c3.5 0 5 2.2 5 5.4v8.2h-2.2v-8c0-2.2-1-3.6-3-3.6-2.9 0-4.1 2.1-4.1 5.1v6.5H420V36zm25.1.2a4.07 4.07 0 0 0-3.3-1.6c-3 0-4.5 2.2-4.5 4.9s1.8 4.9 4.5 4.9a4.12 4.12 0 0 0 3.4-1.6l1.6 1.6a6.37 6.37 0 0 1-5 2.1c-4.1 0-6.8-2.9-6.8-7a6.67 6.67 0 0 1 6.8-7 6.79 6.79 0 0 1 5.1 2.1zm5.6-10.1a1.6 1.6 0 1 1-1.6 1.6 1.47 1.47 0 0 1 1.6-1.6zm-1.1 6.7h2.2V46h-2.2zm6.4 1.7a7.31 7.31 0 0 1 5.3-2c3.9 0 5.5 1.9 5.5 5.6v5.7a16.41 16.41 0 0 0 .2 2.3h-2.1a13.4 13.4 0 0 1-.1-2h-.1a4.89 4.89 0 0 1-4.4 2.3c-2.7 0-4.9-1.4-4.9-3.9 0-4.4 5.1-4.6 8.4-4.6h.8v-.4c0-1.9-1.2-2.9-3.3-2.9a6 6 0 0 0-3.9 1.4zm6.4 5.2c-2.8 0-4.6.8-4.6 2.5s1.2 2.3 2.9 2.3a3.75 3.75 0 0 0 3.9-4v-.8zm8.6-15h2.2v21.4h-2.2zm-241.5 30h5.9c3.7 0 7 1.3 7 5.5 0 4.4-3.7 5.5-6.6 5.5h-4v9h-2.4v-20zm2.3 8.9h4c2.4 0 4-1.1 4-3.3s-1.6-3.3-4-3.3h-4zm14.1 1.1c0-1.2-.1-2.3-.1-3.1h2.1c0 .7.1 1.4.1 2.2h.1a4.76 4.76 0 0 1 4.4-2.5 2.77 2.77 0 0 1 .9.1l-.1 2.2a5 5 0 0 0-1.2-.2c-2.7 0-3.9 1.9-3.9 4.9v6.5h-2.2V64.7zm15.7-3.5a7 7 0 1 1-7.1 7 6.75 6.75 0 0 1 7.1-7zm0 11.9a4.9 4.9 0 1 0-4.7-4.9 4.68 4.68 0 0 0 4.7 4.9zm17.8-9.7h-3.9V70c0 1.7 0 3.1 2 3.1a3.51 3.51 0 0 0 2-.5l.1 2a8 8 0 0 1-2.6.5c-3.1 0-3.7-1.7-3.7-4.4v-7.3h-2.9v-1.9h2.9v-3.8h2.2v3.8h3.9zm14.5 9a6.81 6.81 0 0 1-5.9 2.7c-4.2 0-6.7-3.1-6.7-7a6.67 6.67 0 0 1 6.8-7c3.7 0 6.3 2.5 6.3 6.9v.7h-10.7a4.38 4.38 0 0 0 4.3 4.2 4.91 4.91 0 0 0 4.2-2zm-1.9-5.5a3.71 3.71 0 0 0-4-3.7 4.1 4.1 0 0 0-4.3 3.7zm15.3-2.1a4.07 4.07 0 0 0-3.3-1.6c-3 0-4.5 2.2-4.5 4.9s1.8 4.9 4.5 4.9a4 4 0 0 0 3.4-1.6l1.6 1.6a6.37 6.37 0 0 1-5 2.1c-4.1 0-6.8-2.9-6.8-7a6.67 6.67 0 0 1 6.8-7 6.44 6.44 0 0 1 5.1 2.1zm11.4-1.4h-3.9V70c0 1.7 0 3.1 2 3.1a3.72 3.72 0 0 0 2-.5l.1 2a8 8 0 0 1-2.6.5c-3.1 0-3.7-1.7-3.7-4.4v-7.3h-2.9v-1.9h2.9v-3.8h2.2v3.8h3.9zm4-8.7a1.6 1.6 0 1 1-1.6 1.6 1.64 1.64 0 0 1 1.6-1.6zm-1.1 6.8h2.2v13.2h-2.2zm12.9-.3a7 7 0 1 1-7.1 7 6.86 6.86 0 0 1 7.1-7zm0 11.9a4.9 4.9 0 1 0-4.7-4.9 4.68 4.68 0 0 0 4.7 4.9zm10.5-8.4c0-1.2-.1-2.3-.1-3.1h2.1c0 .7.1 1.4.1 2.2h.1a4.76 4.76 0 0 1 4.4-2.5c3.5 0 5 2.2 5 5.4v8.2h-2.2v-8c0-2.2-1-3.6-3-3.6-2.9 0-4.1 2.1-4.1 5.1v6.5H345V64.7zm24-10h6.1c3.3 0 6.7 1.2 6.7 4.9a4.52 4.52 0 0 1-3.5 4.5v.1a4.83 4.83 0 0 1 4.5 4.9c0 4.4-4.1 5.6-7.8 5.6h-6v-20zm2.4 8.5h3.3c2.2 0 4.6-.5 4.6-3.3 0-2.5-2.2-3-4.3-3h-3.5v6.3zm0 9.4h4c2.3 0 4.8-.9 4.8-3.5 0-2.8-2.4-3.6-4.8-3.6h-4.1v7.1zm26.6-1c0 1.2.1 2.3.1 3.1h-2.1c0-.7-.1-1.4-.1-2.2h-.1a4.76 4.76 0 0 1-4.4 2.5c-3.5 0-5-2.2-5-5.4v-8.2h2.2v8c0 2.2 1 3.6 3 3.6 2.9 0 4.1-2.1 4.1-5.1v-6.5h2.2v10.2zm4.2-6.9c0-1.2-.1-2.3-.1-3.1h2.1c0 .7.1 1.4.1 2.2h.1a4.76 4.76 0 0 1 4.4-2.5 2.77 2.77 0 0 1 .9.1l-.1 2.2a5 5 0 0 0-1.2-.2c-2.7 0-3.9 1.9-3.9 4.9v6.5h-2.2V64.7zm21.3 7.7a6.81 6.81 0 0 1-5.9 2.7c-4.2 0-6.7-3.1-6.7-7a6.67 6.67 0 0 1 6.8-7c3.7 0 6.3 2.5 6.3 6.9v.7h-10.7a4.38 4.38 0 0 0 4.3 4.2 4.91 4.91 0 0 0 4.2-2zm-1.9-5.5a3.71 3.71 0 0 0-4-3.7 4.1 4.1 0 0 0-4.3 3.7zm5.6-3.7a7.31 7.31 0 0 1 5.3-2c3.9 0 5.6 1.9 5.6 5.6v5.7a16.41 16.41 0 0 0 .2 2.3H436a13.4 13.4 0 0 1-.1-2h-.1a5 5 0 0 1-4.4 2.3c-2.7 0-4.9-1.4-4.9-3.9 0-4.4 5.1-4.6 8.4-4.6h.8v-.4c0-1.9-1.2-2.9-3.3-2.9a6 6 0 0 0-3.9 1.4zm6.4 5.2c-2.8 0-4.6.8-4.6 2.5s1.2 2.3 2.9 2.3a3.75 3.75 0 0 0 3.9-4v-.8zm20 3.2c0 1.2.1 2.3.1 3.1h-2.1c0-.7-.1-1.4-.1-2.2h-.1a4.76 4.76 0 0 1-4.4 2.5c-3.5 0-5-2.2-5-5.4v-8.2h2.2v8c0 2.2 1 3.6 3 3.6 2.9 0 4.1-2.1 4.1-5.1v-6.5h2.2v10.2z" fill="#75787b"/><path d="M59 60.6l15.9 2.5v11.7H59V60.6zm26.8-34.4H74.9V23c0-4.8.9-9 7-9a17.37 17.37 0 0 1 3.9.5V.8s-.3-.1-2.1-.4a37.3 37.3 0 0 0-5.9-.4C61.2 0 59 11.4 59 22.5v18l26.8-4.3zM166 1.1h-15.8v24.8l15.8-2.6V1.1zM93.2 100H109V72.3a22.11 22.11 0 0 0 12.7 3.7 22.48 22.48 0 0 0 12.1-3.4L93.2 66zm28.1-74.9a19.52 19.52 0 0 0-12.3 4v-2.9H93.2V35l40.7-6.6a24.89 24.89 0 0 0-12.6-3.3zM35.5 56.7a9.67 9.67 0 0 1-8.5 4.4c-6.8 0-10.4-5.4-10.4-10.6S20.2 39.9 27 39.9a9.67 9.67 0 0 1 8.5 4.4l16.2-2.6c-3.5-10-12.8-16.6-24.8-16.6C11.7 25.1.7 35.8.7 50.5s11 25.4 26.2 25.4c11.9 0 21.3-6.6 24.8-16.6z" fill="#2cb34a"/><path d="M74.9 40v23.1L59 60.6V40.5l26.8-4.3V40H74.9zM150 74.8v-49l16-2.6v5.5a21.47 21.47 0 0 1 12.5-3.7c13.4 0 23.6 10.9 23.6 25.4 0 15-9.9 25.4-24 25.4-4.9 0-9.7-1.4-13-4v2.9H150zm15.5-24.3c0 5.3 3.6 10.6 10.4 10.6s10.4-5.3 10.4-10.6-3.6-10.6-10.4-10.6-10.4 5.3-10.4 10.6zm-31.9 22.1L93 66V35l40.7-6.6c7.1 4.2 11.4 12.2 11.4 22.1 0 9.7-4.5 17.8-11.5 22.1zm-4.4-22.1c0-5.3-3.6-10.6-10.4-10.6s-10.4 5.3-10.4 10.6 3.6 10.6 10.4 10.6 10.4-5.3 10.4-10.6z" fill="#addc91"/></svg>