<svg id="Layer_1" data-name="Layer 1" xmlns="http://www.w3.org/2000/svg" viewBox="0 0 474 100"><defs><style>.cls-1{fill:#75787b;}.cls-2{fill:#2cb34a;}.cls-3{fill:#addc91;}</style></defs><title>Artboard 1</title><path class="cls-1" d="M243.4,30.2a6.2,6.2,0,0,0-5-2.4c-4.5,0-7.6,3.9-7.6,8.3,0,4.6,3.1,8.3,7.6,8.3a7.11,7.11,0,0,0,5.8-2.8l1.8,1.5a9,9,0,0,1-7.6,3.5,10.13,10.13,0,0,1-10.2-10.5c0-5.9,4.2-10.5,10.2-10.5a8.73,8.73,0,0,1,7.1,3.1Zm11.8,2.3a6.75,6.75,0,0,1,7.1,7,7.1,7.1,0,0,1-14.2,0A6.75,6.75,0,0,1,255.2,32.5Zm0,11.9a4.62,4.62,0,0,0,4.7-4.9,4.7,4.7,0,1,0-9.4,0A4.68,4.68,0,0,0,255.2,44.4ZM265.7,36c0-1.2-.1-2.3-.1-3.1h2.1c0,.7.1,1.4.1,2.2h.1a4.76,4.76,0,0,1,4.4-2.5c3.5,0,5,2.2,5,5.4v8.2h-2.2v-8c0-2.2-1-3.6-3-3.6-2.9,0-4.1,2.1-4.1,5.1v6.5h-2.2V36Zm16,6.6a4,4,0,0,0,3.4,1.8c1.4,0,2.9-.6,2.9-2s-1.4-1.8-2.8-2.1c-2.5-.6-4.7-1.1-4.7-3.9,0-2.6,2.5-3.9,5-3.9a4.77,4.77,0,0,1,4.5,2.4l-1.8,1.2a3.28,3.28,0,0,0-2.8-1.6c-1.2,0-2.6.6-2.6,1.8s1.6,1.6,3.3,1.9c2.3.5,4.3,1.3,4.3,4,0,3-2.7,4.2-5.3,4.2a5.77,5.77,0,0,1-5.2-2.5Zm23.4.4c0,1.2.1,2.3.1,3.1h-2.1c0-.7-.1-1.4-.1-2.2h0a4.76,4.76,0,0,1-4.4,2.5c-3.5,0-5-2.2-5-5.4V32.8h2.2v8c0,2.2,1,3.6,3,3.6,2.9,0,4.1-2.1,4.1-5.1V32.8h2.2V43Zm4.1-7c0-1.2-.1-2.3-.1-3.1h2.1c0,.7.1,1.4.1,2.2h.1a4.76,4.76,0,0,1,4.4-2.5c2.9,0,3.8,1.6,4.2,2.5a4.58,4.58,0,0,1,4.2-2.5c3.8,0,5,2.1,5,5.5v8H327V38.2c0-1.8-.7-3.6-3.2-3.6-1.9,0-3.4,1.5-3.4,3.9v7.6h-2.2V38.6c0-2.9-.7-4-2.5-4-2.9,0-4.1,2.1-4.1,5.1v6.5h-2.2V36Zm36,7.7a6.81,6.81,0,0,1-5.9,2.7c-4.2,0-6.7-3.1-6.7-7a6.67,6.67,0,0,1,6.8-7c3.7,0,6.3,2.5,6.3,6.9V40H335a4.38,4.38,0,0,0,4.3,4.2,4.91,4.91,0,0,0,4.2-2Zm-1.9-5.4a3.71,3.71,0,0,0-4-3.7,4.1,4.1,0,0,0-4.3,3.7Zm5.8-2.3c0-1.2-.1-2.3-.1-3.1h2.1c0,.7.1,1.4.1,2.2h.1a4.76,4.76,0,0,1,4.4-2.5,2.77,2.77,0,0,1,.9.1l-.1,2.2a5,5,0,0,0-1.2-.2c-2.7,0-3.9,1.9-3.9,4.9v6.5h-2.2V36Z"/><polygon class="cls-1" points="367.3 26.1 379.7 26.1 379.7 28.3 369.7 28.3 369.7 34.9 379 34.9 379 37.1 369.7 37.1 369.7 46.1 367.3 46.1 367.3 26.1"/><path class="cls-1" d="M384,26.1a1.6,1.6,0,1,1-1.6,1.6A1.52,1.52,0,0,1,384,26.1Zm-1.1,6.7h2.2V46h-2.2Zm6.5,3.2c0-1.2-.1-2.3-.1-3.1h2.1c0,.7.1,1.4.1,2.2h.1a4.76,4.76,0,0,1,4.4-2.5c3.5,0,5,2.2,5,5.4v8.2h-2.2v-8c0-2.2-1-3.6-3-3.6-2.9,0-4.1,2.1-4.1,5.1v6.5h-2.2V36ZM405,34.5a7.31,7.31,0,0,1,5.3-2c3.9,0,5.5,1.9,5.5,5.6v5.7a16.41,16.41,0,0,0,.2,2.3h-2.1a13.4,13.4,0,0,1-.1-2h-.1a4.89,4.89,0,0,1-4.4,2.3c-2.7,0-4.9-1.4-4.9-3.9,0-4.4,5.1-4.6,8.4-4.6h.8v-.4c0-1.9-1.2-2.9-3.3-2.9a6,6,0,0,0-3.9,1.4Zm6.4,5.2c-2.8,0-4.6.8-4.6,2.5s1.2,2.3,2.9,2.3a3.75,3.75,0,0,0,3.9-4v-.8Zm8.5-3.7c0-1.2-.1-2.3-.1-3.1h2.1c0,.7.1,1.4.1,2.2h.1a4.76,4.76,0,0,1,4.4-2.5c3.5,0,5,2.2,5,5.4v8.2h-2.2v-8c0-2.2-1-3.6-3-3.6-2.9,0-4.1,2.1-4.1,5.1v6.5H420V36Zm25.1.2a4.07,4.07,0,0,0-3.3-1.6c-3,0-4.5,2.2-4.5,4.9s1.8,4.9,4.5,4.9a4.12,4.12,0,0,0,3.4-1.6l1.6,1.6a6.37,6.37,0,0,1-5,2.1c-4.1,0-6.8-2.9-6.8-7a6.67,6.67,0,0,1,6.8-7,6.79,6.79,0,0,1,5.1,2.1Zm5.6-10.1a1.6,1.6,0,1,1-1.6,1.6A1.47,1.47,0,0,1,450.6,26.1Zm-1.1,6.7h2.2V46h-2.2Zm6.4,1.7a7.31,7.31,0,0,1,5.3-2c3.9,0,5.5,1.9,5.5,5.6v5.7a16.41,16.41,0,0,0,.2,2.3h-2.1a13.4,13.4,0,0,1-.1-2h-.1a4.89,4.89,0,0,1-4.4,2.3c-2.7,0-4.9-1.4-4.9-3.9,0-4.4,5.1-4.6,8.4-4.6h.8v-.4c0-1.9-1.2-2.9-3.3-2.9a6,6,0,0,0-3.9,1.4Zm6.4,5.2c-2.8,0-4.6.8-4.6,2.5s1.2,2.3,2.9,2.3a3.75,3.75,0,0,0,3.9-4v-.8Z"/><rect class="cls-1" x="470.9" y="24.7" width="2.2" height="21.4"/><path class="cls-1" d="M229.4,54.7h5.9c3.7,0,7,1.3,7,5.5,0,4.4-3.7,5.5-6.6,5.5h-4v9h-2.4v-20Zm2.3,8.9h4c2.4,0,4-1.1,4-3.3s-1.6-3.3-4-3.3h-4Zm14.1,1.1c0-1.2-.1-2.3-.1-3.1h2.1c0,.7.1,1.4.1,2.2h.1a4.76,4.76,0,0,1,4.4-2.5,2.77,2.77,0,0,1,.9.1l-.1,2.2a5,5,0,0,0-1.2-.2c-2.7,0-3.9,1.9-3.9,4.9v6.5h-2.2V64.7Zm15.7-3.5a7,7,0,1,1-7.1,7A6.75,6.75,0,0,1,261.5,61.2Zm0,11.9a4.9,4.9,0,1,0-4.7-4.9A4.68,4.68,0,0,0,261.5,73.1Zm17.8-9.7h-3.9V70c0,1.7,0,3.1,2,3.1a3.51,3.51,0,0,0,2-.5l.1,2a8,8,0,0,1-2.6.5c-3.1,0-3.7-1.7-3.7-4.4V63.4h-2.9V61.5h2.9V57.7h2.2v3.8h3.9Zm14.5,9a6.81,6.81,0,0,1-5.9,2.7c-4.2,0-6.7-3.1-6.7-7a6.67,6.67,0,0,1,6.8-7c3.7,0,6.3,2.5,6.3,6.9v.7H283.6a4.38,4.38,0,0,0,4.3,4.2,4.91,4.91,0,0,0,4.2-2Zm-1.9-5.5a3.71,3.71,0,0,0-4-3.7,4.1,4.1,0,0,0-4.3,3.7Zm15.3-2.1a4.07,4.07,0,0,0-3.3-1.6c-3,0-4.5,2.2-4.5,4.9s1.8,4.9,4.5,4.9a4,4,0,0,0,3.4-1.6l1.6,1.6a6.37,6.37,0,0,1-5,2.1c-4.1,0-6.8-2.9-6.8-7a6.67,6.67,0,0,1,6.8-7,6.44,6.44,0,0,1,5.1,2.1Zm11.4-1.4h-3.9V70c0,1.7,0,3.1,2,3.1a3.72,3.72,0,0,0,2-.5l.1,2a8,8,0,0,1-2.6.5c-3.1,0-3.7-1.7-3.7-4.4V63.4h-2.9V61.5h2.9V57.7h2.2v3.8h3.9Zm4-8.7a1.6,1.6,0,1,1-1.6,1.6A1.64,1.64,0,0,1,322.6,54.7Zm-1.1,6.8h2.2V74.7h-2.2Zm12.9-.3a7,7,0,1,1-7.1,7A6.86,6.86,0,0,1,334.4,61.2Zm0,11.9a4.9,4.9,0,1,0-4.7-4.9A4.68,4.68,0,0,0,334.4,73.1Zm10.5-8.4c0-1.2-.1-2.3-.1-3.1h2.1c0,.7.1,1.4.1,2.2h.1a4.76,4.76,0,0,1,4.4-2.5c3.5,0,5,2.2,5,5.4v8.2h-2.2v-8c0-2.2-1-3.6-3-3.6-2.9,0-4.1,2.1-4.1,5.1v6.5H345V64.7Zm24-10H375c3.3,0,6.7,1.2,6.7,4.9a4.52,4.52,0,0,1-3.5,4.5v.1a4.83,4.83,0,0,1,4.5,4.9c0,4.4-4.1,5.6-7.8,5.6h-6v-20Zm2.4,8.5h3.3c2.2,0,4.6-.5,4.6-3.3,0-2.5-2.2-3-4.3-3h-3.5v6.3Zm0,9.4h4c2.3,0,4.8-.9,4.8-3.5,0-2.8-2.4-3.6-4.8-3.6h-4.1v7.1Zm26.6-1c0,1.2.1,2.3.1,3.1h-2.1c0-.7-.1-1.4-.1-2.2h-.1a4.76,4.76,0,0,1-4.4,2.5c-3.5,0-5-2.2-5-5.4V61.4h2.2v8c0,2.2,1,3.6,3,3.6,2.9,0,4.1-2.1,4.1-5.1V61.4h2.2V71.6Zm4.2-6.9c0-1.2-.1-2.3-.1-3.1h2.1c0,.7.1,1.4.1,2.2h.1a4.76,4.76,0,0,1,4.4-2.5,2.77,2.77,0,0,1,.9.1l-.1,2.2a5,5,0,0,0-1.2-.2c-2.7,0-3.9,1.9-3.9,4.9v6.5h-2.2V64.7Zm21.3,7.7a6.81,6.81,0,0,1-5.9,2.7c-4.2,0-6.7-3.1-6.7-7a6.67,6.67,0,0,1,6.8-7c3.7,0,6.3,2.5,6.3,6.9v.7H413.2a4.38,4.38,0,0,0,4.3,4.2,4.91,4.91,0,0,0,4.2-2Zm-1.9-5.5a3.71,3.71,0,0,0-4-3.7,4.1,4.1,0,0,0-4.3,3.7Zm5.6-3.7a7.31,7.31,0,0,1,5.3-2c3.9,0,5.6,1.9,5.6,5.6v5.7a16.41,16.41,0,0,0,.2,2.3H436a13.4,13.4,0,0,1-.1-2h-.1a5,5,0,0,1-4.4,2.3c-2.7,0-4.9-1.4-4.9-3.9,0-4.4,5.1-4.6,8.4-4.6h.8v-.4c0-1.9-1.2-2.9-3.3-2.9a6,6,0,0,0-3.9,1.4Zm6.4,5.2c-2.8,0-4.6.8-4.6,2.5s1.2,2.3,2.9,2.3a3.75,3.75,0,0,0,3.9-4v-.8Zm20,3.2c0,1.2.1,2.3.1,3.1h-2.1c0-.7-.1-1.4-.1-2.2h-.1a4.76,4.76,0,0,1-4.4,2.5c-3.5,0-5-2.2-5-5.4V61.4h2.2v8c0,2.2,1,3.6,3,3.6,2.9,0,4.1-2.1,4.1-5.1V61.4h2.2V71.6Z"/><polygon class="cls-2" points="59 60.6 74.9 63.1 74.9 74.8 59 74.8 59 60.6"/><path class="cls-2" d="M85.8,26.2H74.9V23c0-4.8.9-9,7-9a17.37,17.37,0,0,1,3.9.5V.8S85.5.7,83.7.4A37.3,37.3,0,0,0,77.8,0C61.2,0,59,11.4,59,22.5v18l26.8-4.3Z"/><polygon class="cls-2" points="166 1.1 150.2 1.1 150.2 25.9 166 23.3 166 1.1"/><path class="cls-2" d="M93.2,100H109V72.3A22.11,22.11,0,0,0,121.7,76a22.48,22.48,0,0,0,12.1-3.4L93.2,66Zm28.1-74.9a19.52,19.52,0,0,0-12.3,4V26.2H93.2V35l40.7-6.6A24.89,24.89,0,0,0,121.3,25.1ZM35.5,56.7A9.67,9.67,0,0,1,27,61.1c-6.8,0-10.4-5.4-10.4-10.6S20.2,39.9,27,39.9a9.67,9.67,0,0,1,8.5,4.4l16.2-2.6c-3.5-10-12.8-16.6-24.8-16.6C11.7,25.1.7,35.8.7,50.5s11,25.4,26.2,25.4c11.9,0,21.3-6.6,24.8-16.6Z"/><polygon class="cls-3" points="74.9 40 74.9 63.1 59 60.6 59 40.5 85.8 36.2 85.8 40 74.9 40"/><path class="cls-3" d="M150,74.8v-49l16-2.6v5.5A21.47,21.47,0,0,1,178.5,25c13.4,0,23.6,10.9,23.6,25.4,0,15-9.9,25.4-24,25.4-4.9,0-9.7-1.4-13-4v2.9H150Zm15.5-24.3c0,5.3,3.6,10.6,10.4,10.6s10.4-5.3,10.4-10.6-3.6-10.6-10.4-10.6S165.5,45.2,165.5,50.5ZM133.6,72.6,93,66V35l40.7-6.6c7.1,4.2,11.4,12.2,11.4,22.1C145.1,60.2,140.6,68.3,133.6,72.6Zm-4.4-22.1c0-5.3-3.6-10.6-10.4-10.6s-10.4,5.3-10.4,10.6,3.6,10.6,10.4,10.6S129.2,55.8,129.2,50.5Z"/></svg>