<svg xmlns="http://www.w3.org/2000/svg" viewBox="0 0 759.6 1200" class="cf-icon-svg"><path d="M729.7 198.4H30c-16.5 0-30 13.5-30 30v594.5c0 16.5 9.6 39.4 21.4 51l67.9 66.6c11.8 11.6 34.9 21 51.4 21h588.9c16.5 0 30-13.5 30-30V228.4c.1-16.5-13.4-30-29.9-30zm-141 698.4c0 16.5-13.5 30-30 30H200.5c-16.5 0-30-13.5-30-30V679.4c0-16.5 13.5-30 30-30h358.2c16.5 0 30 13.5 30 30v217.4zm31.5-405.3c0 16.5-13.5 30-30 30H169.5c-16.5 0-30-13.5-30-30V288.6c0-16.5 13.5-30 30-30h420.7c16.5 0 30 13.5 30 30v202.9z"/><path d="M237.1 719.5h76.5v139h-76.5z"/></svg>