<svg xmlns="http://www.w3.org/2000/svg" viewBox="0 0 530.4 1200" class="cf-icon-svg">
    <path d="M482.8 625.5l-.1-.1c-20.3-23.1-45.8-43.5-71.9-57.3l-.2-.1c-23.6-12.2-48.7-21.3-74.7-27h-.2c-22.6-4.8-45.5-7.2-68.6-7.1-14.1.1-28.3-1-42.2-3.3h-.1c-15.4-2.6-30.4-7.4-44.4-14.2l-.2-.1c-13.1-6.7-24.6-16-33.9-27.3l-.1-.2C136.1 476.4 130 461 130 447.5c0-15.5 6.7-38.4 38.8-58.6 26.4-16.7 63.6-26.7 99.3-26.7 8.2 0 20.7 2.7 35.2 5.9l4.2.9c12.2 2.7 26.5 7.6 42.3 14.7 12.8 5.8 24.6 13.9 34.6 23.8 24.8 25.9 66 26.8 91.9 2 25.9-24.8 26.8-66 2-91.9l-2.1-2.1c-21.2-21-45.9-38-73.1-50.3-24.4-11-46.6-18.6-67.9-23.2h-.1l-4-.9v-72.3c0-35.9-29.1-65-65-65s-65 29.1-65 65V239c-37 7.6-72.2 21.2-101.8 39.9-35.5 22.4-62.1 50.8-79.1 84.3C7 389.4.1 418.3 0 447.6 0 491.2 16.1 535 45.3 571c21 25.8 47.2 46.8 76.9 61.6 25.7 12.7 53.1 21.6 81.3 26.2 21 3.5 42.3 5.1 63.6 5 13.8-.1 27.6 1.3 41.1 4.2 14.6 3.2 28.7 8.3 42 15.1 12 6.4 24.9 16.8 34.7 27.9 9.9 11.4 15.4 25.9 15.5 41 0 14.3-4 33.2-35.6 53.7-32 20.7-73.3 28.1-101.4 28.1-13.7 0-35.6-3.8-43.9-5.3h-.1c-13.4-2.3-27.6-7.8-41-13.1h-.1c-11.2-4.5-22.3-12.9-32.8-25.1-23.6-27-64.7-29.8-91.7-6.1-26.8 23.5-29.7 64.1-6.6 91.2 24.3 28 52.2 48.5 82.9 60.8 18.9 7.6 41.3 16.1 67.2 20.5l4 .7v72.1c0 35.9 29.1 65 65 65s65-29.1 65-65v-72.7c37.9-7.9 74-22.3 104.3-41.9 62.1-40.3 94.9-96.6 94.9-162.8-.2-46.6-17.1-91.5-47.7-126.6z"></path>
</svg>