<svg xmlns="http://www.w3.org/2000/svg" viewBox="0 0 790.1 1200" class="cf-icon-svg"><path d="M740.1 178.8H449.5c-27.6 0-50 22.4-50 50s22.4 50 50 50h169.9L518.2 379.9c-14.7-6.2-30.5-9.4-46.4-9.4H120c-66.2.1-119.9 53.8-120 120v351.8c.1 66.2 53.8 119.9 120 120h351.8c66.2-.1 119.9-53.8 120-120V490.6c0-12.6-2-25-5.8-37l104.1-104.1v169.9c0 27.6 22.4 50 50 50s50-22.4 50-50V228.8c0-27.7-22.4-50-50-50zM491.8 842.3c-.1 11-9 19.9-20 20H120c-11-.1-19.9-9-20-20V490.6c.1-11 9-19.9 20-20h307.5L267 631.1c-19.4 19.6-19.3 51.3.3 70.7 19.5 19.3 50.9 19.3 70.4 0l154-154 .1 294.5z" /></svg>