<svg xmlns="http://www.w3.org/2000/svg" viewBox="0 0 1000 1200" class="cf-icon-svg"><path d="M500 105.2c-276.1 0-500 223.9-500 500s223.9 500 500 500 500-223.9 500-500-223.9-500-500-500zm78.8 824.2c-47.3 36.8-113.5 36.8-160.8 0-4.4-3.4-5.1-9.7-1.7-14 1.9-2.4 4.8-3.9 7.9-3.9h148.6c5.5 0 10 4.5 10 10-.2 3.1-1.6 6-4 7.9zm13.2-50H407.2c-11 0-20-9-20-20s9-20 20-20H592c11 0 20 9 20 20s-9 20-20 20zm116.2-290.2c-13.7 28.2-30.7 51.4-45.7 71.8-15.7 21.3-30.5 41.5-30.5 54.1v51.6c0 22.1-17.9 40-40 40H407.2c-22.1 0-40-17.9-40-40v-51.6c0-12.6-14.8-32.8-30.5-54.1-15-20.4-32-43.6-45.7-71.8-16.5-34.2-24.5-68.5-24.5-105.1-.8-128.8 102.9-233.8 231.6-234.7S731.9 352.3 732.8 481v3c0 36.7-8.1 71.1-24.6 105.2z"></path></svg>