<svg xmlns="http://www.w3.org/2000/svg" viewBox="0 0 1000 1200" className="cf-icon-svg"><path d="M532.6 565.2V564c-.2.4-.5.8-.8 1.2h.8z"/><path d="M0 105.2v1000h1000v-1000H0zm351.5 760H234.9V514.5h116.6v350.7zm-58.2-398.6h-.8c-39.1 0-64.4-27-64.4-60.6 0-34.4 26.1-60.6 65.9-60.6s64.4 26.2 65.2 60.6c0 33.6-25.3 60.6-65.9 60.6zM772 865.2H655.4V677.5c0-47.1-16.8-79.3-59.1-79.3-32.1 0-51.4 21.8-59.8 42.6-3.1 7.5-3.8 17.9-3.8 28.4v195.9H416s1.6-317.9 0-350.8h116.7V564c15.5-23.9 43.2-57.9 105.1-57.9 76.7 0 134.2 50.2 134.2 157.9v201.2z"/></svg>