<svg xmlns="http://www.w3.org/2000/svg" viewBox="0 0 833.4 1200" class="cf-icon-svg" ><path d="M233 203.1c-27.2-27.2-71.8-27.2-99 0L20.4 316.7c-27.2 27.2-27.2 71.8 0 99l89.7 89.7 212.7-212.7-89.8-89.6zM832.6 992.7l-48.6-216c-3.4-15.3-14.9-36.5-26-48.6l-1.8-1.8-121.8-121.9-110.6-110.6-165.7-165.7-54.8 54.8 400 400 21.4-21.4c5.3 6.4 11.9 18.9 13.5 25.6l21.4 95.2-60 60-95.2-21.4c-6.7-1.5-19.2-8.2-25.6-13.5l89.2-89.2-400-400-122.6 122.6 165.7 165.7 110.6 110.6 121.8 121.8 1.8 1.8c12.1 11.1 33.3 22.6 48.6 26l215.9 48.6c2.2.5 4.3.7 6.2.7 12.6.1 19.8-9.4 16.6-23.3z" /> </svg>