<svg xmlns="http://www.w3.org/2000/svg" viewBox="0 0 834 1200" class="cf-icon-svg">
    <path d="M804.4 505.7L746 495.6c-3.2-.6-6.5-.6-9.7 0-7.8-30.4-19.8-59.5-35.9-86.5 2.7-1.9 5-4.2 6.9-6.9l34.2-48.5c9.5-13.5 7.8-34.1-3.9-45.7l-51.4-51.4c-11.7-11.7-32.2-13.4-45.7-3.9L592 286.9c-2.7 1.9-5 4.2-6.9 6.9-27-16-56.1-28.1-86.5-35.9.6-3.2.6-6.5 0-9.7l-10.1-58.4c-2.8-16.3-18.6-29.6-35.1-29.6h-72.7c-16.5 0-32.3 13.3-35.1 29.6l-10.1 58.4c-.6 3.2-.6 6.5 0 9.7-30.4 7.8-59.5 19.8-86.5 35.9-1.9-2.7-4.2-5-6.9-6.9l-48.5-34.2c-13.5-9.5-34.1-7.8-45.7 3.9L96.5 308c-11.7 11.7-13.4 32.2-3.9 45.7l34.2 48.5c1.9 2.7 4.2 5 6.9 6.9-16 27-28.1 56.1-35.9 86.5-3.2-.6-6.5-.6-9.7 0l-58.4 10.1C13.3 508.5 0 524.3 0 540.8v72.7c0 16.5 13.3 32.3 29.6 35.1L88 658.8c3.2.6 6.5.6 9.7 0 7.8 30.4 19.8 59.5 35.9 86.5-2.7 1.9-5 4.2-6.9 6.9l-34.2 48.5c-9.5 13.5-7.8 34.1 3.9 45.7l51.4 51.4c11.7 11.7 32.2 13.4 45.7 3.9l48.5-34.2c2.7-1.9 5-4.2 6.9-6.9 27 16 56.1 28.1 86.5 35.9-.6 3.2-.6 6.5 0 9.7l10.1 58.4c2.8 16.3 18.6 29.6 35.1 29.6h72.7c16.5 0 32.3-13.3 35.1-29.6l10.1-58.4c.6-3.2.6-6.5 0-9.7 30.4-7.8 59.5-19.8 86.5-35.9 1.9 2.7 4.2 5 6.9 6.9l48.5 34.2c13.5 9.5 34.1 7.8 45.7-3.9l51.4-51.4c11.7-11.7 13.4-32.2 3.9-45.7l-34.2-48.5c-1.9-2.7-4.2-5-6.9-6.9 16-27 28.1-56.1 35.9-86.5 3.2.6 6.5.6 9.7 0l58.4-10.1c16.3-2.8 29.6-18.6 29.6-35.1v-72.7c.1-16.6-13.2-32.4-29.5-35.2zM417 719.2c-78.4 0-142-63.6-142-142s63.6-142 142-142 142 63.6 142 142-63.6 142-142 142z"></path>
</svg>