<svg xmlns="http://www.w3.org/2000/svg" width="50" height="50" viewBox="0 0 969.7 1200" fill="#fffff" class="cf-icon-svg">
<path stroke="#dc731c" stroke-width="50" d="M843.8 592.5l94.6-87.5c52.5-48.5 37.3-95.1-33.7-103.6l-128-15.2-129-15.3-81.5-176.6-27-58.5c-30-64.9-79-64.9-108.9 0l-27 58.5L322 371l-129.1 15.3-128 15.2c-71 8.4-86.1 55-33.6 103.6l47.3 43.7 47.3 43.7 95.4 88.3L196 808.2l-12.6 63.2-12.6 63.2c-13.9 70.1 25.7 98.9 88.1 64l225.9-126.4 225.9 126.4c62.4 34.9 102 6.1 88.1-64l-12.6-63.2-37.9-190.7 95.5-88.2z" />
</svg>
