<svg xmlns="http://www.w3.org/2000/svg" viewBox="0 0 1000 1200" className="cf-icon-svg"><path d="M0 105.2v1000h1000v-1000H0zm788.4 352c.3 6.4.4 12.8.4 19.2 0 196.7-149.7 423.5-423.5 423.5-80.9.1-160.1-23.2-228.1-66.9 11.8 1.4 23.6 2.1 35.5 2.1 67 .1 132.1-22.4 184.9-63.7-63.7-1.2-119.5-42.8-139-103.4 9.2 1.8 18.6 2.7 28 2.7 13.3 0 26.5-1.8 39.3-5.2-69.5-14-119.4-75.1-119.5-145.9v-1.9c20.7 11.5 43.8 17.9 67.4 18.6-65.4-43.7-85.6-130.7-46-198.7 73.4 90.1 183 149.3 306.7 155.5-2.6-11.1-3.9-22.5-3.9-33.9.1-82.3 67-148.9 149.3-148.7 41 .1 80.2 17 108.2 46.9 33.3-6.6 65.3-18.8 94.5-36.1-11.1 34.5-34.4 63.8-65.5 82.4 29.5-3.5 58.3-11.4 85.5-23.4-19.9 29.8-45 55.9-74.2 76.9z"/></svg>