<svg xmlns="http://www.w3.org/2000/svg" viewBox="0 0 971.1 1200" class="cf-icon-svg">
    <circle cx="486" cy="867.6" r="88.6"></circle>
    <path d="M956.5 393.5C696.8 133.4 275.4 133 15.3 392.7l-.8.8c-19.4 19.6-19.3 51.3.3 70.7 19.5 19.3 50.9 19.3 70.4 0 220.7-221.1 578.7-221.4 799.8-.7l.7.7c19.5 19.5 51.2 19.6 70.8 0 19.5-19.5 19.5-51.2 0-70.7z"></path>
    <path d="M663.1 427c-175.8-71.4-377.3-30.6-511.3 103.7-19.5 19.5-19.5 51.2 0 70.7s51.2 19.5 70.7 0c145.3-145.3 380.8-145.3 526.1 0 19.6 19.4 51.3 19.3 70.7-.3 19.3-19.5 19.3-50.9 0-70.4-44.6-44.7-97.7-80-156.2-103.7z"></path>
    <path d="M485.5 586.5c-73.8-.2-144.5 29.1-196.5 81.4-19.4 19.6-19.3 51.3.3 70.7 19.5 19.3 50.9 19.3 70.4 0 69.5-69.5 182.2-69.5 251.6 0 19.6 19.4 51.3 19.3 70.7-.3 19.3-19.5 19.3-50.9 0-70.4-52-52.3-122.8-81.6-196.5-81.4z"></path>
</svg>