<svg xmlns="http://www.w3.org/2000/svg" viewBox="0 0 1000 1200" class="cf-icon-svg">
    <path d="M500 105.2c-276.1 0-500 223.9-500 500s223.9 500 500 500 500-223.9 500-500-223.9-500-500-500zm.4 817.1c-39.2 0-70.9-31.8-70.9-70.9s31.8-70.9 70.9-70.9c39.2 0 70.9 31.8 70.9 70.9 0 39.2-31.7 70.9-70.9 70.9zm153.4-177.7c-13.7 13.7-35.8 13.7-49.5 0-57.6-57.6-150.9-57.6-208.5 0-13.7 13.7-35.8 13.7-49.5 0s-13.7-35.8 0-49.5c84.9-84.9 222.6-84.9 307.5 0 13.6 13.7 13.6 35.8 0 49.5zm109.8-109.8c-13.7 13.7-35.8 13.7-49.5 0-118.2-118.2-309.9-118.2-428.2 0-13.7 13.7-35.8 13.7-49.5 0s-13.7-35.8 0-49.5c145.4-145.6 381.2-145.7 526.8-.4l.4.4c13.7 13.7 13.7 35.8 0 49.5zm85.1-99.6c-9.3 0-18.2-3.7-24.8-10.2-178.6-178.9-468.3-179.2-647.2-.6l-.6.6c-13.7 13.7-35.8 13.7-49.5 0-13.7-13.7-13.7-35.8 0-49.5 205.9-206.2 540-206.5 746.2-.6l.6.6c13.7 13.7 13.7 35.8 0 49.5-6.5 6.6-15.4 10.3-24.7 10.2z"></path>
</svg>