<svg xmlns="http://www.w3.org/2000/svg" viewBox="0 0 1000 1200" className="cf-icon-svg"><path d="M449.1 703.4H487v189.5h-37.9v-20.8c-6.2 7-13.6 13-21.8 17.7-6.7 3.8-14.3 5.9-22 6-8.8 0-15.4-2.8-19.8-8.4-4.5-5.8-6.6-14.1-6.6-25.4V703.4h37.9v145.5c0 4.4.8 7.7 2.3 9.6s4.2 3 7.8 3c2.7 0 6.2-1.3 10.5-4 4.4-2.7 8.4-6.1 11.7-10.1v-144zm-217.9-30h44.2v219.5h42.7V673.5h44.1v-37.4h-131v37.3zm262.2-182.3c5.8 0 10.5-1.5 13.8-4.7s5.1-7.7 5.1-13.2V359.4c.1-4.3-1.8-8.4-5.2-11.1-3.4-2.8-8-4.2-13.7-4.2-5.1 0-9.4 1.4-12.6 4.2-3.3 2.7-5.1 6.8-4.9 11.1v113.8c0 5.7 1.5 10.1 4.6 13.2s7.2 4.7 12.9 4.7zM615 713.3c6.4 8 9.5 19.8 9.5 35.4v105.2c0 13.4-3 23.7-8.9 30.9s-14.6 10.7-25.7 10.7c-6.8.1-13.6-1.3-19.8-4.1-6.2-3.1-11.8-7.5-16.2-12.9V893h-38.3V636.1h38.3v82.8c4.5-5.4 10-9.8 16.2-13.2 5.4-2.9 11.4-4.5 17.5-4.6 11.9 0 21 4.1 27.4 12.2zm-29.6 37.5c0-6.4-1.3-11.2-3.9-14.6s-6.7-4.9-11.8-4.9c-2.8 0-5.5.7-8 1.9-2.9 1.5-5.5 3.5-7.8 5.8v118c2.6 2.8 5.6 5 9 6.6 2.8 1.3 6 2.1 9.1 2.1 4.7 0 8-1.3 10.2-4s3.2-6.9 3.2-13v-97.9zm156.5-37.7c9.3 9.6 13.9 23.4 13.9 41.3v48.4h-72.4v35.6c0 10.1 1.2 17 3.7 20.8s6.8 5.7 12.8 5.7c6.3 0 10.7-1.7 13.2-4.9s3.7-10.5 3.7-21.6v-8.6h38.9v9.7c0 19.5-4.6 34.1-14.2 44s-23.6 14.7-42.5 14.7c-17 0-30.4-5.3-40.1-15.7s-14.7-24.7-14.7-43v-85.2c0-16.3 5.4-29.8 16.2-40.1s24.4-15.5 41.4-15.5c17.4.1 30.8 4.8 40.1 14.4zm-25 41c0-7.9-1.3-13.7-3.9-17-2.6-3.6-6.9-5.2-12.7-5.2-6.1 0-10.3 1.7-13 5.2-2.7 3.2-3.9 9-3.9 17v19.2h33.4l.1-19.2zM1000 105.2v1000H0v-1000h1000zM590.4 487.7c0 12.5 2.5 21.8 7.4 28s12.5 9.4 22.4 9.4c8 0 16.2-2.3 24.7-6.6s16.7-11 24.5-19.5v23h42.7V313.2h-42.7v158.4c-3.8 4.4-8.2 8.2-13.1 11.4-4.8 2.9-8.8 4.4-11.9 4.4-4 0-6.9-1.2-8.7-3.4s-2.8-5.7-2.8-10.7v-160h-42.5v174.4zm-158.5-18.5c0 17.8 5.7 31.8 16.8 42.4 11.1 10.4 26.1 15.6 44.7 15.6 19.4 0 34.6-5 45.7-15.1s16.5-24.1 16.5-42.1V362.2c0-16-5.7-29-16.8-39.1S513.2 308 495.5 308c-19.4 0-34.8 4.9-46.3 14.4S432 344.9 432 361v108.2zM267.5 239.1l57.1 170.8V522h48V404.6l55.9-165.5h-48.7l-29.7 113h-3l-31.2-113h-48.4zm606.9 485.6c0-75.5-61.2-136.8-136.7-136.8H262.4c-75.5 0-136.7 61.2-136.8 136.7v110c0 75.5 61.2 136.8 136.7 136.8h475.2c75.5 0 136.7-61.2 136.8-136.8V724.7z"/></svg>